<svg width="28" height="28" viewBox="0 0 28 28" fill="none" xmlns="http://www.w3.org/2000/svg">
<path d="M0 14C0 21.7195 6.28048 28 14 28C21.7195 28 28 21.7195 28 14C28 6.28048 21.7195 2.38419e-07 14 2.38419e-07C6.28048 2.38419e-07 0 6.28048 0 14ZM15.0769 8.61538V12.9231H19.3846C19.6702 12.9231 19.9442 13.0365 20.1461 13.2385C20.3481 13.4405 20.4615 13.7144 20.4615 14C20.4615 14.2856 20.3481 14.5595 20.1461 14.7615C19.9442 14.9635 19.6702 15.0769 19.3846 15.0769H15.0769V19.3846C15.0769 19.6702 14.9635 19.9442 14.7615 20.1461C14.5595 20.3481 14.2856 20.4615 14 20.4615C13.7144 20.4615 13.4405 20.3481 13.2385 20.1461C13.0365 19.9442 12.9231 19.6702 12.9231 19.3846V15.0769H8.61538C8.32977 15.0769 8.05585 14.9635 7.85389 14.7615C7.65192 14.5595 7.53846 14.2856 7.53846 14C7.53846 13.7144 7.65192 13.4405 7.85389 13.2385C8.05585 13.0365 8.32977 12.9231 8.61538 12.9231H12.9231V8.61538C12.9231 8.32977 13.0365 8.05585 13.2385 7.85388C13.4405 7.65192 13.7144 7.53846 14 7.53846C14.2856 7.53846 14.5595 7.65192 14.7615 7.85388C14.9635 8.05585 15.0769 8.32977 15.0769 8.61538Z" fill="#363B53"/>
</svg>
