<svg width="701" height="701" viewBox="0 0 701 701" fill="none" xmlns="http://www.w3.org/2000/svg">
<g clip-path="url(#clip0_1159_703)">
<path d="M0 45C0 20.1472 20.1472 0 45 0H656C680.853 0 701 20.1472 701 45V656C701 680.853 680.853 701 656 701H45C20.1472 701 0 680.853 0 656V45Z" fill="url(#paint0_linear_1159_703)"/>
<path d="M321.573 195.076C316.069 194.363 267.217 194.363 258.452 195.076C258.302 195.109 258.169 195.197 258.081 195.323C257.993 195.449 257.956 195.603 257.976 195.756C258.008 195.869 258.068 195.973 258.151 196.056C258.235 196.14 258.338 196.2 258.452 196.231C266.334 196.911 315.967 197.216 321.403 196.503C322.184 196.435 322.422 195.178 321.573 195.076ZM551.057 280.075C550.377 280.075 541.646 283.167 543.956 284.424L546.403 286.462C545.859 287.685 551.193 293.256 547.524 306.37C545.995 305.317 545.961 306.37 546.165 306.71C551.838 312.553 592.367 344.997 601.404 350.874C602.219 352.063 607.383 349.515 608.198 349.243C626.147 341.591 643.669 332.972 660.686 323.424C666.903 320.027 666.835 307.831 659.293 303.041C651.36 297.765 643.099 292.999 634.561 288.772L645.092 280.517C645.84 279.939 645.432 277.799 642.579 280.109C636.433 270.18 633.946 258.417 635.546 246.85C635.954 246.612 640.506 243.894 638.502 243.011C628.31 238.765 594.541 226.365 584.146 225.719C580.749 225.481 553.571 247.224 551.023 251.606C545.587 260.677 547.252 271.038 551.227 280.177L551.057 280.075ZM548.339 306.879C551.736 303.176 550.683 293.019 549.052 288.534C553.707 292.271 591.11 320.468 603.001 328.01C609.421 341.599 602.253 348.19 602.491 349.209C582.583 335.382 566.378 319.585 548.339 306.879V306.879ZM659.055 305.351C664.729 308.272 663.438 320.434 659.361 321.861C640.88 331.747 622.603 340.648 603.51 349.039C606.018 345.656 607.386 341.564 607.417 337.353L633.576 326.617C634.051 326.38 633.576 325.734 633.202 325.836C624.419 328.772 615.82 332.232 607.451 336.198C607.385 332.896 606.358 329.684 604.495 326.957C612.479 323.798 653.28 302.633 659.055 305.351V305.351ZM602.423 270.835C612.418 262.558 622.876 254.857 633.746 247.767C632.953 251.898 632.804 256.127 633.304 260.303C631.639 260.847 611.052 275.931 609.999 276.746C609.557 277.086 609.999 277.799 610.542 277.527L633.542 261.9C634.255 266.69 637.143 277.595 641.593 280.551C637.075 284.22 614.721 301.919 609.286 301.919C605.21 297.988 602.39 292.938 601.181 287.406C599.972 281.874 600.428 276.108 602.491 270.835H602.423ZM597.973 241.516C600.351 243.555 590.499 249.296 590.125 249.398C589.004 249.738 588.257 248.583 590.669 246.273C591.892 245.219 596.376 240.259 597.973 241.55V241.516ZM579.458 247.19C581.156 243.793 588.223 238.153 591.212 236.115C591.359 236.012 591.525 235.94 591.701 235.901C591.876 235.863 592.057 235.859 592.234 235.891C592.41 235.922 592.579 235.988 592.73 236.085C592.881 236.182 593.012 236.307 593.115 236.455C593.217 236.602 593.29 236.768 593.328 236.943C593.367 237.118 593.37 237.299 593.339 237.476C593.307 237.653 593.241 237.821 593.144 237.973C593.048 238.124 592.922 238.254 592.775 238.357C590.125 240.395 582.923 247.156 580.918 248.549C580.768 248.632 580.598 248.676 580.426 248.676C580.254 248.676 580.084 248.632 579.933 248.549C579.814 248.494 579.707 248.416 579.618 248.319C579.53 248.223 579.461 248.11 579.417 247.986C579.373 247.863 579.354 247.732 579.361 247.601C579.367 247.47 579.401 247.342 579.458 247.224V247.19ZM554.522 253.067C569.096 257.022 583.414 261.866 597.395 267.573C598.278 268.015 597.973 269.51 596.92 269.306C582.355 265.248 568.049 260.313 554.08 254.528C553.925 254.441 553.804 254.303 553.737 254.138C553.671 253.973 553.663 253.79 553.714 253.62C553.766 253.45 553.874 253.302 554.021 253.201C554.168 253.101 554.344 253.053 554.522 253.067ZM552.008 281.706C568.213 290.844 598.38 302.463 609.761 304.162C612.037 304.501 630.518 291.524 633.542 289.316C635.512 291.252 651.921 300.527 656.1 303.108C650.052 303.414 606.16 323.866 603.001 325.87C584.146 311.771 564.578 297.469 545.247 284.05L552.042 281.706H552.008ZM321.573 195.076H321.607H321.573ZM376.744 130.325C376.537 130.24 376.305 130.24 376.099 130.325C374.094 131.548 362.51 147.311 360.165 150.266C357.923 147.209 355.647 144.185 353.371 141.23C352.929 140.686 352.012 141.23 352.352 141.943C354.628 145.578 357.074 149.077 359.554 152.577C359.962 153.12 360.743 152.848 361.083 152.407C363.223 149.689 376.846 133.246 377.423 131.378C377.448 131.264 377.451 131.146 377.43 131.032C377.409 130.917 377.366 130.808 377.303 130.71C377.24 130.612 377.158 130.527 377.062 130.461C376.966 130.395 376.858 130.349 376.744 130.325V130.325ZM311.959 201.667C291.575 202.074 268.983 201.667 260.219 202.414C260.038 202.414 259.866 202.486 259.738 202.613C259.611 202.741 259.539 202.913 259.539 203.094C259.539 203.274 259.611 203.447 259.738 203.574C259.866 203.701 260.038 203.773 260.219 203.773C270.75 203.773 303.533 204.86 311.959 203.06C312.672 202.89 312.536 201.871 311.959 201.667V201.667ZM312.706 167.524C313.385 167.524 313.589 166.369 312.706 166.267C305.911 165.248 265.145 167.253 255.259 168.781C255.078 168.781 254.906 168.853 254.778 168.98C254.651 169.108 254.579 169.281 254.579 169.461C254.579 169.641 254.651 169.814 254.778 169.941C254.906 170.069 255.078 170.14 255.259 170.14C268.576 170.14 298.845 168.068 312.536 167.592L312.706 167.524ZM299.185 174.319C299.762 174.319 300.068 173.164 299.185 172.96C295.788 172.111 261.815 172.96 256.685 173.538C256.605 173.55 256.527 173.578 256.457 173.621C256.388 173.664 256.327 173.72 256.28 173.787C256.232 173.853 256.199 173.928 256.181 174.008C256.163 174.088 256.161 174.171 256.176 174.251C256.194 174.383 256.253 174.506 256.344 174.604C256.436 174.701 256.555 174.768 256.685 174.795C263.242 175.168 295.176 175.406 299.185 174.319ZM371.614 193.004C373.483 190.286 352.997 191.271 352.114 192.188C351.231 193.106 352.114 207.068 352.114 208.359C352.114 210.364 371.105 210.33 371.852 209.752C372.7 204.224 372.7 198.6 371.852 193.072L371.614 193.004ZM370.153 208.223C368.353 208.223 355.002 208.461 353.915 207.612C353.915 202.822 353.609 198.066 353.439 193.31H370.425C369.814 198.258 369.723 203.256 370.153 208.223V208.223Z" fill="black"/>
<path d="M611.12 287.413C615.876 284.593 620.734 281.842 625.32 278.784C625.966 278.343 625.32 277.187 624.573 277.595L610.61 286.632C610.532 286.709 610.482 286.811 610.47 286.92C610.458 287.029 610.485 287.139 610.545 287.231C610.605 287.324 610.695 287.392 610.8 287.425C610.905 287.458 611.018 287.454 611.12 287.413ZM576.876 324.715C576.468 324.443 575.924 325.089 576.332 325.428C579.729 328.384 596.444 340.07 600.113 342.652C600.588 342.992 600.996 342.211 600.554 341.871C593.42 336.435 584.452 329.267 576.876 324.715V324.715ZM356.802 181.181C358.569 181.181 372.395 182.778 372.26 180.502C372.124 178.226 371.92 165.146 371.037 164.739C370.799 162.462 353.575 164.127 351.978 164.433C350.993 164.433 351.401 177.682 351.468 179.279C351.57 181.589 355.273 181.113 356.802 181.181V181.181ZM370.153 165.52V179.822C364.431 179.234 358.67 179.12 352.929 179.483C353.154 174.828 353.064 170.163 352.657 165.52C355.477 165.52 368.353 165.962 370.153 165.52V165.52ZM599.365 336.13C599.451 336.202 599.559 336.241 599.671 336.241C599.783 336.241 599.891 336.202 599.977 336.13C600.044 336.055 600.081 335.958 600.081 335.858C600.081 335.758 600.044 335.661 599.977 335.586C584.418 324.545 568.96 311.262 553.673 300.9C553.231 300.561 552.551 301.206 552.993 301.648C561.554 309.801 588.29 328.826 599.501 336.3L599.365 336.13ZM642.884 316.63H642.952H642.884ZM372.192 142.385C372.144 142.233 372.04 142.106 371.901 142.03C371.761 141.953 371.597 141.935 371.444 141.977C371.342 142.001 371.247 142.052 371.17 142.123C371.093 142.194 371.035 142.285 371.003 142.385V154.275H352.182C351.852 148.8 351.24 143.346 350.347 137.934C355.661 138.181 360.986 138.045 366.28 137.527C366.4 137.488 366.502 137.41 366.57 137.305C366.638 137.199 366.668 137.074 366.654 136.949C366.635 136.877 366.6 136.809 366.554 136.751C366.507 136.692 366.449 136.644 366.382 136.609C365.125 136.202 349.396 134.843 349.872 137.561C348.309 137.561 350.585 154.547 350.585 154.547C351.401 156.619 354.832 155.906 356.632 155.906C358.433 155.906 370.935 156.212 371.954 155.906C373.585 155.26 372.667 144.389 372.294 142.317L372.192 142.385Z" fill="black"/>
<path d="M700.467 450.583C657.187 453.233 613.894 455.498 570.591 457.377C570.025 451.182 568.888 445.052 567.194 439.066C610.225 437.934 653.257 436.609 696.289 435.091C696.508 435.065 696.713 434.967 696.872 434.814C697.032 434.661 697.137 434.46 697.172 434.242C697.201 433.977 697.125 433.711 696.959 433.501C696.794 433.292 696.554 433.155 696.289 433.121C653.076 434.729 609.874 436.054 566.684 437.096C556.492 401.561 534.988 367.758 509.916 340.988C509.135 331.951 509.101 327.399 505.228 318.328C497.754 301.172 489.499 297.605 489.702 301.682C489.7 302.755 489.872 303.822 490.212 304.841C488.853 303.142 478.865 292.747 476.827 298.352C475.324 297.407 473.627 296.812 471.863 296.612C470.098 296.412 468.312 296.612 466.635 297.197C460.282 287.006 449.649 287.006 442.854 283.608C429.877 276.814 435.856 255.139 445.402 247.054C445.402 247.054 486.407 246.273 486.441 245.763C487.188 236.149 495.376 89.8294 495.376 89.8294C394.342 87.825 285.63 89.8294 185.343 91.8677C184.664 91.8677 184.086 92.3094 184.154 92.9209C190.201 144.389 205.047 249.738 205.047 249.738C207.493 250.723 429.571 247.258 442.854 247.054C437.174 253.25 434.064 261.376 434.157 269.781C434.837 291.184 451.857 282.079 465.786 297.741C456.749 301.614 455.594 313.062 458.991 321.25C459.609 322.819 460.443 324.295 461.471 325.632C461.614 328.825 462.523 331.936 464.121 334.703C468.47 342.958 476.215 345.812 476.623 347.035C476.623 366.263 480.666 389.704 484.505 408.457C471.561 401.663 433.172 385.458 393.696 384.303C395.938 364.836 412.755 362.39 410.445 349.379C417.477 349.107 424.509 348.835 431.542 348.496C433.308 348.496 431.372 343.06 431.168 342.143C428.314 329.573 425.449 317.026 422.573 304.501C422.131 302.803 420.161 291.388 418.496 291.388L396.584 291.796C391.76 287.209 380.447 285.511 375.827 290.844C369.032 277.765 348.037 279.667 347.358 292.373C341.616 288.466 333.089 287.685 327.892 292.985C327.348 293.222 224.581 294.615 209.294 295.227H209.022C208.857 295.332 208.739 295.497 208.695 295.688C208.65 295.878 208.682 296.079 208.784 296.246C209.056 298.013 200.189 339.935 199.136 350.024C199.136 351.451 214.525 351.247 216.122 351.247C194.176 376.965 174.438 405.977 168.561 439.916C131.531 439.338 94.5008 438.421 57.4708 438.557C57.2906 438.557 57.1178 438.628 56.9904 438.756C56.863 438.883 56.7914 439.056 56.7914 439.236C56.7914 439.416 56.863 439.589 56.9904 439.716C57.1178 439.844 57.2906 439.916 57.4708 439.916C94.3309 441.512 131.293 441.682 168.187 441.954C167.088 448.69 166.633 455.515 166.828 462.337C130.138 461.59 93.4476 460.435 56.7914 459.823C55.976 459.823 55.8401 461.114 56.7914 461.114C93.4816 462.983 130.24 463.662 166.998 464.206C167.949 482.653 175.219 505.278 193.293 513.568C200.733 528.176 216.496 541.323 234.06 537.552C233.55 540.202 233.074 542.92 232.565 545.638C232.361 546.861 234.196 547.37 234.399 546.147C239.393 519.241 244.591 492.199 253.322 466.244C253.594 465.429 252.371 465.123 252.065 465.904C243.572 488.462 238.782 512.175 234.365 535.786C216.394 538.402 202.058 526.953 194.618 511.461C190.615 503.276 188.3 494.369 187.809 485.27C187.319 476.171 188.664 467.067 191.764 458.498C201.038 434.718 225.736 417.731 249.993 406.113C274.656 394.425 301.143 387.059 328.299 384.337C330.236 402.478 351.095 408.627 366.994 407.676C382.893 406.724 392.303 401.866 393.662 385.831C393.866 385.831 451.042 387.088 500.404 420.076C514.91 429.758 528.091 442.192 535.803 457.989C543.345 473.242 545.995 491.961 539.2 507.86C529.484 531.03 511.75 534.393 499.996 536.465C495.84 511.589 487.816 487.517 476.215 465.123C475.91 464.546 474.958 464.919 475.264 465.531C487.362 491.618 495.613 519.322 499.758 547.778C499.758 548.661 501.525 548.899 501.525 547.778C501.387 544.668 500.978 541.576 500.302 538.538C513.114 537.435 524.976 531.333 533.323 521.551C560.501 514.757 572.357 485.371 570.693 459.484C614.087 457.717 657.436 455.452 700.739 452.689C701.928 452.247 701.487 450.583 700.467 450.583V450.583ZM205.183 228.267C198.389 185.054 192.987 142.045 186.838 98.7981C288.755 97.0315 393.323 97.7789 493.847 96.0803L485.999 223.511C443.568 224.802 210.653 226.127 205.183 228.267ZM410.037 347.476C409.415 345.665 408.223 344.104 406.64 343.026C408.401 340.225 409.353 336.992 409.391 333.684H411.226L413.774 347.273L410.037 347.476ZM407.183 322.575C407.765 322.106 408.299 321.583 408.78 321.012C409.595 324.647 410.275 328.282 410.954 331.917H409.324C409.49 328.665 408.749 325.43 407.183 322.575V322.575ZM430.42 346.593L414.793 347.273C414.385 342.686 413.502 338.168 412.687 333.684C417.571 333.846 422.46 333.721 427.329 333.31C428.348 337.692 429.401 342.177 430.42 346.593ZM427.023 331.747H412.415L409.969 319.008L424.068 318.6L427.023 331.747ZM423.626 317.139L410.343 317.547C410.598 315.936 410.483 314.288 410.006 312.728C409.529 311.168 408.703 309.737 407.591 308.544C407.387 307.525 407.183 306.472 406.911 305.419L420.908 305.113L423.626 317.139ZM418.428 292.883C419.176 296.28 419.855 299.915 420.534 303.448L406.572 303.686C405.859 300.114 404.94 296.586 403.82 293.121L418.428 292.883ZM405.587 307.287C403.933 306.535 402.064 306.403 400.321 306.913C400.477 306.493 400.601 306.061 400.695 305.622H405.179L405.587 307.287ZM402.189 293.155C402.826 296.721 403.666 300.249 404.703 303.72H400.932C401.321 299.956 400.278 296.184 398.011 293.155H402.189ZM319.942 294.615H326.499C325.114 296.756 324.626 299.355 325.14 301.851L319.364 303.516C319.636 300.594 319.942 297.333 319.942 294.615V294.615ZM318.107 294.615V304.094C317.532 304.436 316.976 304.81 316.443 305.215L300.374 305.487C300.522 301.962 300.42 298.431 300.068 294.921L318.107 294.615ZM310.973 319.245H300.272V307.355L314.201 307.117C312.727 308.73 311.665 310.675 311.103 312.786C310.541 314.898 310.497 317.113 310.973 319.245V319.245ZM300.34 334.975H309.614C309.746 337.939 310.843 340.778 312.74 343.06C311.619 343.835 310.717 344.887 310.122 346.113C309.527 347.339 309.258 348.698 309.343 350.058H300.17C300.272 344.962 300.34 339.969 300.34 334.975ZM310.532 330.864C310.234 331.573 310.017 332.314 309.886 333.072H300.51V320.808H311.483C312.221 322.836 313.545 324.598 315.288 325.87C313.165 326.969 311.45 328.719 310.396 330.864H310.532ZM299.151 350.024H257.059C257.501 344.181 257.059 340.512 260.83 335.484L298.777 335.043C298.743 340.036 298.845 345.03 299.015 350.024H299.151ZM262.223 333.616C265.758 330.042 268.43 325.708 270.036 320.944H278.53V333.412L262.223 333.616ZM280.704 295.295L298.505 294.989C298.314 298.508 298.314 302.035 298.505 305.554L280.602 305.86C280.602 302.361 280.636 298.828 280.704 295.295ZM280.466 307.729L298.437 307.423V319.313H280.228C280.228 315.44 280.228 311.602 280.466 307.729V307.729ZM280.228 320.91H298.607V333.174L279.481 333.412C279.753 329.233 279.956 325.191 280.228 320.91V320.91ZM263.242 295.601L279.515 295.329L279.141 305.894L262.563 306.166C262.966 302.66 263.091 299.127 262.936 295.601H263.242ZM262.427 308L279.107 307.729L278.801 319.279H270.478C270.886 317.411 271.633 314.353 269.425 313.334C267.217 312.315 265.11 317.411 261.034 319.245C261.407 315.508 261.747 311.771 262.121 308.034L262.427 308ZM247.886 295.872L261.917 295.635C261.432 299.138 261.125 302.665 261 306.2H259.845C261.306 302.633 253.424 300.323 246.629 306.2C246.731 304.467 247.683 297.027 247.581 295.872H247.886ZM260.558 308.204C260.32 311.907 260.117 315.576 259.879 319.279H254.579C253.56 316.29 254.579 309.257 257.297 308.204H260.49H260.558ZM245.848 295.974L245.305 306.506H238.952C236.438 301.274 238.034 297.299 235.554 296.042L245.848 295.974ZM244.489 308.408C243.706 309.389 243.044 310.461 242.519 311.602L240.005 308.51L244.489 308.408ZM222.781 296.416L233.686 296.212C230.289 297.843 229.779 303.618 229.779 306.777H224.649C222.917 305.283 222.169 306.777 220.878 306.777L222.713 296.212L222.781 296.416ZM230.323 313.674C228.437 312.416 226.905 310.697 225.872 308.68H229.711C229.752 310.354 229.911 312.023 230.187 313.674H230.323ZM219.078 318.77L220.708 308.782C220.368 312.23 220.797 315.711 221.965 318.974L219.078 318.77ZM222.475 320.434C223.868 325.089 225.872 329.335 226.823 334.023L216.632 334.227L218.67 320.4L222.475 320.434ZM210.143 296.45H221.286C220.641 299.847 220.029 303.516 219.417 307.083C215.714 307.083 211.978 307.287 208.275 307.457C209.075 303.826 209.653 300.151 210.007 296.45H210.143ZM208.037 308.85H219.078C218.568 312.247 218.025 315.644 217.481 318.804H206.1C206.678 315.406 207.289 312.111 207.901 308.85H208.037ZM205.964 319.993C209.701 320.197 213.438 320.298 217.175 320.366C216.53 324.953 215.782 329.607 215.171 334.227C211.196 334.227 207.221 334.499 203.247 334.669C204.164 329.777 205.047 324.885 205.964 319.993V319.993ZM213.608 349.447H200.495C201.344 344.895 202.227 340.376 203.145 335.858L214.933 336.164C214.216 340.563 213.729 344.997 213.472 349.447H213.608ZM214.559 349.447L216.564 335.858H227.129C227.231 336.761 227.231 337.673 227.129 338.576L217.583 349.481L214.559 349.447ZM191.424 453.844C187.451 462.898 185.464 472.698 185.599 482.585C185.734 492.471 187.987 502.214 192.206 511.156C159.32 488.938 166.319 439.814 180.315 408.423C191.764 382.706 209.905 360.862 228.488 339.901C231.206 336.809 222.407 316.12 222.101 311.058C221.897 307.287 223.46 306.506 224.853 309.189C226.246 311.873 228.25 314.931 231.002 315.576C232.089 318.77 232.939 317.751 232.803 317.241C231.648 311.636 229.643 303.652 233.38 298.488C236.098 294.887 235.996 301.512 236.268 302.803C236.913 305.894 239.665 311.873 242.145 312.994C241.296 315.406 242.723 314.557 242.825 314.251C247.649 301.58 262.393 303.38 257.637 306.506C256.382 307.254 255.317 308.28 254.522 309.506C253.727 310.731 253.223 312.122 253.05 313.572C251.318 325.564 260.762 323.764 267.624 315.406C270.478 312.009 270.614 319.313 266.096 326.685C262.257 332.936 257.059 335.178 256.447 343.366C254.749 363.376 250.638 387.258 247.886 404.856C225.329 415.761 202.261 430.505 191.288 453.878L191.424 453.844ZM249.653 403.939C252.97 386.665 255.34 369.222 256.753 351.689H309.445C311.415 363.07 325.547 364.599 327.824 382.264C300.71 384.915 274.261 392.249 249.653 403.939V403.939ZM393.085 376.523C392.239 379.195 391.692 381.952 391.454 384.744C390.095 399.149 383.98 403.939 367.979 405.128C350.993 406.521 332.58 401.153 329.998 382.842C327.722 366.535 322.49 367.962 314.099 356.547C311.585 353.15 309.343 346.831 314.099 344.181C316.435 346.748 319.362 348.707 322.626 349.888C329.964 366.365 332.444 385.356 353.779 387.462C395.021 391.301 385.781 368.845 398.86 349.243C401.403 348.067 403.706 346.432 405.654 344.419C407.138 345.659 408.161 347.361 408.562 349.252C408.962 351.143 408.716 353.114 407.863 354.848C404.533 362.9 396.516 365.957 393.085 376.523V376.523ZM477.268 300.323C478.423 302.905 479.613 305.453 480.666 308.034C479.001 305.894 470.848 296.993 468.13 301.75C466.737 304.23 469.659 307.933 470.848 310.141C466.288 310.948 462.213 313.478 459.467 317.207C455.118 301.41 470.474 293.528 477.268 300.323ZM461.913 323.458C461.267 321.861 460.588 320.231 459.909 318.634C462.89 315.143 466.896 312.682 471.357 311.602C473.268 315.547 474.508 319.784 475.026 324.137C475.943 332.834 469.285 326.617 466.058 323.628C464.801 322.337 462.694 321.793 461.743 323.458H461.913ZM535.463 518.494C546.708 502.731 547.184 482.381 540.661 464.579C531.421 439.406 509.44 421.774 486.305 409.442C481.857 388.899 478.972 368.048 477.676 347.069C477.676 343.875 466.873 341.701 463.51 329.165C462.898 326.889 461.641 320.91 465.752 325.191C469.862 329.471 476.861 333.412 476.555 324.035C476.147 312.926 468.605 305.52 469.285 303.007C470.134 299.847 476.419 305.792 477.438 306.811C480.094 309.733 482.503 312.869 484.64 316.188C485.014 316.731 485.931 316.188 485.592 315.678C484.799 314.319 483.984 312.96 483.146 311.602C483.689 310.446 477.574 299.643 478.661 298.624C479.748 297.605 484.64 301.138 485.728 302.021C491.401 306.947 491.673 310.243 493.609 312.791C493.697 312.822 493.793 312.822 493.881 312.791C494.002 312.8 494.122 312.764 494.217 312.688C494.311 312.612 494.374 312.503 494.391 312.383C494.187 310.209 492.93 308.986 492.318 307.491C491.707 305.996 490.45 302.633 491.299 301.444C491.707 301.104 494.051 302.837 494.323 303.108C496.564 305.255 498.435 307.758 499.86 310.514C510.256 328.282 507.13 339.731 508.897 341.463C534.682 370.51 562.234 413.043 567.805 451.432C571.576 478.067 563.185 509.117 535.293 518.494H535.463Z" fill="black"/>
<path d="M289.061 148.534C289.843 148.296 289.537 147.175 288.823 147.073C276.457 147.311 263.31 147.073 251.114 147.413C250.163 147.413 250.299 148.873 251.114 149.009C257.365 150.029 283.626 150.198 289.061 148.534ZM613.396 330.218C618.016 328.214 640.574 319.109 643.258 317.581C643.309 317.536 643.349 317.481 643.377 317.42C643.405 317.358 643.419 317.291 643.419 317.224C643.419 317.157 643.405 317.09 643.377 317.028C643.349 316.967 643.309 316.912 643.258 316.867C643.203 316.785 643.126 316.719 643.036 316.677C642.946 316.635 642.847 316.619 642.748 316.629C637.041 317.819 618.56 326.617 612.819 329.471C612.513 329.709 612.921 330.422 613.396 330.218V330.218ZM385.543 250.451L313.521 251.538C316.613 286.462 386.46 287.005 385.543 250.451ZM385.543 175.712C385.543 175.859 385.599 176.001 385.7 176.109C385.801 176.216 385.939 176.281 386.086 176.289C397.603 176.561 421.961 177.274 431.168 176.017C431.915 176.017 431.678 174.761 431.168 174.761C418.156 174.761 399.37 174.761 386.256 175.134C386.17 175.113 386.08 175.113 385.993 175.132C385.907 175.152 385.826 175.191 385.757 175.247C385.688 175.302 385.633 175.373 385.596 175.454C385.558 175.535 385.54 175.623 385.543 175.712V175.712ZM287.023 124.753C287.974 124.753 287.566 123.394 286.785 123.258C263.378 123.938 237.899 124.447 215.069 124.957C214.993 124.969 214.92 124.997 214.854 125.038C214.789 125.079 214.732 125.133 214.688 125.196C214.643 125.259 214.612 125.331 214.596 125.407C214.58 125.482 214.579 125.56 214.594 125.636C214.613 125.755 214.67 125.865 214.755 125.951C214.84 126.036 214.95 126.092 215.069 126.112C231.682 127.301 265.45 125.5 287.023 124.753V124.753ZM300.102 116.973C300.884 116.973 301.121 115.614 300.102 115.513C292.492 114.595 217.447 115.818 212.215 116.973C211.706 116.973 211.74 117.993 212.215 117.993C231.478 117.959 277.646 116.634 300.102 116.973ZM152.424 359.639V359.605V359.639ZM153.851 360.216C156.468 355.375 158.476 350.229 159.83 344.895C160.462 343.061 160.607 341.095 160.25 339.189C159.892 337.283 159.045 335.503 157.792 334.023C159.025 330.921 159.659 327.612 159.66 324.273C158.981 318.736 153.103 319.075 149.944 323.322C137.204 340.308 123.14 367.486 123.547 388.379C123.31 389.364 123.819 390.486 124.702 389.67C139.785 374.727 150.942 356.288 157.18 335.994C161.427 342.313 154.87 353.218 152.424 359.605C152.118 360.454 153.409 360.963 153.851 360.216V360.216ZM124.838 386.986C125.088 383.217 125.61 379.47 126.401 375.775L131.633 379.546C129.425 381.992 127.148 384.54 124.838 386.986ZM156.399 332.63C154.098 330.7 151.335 329.4 148.381 328.86C149.516 326.786 150.884 324.848 152.458 323.084C153.987 321.657 156.908 321.08 157.792 323.492C158.091 326.584 157.613 329.703 156.399 332.563V332.63ZM242.859 159.575C241.364 160.186 232.667 173.164 231.07 175.44C229.093 172.813 226.813 170.43 224.276 168.34C224.134 168.274 223.973 168.262 223.823 168.306C223.673 168.349 223.544 168.446 223.46 168.578C223.411 168.709 223.411 168.854 223.46 168.985C225.398 172.157 227.676 175.108 230.255 177.784C230.347 177.886 230.46 177.968 230.586 178.023C230.712 178.079 230.848 178.108 230.985 178.108C231.123 178.108 231.259 178.079 231.385 178.023C231.511 177.968 231.623 177.886 231.716 177.784V177.614L242.859 162.395C244.421 160.186 243.98 158.997 242.859 159.575ZM446.693 141.739C447.407 141.739 447.543 140.38 446.693 140.278C425.497 139.224 404.254 139.531 383.097 141.196C382.383 141.196 382.451 142.453 383.097 142.419C399.132 142.283 429.198 142.792 446.693 141.739Z" fill="black"/>
<path d="M242.859 180.162C244.218 179.619 241.5 169.495 241.126 167.898C241.115 167.827 241.09 167.758 241.052 167.696C241.015 167.635 240.965 167.581 240.907 167.539C240.848 167.496 240.782 167.465 240.712 167.448C240.642 167.431 240.569 167.428 240.498 167.439C240.426 167.451 240.358 167.476 240.296 167.513C240.234 167.551 240.181 167.6 240.138 167.659C240.095 167.717 240.065 167.783 240.048 167.853C240.031 167.924 240.028 167.996 240.039 168.068C240.447 171.703 240.854 175.372 241.534 178.939C235.86 179.381 230.73 179.347 225.193 179.585C224.174 175.168 223.29 169.393 221.796 165.01C226.069 165.37 230.364 165.37 234.637 165.01C237.457 165.01 237.253 163.244 234.841 163.278C233.414 163.278 221.252 163.04 221.252 164.501C219.655 164.501 223.019 178.735 223.223 179.686C223.258 179.856 223.346 180.01 223.474 180.126C223.602 180.242 223.764 180.314 223.936 180.332C224.344 182.098 242.213 181.827 242.859 180.162ZM448.596 168.238C448.566 168.106 448.493 167.987 448.388 167.901C448.284 167.815 448.154 167.766 448.018 167.762C427.431 167.219 405.417 168.204 384.558 168.17C383.946 168.17 383.912 169.189 384.558 169.257C402.835 170.48 431.1 171.227 448.154 168.985C448.308 168.938 448.438 168.835 448.519 168.697C448.601 168.559 448.628 168.395 448.596 168.238V168.238ZM224.412 155.6C229.177 155.733 233.946 155.517 238.68 154.955C241.636 155.702 237.117 137.153 236.574 136.304C236.502 136.144 236.381 136.011 236.228 135.925C236.075 135.839 235.898 135.805 235.724 135.828C232.667 135.828 218.466 135.828 216.462 136.27C214.016 134.299 217.583 151.048 218.093 153.052C219.078 156.415 221.252 155.6 224.412 155.6ZM216.87 137.425C223.138 138.19 229.471 138.281 235.758 137.697L237.933 153.392L220.131 154.309C220.267 153.154 217.277 139.667 216.87 137.425ZM432.493 148.873C432.673 148.873 432.846 148.802 432.973 148.674C433.101 148.547 433.172 148.374 433.172 148.194C433.172 148.014 433.101 147.841 432.973 147.714C432.846 147.586 432.673 147.515 432.493 147.515C428.28 146.665 392.066 147.956 384.558 148.602C383.98 148.602 383.98 149.587 384.558 149.621C388.634 149.791 428.45 149.893 432.493 148.873ZM147.226 256.634C147.872 256.634 152.662 253.916 153.783 258.333C155.346 264.38 161.461 260.745 162.446 256.124C163.703 250.417 158.267 245.933 151.846 245.933C138.801 245.933 141.791 257.246 147.226 256.634ZM151.846 247.258C159.184 247.495 163.703 254.426 159.252 258.503C155.448 261.9 155.855 257.008 154.021 255.105C150.352 251.708 147.43 255.819 145.358 254.086C141.111 250.689 149.231 247.054 151.846 247.258ZM231.41 191.917C226.076 191.917 225.872 191.033 226.552 196.231C226.756 197.692 227.809 208.019 229.575 208.121C229.949 209.752 245.203 209.175 247.139 208.597C249.755 208.597 247.139 200.546 247.139 199.628C244.897 187.806 247.683 191.475 231.41 191.917ZM230.425 207.34C229.575 203.059 228.93 197.386 227.707 193.309C233.269 193.853 238.88 193.647 244.387 192.698C244.733 197.428 245.472 202.121 246.596 206.729C241.296 206.966 235.792 207.238 230.425 207.34ZM453.929 114.969C447.679 114.391 357.652 114.969 346.237 115.852C346.089 115.877 345.957 115.959 345.869 116.079C345.78 116.199 345.741 116.349 345.761 116.498C345.785 116.615 345.843 116.722 345.928 116.807C346.012 116.891 346.12 116.949 346.237 116.973C355.919 117.483 446.999 117.245 453.929 116.464C454.128 116.464 454.318 116.385 454.458 116.245C454.598 116.105 454.677 115.915 454.677 115.716C454.677 115.518 454.598 115.328 454.458 115.188C454.318 115.048 454.128 114.969 453.929 114.969V114.969ZM300.612 139.939C301.393 139.769 301.121 138.716 300.442 138.58L248.838 139.871C248.763 139.879 248.69 139.902 248.625 139.94C248.56 139.977 248.503 140.028 248.458 140.089C248.413 140.149 248.382 140.219 248.365 140.292C248.349 140.366 248.348 140.442 248.362 140.516C248.382 140.635 248.438 140.745 248.524 140.83C248.609 140.916 248.719 140.972 248.838 140.992C261.781 141.943 289.367 142.215 300.612 139.939ZM505.228 235.435C505.466 238.017 508.048 263.768 508.999 265.637C515.793 278.886 540.797 279.226 541.341 259.624C542.292 251.47 545.587 228.063 544.296 222.254C544.67 220.351 546.64 212.062 547.014 207.68C547.014 206.966 548.373 187.568 545.655 190.524C542.028 195.353 538.812 200.478 536.041 205.845C535.565 207.918 535.09 209.956 534.58 211.994C533.077 211.427 531.516 211.029 529.926 210.805C529.926 209.412 528.907 202.618 528.431 199.9C526.087 195.348 523.675 191.271 521.637 186.549C518.749 179.449 518.681 179.313 517.866 187.126C516.504 195.086 516.504 203.219 517.866 211.179C502.476 214.372 504.073 223.443 505.194 235.435H505.228ZM542.394 198.066C542.81 198.468 543.307 198.776 543.852 198.969C544.397 199.162 544.977 199.237 545.553 199.187V207.748C544.122 207.887 542.677 207.736 541.305 207.304C539.934 206.872 538.663 206.168 537.57 205.234C539.234 202.89 540.967 200.478 542.394 198.066ZM537.502 207C539.752 208.6 542.452 209.445 545.213 209.412C544.092 215.731 542.971 222.016 542.088 228.369C540.933 232.514 535.293 234.008 531.624 234.518C533.867 225.549 535.565 215.901 537.502 206.898V207ZM530.707 232.072C530.542 232.925 530.428 233.787 530.368 234.654L522.078 234.858L518.681 202.856C520.217 203.319 521.843 203.401 523.418 203.093C524.993 202.785 526.469 202.097 527.718 201.089C527.718 201.089 529.926 231.562 530.707 231.97V232.072ZM519.089 191.984C519.609 192.12 520.152 192.148 520.684 192.067C521.215 191.985 521.725 191.795 522.18 191.509L526.834 199.866C525.614 200.775 524.2 201.389 522.703 201.66C521.206 201.932 519.667 201.852 518.205 201.429C518.147 198.224 518.443 195.022 519.089 191.883V191.984ZM542.632 231.121C542.02 239.682 540.933 257.755 538.725 265.841C534.818 276.338 517.798 276.508 510.29 265.841C508.863 254.052 507.436 242.06 506.043 230.441C512.396 239.648 537.094 238.527 542.632 231.019V231.121Z" fill="black"/>
<path d="M85.9398 268.559C91.1105 271.259 96.5693 273.367 102.213 274.843C91.3754 289.757 122.392 311.024 150.759 299.677C163.771 294.48 176.782 277.969 164.042 266.52C177.631 255.547 182.422 239.716 181.844 222.356C180.961 195.586 169.138 175.882 142.062 169.529C128.723 166.407 114.744 167.487 102.043 172.62L96.777 163.516C98.4417 162.632 100.174 161.783 101.873 161.036C106.357 159.507 104.998 156.212 102.349 157.197C50.3027 176.187 38.2765 244.642 85.9398 268.559ZM102.62 272.465C101.669 269.068 104.217 265.671 103.028 261.968C100.31 253.169 88.9294 258.265 86.0417 252.32C82.8823 245.831 91.3075 244.71 93.0061 240.056C93.3065 239.241 93.383 238.36 93.2277 237.506C93.0723 236.652 92.6908 235.854 92.1228 235.198C87.2308 229.083 75.918 235.537 79.1453 221.269C81.5913 210.5 91.9869 205.404 99.5288 210.16C107.071 214.916 111.589 218.109 121.135 212.538C137.034 203.196 135.064 222.73 130.206 228.641C127.624 231.834 122.936 231.664 119.335 233.023C107.58 237.44 107.648 245.355 116.957 247.292C120.558 248.039 125.178 247.699 127.998 250.417C135.642 257.857 119.844 273.756 114.85 276.372C112.167 275.829 103.979 274.232 102.62 272.465V272.465ZM145.731 172.518C165.741 178.735 176.307 193.208 179.16 213.897C180.517 222.826 180.182 231.93 178.175 240.735C177.36 241.856 165.877 245.016 162.174 240.259C160.744 238.337 159.79 236.104 159.388 233.742C158.987 231.38 159.15 228.957 159.864 226.671C162.072 220.963 169.58 215.935 167.27 210.092C164.076 202.007 154.734 213.048 150.793 210.771C144.882 207.374 155.957 200.851 143.319 198.507C138.665 197.658 134.86 199.56 131.429 194.431C123.581 182.676 143.999 172.484 145.731 172.416V172.518ZM106.969 187.568C107.115 187.8 107.337 187.974 107.597 188.06C107.857 188.147 108.139 188.141 108.396 188.044C108.69 187.923 108.925 187.692 109.052 187.4C109.179 187.108 109.187 186.779 109.075 186.481L102.892 174.421C115.493 169.368 129.366 168.417 142.538 171.703C125.552 177.309 123.547 196.469 135.743 199.764C138.325 200.478 149.876 199.459 147.872 204.385C147.465 205.184 147.237 206.062 147.203 206.958C147.169 207.854 147.331 208.747 147.677 209.574C148.023 210.401 148.544 211.144 149.206 211.749C149.867 212.355 150.652 212.81 151.507 213.082C156.263 213.931 161.359 206.763 164.858 209.684C170.973 214.78 155.006 222.662 157.724 234.009C159.762 242.706 163.363 245.457 172.196 244.2C174.131 244.034 176.007 243.455 177.699 242.502C170.395 268.083 143.081 279.871 118.112 276.78C123.14 272.16 130.953 262.987 131.701 256.396C132.856 244.71 119.437 247.054 114.511 244.472C107.716 241.075 117.432 235.164 123.649 233.805C125.686 233.469 127.658 232.816 129.493 231.868C139.684 225.617 136.865 200.478 122.087 209.752C109.449 217.668 105.542 210.941 99.6647 207.918C90.2543 203.128 77.3448 210.669 76.6993 224.904C76.3256 234.586 84.3091 232.514 88.9634 235.096C89.7975 235.409 90.4939 236.007 90.9292 236.784C91.3645 237.561 91.5105 238.468 91.3414 239.342C90.2543 242.739 85.3283 243.419 83.9694 247.53C83.4321 249.133 83.4517 250.871 84.0251 252.461C84.5985 254.052 85.6921 255.403 87.1289 256.294C91.5792 258.876 99.4609 256.634 101.329 262.783C102.247 265.773 100.446 268.83 100.65 271.854C91.9823 268.739 84.35 263.278 78.6035 256.08C72.8571 248.882 69.2223 240.229 68.1043 231.087C65.0468 207.986 79.1453 185.53 99.8685 175.712C102.009 179.653 104.693 183.729 106.969 187.568V187.568ZM76.3936 178.498C81.4935 173.209 87.3704 168.73 93.8214 165.214C95.7149 168.119 97.4501 171.125 99.0192 174.217C88.357 179.17 79.4834 187.294 73.6099 197.478C67.7365 207.663 65.1494 219.411 66.2018 231.121C66.91 237.832 69.0137 244.322 72.3777 250.172C75.7417 256.023 80.2918 261.105 85.736 265.093C53.2583 247.054 51.8994 204.52 76.3936 178.498ZM438.982 202.448C436.06 201.803 392.371 201.599 386.188 202.448C386.035 202.448 385.888 202.509 385.78 202.617C385.672 202.726 385.611 202.873 385.611 203.026C385.611 203.179 385.672 203.326 385.78 203.434C385.888 203.542 386.035 203.603 386.188 203.603C388.532 203.943 434.191 204.724 438.982 203.603C439.14 203.568 439.282 203.48 439.383 203.353C439.485 203.227 439.54 203.069 439.54 202.907C439.54 202.744 439.485 202.587 439.383 202.46C439.282 202.334 439.14 202.246 438.982 202.21V202.448ZM453.488 124.311C420.704 124.685 378.341 123.564 348.785 124.311C347.969 124.311 348.037 125.467 348.785 125.535C361.185 126.893 443.5 126.791 453.488 125.535C453.585 125.526 453.679 125.498 453.765 125.452C453.851 125.406 453.926 125.343 453.987 125.266C454.047 125.19 454.092 125.102 454.117 125.008C454.142 124.914 454.148 124.816 454.133 124.719C454.079 124.594 453.988 124.489 453.873 124.416C453.758 124.343 453.624 124.307 453.488 124.311V124.311ZM449.853 195.076C429.979 194.634 405.145 195.857 383.98 195.314C383.369 195.314 383.233 196.197 383.98 196.265C396.992 197.556 437.725 198.847 449.989 196.469C450.634 196.299 450.702 195.076 449.853 195.076V195.076Z" fill="black"/>
</g>
<defs>
<linearGradient id="paint0_linear_1159_703" x1="350.5" y1="0" x2="350.5" y2="701" gradientUnits="userSpaceOnUse">
<stop stop-color="#02ADCE"/>
<stop offset="1" stop-color="#242836"/>
</linearGradient>
<clipPath id="clip0_1159_703">
<path d="M0 45C0 20.1472 20.1472 0 45 0H656C680.853 0 701 20.1472 701 45V656C701 680.853 680.853 701 656 701H45C20.1472 701 0 680.853 0 656V45Z" fill="white"/>
</clipPath>
</defs>
</svg>
