<svg width="350" height="86" viewBox="0 0 350 86" fill="none" xmlns="http://www.w3.org/2000/svg">
<path d="M-0.000228923 36.4129C21.053 12.9472 109.919 -4.94442 169.095 1.39039C233.063 8.11186 267.765 21.9069 334.708 67.7511C334.653 63.3171 334.168 59.6734 334.372 56.4016C334.423 52.6542 334.521 48.6958 335.552 45.1631C335.783 44.1083 338.403 42.6925 339.918 42.8035C341.434 42.9145 343.559 44.9279 343.817 46.09C346.006 57.1822 347.705 68.1671 349.603 79.4167C350.087 83.0604 348.063 85.27 343.669 85.4126C327.013 85.3002 310.31 85.3987 293.455 85.0216C289.644 84.8496 285.421 83.0399 280.523 81.9667C286.429 73.7537 295.013 76.7403 301.889 75.8148C309.055 74.7321 316.48 74.8115 325.605 74.158C307.87 57.8901 288.918 45.9989 268.142 36.5819C192.105 1.78953 115.499 0.0371528 39.2559 23.569C29.331 26.7004 19.9558 30.8367 10.2295 34.2327C7.3048 34.6973 4.62489 35.2155 -0.000228923 36.4129Z" fill="#363B53"/>
</svg>
