<svg width="22" height="22" viewBox="0 0 22 22" fill="none" xmlns="http://www.w3.org/2000/svg">
<path d="M0 11C0 17.0749 4.92514 22 11 22C17.0749 22 22 17.0749 22 11C22 4.92514 17.0749 0 11 0C4.92514 0 0 4.92514 0 11ZM11.2459 6.16846C11.3248 6.24672 11.3875 6.33976 11.4305 6.44227C11.4734 6.54477 11.4958 6.65473 11.4962 6.76586C11.4966 6.877 11.4752 6.98713 11.4331 7.08998C11.3909 7.19282 11.329 7.28635 11.2507 7.36524L8.48375 10.1538H15.5481C15.7725 10.1538 15.9877 10.243 16.1464 10.4017C16.3051 10.5604 16.3942 10.7756 16.3942 11C16.3942 11.2244 16.3051 11.4396 16.1464 11.5983C15.9877 11.757 15.7725 11.8462 15.5481 11.8462H8.48375L11.2507 14.6348C11.3289 14.7137 11.3909 14.8073 11.433 14.9102C11.4751 15.0131 11.4965 15.1233 11.496 15.2345C11.4955 15.3457 11.4731 15.4557 11.4301 15.5582C11.3871 15.6607 11.3243 15.7538 11.2454 15.8321C11.1664 15.9103 11.0728 15.9723 10.9699 16.0144C10.867 16.0565 10.7568 16.0779 10.6456 16.0774C10.5345 16.0769 10.4245 16.0545 10.3219 16.0115C10.2194 15.9685 10.1263 15.9057 10.0481 15.8268L5.84957 11.596C5.69229 11.4375 5.60404 11.2233 5.60404 11C5.60404 10.7767 5.69229 10.5625 5.84957 10.404L10.0481 6.17322C10.1264 6.09416 10.2195 6.03131 10.3221 5.98827C10.4247 5.94523 10.5347 5.92285 10.646 5.92241C10.7573 5.92197 10.8675 5.94347 10.9705 5.98569C11.0734 6.02791 11.167 6.09002 11.2459 6.16846Z" fill="#363B53"/>
</svg>
