<svg width="22" height="22" viewBox="0 0 22 22" fill="none" xmlns="http://www.w3.org/2000/svg">
<path d="M22 11C22 4.92514 17.0749 -5.96046e-07 11 -5.96046e-07C4.92514 -5.96046e-07 -5.96046e-07 4.92514 -5.96046e-07 11C-5.96046e-07 17.0749 4.92514 22 11 22C17.0749 22 22 17.0749 22 11ZM10.7541 15.8315C10.6752 15.7533 10.6125 15.6602 10.5695 15.5577C10.5266 15.4552 10.5042 15.3453 10.5038 15.2341C10.5034 15.123 10.5248 15.0129 10.5669 14.91C10.6091 14.8072 10.671 14.7136 10.7493 14.6348L13.5163 11.8462L6.45192 11.8462C6.22751 11.8462 6.01229 11.757 5.8536 11.5983C5.69492 11.4396 5.60577 11.2244 5.60577 11C5.60577 10.7756 5.69492 10.5604 5.8536 10.4017C6.01229 10.243 6.22751 10.1538 6.45192 10.1538L13.5163 10.1538L10.7493 7.36524C10.6711 7.28628 10.6091 7.19267 10.567 7.08976C10.5249 6.98686 10.5035 6.87667 10.504 6.76549C10.5045 6.65431 10.5269 6.54432 10.5699 6.44179C10.6129 6.33926 10.6757 6.2462 10.7546 6.16793C10.8336 6.08966 10.9272 6.02771 11.0301 5.98562C11.133 5.94353 11.2432 5.92211 11.3544 5.9226C11.4655 5.9231 11.5755 5.94548 11.6781 5.98848C11.7806 6.03148 11.8737 6.09426 11.9519 6.17322L16.1504 10.404C16.3077 10.5625 16.396 10.7767 16.396 11C16.396 11.2233 16.3077 11.4375 16.1504 11.596L11.9519 15.8268C11.8736 15.9058 11.7805 15.9687 11.6779 16.0117C11.5753 16.0548 11.4653 16.0771 11.354 16.0776C11.2427 16.078 11.1325 16.0565 11.0295 16.0143C10.9266 15.9721 10.833 15.91 10.7541 15.8315Z" fill="#363B53"/>
</svg>
