<svg width="19" height="19" viewBox="0 0 19 19" fill="none" xmlns="http://www.w3.org/2000/svg">
<rect x="1" y="1" width="17" height="17" rx="8.5" stroke="#2B3F6C" stroke-width="1.5"/>
<g opacity="0.3">
<path d="M14.925 2.89411C13.2134 4.57204 12.15 6.91247 12.15 9.49991H13.65C13.65 7.33177 14.5394 5.3727 15.9751 3.96526L14.925 2.89411ZM15.9751 15.0345C14.5394 13.6271 13.65 11.668 13.65 9.49991H12.15C12.15 12.0873 13.2134 14.4278 14.925 16.1057L15.9751 15.0345Z" fill="#2B3F6C"/>
<path d="M4.06963 3.00925C5.78262 4.65527 6.84998 6.95464 6.84998 9.50005H5.34998C5.34998 7.38407 4.46465 5.46909 3.03032 4.09085L4.06963 3.00925ZM3.03032 14.9093C4.46465 13.531 5.34998 11.616 5.34998 9.50005H6.84998C6.84998 12.0455 5.78262 14.3448 4.06963 15.9908L3.03032 14.9093Z" fill="#2B3F6C"/>
<path d="M10.25 1C10.25 0.585786 9.91421 0.25 9.5 0.25C9.08579 0.25 8.75 0.585786 8.75 1H10.25ZM8.75 18C8.75 18.4142 9.08579 18.75 9.5 18.75C9.91421 18.75 10.25 18.4142 10.25 18H8.75ZM8.75 1V18H10.25V1H8.75Z" fill="#2B3F6C"/>
<path d="M18 8.75C18.4142 8.75 18.75 9.08579 18.75 9.5C18.75 9.91421 18.4142 10.25 18 10.25L18 8.75ZM1 10.25C0.585787 10.25 0.25 9.91421 0.25 9.5C0.25 9.08579 0.585787 8.75 1 8.75L1 10.25ZM18 10.25L1 10.25L1 8.75L18 8.75L18 10.25Z" fill="#2B3F6C"/>
</g>
</svg>
