<svg width="47" height="52" viewBox="0 0 47 52" fill="none" xmlns="http://www.w3.org/2000/svg">
<path d="M46.2436 -8.97396e-05C48.822 8.40846 43.162 26.0874 35.673 33.8544C27.6035 42.278 21.1571 44.62 4.801 44.9168C5.71058 45.8816 6.50409 46.6063 7.14969 47.356C7.9082 48.1865 8.70487 49.0704 9.31704 50.0053C9.50785 50.2726 9.52205 50.9888 9.34071 51.199C9.15937 51.4091 8.52639 51.2961 8.26241 51.081C5.77212 48.985 3.355 46.8368 0.86313 44.6612C0.0696168 43.9364 -0.168822 43.1382 0.262296 42.4269C2.02967 39.8741 3.75887 37.2678 5.60099 34.7423C6.03526 34.1902 6.84642 33.9339 7.57811 33.4116C8.63373 36.1282 7.12589 36.8011 6.59449 38.0681C6.06466 39.4148 5.27086 40.5463 4.44837 42.1019C9.62192 42.9281 14.0306 42.6055 18.1262 41.4573C33.1819 37.3274 41.5621 25.8575 44.7504 8.89389C45.1515 6.67071 45.2902 4.31203 45.6166 2.06149C45.8282 1.50693 46.0033 0.978468 46.2436 -8.97396e-05Z" fill="#308CF8"/>
</svg>
