<svg width="17" height="10" viewBox="0 0 17 17" fill="none" xmlns="http://www.w3.org/2000/svg">
<path d="M13.6218 16.9999C12.881 16.9999 11.8403 16.7319 10.2819 15.8614C8.38681 14.7989 6.92101 13.818 5.03621 11.9385C3.21896 10.1227 2.33463 8.94714 1.09694 6.69538C-0.301288 4.15293 -0.0629357 2.82024 0.203503 2.25066C0.5208 1.56989 0.989154 1.16272 1.59452 0.758586C1.93837 0.533346 2.30224 0.340266 2.68153 0.181793C2.71949 0.165476 2.75478 0.149918 2.78629 0.135877C2.97416 0.0512557 3.25882 -0.0766253 3.61938 0.0599835C3.86001 0.150297 4.07483 0.335098 4.4111 0.667134C5.10073 1.34714 6.04313 2.8616 6.39079 3.60536C6.62421 4.10664 6.77869 4.43754 6.77907 4.80866C6.77907 5.24315 6.56045 5.57822 6.29515 5.93985C6.24543 6.00778 6.19609 6.07267 6.14827 6.13566C5.85944 6.51513 5.79605 6.62479 5.8378 6.8206C5.92244 7.21411 6.55362 8.38553 7.59091 9.42034C8.62819 10.4552 9.76606 11.0464 10.1612 11.1306C10.3654 11.1742 10.4773 11.1082 10.869 10.8092C10.9252 10.7663 10.9829 10.7219 11.0432 10.6775C11.4478 10.3766 11.7674 10.1637 12.1917 10.1637H12.194C12.5633 10.1637 12.8794 10.3239 13.4032 10.588C14.0864 10.9325 15.6467 11.8626 16.331 12.5529C16.6639 12.8883 16.8495 13.1023 16.9402 13.3425C17.0768 13.7042 16.9481 13.9876 16.8643 14.1774C16.8502 14.2089 16.8346 14.2434 16.8183 14.2817C16.6586 14.6603 16.4643 15.0233 16.238 15.3662C15.8346 15.9696 15.4258 16.4367 14.7434 16.7543C14.393 16.9201 14.0094 17.004 13.6218 16.9999Z" fill="white"/>
</svg>
