<svg width="22" height="20" viewBox="0 0 22 20" fill="none" xmlns="http://www.w3.org/2000/svg">
<path d="M1.1509 0.265338C0.745161 0.181996 0.34868 0.443354 0.265338 0.849096C0.181996 1.25484 0.443354 1.65132 0.849096 1.73466L1.1509 0.265338ZM3.8 4.59459L3.05353 4.66728L3.05423 4.67446L3.05507 4.68163L3.8 4.59459ZM20.3077 7.43858L19.579 7.26119L20.3077 7.43858ZM0.849096 1.73466L1.9039 1.95132L2.2057 0.482L1.1509 0.265338L0.849096 1.73466ZM6.77992 15.6149H15.7498V14.1149H6.77992V15.6149ZM19.8792 12.3701L21.0364 7.61597L19.579 7.26119L18.4217 12.0153L19.8792 12.3701ZM2.89651 3.05462L3.05353 4.66728L4.54647 4.52191L4.38945 2.90926L2.89651 3.05462ZM3.05507 4.68163L4.0485 13.184L5.53837 13.0099L4.54493 4.50756L3.05507 4.68163ZM18.073 3.84459H3.8V5.34459H18.073V3.84459ZM21.0364 7.61597C21.5039 5.6956 20.0494 3.84459 18.073 3.84459V5.34459C19.0774 5.34459 19.8166 6.28527 19.579 7.26119L21.0364 7.61597ZM15.7498 15.6149C17.7098 15.6149 19.4156 14.2745 19.8792 12.3701L18.4217 12.0153C18.1218 13.2475 17.018 14.1149 15.7498 14.1149V15.6149ZM6.77992 14.1149C6.14568 14.1149 5.61197 13.6399 5.53837 13.0099L4.0485 13.184C4.21043 14.5699 5.3846 15.6149 6.77992 15.6149V14.1149ZM1.9039 1.95132C2.44091 2.06163 2.84338 2.50898 2.89651 3.05462L4.38945 2.90926C4.27257 1.70884 3.38713 0.724671 2.2057 0.482L1.9039 1.95132Z" fill="#2B3F6C"/>
<path opacity="0.3" d="M12 11.7837H8" stroke="#2B3F6C" stroke-width="1.5" stroke-linecap="round" stroke-linejoin="round"/>
<ellipse opacity="0.3" cx="7.5" cy="18.4595" rx="1.5" ry="1.54054" fill="#2B3F6C"/>
<ellipse opacity="0.3" cx="16.5" cy="18.4595" rx="1.5" ry="1.54054" fill="#2B3F6C"/>
</svg>
