<svg width="40" height="40" viewBox="0 0 40 40" fill="none" xmlns="http://www.w3.org/2000/svg">
<path d="M9.8995 9.89945C4.44097 15.358 4.44097 24.2399 9.8995 29.6984C15.358 35.157 24.24 35.157 29.6985 29.6984C35.157 24.2399 35.157 15.358 29.6985 9.89945C24.24 4.44093 15.358 4.44093 9.8995 9.89945ZM24.368 16.753L21.322 19.799L24.368 22.8449C24.57 23.0469 24.6834 23.3208 24.6834 23.6064C24.6834 23.8921 24.57 24.166 24.368 24.3679C24.166 24.5699 23.8921 24.6834 23.6065 24.6834C23.3209 24.6834 23.047 24.5699 22.845 24.3679L19.799 21.3219L16.753 24.3679C16.551 24.5699 16.2771 24.6834 15.9915 24.6834C15.7059 24.6834 15.432 24.5699 15.23 24.3679C15.028 24.166 14.9146 23.8921 14.9146 23.6064C14.9146 23.3208 15.028 23.0469 15.23 22.8449L18.276 19.799L15.23 16.753C15.028 16.551 14.9146 16.2771 14.9146 15.9915C14.9146 15.7058 15.028 15.4319 15.23 15.23C15.432 15.028 15.7059 14.9145 15.9915 14.9145C16.2771 14.9145 16.551 15.028 16.753 15.23L19.799 18.276L22.845 15.23C23.047 15.028 23.3209 14.9145 23.6065 14.9145C23.8921 14.9145 24.166 15.028 24.368 15.23C24.57 15.4319 24.6834 15.7058 24.6834 15.9915C24.6834 16.2771 24.57 16.551 24.368 16.753Z" fill="#E12D3A"/>
</svg>
