<svg width="36" height="36" viewBox="0 0 36 36" fill="none" xmlns="http://www.w3.org/2000/svg">
<circle cx="18" cy="18" r="18" fill="#363B53"/>
<path d="M20.3698 7.68606C18.7417 6.77131 16.7583 6.77131 15.1302 7.68606L9.09356 11.0776C7.63548 11.8968 7.63548 14.0043 9.09356 14.8235L15.1302 18.215C16.7583 19.1298 18.7417 19.1298 20.3698 18.215L26.4064 14.8235C27.8645 14.0043 27.8645 11.8968 26.4064 11.0776L20.3698 7.68606Z" fill="white"/>
<path d="M8.72517 21.0869C7.64805 22.0269 7.77084 23.8302 9.09356 24.5734L15.1302 27.9649C16.7583 28.8797 18.7417 28.8797 20.3698 27.9649L26.4064 24.5734C27.7292 23.8302 27.852 22.0269 26.7748 21.0869L21.1045 24.2727C19.0201 25.4438 16.4799 25.4438 14.3954 24.2727L8.72517 21.0869Z" fill="white"/>
<path d="M8.56218 16.2451C7.66468 17.2171 7.8418 18.8699 9.09356 19.5731L15.1302 22.9647C16.7583 23.8794 18.7417 23.8794 20.3698 22.9647L26.4064 19.5731C27.6582 18.8699 27.8353 17.2171 26.9378 16.2451L21.1045 19.5224C19.0201 20.6935 16.4799 20.6935 14.3954 19.5224L8.56218 16.2451Z" fill="white"/>
</svg>
