<svg width="350" height="86" viewBox="0 0 350 86" fill="none" xmlns="http://www.w3.org/2000/svg">
<path d="M-0.000717204 36.4129C21.0525 12.9472 109.918 -4.94442 169.095 1.39039C233.063 8.11186 267.764 21.9069 334.707 67.7511C334.653 63.3171 334.168 59.6734 334.372 56.4016C334.423 52.6542 334.52 48.6958 335.551 45.1631C335.782 44.1083 338.402 42.6925 339.918 42.8035C341.433 42.9145 343.558 44.9279 343.817 46.09C346.006 57.1822 347.704 68.1671 349.602 79.4167C350.087 83.0604 348.063 85.27 343.669 85.4126C327.012 85.3002 310.31 85.3987 293.455 85.0216C289.643 84.8496 285.42 83.0399 280.523 81.9667C286.429 73.7537 295.013 76.7403 301.888 75.8148C309.054 74.7321 316.479 74.8115 325.605 74.158C307.869 57.8901 288.918 45.9989 268.141 36.5819C192.104 1.78953 115.499 0.0371528 39.2554 23.569C29.3305 26.7004 19.9553 30.8367 10.2291 34.2327C7.30431 34.6973 4.6244 35.2155 -0.000717204 36.4129Z" fill="#F4F5FC"/>
</svg>
