<svg
  width="9"
  height="9"
  viewBox="0 0 9 9"
  fill="none"
  xmlns="http://www.w3.org/2000/svg"
>
  <path
    d="M4.49214 1.65176e-05C3.60368 3.174e-05 2.73517 0.263501 1.99644 0.757109C1.25771 1.25072 0.681947 1.95229 0.341948 2.77312C0.00194843 3.59395 -0.0870124 4.49716 0.0863145 5.36855C0.259641 6.23994 0.687471 7.04036 1.3157 7.6686C1.7321 8.08911 2.22747 8.4232 2.77337 8.65168C3.31927 8.88016 3.90494 8.99853 4.49672 8.99999C5.08851 9.00144 5.67475 8.88596 6.22177 8.66017C6.76879 8.43437 7.2658 8.10273 7.68426 7.68427C8.10272 7.26582 8.43437 6.76881 8.66016 6.2218C8.88596 5.67479 9.00144 5.08855 8.99999 4.49677C8.99853 3.90499 8.88016 3.31933 8.65168 2.77344C8.42319 2.22754 8.0891 1.73217 7.66859 1.31578C7.25243 0.897332 6.7574 0.565579 6.21216 0.339727C5.66693 0.113876 5.08231 -0.00158909 4.49214 1.65176e-05ZM0.641671 4.49219C0.641671 2.36904 2.36897 0.641756 4.49214 0.641756V8.34263C2.36897 8.34263 0.641671 6.61534 0.641671 4.49219Z"
    fill="white"
  />
</svg>
