<svg width="534" height="584" viewBox="0 0 534 584" fill="none" xmlns="http://www.w3.org/2000/svg">
<ellipse cx="1.09091" cy="1.08866" rx="1.09091" ry="0.912939" fill="#308CF8" fill-opacity="0.45"/>
<ellipse cx="42.0001" cy="1.08866" rx="1.09091" ry="0.912939" fill="#308CF8" fill-opacity="0.45"/>
<ellipse cx="82.9091" cy="1.08866" rx="1.09091" ry="0.912939" fill="#308CF8" fill-opacity="0.45"/>
<ellipse cx="123.818" cy="1.08866" rx="1.09091" ry="0.912939" fill="#308CF8" fill-opacity="0.45"/>
<ellipse cx="164.727" cy="1.08866" rx="1.09091" ry="0.912939" fill="#308CF8" fill-opacity="0.45"/>
<ellipse cx="205.636" cy="1.08866" rx="1.09091" ry="0.912939" fill="#308CF8" fill-opacity="0.45"/>
<ellipse cx="246.545" cy="1.08866" rx="1.09091" ry="0.912939" fill="#308CF8" fill-opacity="0.45"/>
<ellipse cx="287.455" cy="1.08866" rx="1.09091" ry="0.912939" fill="#308CF8" fill-opacity="0.45"/>
<ellipse cx="328.364" cy="1.08866" rx="1.09091" ry="0.912939" fill="#308CF8" fill-opacity="0.45"/>
<ellipse cx="369.273" cy="1.08866" rx="1.09091" ry="0.912939" fill="#308CF8" fill-opacity="0.45"/>
<ellipse cx="410.182" cy="1.08866" rx="1.09091" ry="0.912939" fill="#308CF8" fill-opacity="0.45"/>
<ellipse cx="451.091" cy="1.08866" rx="1.09091" ry="0.912939" fill="#308CF8" fill-opacity="0.45"/>
<ellipse cx="492" cy="1.08866" rx="1.09091" ry="0.912939" fill="#308CF8" fill-opacity="0.45"/>
<ellipse cx="532.909" cy="1.08866" rx="1.09091" ry="0.912939" fill="#308CF8" fill-opacity="0.45"/>
<ellipse cx="1.09091" cy="35.3239" rx="1.09091" ry="0.912939" fill="#308CF8" fill-opacity="0.45"/>
<ellipse cx="42.0001" cy="35.3238" rx="1.09091" ry="0.912939" fill="#006AE6" fill-opacity="0.8"/>
<ellipse cx="82.9091" cy="35.3238" rx="1.09091" ry="0.912939" fill="#308CF8" fill-opacity="0.45"/>
<ellipse cx="123.818" cy="35.3238" rx="1.09091" ry="0.912939" fill="#308CF8" fill-opacity="0.45"/>
<ellipse cx="164.727" cy="35.3238" rx="1.09091" ry="0.912939" fill="#308CF8" fill-opacity="0.45"/>
<ellipse cx="205.636" cy="35.3238" rx="1.09091" ry="0.912939" fill="#308CF8" fill-opacity="0.45"/>
<ellipse cx="246.545" cy="35.3238" rx="1.09091" ry="0.912939" fill="#308CF8" fill-opacity="0.45"/>
<ellipse cx="287.455" cy="35.3238" rx="1.09091" ry="0.912939" fill="#308CF8" fill-opacity="0.45"/>
<ellipse cx="328.364" cy="35.3238" rx="1.09091" ry="0.912939" fill="#308CF8" fill-opacity="0.45"/>
<ellipse cx="369.273" cy="35.3238" rx="1.09091" ry="0.912939" fill="#308CF8" fill-opacity="0.45"/>
<ellipse cx="410.182" cy="35.3238" rx="1.09091" ry="0.912939" fill="#308CF8" fill-opacity="0.45"/>
<ellipse cx="451.091" cy="35.3238" rx="1.09091" ry="0.912939" fill="#308CF8" fill-opacity="0.45"/>
<ellipse cx="492" cy="35.3238" rx="1.09091" ry="0.912939" fill="#308CF8" fill-opacity="0.45"/>
<ellipse cx="532.909" cy="35.3238" rx="1.09091" ry="0.912939" fill="#308CF8" fill-opacity="0.45"/>
<ellipse cx="1.09091" cy="69.5591" rx="1.09091" ry="0.912939" fill="#308CF8" fill-opacity="0.45"/>
<ellipse cx="42.0001" cy="69.5591" rx="1.09091" ry="0.912939" fill="#308CF8" fill-opacity="0.45"/>
<ellipse cx="82.9091" cy="69.5591" rx="1.09091" ry="0.912939" fill="#308CF8" fill-opacity="0.45"/>
<ellipse cx="123.818" cy="69.5591" rx="1.09091" ry="0.912939" fill="#308CF8" fill-opacity="0.45"/>
<ellipse cx="164.727" cy="69.5591" rx="1.09091" ry="0.912939" fill="#308CF8" fill-opacity="0.45"/>
<ellipse cx="205.636" cy="69.5591" rx="1.09091" ry="0.912939" fill="#308CF8" fill-opacity="0.45"/>
<ellipse cx="246.545" cy="69.5591" rx="1.09091" ry="0.912939" fill="#308CF8" fill-opacity="0.45"/>
<ellipse cx="287.455" cy="69.5591" rx="1.09091" ry="0.912939" fill="#308CF8" fill-opacity="0.45"/>
<ellipse cx="328.364" cy="69.5591" rx="1.09091" ry="0.912939" fill="#308CF8" fill-opacity="0.45"/>
<ellipse cx="369.273" cy="69.5591" rx="1.09091" ry="0.912939" fill="#308CF8" fill-opacity="0.45"/>
<ellipse cx="410.182" cy="69.5591" rx="1.09091" ry="0.912939" fill="#308CF8" fill-opacity="0.45"/>
<ellipse cx="451.091" cy="69.5591" rx="1.09091" ry="0.912939" fill="#308CF8" fill-opacity="0.45"/>
<ellipse cx="492" cy="69.5591" rx="1.09091" ry="0.912939" fill="#308CF8" fill-opacity="0.45"/>
<ellipse cx="532.909" cy="69.5591" rx="1.09091" ry="0.912939" fill="#308CF8" fill-opacity="0.45"/>
<ellipse cx="1.09091" cy="103.794" rx="1.09091" ry="0.912939" fill="#308CF8" fill-opacity="0.45"/>
<ellipse cx="42.0001" cy="103.794" rx="1.09091" ry="0.912939" fill="#308CF8" fill-opacity="0.45"/>
<ellipse cx="82.9091" cy="103.794" rx="1.09091" ry="0.912939" fill="#308CF8" fill-opacity="0.45"/>
<ellipse cx="123.818" cy="103.794" rx="1.09091" ry="0.912939" fill="#308CF8" fill-opacity="0.45"/>
<ellipse cx="164.727" cy="103.794" rx="1.09091" ry="0.912939" fill="#308CF8" fill-opacity="0.45"/>
<ellipse cx="205.636" cy="103.794" rx="1.09091" ry="0.912939" fill="#308CF8" fill-opacity="0.45"/>
<ellipse cx="246.545" cy="103.794" rx="1.09091" ry="0.912939" fill="#308CF8" fill-opacity="0.45"/>
<ellipse cx="287.455" cy="103.794" rx="1.09091" ry="0.912939" fill="#308CF8" fill-opacity="0.45"/>
<ellipse cx="328.364" cy="103.794" rx="1.09091" ry="0.912939" fill="#308CF8" fill-opacity="0.45"/>
<ellipse cx="369.273" cy="103.794" rx="1.09091" ry="0.912939" fill="#308CF8" fill-opacity="0.45"/>
<ellipse cx="410.182" cy="103.794" rx="1.09091" ry="0.912939" fill="#308CF8" fill-opacity="0.45"/>
<ellipse cx="451.091" cy="103.794" rx="1.09091" ry="0.912939" fill="#308CF8" fill-opacity="0.45"/>
<ellipse cx="492" cy="103.794" rx="1.09091" ry="0.912939" fill="#308CF8" fill-opacity="0.45"/>
<ellipse cx="532.909" cy="103.794" rx="1.09091" ry="0.912939" fill="#308CF8" fill-opacity="0.45"/>
<ellipse cx="1.09091" cy="138.029" rx="1.09091" ry="0.912939" fill="#308CF8" fill-opacity="0.45"/>
<ellipse cx="42.0001" cy="138.029" rx="1.09091" ry="0.912939" fill="#308CF8" fill-opacity="0.45"/>
<ellipse cx="82.9091" cy="138.029" rx="1.09091" ry="0.912939" fill="#308CF8" fill-opacity="0.45"/>
<ellipse cx="123.818" cy="138.029" rx="1.09091" ry="0.912939" fill="#308CF8" fill-opacity="0.45"/>
<ellipse cx="164.727" cy="138.029" rx="1.09091" ry="0.912939" fill="#308CF8" fill-opacity="0.45"/>
<ellipse cx="205.636" cy="138.029" rx="1.09091" ry="0.912939" fill="#308CF8" fill-opacity="0.45"/>
<ellipse cx="246.545" cy="138.029" rx="1.09091" ry="0.912939" fill="#006AE6" fill-opacity="0.8"/>
<ellipse cx="287.455" cy="138.029" rx="1.09091" ry="0.912939" fill="#308CF8" fill-opacity="0.45"/>
<ellipse cx="328.364" cy="138.029" rx="1.09091" ry="0.912939" fill="#308CF8" fill-opacity="0.45"/>
<ellipse cx="369.273" cy="138.029" rx="1.09091" ry="0.912939" fill="#308CF8" fill-opacity="0.45"/>
<ellipse cx="410.182" cy="138.029" rx="1.09091" ry="0.912939" fill="#308CF8" fill-opacity="0.45"/>
<ellipse cx="451.091" cy="138.029" rx="1.09091" ry="0.912939" fill="#308CF8" fill-opacity="0.45"/>
<ellipse cx="492" cy="138.029" rx="1.09091" ry="0.912939" fill="#308CF8" fill-opacity="0.45"/>
<ellipse cx="532.909" cy="138.029" rx="1.09091" ry="0.912939" fill="#308CF8" fill-opacity="0.45"/>
<ellipse cx="1.09091" cy="172.265" rx="1.09091" ry="0.912939" fill="#308CF8" fill-opacity="0.45"/>
<ellipse cx="42.0001" cy="172.265" rx="1.09091" ry="0.912939" fill="#308CF8" fill-opacity="0.45"/>
<ellipse cx="82.9091" cy="172.265" rx="1.09091" ry="0.912939" fill="#308CF8" fill-opacity="0.45"/>
<ellipse cx="123.818" cy="172.265" rx="1.09091" ry="0.912939" fill="#308CF8" fill-opacity="0.45"/>
<ellipse cx="164.727" cy="172.265" rx="1.09091" ry="0.912939" fill="#308CF8" fill-opacity="0.45"/>
<ellipse cx="205.636" cy="172.265" rx="1.09091" ry="0.912939" fill="#308CF8" fill-opacity="0.45"/>
<ellipse cx="246.545" cy="172.265" rx="1.09091" ry="0.912939" fill="#308CF8" fill-opacity="0.45"/>
<ellipse cx="287.455" cy="172.265" rx="1.09091" ry="0.912939" fill="#308CF8" fill-opacity="0.45"/>
<ellipse cx="328.364" cy="172.265" rx="1.09091" ry="0.912939" fill="#308CF8" fill-opacity="0.45"/>
<ellipse cx="369.273" cy="172.265" rx="1.09091" ry="0.912939" fill="#308CF8" fill-opacity="0.45"/>
<ellipse cx="410.182" cy="172.265" rx="1.09091" ry="0.912939" fill="#308CF8" fill-opacity="0.45"/>
<ellipse cx="451.091" cy="172.265" rx="1.09091" ry="0.912939" fill="#308CF8" fill-opacity="0.45"/>
<ellipse cx="492" cy="172.265" rx="1.09091" ry="0.912939" fill="#308CF8" fill-opacity="0.45"/>
<ellipse cx="532.909" cy="172.265" rx="1.09091" ry="0.912939" fill="#308CF8" fill-opacity="0.45"/>
<ellipse cx="1.09091" cy="206.5" rx="1.09091" ry="0.912939" fill="#308CF8" fill-opacity="0.45"/>
<ellipse cx="42.0001" cy="206.5" rx="1.09091" ry="0.912939" fill="#308CF8" fill-opacity="0.45"/>
<ellipse cx="82.9091" cy="206.5" rx="1.09091" ry="0.912939" fill="#308CF8" fill-opacity="0.45"/>
<ellipse cx="123.818" cy="206.5" rx="1.09091" ry="0.912939" fill="#308CF8" fill-opacity="0.45"/>
<ellipse cx="164.727" cy="206.5" rx="1.09091" ry="0.912939" fill="#308CF8" fill-opacity="0.45"/>
<ellipse cx="205.636" cy="206.5" rx="1.09091" ry="0.912939" fill="#308CF8" fill-opacity="0.45"/>
<ellipse cx="246.545" cy="206.5" rx="1.09091" ry="0.912939" fill="#308CF8" fill-opacity="0.45"/>
<ellipse cx="287.455" cy="206.5" rx="1.09091" ry="0.912939" fill="#308CF8" fill-opacity="0.45"/>
<ellipse cx="328.364" cy="206.5" rx="1.09091" ry="0.912939" fill="#308CF8" fill-opacity="0.45"/>
<ellipse cx="369.273" cy="206.5" rx="1.09091" ry="0.912939" fill="#308CF8" fill-opacity="0.45"/>
<ellipse cx="410.182" cy="206.5" rx="1.09091" ry="0.912939" fill="#308CF8" fill-opacity="0.45"/>
<ellipse cx="451.091" cy="206.5" rx="1.09091" ry="0.912939" fill="#308CF8" fill-opacity="0.45"/>
<ellipse cx="492" cy="206.5" rx="1.09091" ry="0.912939" fill="#308CF8" fill-opacity="0.45"/>
<ellipse cx="532.909" cy="206.5" rx="1.09091" ry="0.912939" fill="#308CF8" fill-opacity="0.45"/>
<ellipse cx="1.09091" cy="240.735" rx="1.09091" ry="0.912939" fill="#308CF8" fill-opacity="0.45"/>
<ellipse cx="42.0001" cy="240.735" rx="1.09091" ry="0.912939" fill="#308CF8" fill-opacity="0.45"/>
<ellipse cx="82.9091" cy="240.735" rx="1.09091" ry="0.912939" fill="#308CF8" fill-opacity="0.45"/>
<ellipse cx="123.818" cy="240.735" rx="1.09091" ry="0.912939" fill="#308CF8" fill-opacity="0.45"/>
<ellipse cx="164.727" cy="240.735" rx="1.09091" ry="0.912939" fill="#308CF8" fill-opacity="0.45"/>
<ellipse cx="205.636" cy="240.735" rx="1.09091" ry="0.912939" fill="#308CF8" fill-opacity="0.45"/>
<ellipse cx="246.545" cy="240.735" rx="1.09091" ry="0.912939" fill="#308CF8" fill-opacity="0.45"/>
<ellipse cx="287.455" cy="240.735" rx="1.09091" ry="0.912939" fill="#308CF8" fill-opacity="0.45"/>
<ellipse cx="328.364" cy="240.735" rx="1.09091" ry="0.912939" fill="#308CF8" fill-opacity="0.45"/>
<ellipse cx="369.273" cy="240.735" rx="1.09091" ry="0.912939" fill="#308CF8" fill-opacity="0.45"/>
<ellipse cx="410.182" cy="240.735" rx="1.09091" ry="0.912939" fill="#308CF8" fill-opacity="0.45"/>
<ellipse cx="451.091" cy="240.735" rx="1.09091" ry="0.912939" fill="#308CF8" fill-opacity="0.45"/>
<ellipse cx="492" cy="240.735" rx="1.09091" ry="0.912939" fill="#308CF8" fill-opacity="0.45"/>
<ellipse cx="532.909" cy="240.735" rx="1.09091" ry="0.912939" fill="#308CF8" fill-opacity="0.45"/>
<ellipse cx="1.09091" cy="274.97" rx="1.09091" ry="0.912939" fill="#308CF8" fill-opacity="0.45"/>
<ellipse cx="42.0001" cy="274.97" rx="1.09091" ry="0.912939" fill="#308CF8" fill-opacity="0.45"/>
<ellipse cx="82.9091" cy="274.97" rx="1.09091" ry="0.912939" fill="#308CF8" fill-opacity="0.45"/>
<ellipse cx="123.818" cy="274.97" rx="1.09091" ry="0.912939" fill="#308CF8" fill-opacity="0.45"/>
<ellipse cx="164.727" cy="274.97" rx="1.09091" ry="0.912939" fill="#308CF8" fill-opacity="0.45"/>
<ellipse cx="205.636" cy="274.97" rx="1.09091" ry="0.912939" fill="#308CF8" fill-opacity="0.45"/>
<ellipse cx="246.545" cy="274.97" rx="1.09091" ry="0.912939" fill="#308CF8" fill-opacity="0.45"/>
<ellipse cx="287.455" cy="274.97" rx="1.09091" ry="0.912939" fill="#308CF8" fill-opacity="0.45"/>
<ellipse cx="328.364" cy="274.97" rx="1.09091" ry="0.912939" fill="#308CF8" fill-opacity="0.45"/>
<ellipse cx="369.273" cy="274.97" rx="1.09091" ry="0.912939" fill="#006AE6" fill-opacity="0.8"/>
<ellipse cx="410.182" cy="274.97" rx="1.09091" ry="0.912939" fill="#308CF8" fill-opacity="0.45"/>
<ellipse cx="451.091" cy="274.97" rx="1.09091" ry="0.912939" fill="#308CF8" fill-opacity="0.45"/>
<ellipse cx="492" cy="274.97" rx="1.09091" ry="0.912939" fill="#308CF8" fill-opacity="0.45"/>
<ellipse cx="532.909" cy="274.97" rx="1.09091" ry="0.912939" fill="#308CF8" fill-opacity="0.45"/>
<ellipse cx="1.09091" cy="309.205" rx="1.09091" ry="0.912939" fill="#308CF8" fill-opacity="0.45"/>
<ellipse cx="42.0001" cy="309.205" rx="1.09091" ry="0.912939" fill="#308CF8" fill-opacity="0.45"/>
<ellipse cx="82.9091" cy="309.205" rx="1.09091" ry="0.912939" fill="#308CF8" fill-opacity="0.45"/>
<ellipse cx="123.818" cy="309.205" rx="1.09091" ry="0.912939" fill="#308CF8" fill-opacity="0.45"/>
<ellipse cx="164.727" cy="309.205" rx="1.09091" ry="0.912939" fill="#308CF8" fill-opacity="0.45"/>
<ellipse cx="205.636" cy="309.205" rx="1.09091" ry="0.912939" fill="#308CF8" fill-opacity="0.45"/>
<ellipse cx="246.545" cy="309.205" rx="1.09091" ry="0.912939" fill="#308CF8" fill-opacity="0.45"/>
<ellipse cx="287.455" cy="309.205" rx="1.09091" ry="0.912939" fill="#308CF8" fill-opacity="0.45"/>
<ellipse cx="328.364" cy="309.205" rx="1.09091" ry="0.912939" fill="#308CF8" fill-opacity="0.45"/>
<ellipse cx="369.273" cy="309.205" rx="1.09091" ry="0.912939" fill="#308CF8" fill-opacity="0.45"/>
<ellipse cx="410.182" cy="309.205" rx="1.09091" ry="0.912939" fill="#308CF8" fill-opacity="0.45"/>
<ellipse cx="451.091" cy="309.205" rx="1.09091" ry="0.912939" fill="#308CF8" fill-opacity="0.45"/>
<ellipse cx="492" cy="309.205" rx="1.09091" ry="0.912939" fill="#308CF8" fill-opacity="0.45"/>
<ellipse cx="532.909" cy="309.205" rx="1.09091" ry="0.912939" fill="#308CF8" fill-opacity="0.45"/>
<ellipse cx="1.09091" cy="343.441" rx="1.09091" ry="0.912939" fill="#308CF8" fill-opacity="0.45"/>
<ellipse cx="42.0001" cy="343.441" rx="1.09091" ry="0.912939" fill="#308CF8" fill-opacity="0.45"/>
<ellipse cx="82.9091" cy="343.441" rx="1.09091" ry="0.912939" fill="#308CF8" fill-opacity="0.45"/>
<ellipse cx="123.818" cy="343.441" rx="1.09091" ry="0.912939" fill="#308CF8" fill-opacity="0.45"/>
<ellipse cx="164.727" cy="343.441" rx="1.09091" ry="0.912939" fill="#308CF8" fill-opacity="0.45"/>
<ellipse cx="205.636" cy="343.441" rx="1.09091" ry="0.912939" fill="#308CF8" fill-opacity="0.45"/>
<ellipse cx="246.545" cy="343.441" rx="1.09091" ry="0.912939" fill="#308CF8" fill-opacity="0.45"/>
<ellipse cx="287.455" cy="343.441" rx="1.09091" ry="0.912939" fill="#308CF8" fill-opacity="0.45"/>
<ellipse cx="328.364" cy="343.441" rx="1.09091" ry="0.912939" fill="#308CF8" fill-opacity="0.45"/>
<ellipse cx="369.273" cy="343.441" rx="1.09091" ry="0.912939" fill="#308CF8" fill-opacity="0.45"/>
<ellipse cx="410.182" cy="343.441" rx="1.09091" ry="0.912939" fill="#308CF8" fill-opacity="0.45"/>
<ellipse cx="451.091" cy="343.441" rx="1.09091" ry="0.912939" fill="#308CF8" fill-opacity="0.45"/>
<ellipse cx="492" cy="343.441" rx="1.09091" ry="0.912939" fill="#308CF8" fill-opacity="0.45"/>
<ellipse cx="532.909" cy="343.441" rx="1.09091" ry="0.912939" fill="#308CF8" fill-opacity="0.45"/>
<ellipse cx="1.09091" cy="377.676" rx="1.09091" ry="0.912939" fill="#308CF8" fill-opacity="0.45"/>
<ellipse cx="42.0001" cy="377.676" rx="1.09091" ry="0.912939" fill="#308CF8" fill-opacity="0.45"/>
<ellipse cx="82.9091" cy="377.676" rx="1.09091" ry="0.912939" fill="#308CF8" fill-opacity="0.45"/>
<ellipse cx="123.818" cy="377.676" rx="1.09091" ry="0.912939" fill="#308CF8" fill-opacity="0.45"/>
<ellipse cx="164.727" cy="377.676" rx="1.09091" ry="0.912939" fill="#308CF8" fill-opacity="0.45"/>
<ellipse cx="205.636" cy="377.676" rx="1.09091" ry="0.912939" fill="#308CF8" fill-opacity="0.45"/>
<ellipse cx="246.545" cy="377.676" rx="1.09091" ry="0.912939" fill="#308CF8" fill-opacity="0.45"/>
<ellipse cx="287.455" cy="377.676" rx="1.09091" ry="0.912939" fill="#308CF8" fill-opacity="0.45"/>
<ellipse cx="328.364" cy="377.676" rx="1.09091" ry="0.912939" fill="#308CF8" fill-opacity="0.45"/>
<ellipse cx="369.273" cy="377.676" rx="1.09091" ry="0.912939" fill="#308CF8" fill-opacity="0.45"/>
<ellipse cx="410.182" cy="377.676" rx="1.09091" ry="0.912939" fill="#308CF8" fill-opacity="0.45"/>
<ellipse cx="451.091" cy="377.676" rx="1.09091" ry="0.912939" fill="#308CF8" fill-opacity="0.45"/>
<ellipse cx="492" cy="377.676" rx="1.09091" ry="0.912939" fill="#308CF8" fill-opacity="0.45"/>
<ellipse cx="532.909" cy="377.676" rx="1.09091" ry="0.912939" fill="#308CF8" fill-opacity="0.45"/>
<ellipse cx="1.09091" cy="411.911" rx="1.09091" ry="0.912939" fill="#308CF8" fill-opacity="0.45"/>
<ellipse cx="42.0001" cy="411.911" rx="1.09091" ry="0.912939" fill="#308CF8" fill-opacity="0.45"/>
<ellipse cx="82.9091" cy="411.911" rx="1.09091" ry="0.912939" fill="#308CF8" fill-opacity="0.45"/>
<ellipse cx="123.818" cy="411.911" rx="1.09091" ry="0.912939" fill="#308CF8" fill-opacity="0.45"/>
<ellipse cx="164.727" cy="411.911" rx="1.09091" ry="0.912939" fill="#308CF8" fill-opacity="0.45"/>
<ellipse cx="205.636" cy="411.911" rx="1.09091" ry="0.912939" fill="#308CF8" fill-opacity="0.45"/>
<ellipse cx="246.545" cy="411.911" rx="1.09091" ry="0.912939" fill="#308CF8" fill-opacity="0.45"/>
<ellipse cx="287.455" cy="411.911" rx="1.09091" ry="0.912939" fill="#308CF8" fill-opacity="0.45"/>
<ellipse cx="328.364" cy="411.911" rx="1.09091" ry="0.912939" fill="#308CF8" fill-opacity="0.45"/>
<ellipse cx="369.273" cy="411.911" rx="1.09091" ry="0.912939" fill="#308CF8" fill-opacity="0.45"/>
<ellipse cx="410.182" cy="411.911" rx="1.09091" ry="0.912939" fill="#308CF8" fill-opacity="0.45"/>
<ellipse cx="451.091" cy="411.911" rx="1.09091" ry="0.912939" fill="#308CF8" fill-opacity="0.45"/>
<ellipse cx="492" cy="411.911" rx="1.09091" ry="0.912939" fill="#308CF8" fill-opacity="0.45"/>
<ellipse cx="532.909" cy="411.911" rx="1.09091" ry="0.912939" fill="#308CF8" fill-opacity="0.45"/>
<ellipse cx="1.09091" cy="446.146" rx="1.09091" ry="0.912939" fill="#308CF8" fill-opacity="0.45"/>
<ellipse cx="42.0001" cy="446.146" rx="1.09091" ry="0.912939" fill="#308CF8" fill-opacity="0.45"/>
<ellipse cx="82.9091" cy="446.146" rx="1.09091" ry="0.912939" fill="#308CF8" fill-opacity="0.45"/>
<ellipse cx="123.818" cy="446.146" rx="1.09091" ry="0.912939" fill="#006AE6" fill-opacity="0.8"/>
<ellipse cx="164.727" cy="446.146" rx="1.09091" ry="0.912939" fill="#308CF8" fill-opacity="0.45"/>
<ellipse cx="205.636" cy="446.146" rx="1.09091" ry="0.912939" fill="#308CF8" fill-opacity="0.45"/>
<ellipse cx="246.545" cy="446.146" rx="1.09091" ry="0.912939" fill="#308CF8" fill-opacity="0.45"/>
<ellipse cx="287.455" cy="446.146" rx="1.09091" ry="0.912939" fill="#308CF8" fill-opacity="0.45"/>
<ellipse cx="328.364" cy="446.146" rx="1.09091" ry="0.912939" fill="#308CF8" fill-opacity="0.45"/>
<ellipse cx="369.273" cy="446.146" rx="1.09091" ry="0.912939" fill="#308CF8" fill-opacity="0.45"/>
<ellipse cx="410.182" cy="446.146" rx="1.09091" ry="0.912939" fill="#308CF8" fill-opacity="0.45"/>
<ellipse cx="451.091" cy="446.146" rx="1.09091" ry="0.912939" fill="#308CF8" fill-opacity="0.45"/>
<ellipse cx="492" cy="446.146" rx="1.09091" ry="0.912939" fill="#308CF8" fill-opacity="0.45"/>
<ellipse cx="532.909" cy="446.146" rx="1.09091" ry="0.912939" fill="#308CF8" fill-opacity="0.45"/>
<ellipse cx="1.09091" cy="480.381" rx="1.09091" ry="0.912939" fill="#308CF8" fill-opacity="0.45"/>
<ellipse cx="42.0001" cy="480.381" rx="1.09091" ry="0.912939" fill="#308CF8" fill-opacity="0.45"/>
<ellipse cx="82.9091" cy="480.381" rx="1.09091" ry="0.912939" fill="#308CF8" fill-opacity="0.45"/>
<ellipse cx="123.818" cy="480.381" rx="1.09091" ry="0.912939" fill="#308CF8" fill-opacity="0.45"/>
<ellipse cx="164.727" cy="480.381" rx="1.09091" ry="0.912939" fill="#308CF8" fill-opacity="0.45"/>
<ellipse cx="205.636" cy="480.381" rx="1.09091" ry="0.912939" fill="#308CF8" fill-opacity="0.45"/>
<ellipse cx="246.545" cy="480.381" rx="1.09091" ry="0.912939" fill="#308CF8" fill-opacity="0.45"/>
<ellipse cx="287.455" cy="480.381" rx="1.09091" ry="0.912939" fill="#308CF8" fill-opacity="0.45"/>
<ellipse cx="328.364" cy="480.381" rx="1.09091" ry="0.912939" fill="#308CF8" fill-opacity="0.45"/>
<ellipse cx="369.273" cy="480.381" rx="1.09091" ry="0.912939" fill="#308CF8" fill-opacity="0.45"/>
<ellipse cx="410.182" cy="480.381" rx="1.09091" ry="0.912939" fill="#308CF8" fill-opacity="0.45"/>
<ellipse cx="451.091" cy="480.381" rx="1.09091" ry="0.912939" fill="#308CF8" fill-opacity="0.45"/>
<ellipse cx="492" cy="480.381" rx="1.09091" ry="0.912939" fill="#308CF8" fill-opacity="0.45"/>
<ellipse cx="532.909" cy="480.381" rx="1.09091" ry="0.912939" fill="#308CF8" fill-opacity="0.45"/>
<ellipse cx="1.09091" cy="514.617" rx="1.09091" ry="0.912939" fill="#308CF8" fill-opacity="0.45"/>
<ellipse cx="42.0001" cy="514.617" rx="1.09091" ry="0.912939" fill="#308CF8" fill-opacity="0.45"/>
<ellipse cx="82.9091" cy="514.617" rx="1.09091" ry="0.912939" fill="#308CF8" fill-opacity="0.45"/>
<ellipse cx="123.818" cy="514.617" rx="1.09091" ry="0.912939" fill="#308CF8" fill-opacity="0.45"/>
<ellipse cx="164.727" cy="514.617" rx="1.09091" ry="0.912939" fill="#308CF8" fill-opacity="0.45"/>
<ellipse cx="205.636" cy="514.617" rx="1.09091" ry="0.912939" fill="#308CF8" fill-opacity="0.45"/>
<ellipse cx="246.545" cy="514.617" rx="1.09091" ry="0.912939" fill="#308CF8" fill-opacity="0.45"/>
<ellipse cx="287.455" cy="514.617" rx="1.09091" ry="0.912939" fill="#308CF8" fill-opacity="0.45"/>
<ellipse cx="328.364" cy="514.617" rx="1.09091" ry="0.912939" fill="#308CF8" fill-opacity="0.45"/>
<ellipse cx="369.273" cy="514.617" rx="1.09091" ry="0.912939" fill="#308CF8" fill-opacity="0.45"/>
<ellipse cx="410.182" cy="514.617" rx="1.09091" ry="0.912939" fill="#308CF8" fill-opacity="0.45"/>
<ellipse cx="451.091" cy="514.617" rx="1.09091" ry="0.912939" fill="#006AE6" fill-opacity="0.8"/>
<ellipse cx="492" cy="514.617" rx="1.09091" ry="0.912939" fill="#308CF8" fill-opacity="0.45"/>
<ellipse cx="532.909" cy="514.617" rx="1.09091" ry="0.912939" fill="#308CF8" fill-opacity="0.45"/>
<ellipse cx="1.09091" cy="548.852" rx="1.09091" ry="0.912939" fill="#308CF8" fill-opacity="0.45"/>
<ellipse cx="42.0001" cy="548.852" rx="1.09091" ry="0.912939" fill="#308CF8" fill-opacity="0.45"/>
<ellipse cx="82.9091" cy="548.852" rx="1.09091" ry="0.912939" fill="#308CF8" fill-opacity="0.45"/>
<ellipse cx="123.818" cy="548.852" rx="1.09091" ry="0.912939" fill="#308CF8" fill-opacity="0.45"/>
<ellipse cx="164.727" cy="548.852" rx="1.09091" ry="0.912939" fill="#308CF8" fill-opacity="0.45"/>
<ellipse cx="205.636" cy="548.852" rx="1.09091" ry="0.912939" fill="#308CF8" fill-opacity="0.45"/>
<ellipse cx="246.545" cy="548.852" rx="1.09091" ry="0.912939" fill="#308CF8" fill-opacity="0.45"/>
<ellipse cx="287.455" cy="548.852" rx="1.09091" ry="0.912939" fill="#308CF8" fill-opacity="0.45"/>
<ellipse cx="328.364" cy="548.852" rx="1.09091" ry="0.912939" fill="#308CF8" fill-opacity="0.45"/>
<ellipse cx="369.273" cy="548.852" rx="1.09091" ry="0.912939" fill="#308CF8" fill-opacity="0.45"/>
<ellipse cx="410.182" cy="548.852" rx="1.09091" ry="0.912939" fill="#308CF8" fill-opacity="0.45"/>
<ellipse cx="451.091" cy="548.852" rx="1.09091" ry="0.912939" fill="#308CF8" fill-opacity="0.45"/>
<ellipse cx="492" cy="548.852" rx="1.09091" ry="0.912939" fill="#308CF8" fill-opacity="0.45"/>
<ellipse cx="532.909" cy="548.852" rx="1.09091" ry="0.912939" fill="#308CF8" fill-opacity="0.45"/>
<ellipse cx="1.09091" cy="583.087" rx="1.09091" ry="0.912939" fill="#308CF8" fill-opacity="0.45"/>
<ellipse cx="42.0001" cy="583.087" rx="1.09091" ry="0.912939" fill="#308CF8" fill-opacity="0.45"/>
<ellipse cx="82.9091" cy="583.087" rx="1.09091" ry="0.912939" fill="#308CF8" fill-opacity="0.45"/>
<ellipse cx="123.818" cy="583.087" rx="1.09091" ry="0.912939" fill="#308CF8" fill-opacity="0.45"/>
<ellipse cx="164.727" cy="583.087" rx="1.09091" ry="0.912939" fill="#308CF8" fill-opacity="0.45"/>
<ellipse cx="205.636" cy="583.087" rx="1.09091" ry="0.912939" fill="#308CF8" fill-opacity="0.45"/>
<ellipse cx="246.545" cy="583.087" rx="1.09091" ry="0.912939" fill="#308CF8" fill-opacity="0.45"/>
<ellipse cx="287.455" cy="583.087" rx="1.09091" ry="0.912939" fill="#308CF8" fill-opacity="0.45"/>
<ellipse cx="328.364" cy="583.087" rx="1.09091" ry="0.912939" fill="#308CF8" fill-opacity="0.45"/>
<ellipse cx="369.273" cy="583.087" rx="1.09091" ry="0.912939" fill="#308CF8" fill-opacity="0.45"/>
<ellipse cx="410.182" cy="583.087" rx="1.09091" ry="0.912939" fill="#308CF8" fill-opacity="0.45"/>
<ellipse cx="451.091" cy="583.087" rx="1.09091" ry="0.912939" fill="#308CF8" fill-opacity="0.45"/>
<ellipse cx="492" cy="583.087" rx="1.09091" ry="0.912939" fill="#308CF8" fill-opacity="0.45"/>
<ellipse cx="532.909" cy="583.087" rx="1.09091" ry="0.912939" fill="#308CF8" fill-opacity="0.45"/>
</svg>
