<svg width="14" height="14" viewBox="0 0 14 14" fill="none" xmlns="http://www.w3.org/2000/svg">
<g clip-path="url(#clip0_4_2)">
<path d="M14 7C14 3.1342 10.8658 -9.53674e-07 7 -9.53674e-07C3.13418 -9.53674e-07 0 3.1342 0 7C0 10.8658 3.13418 14 7 14C10.8658 14 14 10.8658 14 7ZM9.9087 6.40197L7.41394 9.40019C7.36341 9.46093 7.30013 9.50981 7.22859 9.54335C7.15706 9.57689 7.07901 9.59428 7 9.59428C6.92099 9.59428 6.84295 9.57689 6.77141 9.54335C6.69987 9.50981 6.63659 9.46093 6.58606 9.40019L4.0913 6.40197C4.02592 6.32334 3.98427 6.22772 3.97125 6.1263C3.95822 6.02487 3.97434 5.92183 4.01773 5.82923C4.06111 5.73663 4.12997 5.6583 4.21625 5.6034C4.30252 5.54851 4.40264 5.51931 4.5049 5.51923H9.4951C9.59736 5.51931 9.69748 5.54851 9.78375 5.6034C9.87003 5.6583 9.93889 5.73663 9.98227 5.82923C10.0257 5.92183 10.0418 6.02487 10.0288 6.1263C10.0157 6.22772 9.97408 6.32334 9.9087 6.40197Z" fill="#363B53"/>
</g>
<defs>
<clipPath id="clip0_4_2">
<rect width="14" height="14" fill="white" transform="matrix(1 0 0 -1 0 14)"/>
</clipPath>
</defs>
</svg>
