<svg width="10" height="10" viewBox="0 0 10 10" fill="none" xmlns="http://www.w3.org/2000/svg">
<path d="M10 5C10 2.2387 7.7613 0 5 0C2.2387 0 0 2.2387 0 5C0 7.7613 2.2387 10 5 10C7.7613 10 10 7.7613 10 5ZM7.07764 4.57284L5.29567 6.71442C5.25958 6.75781 5.21438 6.79272 5.16328 6.81668C5.11218 6.84064 5.05644 6.85306 5 6.85306C4.94356 6.85306 4.88782 6.84064 4.83672 6.81668C4.78562 6.79272 4.74042 6.75781 4.70433 6.71442L2.92236 4.57284C2.87565 4.51667 2.84591 4.44837 2.8366 4.37593C2.8273 4.30348 2.83881 4.22988 2.8698 4.16374C2.90079 4.09759 2.94998 4.04164 3.0116 4.00243C3.07323 3.96322 3.14475 3.94236 3.21779 3.94231H6.78221C6.85525 3.94236 6.92677 3.96322 6.9884 4.00243C7.05002 4.04164 7.09921 4.09759 7.1302 4.16374C7.16119 4.22988 7.1727 4.30348 7.1634 4.37593C7.15409 4.44837 7.12435 4.51667 7.07764 4.57284Z" fill="#363B53"/>
</svg>
