<svg width="701" height="701" viewBox="0 0 701 701" fill="none" xmlns="http://www.w3.org/2000/svg">
<rect width="701" height="701" rx="45" fill="url(#paint0_linear_796_226)"/>
<path d="M268.42 462.494C273.056 460.851 277.807 459.55 282.633 458.6L283.217 460.741C283.282 460.994 283.436 461.214 283.651 461.362C283.865 461.51 284.126 461.576 284.385 461.548L303.493 459.323C308.75 447.335 318.401 429.173 318.54 428.895C318.401 424.361 318.54 420.551 318.54 416.212C307.609 420.273 287.389 427.977 276.82 432.9C276.581 433.054 276.396 433.279 276.291 433.543C276.186 433.808 276.167 434.098 276.236 434.374C276.236 434.374 276.43 435.069 276.681 436.071C271.507 436.071 256.015 435.32 252.288 438.852C251.709 439.66 251.424 440.641 251.482 441.633C251.259 445.472 253.178 475.288 256.238 484.049C257.823 488.638 261.161 488.138 263.441 483.743C266.081 477.125 267.776 470.168 268.476 463.078C268.476 462.716 268.392 462.744 268.42 462.494ZM265.221 437.6C268.615 437.322 269.672 437.378 276.959 437.155C278.266 442.106 280.964 452.286 282.355 457.487C277.447 458.247 272.604 459.372 267.864 460.853C266.387 453.181 265.503 445.408 265.221 437.6Z" fill="black"/>
<path d="M524.415 194.177C525.111 193.203 524.221 191.952 523.47 190.978C525.597 188.79 527.956 186.841 530.506 185.165C534.81 183.02 538.744 180.204 542.16 176.821C543.579 175.347 546.249 172.315 545.248 170.535C544.246 168.755 542.466 168.644 540.046 169.673C541.095 168.572 541.95 167.303 542.577 165.918C543.356 163.749 541.521 161.996 537.543 163.61C538.99 161.301 539.323 158.881 536.876 157.713C534.901 156.767 532.008 159.02 530.34 160.494C527.063 163.358 523.987 166.443 521.133 169.729C519.381 166.057 516.6 161.829 513.123 163.165C509.646 164.5 512.344 170.479 514.124 173.734L507.811 178.1C506.856 177.585 505.778 177.345 504.695 177.405C497.52 178.629 464.561 203.717 461.223 203.717C458.664 203.717 422.117 186.194 390.521 181.132C390.46 180.943 390.347 180.774 390.194 180.646C390.042 180.518 389.856 180.436 389.659 180.409C384.148 179.469 378.56 179.049 372.971 179.157C372.801 179.169 372.636 179.217 372.487 179.299C372.338 179.38 372.209 179.493 372.108 179.63H369.772C369.216 177.377 367.158 172.176 366.434 170.174C368.326 168.533 370.94 167.698 372.303 165.056C374.806 160.161 374.695 151.65 374 146.198C377.143 143.806 377.226 139.968 376.503 136.046C376.225 134.461 375.363 130.873 374.028 129.983C373.277 129.482 371.691 129.983 370.328 130.484C368.966 127.313 368.966 128.759 369.522 127.48C369.78 126.89 369.931 126.259 369.967 125.616C371.441 126.061 374.5 123.113 373.443 119.219C372.89 117.825 372.21 116.485 371.413 115.214C371.802 114.268 372.637 113.128 370.022 109.651C368.896 108.437 367.434 107.585 365.823 107.204H364.543C363.621 105.864 362.265 104.882 360.705 104.422C358.349 103.822 355.852 104.171 353.751 105.396C353.195 105.813 352.75 106.369 352.194 106.759C350.936 105.995 349.493 105.591 348.022 105.591C346.551 105.591 345.108 105.995 343.85 106.759C343.114 107.048 342.443 107.482 341.879 108.037C341.315 108.591 340.869 109.254 340.568 109.985C339.205 109.515 337.759 109.334 336.323 109.454C334.886 109.573 333.49 109.991 332.224 110.68C327.419 113.286 323.825 117.669 322.211 122.891C322.166 123.678 322.166 124.467 322.211 125.255H321.905C317.733 124.643 312.421 134.544 316.676 142.249C317.177 143.167 317.816 144.029 318.428 145.03C320.208 147.811 319.513 148.646 323.49 152.039C324.659 153.04 324.853 152.957 325.576 153.569C326.3 154.181 326.021 153.875 326.439 155.432C326.666 156.35 327.073 157.213 327.637 157.972C328.2 158.731 328.908 159.371 329.721 159.855C330.016 162.575 331.176 165.129 333.03 167.142C333.618 167.799 334.302 168.362 335.061 168.811C335.265 168.926 335.494 168.993 335.728 169.005C336.563 174.179 337.592 180.91 338.037 183.774L335.561 185.109C332.323 186.413 329.173 187.927 326.133 189.643C325.894 189.808 325.726 190.056 325.66 190.338C322.712 191.896 319.93 193.37 318.345 194.316C296.261 207.416 233.541 293.777 232.902 297.726C232.831 297.953 232.831 298.195 232.902 298.422C233.801 299.856 234.896 301.157 236.156 302.288C235.768 302.996 235.301 303.658 234.765 304.263C229.203 307.906 220.859 313.33 216.381 318.169C216.066 318.449 215.831 318.806 215.697 319.205C215.563 319.604 215.535 320.031 215.617 320.444C215.698 320.857 215.886 321.241 216.161 321.559C216.437 321.877 216.79 322.118 217.187 322.258C218.022 322.536 218.161 322.453 223.584 319.477C222.094 320.784 220.875 322.372 219.996 324.149C219.635 325.679 221.025 326.569 222.778 326.291C223.764 326.032 224.702 325.619 225.559 325.067C225.057 325.842 224.79 326.745 224.79 327.668C224.79 328.59 225.057 329.494 225.559 330.268C228.34 333.773 235.627 322.731 239.466 320.005C241.023 321.98 243.137 326.597 246.503 325.373C249.423 324.288 246.224 317.863 246.503 316C247.634 314.913 248.843 313.909 250.118 312.996C252.264 314.587 254.717 315.714 257.322 316.306C261.911 316.306 309.806 267.966 313.45 264.1C312.142 276.393 305.551 329.156 306.941 339.419C307.581 344.064 318.734 344.731 323.435 344.982C322.016 378.358 321.071 428.923 320.82 429.451C313.45 445.333 311.447 449.672 308.972 454.483C304.466 463.106 285.497 494.924 283.355 502.156C283.05 503.296 283.022 503.741 284.218 505.855C280.634 509.623 277.307 513.628 274.26 517.843C272.731 520.624 279.295 546.546 283.94 555.725C284.996 557.783 286.721 560.954 289.029 560.87C295.983 560.62 295.955 535.643 295.76 528.662C295.759 528.447 295.68 528.239 295.538 528.078C296.798 526.197 298.173 524.395 299.654 522.682C300.538 523.291 301.468 523.83 302.436 524.295C303.381 524.713 304.438 523.989 305.217 523.35C314.479 516.062 364.432 453.816 375.14 424.445C380.007 411.039 386.488 392.515 388.324 379.387C389.446 371.086 389.549 362.68 388.63 354.355C388.63 354.237 388.677 354.123 388.76 354.04C388.843 353.957 388.957 353.91 389.075 353.91C389.193 353.91 389.306 353.957 389.389 354.04C389.473 354.123 389.52 354.237 389.52 354.355C390.913 362.727 391.184 371.248 390.326 379.693C388.268 397.911 373.889 435.876 366.212 449.839C372.832 448.615 386.293 445.945 392.802 443.998C414.496 437.406 434.522 417.742 436.274 395.658C436.841 385.254 436.841 374.827 436.274 364.423C436.087 350.061 434.22 335.769 430.712 321.841C436.608 318.642 442.004 314.887 443.756 311.438C447.511 304.068 437.581 261.652 435.412 249.748C447.288 251.055 467.509 253.419 476.938 246.049C487.729 237.371 511.037 212.951 524.415 194.177ZM294.258 527.132C289.252 524.101 282.243 516.897 281.186 511.251C282.326 509.805 283.522 508.469 284.635 506.967C288.404 512.719 293.104 517.805 298.542 522.015C297.014 523.634 295.584 525.343 294.258 527.132ZM515.376 174.512C515.52 174.421 515.623 174.277 515.664 174.112C515.706 173.946 515.682 173.771 515.598 173.622C514.625 171.815 511.704 165.445 513.735 164.722C514.903 164.277 515.932 165 516.794 165.974C518.111 167.644 519.136 169.525 519.826 171.536C519.878 171.7 519.973 171.846 520.101 171.96C520.229 172.074 520.386 172.151 520.555 172.182C520.723 172.213 520.897 172.198 521.058 172.139C521.219 172.079 521.36 171.976 521.467 171.842C524.248 168.755 530.757 161.718 534.428 159.827C537.21 158.381 537.877 161.051 531.063 167.281C529.497 168.474 527.994 169.746 526.557 171.091C526.478 171.201 526.435 171.332 526.435 171.467C526.435 171.602 526.478 171.733 526.557 171.842C526.557 172.565 527.141 173.372 528.142 172.621C530.56 170.499 533.115 168.538 535.791 166.752C537.157 165.782 538.744 165.17 540.408 164.972C539.574 167.531 531.814 174.485 531.146 175.263C530.934 175.453 530.806 175.718 530.788 176.002C530.77 176.286 530.864 176.565 531.05 176.78C531.236 176.995 531.498 177.129 531.782 177.152C532.065 177.175 532.346 177.086 532.565 176.904C535.652 174.902 541.048 170.229 542.911 170.924C544.775 171.62 539.24 176.793 537.849 178.017C529.867 184.943 531.925 180.492 522.691 189.893C518.671 185.49 514.056 181.671 508.979 178.545L515.376 174.512ZM394.526 307.545C394.053 303.706 393.469 299.562 392.746 295.251L393.942 293.666C399.505 286.518 401.174 275.142 400.645 266.214C403.621 279.258 405.985 292.08 407.793 304.819L394.526 307.545ZM353.167 212.311C345.852 206.748 334.087 197.153 327.245 190.589L338.371 185.026C348.587 194.568 357.332 205.572 364.321 217.679C375.007 237.311 382.934 258.322 387.879 280.12L348.217 224.021L353.39 213.284C353.458 213.119 353.474 212.937 353.434 212.762C353.394 212.588 353.301 212.43 353.167 212.311ZM371.969 180.77C372.136 181.076 374.055 185.165 376.976 192.313C376.976 192.619 376.447 199.572 376.197 202.02C372.647 200.613 369.299 198.742 366.24 196.457C366.852 194.038 369.605 183.051 369.8 180.576L371.969 180.77ZM362.096 210.642C362.29 210.142 362.485 209.474 362.707 208.695L364.571 209.669C365.628 210.364 365.211 208.25 366.156 214.369C366.156 215.398 366.434 216.539 366.49 217.79C365.211 215.482 363.625 213.006 362.123 210.642H362.096ZM360.538 208.306C355.283 200.853 349.302 193.94 342.682 187.668L363.625 196.763C362.819 198.682 361.651 204.551 360.566 208.306H360.538ZM381.927 224.605C379.145 217.011 377.004 208.528 375.947 206.303C376.01 205.609 376.01 204.911 375.947 204.217C376.349 204.367 376.77 204.461 377.198 204.495C377.467 204.498 377.727 204.404 377.931 204.231C378.136 204.057 378.271 203.815 378.311 203.55C378.533 202.632 378.895 197.987 378.951 196.958C387.042 217.386 393.796 238.318 399.171 259.622C383.456 226.19 385.876 235.869 381.954 224.605H381.927ZM404.928 277.701C398.587 247.3 387.434 209.391 374.751 181.299C379.408 181.302 384.059 181.674 388.657 182.411C391.022 203.55 389.047 202.827 390.632 203.661C392.218 204.495 401.758 208.334 403.176 208.918C403.037 211.059 405.04 272.305 404.956 277.701H404.928ZM372.915 131.763C374.365 134.927 374.876 138.441 374.389 141.887C374.163 142.764 373.697 143.561 373.045 144.19C372.392 144.818 371.578 145.253 370.693 145.446C369.808 145.639 368.887 145.583 368.032 145.284C367.177 144.984 366.422 144.454 365.85 143.751C364.523 140.955 363.525 138.015 362.874 134.989C363.625 134.016 371.636 132.069 372.915 131.763ZM334.644 159.577C333.628 159.114 332.588 158.705 331.529 158.353C330.818 158.061 330.183 157.609 329.673 157.034C329.164 156.459 328.793 155.774 328.589 155.033C328.385 154.292 328.353 153.514 328.496 152.759C328.639 152.004 328.954 151.291 329.415 150.676C331.167 149.202 332.752 149.286 334.199 151.483C335.116 153.179 335.089 153.319 335.506 153.485C335.626 153.538 335.755 153.565 335.886 153.563C336.017 153.562 336.146 153.533 336.264 153.477C336.383 153.422 336.488 153.342 336.573 153.243C336.658 153.143 336.721 153.027 336.757 152.901C337.17 151.16 337.236 149.355 336.952 147.589C336.618 145.67 336.563 137.159 336.618 136.881C337.431 137.309 338.343 137.511 339.261 137.465C344.295 137.27 345.296 134.683 347.299 132.57C349.607 132.792 350.08 133.905 352.695 132.57C353.919 131.873 355.042 131.012 356.032 130.011C356.832 130.338 357.604 130.729 358.341 131.179C360.008 131.981 361.888 132.227 363.705 131.881C365.522 131.536 367.18 130.617 368.437 129.26C368.743 129.844 369.021 130.428 369.271 131.04C366.716 131.833 364.309 133.046 362.151 134.628C361.678 135.212 362.374 138.383 362.541 139.134C360.211 139.427 357.956 140.153 355.893 141.275C355.476 139.829 354.558 137.131 353.112 136.38C352.677 136.247 352.212 136.247 351.777 136.38C349.274 136.769 340.29 139.467 339.205 140.942C338.259 141.971 340.957 149.925 341.792 151.233C344.99 156.183 354.363 154.737 356.116 148.952C356.55 147.01 356.55 144.997 356.116 143.055C356.922 143.055 359.342 142.193 359.62 142.11C361.539 146.421 362.096 146.671 364.321 151.316C364.015 151.566 363.514 151.983 363.097 152.262C361.122 153.569 360.705 153.346 360.816 153.903C360.849 154.013 360.92 154.108 361.017 154.169C361.115 154.231 361.231 154.255 361.345 154.236C362.512 154.07 363.653 153.752 364.738 153.291C365.387 153.048 365.923 152.572 366.24 151.956C367.019 150.203 362.707 143.612 361.011 141.637C361.345 141.637 362.123 141.081 362.707 140.775C363.486 143.89 364.015 146.337 367.019 147.561C367.887 147.889 368.812 148.038 369.739 148C370.666 147.962 371.576 147.737 372.414 147.339C372.859 152.234 372.776 160.188 370.44 164.527C369.244 166.78 366.295 167.642 364.404 169.506C363.848 170.034 364.209 170.785 364.404 171.592C367.491 180.186 367.547 180.159 367.38 181.271C366.562 185.889 365.418 190.443 363.959 194.9C363.264 194.594 355.448 190.45 340.151 184.498C339.678 181.355 337.147 164.583 336.34 161.496C336.396 160.411 336.257 160.161 334.644 159.438V159.577ZM354.113 148.229C353.223 151.26 349.023 152.568 346.019 151.733C343.015 150.899 342.821 149.369 341.402 145.753C340.737 144.372 340.278 142.901 340.039 141.387C340.957 140.385 350.998 138.327 352.25 138.132C354.005 141.135 354.664 144.655 354.113 148.09V148.229ZM245.279 315.221C244.222 316.25 245.64 319.616 245.863 322.536C245.863 322.786 245.863 323.871 245.696 323.954C244.166 324.455 242.748 322.147 241.886 320.756C241.023 319.365 240.161 317.474 238.798 317.975C236.017 319.282 229.564 327.848 227.033 328.738C225.754 326.291 233.069 319.31 233.319 318.92C233.426 318.741 233.483 318.537 233.482 318.328C233.481 318.12 233.422 317.915 233.313 317.738C233.204 317.56 233.049 317.415 232.863 317.32C232.678 317.224 232.47 317.181 232.262 317.196C231.761 317.196 231.428 317.641 230.649 318.336C228.28 320.648 225.569 322.581 222.611 324.066C225.293 320.989 228.163 318.081 231.205 315.36C231.355 315.206 231.461 315.013 231.511 314.804C231.511 314.804 230.927 313.33 229.787 313.914C228.173 314.804 220.33 319.337 217.855 320.506C217.521 320.283 217.716 319.949 217.855 319.616C221.776 314.804 230.399 308.963 235.683 305.264C236.303 304.625 236.82 303.893 237.213 303.094C240.873 306.5 244.777 309.632 248.895 312.468C247.626 313.299 246.418 314.219 245.279 315.221ZM310.001 340.504C309.389 340.114 308.944 339.753 308.86 339.252C307.331 327.904 315.842 263.599 315.703 261.068C315.703 260.92 315.673 260.773 315.615 260.636C315.558 260.499 315.473 260.375 315.367 260.271C315.261 260.168 315.135 260.086 314.997 260.032C314.858 259.978 314.711 259.952 314.562 259.956C313.144 259.956 315.647 259.956 280.213 293.888C277.876 296.085 260.02 313.163 257.044 314.303C252.955 313.997 237.574 301.731 235.071 297.865C239.911 288.075 298.597 207.527 318.901 195.206C320.459 194.26 323.129 192.786 326.049 191.228C327.059 192.181 328.148 193.046 329.303 193.815C335.756 199.934 344.74 207.555 351.554 213.284L346.242 223.826C346.161 223.965 346.119 224.124 346.119 224.285C346.119 224.446 346.161 224.604 346.242 224.744C389.381 286.629 388.741 285.933 389.019 285.933C391.784 300.234 393.504 314.717 394.165 329.267C394.165 333.189 394.165 332.855 394.331 332.577C394.498 332.299 394.331 332.771 394.331 332.771C387.601 340.114 320.987 346.956 310.001 340.504ZM463.754 248.357C451.154 250.11 436.914 247.495 434.16 247.384C432.63 239.969 429.581 232.952 425.204 226.774C425.138 226.684 425.039 226.623 424.929 226.602C424.819 226.581 424.705 226.603 424.61 226.663C424.515 226.722 424.446 226.816 424.417 226.924C424.388 227.032 424.401 227.148 424.453 227.247C426.067 230.529 431.462 244.686 432.798 248.135C432.38 249.47 445.369 303.178 441.698 310.409C438.416 316.945 419.308 325.178 412.41 327.542C411.046 312.058 408.818 296.663 405.735 281.428C406.681 273.417 405.457 225.801 405.095 208.195C405.085 207.99 405.016 207.793 404.898 207.625C404.78 207.458 404.617 207.327 404.428 207.249L391.939 201.992C391.883 195.383 391.465 188.781 390.688 182.217C421.867 187.613 458.191 205.441 461.223 205.469C465.617 205.469 498.271 180.437 505.029 179.435C508.033 178.963 520.939 190.227 522.441 193.342C509.257 211.755 486.088 235.953 475.352 244.324C471.894 246.637 467.901 248.025 463.754 248.357Z" fill="black"/>
<path d="M351.249 142.666C351.214 142.483 351.144 142.309 351.042 142.154C350.94 141.998 350.808 141.865 350.655 141.76C350.501 141.655 350.328 141.582 350.146 141.544C349.964 141.506 349.776 141.505 349.594 141.54C349.411 141.574 349.237 141.645 349.082 141.747C348.926 141.848 348.792 141.98 348.688 142.134C348.583 142.287 348.51 142.46 348.472 142.642C348.434 142.824 348.433 143.012 348.467 143.194C349.024 145.976 349.135 146.616 350.359 146.616C350.59 146.616 350.818 146.559 351.022 146.45C351.225 146.34 351.399 146.182 351.526 145.989C351.653 145.795 351.73 145.573 351.749 145.343C351.769 145.112 351.731 144.881 351.638 144.669C351.555 144.224 351.304 142.916 351.249 142.666ZM359.76 161.079C361.567 161.607 363.292 160.745 363.236 160.3C363.181 159.855 363.236 160.077 360.789 159.159C359.148 158.548 357.34 156.378 356.7 156.712C356.06 157.046 357.034 158.826 357.256 159.159C357.851 160.062 358.733 160.738 359.76 161.079ZM410.631 134.656C406.987 149.925 404.317 162.886 403.872 165.473C403.576 166.598 403.52 167.773 403.705 168.922C405.179 172.065 424.231 178.267 426.651 177.044C429.071 175.82 435.357 161.663 442.672 147.061C447.153 147.204 451.637 146.877 456.05 146.087C460.697 145.235 465.219 143.805 469.512 141.832C478.913 137.493 489.204 118.913 490.594 109.568C491.637 99.4216 489.489 89.2028 484.448 80.3359C461.112 39.8672 392.663 61.6452 398.226 106.592C399.814 116.876 404.094 126.558 410.631 134.656ZM427.597 167.782C427.597 168.227 427.096 168.171 424.815 167.782C420.15 167.195 415.634 165.753 411.493 163.526C409.546 162.469 409.017 162.247 409.212 161.774C409.407 161.301 409.824 161.468 412.828 162.302C413.106 162.302 421.728 165.084 424.204 165.946C427.402 167.392 427.597 167.392 427.597 167.782ZM427.096 122.529C430.066 122.683 433.026 122.07 435.691 120.749C438.167 121.949 440.846 122.675 443.59 122.891C438.917 131.596 429.432 149.341 426.373 158.798L414.58 155.544C417.361 148.702 423.508 132.681 427.041 122.529H427.096ZM426.123 120.22C424.046 119.907 422.13 118.921 420.668 117.414C419.207 115.906 418.279 113.961 418.029 111.876C417.25 106.314 420.81 100.083 426.178 101.558C429.544 102.475 429.961 105.146 429.377 108.511C428.876 110.959 427.068 117.105 426.067 120.109L426.123 120.22ZM433.688 113.545C433.985 111.725 434.668 109.99 435.691 108.455C436.177 107.619 436.889 106.936 437.744 106.483C438.6 106.031 439.565 105.828 440.53 105.897C442.588 106.508 443.478 110.402 441.782 112.85C440.151 115.014 438.121 116.845 435.802 118.246C435.004 117.777 434.368 117.076 433.98 116.236C433.592 115.395 433.471 114.456 433.632 113.545H433.688ZM408.127 78.1942C420.588 63.2027 444.035 57.2507 460.973 63.4253C470.175 66.5839 477.914 72.9794 482.751 81.4206C487.546 89.858 489.598 99.5786 488.62 109.234C487.34 117.884 477.494 135.852 468.844 139.829C460.936 143.436 452.307 145.187 443.617 144.947C442.672 144.947 441.67 144.947 441.309 145.614C439.668 148.952 436.664 155.405 433.716 161.468C431.68 160.485 429.569 159.666 427.402 159.02C430.628 149.786 440.808 131.652 445.648 122.863C449.841 123.222 454.056 122.494 457.886 120.749C458.92 120.204 459.778 119.376 460.359 118.361C460.939 117.346 461.218 116.186 461.162 115.018C461.107 113.85 460.719 112.722 460.045 111.767C459.371 110.811 458.439 110.068 457.357 109.624C453.046 107.51 449.18 112.572 446.927 116.827C446.315 117.94 445.62 119.247 444.841 120.721C442.592 120.573 440.373 120.115 438.249 119.358C440.365 117.872 442.241 116.071 443.812 114.018C444.693 112.688 445.139 111.118 445.089 109.524C445.039 107.929 444.496 106.39 443.534 105.118C442.778 104.24 441.729 103.668 440.582 103.51C439.435 103.351 438.269 103.616 437.304 104.256C435.356 105.452 433.795 107.186 432.808 109.248C431.821 111.311 431.451 113.614 431.741 115.882C432.043 117.162 432.733 118.317 433.716 119.191C431.891 119.947 429.933 120.325 427.958 120.304C429.071 117.022 430.879 111.098 431.352 108.678C431.648 107.298 431.714 105.879 431.546 104.478C431.331 103.275 430.773 102.16 429.939 101.267C429.105 100.374 428.031 99.7409 426.846 99.4438C420.087 97.5246 415.109 105.006 416.082 111.988C416.357 114.489 417.431 116.836 419.144 118.68C420.857 120.523 423.119 121.766 425.594 122.223C422.034 132.236 416.471 148.396 413.69 155.293L407.571 153.708C411.493 134.016 411.966 134.489 411.409 134.238C405.09 126.181 401.046 116.576 399.7 106.425C399.044 101.391 399.456 96.2763 400.908 91.4123C402.36 86.5484 404.82 82.0447 408.127 78.1942ZM446.733 120.888C448.679 117.356 452.573 109.624 456.356 111.515C457.112 111.82 457.771 112.325 458.262 112.977C458.752 113.629 459.055 114.403 459.137 115.214C459.082 120.109 451.461 120.971 446.621 120.888H446.733ZM553.203 133.154C556.555 131.183 560.513 130.51 564.328 131.262C568.519 131.337 572.521 133.013 575.516 135.945C578.51 138.878 580.269 142.845 580.432 147.033C577.912 145.571 574.966 145.021 572.088 145.475C565.107 146.087 555.984 149.87 557.208 156.601C558.209 162.163 565.552 161.412 571.115 159.91C576.677 158.408 581.1 155.683 582.24 150.315C588.999 155.238 590.584 163.86 590.862 172.287C590.862 172.405 590.909 172.519 590.992 172.602C591.076 172.686 591.189 172.732 591.307 172.732C591.425 172.732 591.538 172.686 591.622 172.602C591.705 172.519 591.752 172.405 591.752 172.287C591.947 162.859 590.25 153.625 582.546 148.257C582.625 145.842 582.214 143.436 581.336 141.185C580.458 138.934 579.133 136.884 577.44 135.16C575.747 133.436 573.723 132.074 571.488 131.155C569.253 130.236 566.855 129.781 564.439 129.816C560.578 129.252 556.642 130.059 553.314 132.097C552.285 132.597 552.758 133.348 553.203 133.154ZM578.569 153.096C575.426 157.212 566.525 159.354 562.409 158.659C560.879 158.408 559.628 157.769 559.294 156.183C558.293 150.621 567.888 147.589 573.618 147.394C575.951 147.215 578.278 147.812 580.237 149.091C580.027 150.545 579.453 151.923 578.569 153.096ZM540.464 100.64C543.44 96.9684 541.438 90.5713 533.121 90.5434C529.895 90.5434 528.337 93.8254 528.56 96.9684C529.061 104.45 537.488 104.228 540.464 100.64ZM530.507 96.8293C530.507 94.9936 531.369 92.6016 533.288 92.6295C537.766 92.6295 539.824 94.7155 539.824 97.024C539.713 102.281 530.145 105.006 530.507 96.8293ZM529.366 412.151C504.918 402.389 493.57 449.644 473.6 490.252C473.474 491.959 473.53 493.674 473.767 495.369C473.767 499.625 474.24 527.8 476.715 530.998C477.383 532.278 480.192 530.998 481.499 530.192C492.602 523.319 503.065 515.462 512.762 506.717C512.844 506.623 512.907 506.512 512.945 506.393C512.983 506.273 512.997 506.147 512.984 506.022C518.158 498.651 537.544 460.269 542.244 441.022C545.526 427.393 542.272 417.241 529.366 412.151ZM538.1 447.474C525.011 445.797 512.357 441.664 500.802 435.292C507.31 422.971 515.348 408.925 528.616 414.209C543.384 420.078 543.078 432.233 538.1 447.391V447.474ZM491.818 519.79C490.964 519.073 490.031 518.458 489.037 517.954C485.278 516.043 480.936 515.626 476.882 516.786C476.604 513.476 475.019 491.948 475.019 491.753C495.851 499.374 489.426 496.065 510.064 506.328C507.894 508.386 499.745 514.088 491.818 519.734V519.79ZM506.17 439.297C508.883 440.779 511.667 442.125 514.514 443.33C508.139 453.344 502.505 463.811 497.659 474.648C492.986 484.411 493.153 484.355 488.397 495.008C485.616 494.118 482.834 493.283 480.053 492.449C483.057 486.469 504.418 442.746 506.17 439.242V439.297ZM489.482 495.286C498.521 479.071 507.728 458.906 515.627 443.692C518.408 444.86 521.189 445.806 523.971 446.64C522.496 449.421 518.185 456.82 517.045 458.961C515.905 461.103 504.473 483.632 503.667 485.356C502.387 488.138 498.883 495.898 497.798 498.373C494.961 497.121 492.235 496.176 489.371 495.23L489.482 495.286ZM498.799 498.735C500.496 495.647 507.477 482.686 508.339 481.017C509.647 478.431 524.221 448.643 525.028 446.918C527.586 447.641 530.284 448.253 532.009 448.587C526.919 462.494 512.261 489.278 506.977 502.49C502.165 500.237 501.08 499.68 498.688 498.679L498.799 498.735ZM500.496 436.099L505.475 438.88C495.442 455.966 486.702 473.779 479.33 492.171L475.158 490.891C491.318 456.458 492.069 451.952 500.385 436.043L500.496 436.099ZM511.955 504.909L507.755 502.907C512.289 494.006 526.474 471.171 532.954 448.782C534.512 449.06 536.042 449.31 537.516 449.505C530.368 468.576 521.786 487.079 511.844 504.854L511.955 504.909ZM424.815 522.96C425.924 522.042 426.716 520.8 427.081 519.407C427.445 518.015 427.363 516.543 426.846 515.2C426.61 513.262 425.721 511.462 424.326 510.097C422.931 508.731 421.112 507.882 419.17 507.687C417.227 507.493 415.276 507.966 413.638 509.028C412 510.09 410.773 511.679 410.158 513.531C406.598 511.223 402.732 508.775 399.032 506.439C401.814 502.74 409.991 504.381 410.825 507.413C410.844 507.531 410.908 507.636 411.005 507.707C411.101 507.777 411.222 507.806 411.34 507.788C411.458 507.77 411.564 507.705 411.634 507.608C411.705 507.512 411.734 507.391 411.715 507.273C411.298 502.434 401.23 499.597 397.169 505.299C393.581 503.101 389.131 500.431 385.404 498.401C388.602 495.62 395.75 497.177 396.529 500.07C396.566 500.169 396.636 500.251 396.728 500.303C396.82 500.355 396.927 500.372 397.031 500.352C397.135 500.332 397.228 500.276 397.294 500.194C397.36 500.111 397.394 500.008 397.391 499.903C397.03 495.397 387.712 492.365 383.485 497.316C381.713 496.324 379.85 495.504 377.922 494.869C377.57 494.722 377.182 494.681 376.807 494.751C376.432 494.82 376.085 494.996 375.808 495.258C368.771 504.019 345.046 526.771 334.088 529.413C333.812 529.454 333.553 529.568 333.335 529.742C333.117 529.915 332.949 530.144 332.847 530.403C332.746 530.662 332.715 530.944 332.757 531.219C332.798 531.495 332.912 531.754 333.086 531.972C335.493 534.414 338.249 536.486 341.264 538.119C338.482 540.9 336.313 543.403 334.7 545.211C333.865 546.101 333.42 563.123 334.143 566.878C334.251 567.245 334.488 567.562 334.811 567.768C338.315 570.16 383.457 589.685 388.074 587.07C391.161 585.318 428.014 546.963 428.598 545.795C429.488 543.959 429.182 531.721 429.127 526.826C428.904 525.352 426.15 523.767 424.815 522.96ZM335.812 559.702V553.5C347.355 559.062 373.778 570.41 383.79 573.581C386.349 574.415 386.572 574.304 387.907 573.581C395.556 568.686 422.563 538.258 427.513 533.613V539.482C412.494 554.529 386.989 580.896 386.516 579.394C383.763 579.227 338.204 560.814 335.812 559.702ZM424.12 513.587C425.12 515.272 425.657 517.191 425.678 519.15C425.668 519.773 425.515 520.386 425.23 520.941C424.946 521.495 424.537 521.977 424.037 522.348C421.7 520.791 417.278 517.898 412.049 514.505C414.914 508.859 421.283 508.775 424.009 513.587H424.12ZM335.117 531.388C346.965 527.883 369.467 506.189 377.032 496.788C378.853 497.294 380.608 498.013 382.261 498.929C379.479 504.103 382.455 509.777 383.512 508.97C384.096 508.525 383.04 508.358 382.873 505.632C382.802 503.641 383.252 501.666 384.18 499.903C388.018 501.905 392.524 504.52 396.334 506.717C393.998 511.918 396.807 517.064 397.781 516.313C398.754 515.562 397.336 515.729 397.169 513.003C397.101 511.216 397.443 509.436 398.17 507.802C402.092 510.11 406.097 512.502 409.768 514.755C409.203 516.141 408.978 517.643 409.113 519.133C409.249 520.624 409.741 522.061 410.547 523.322C410.584 523.369 410.629 523.409 410.681 523.439C410.733 523.469 410.79 523.488 410.85 523.496C410.909 523.504 410.969 523.5 411.027 523.484C411.085 523.469 411.139 523.442 411.187 523.405C411.234 523.369 411.274 523.323 411.304 523.271C411.334 523.219 411.353 523.162 411.361 523.103C411.369 523.043 411.365 522.983 411.349 522.925C411.334 522.867 411.307 522.813 411.27 522.766C410.77 521.661 410.524 520.458 410.548 519.245C410.572 518.033 410.866 516.841 411.409 515.757C417.89 519.706 423.119 523.016 424.732 524.101C424.426 524.379 395.417 550.19 385.543 557.866C379.062 556.17 345.046 539.287 335.117 531.388ZM336.174 546.88C348.773 552.443 377.393 565.348 383.985 566.6C385.126 566.822 385.571 566.906 387.74 565.181C397.002 557.755 427.124 526.242 427.402 526.576C427.416 526.659 427.416 526.743 427.402 526.826V532.389C421.2 537.368 386.711 573.581 386.155 571.856C383.373 571.856 338.176 553.416 335.868 552.387C335.812 551.219 336.062 548.104 336.174 546.88ZM386.822 585.207C384.041 586.792 341.681 569.576 336.007 566.071C335.794 564.299 335.692 562.516 335.701 560.731C347.883 566.739 383.318 581.702 386.572 581.563C391.328 581.313 424.954 543.459 427.346 540.817C427.374 542.237 427.234 543.656 426.929 545.044C426.456 545.962 388.658 584.178 386.822 585.207ZM156.387 428.422C156.582 431.398 156.721 433.985 156.721 436.405C156.721 436.773 156.867 437.127 157.128 437.388C157.389 437.649 157.743 437.795 158.112 437.795C158.48 437.795 158.834 437.649 159.095 437.388C159.356 437.127 159.502 436.773 159.502 436.405C159.502 433.818 159.363 431.259 159.168 428.227C159.143 427.859 158.971 427.515 158.692 427.273C158.413 427.03 158.049 426.908 157.68 426.934C157.312 426.96 156.968 427.131 156.726 427.41C156.483 427.689 156.361 428.053 156.387 428.422ZM580.182 372.656C580 372.667 579.822 372.713 579.659 372.794C579.496 372.874 579.35 372.986 579.231 373.123C579.112 373.261 579.021 373.421 578.965 373.593C578.908 373.766 578.887 373.949 578.902 374.13C579.069 376.689 579.236 379.443 579.236 382.113C579.236 382.481 579.383 382.835 579.643 383.096C579.904 383.357 580.258 383.503 580.627 383.503C580.996 383.503 581.349 383.357 581.61 383.096C581.871 382.835 582.017 382.481 582.017 382.113C582.017 379.331 581.851 376.55 581.656 373.935C581.645 373.754 581.599 373.576 581.518 373.413C581.438 373.25 581.326 373.104 581.189 372.985C581.051 372.866 580.891 372.775 580.718 372.719C580.546 372.662 580.363 372.641 580.182 372.656ZM149.183 421.497C149.552 421.497 149.906 421.35 150.167 421.089C150.428 420.828 150.574 420.475 150.574 420.106C150.574 419.737 150.428 419.383 150.167 419.122C149.906 418.862 149.552 418.715 149.183 418.715C145.818 418.715 143.009 418.965 140.227 418.91C139.856 418.91 139.499 419.055 139.234 419.315C138.969 419.576 138.816 419.929 138.809 420.301C138.809 420.669 138.955 421.023 139.216 421.284C139.477 421.545 139.831 421.691 140.2 421.691C143.064 421.747 146.207 421.636 149.183 421.497ZM571.56 364.423C568.222 364.423 565.413 364.618 562.604 364.646C562.235 364.646 561.881 364.792 561.62 365.053C561.359 365.314 561.213 365.668 561.213 366.036C561.213 366.405 561.359 366.759 561.62 367.02C561.881 367.281 562.235 367.427 562.604 367.427C565.607 367.427 568.723 367.427 571.726 367.205C572.095 367.182 572.44 367.015 572.685 366.738C572.931 366.462 573.056 366.099 573.034 365.73C573.012 365.362 572.844 365.017 572.567 364.772C572.291 364.526 571.928 364.401 571.56 364.423ZM155.636 404.308C155.803 406.867 155.97 409.62 155.97 412.29C155.977 412.657 156.126 413.007 156.385 413.266C156.644 413.525 156.994 413.674 157.361 413.681C157.729 413.681 158.083 413.534 158.344 413.274C158.605 413.013 158.751 412.659 158.751 412.29C158.751 409.509 158.584 406.728 158.418 404.113C158.392 403.744 158.22 403.401 157.941 403.158C157.662 402.916 157.298 402.794 156.929 402.82C156.561 402.846 156.217 403.017 155.975 403.296C155.732 403.575 155.61 403.939 155.636 404.308ZM581.266 357.998C581.266 355.217 581.1 352.436 580.905 349.821C580.879 349.452 580.708 349.109 580.429 348.866C580.15 348.624 579.786 348.502 579.417 348.528C579.048 348.554 578.705 348.725 578.462 349.004C578.219 349.283 578.098 349.647 578.124 350.016C578.29 352.575 578.457 355.328 578.457 357.998C578.457 358.367 578.604 358.721 578.865 358.982C579.125 359.242 579.479 359.389 579.848 359.389C580.219 359.389 580.576 359.243 580.841 358.983C581.107 358.723 581.259 358.37 581.266 357.998ZM176.163 421.135C176.345 421.128 176.525 421.085 176.691 421.008C176.857 420.931 177.006 420.823 177.13 420.689C177.254 420.554 177.35 420.397 177.413 420.225C177.476 420.054 177.505 419.871 177.498 419.689C177.47 419.325 177.305 418.985 177.037 418.737C176.768 418.49 176.416 418.353 176.051 418.354C172.686 418.493 169.877 418.604 167.068 418.548C166.699 418.548 166.345 418.695 166.084 418.956C165.823 419.216 165.677 419.57 165.677 419.939C165.677 420.308 165.823 420.662 166.084 420.922C166.345 421.183 166.699 421.33 167.068 421.33C170.044 421.385 173.159 421.274 176.163 421.135ZM598.539 364.062C595.757 364.201 592.67 364.284 589.583 364.284C589.399 364.277 589.216 364.306 589.044 364.371C588.872 364.437 588.715 364.536 588.583 364.663C588.45 364.79 588.345 364.943 588.273 365.112C588.201 365.281 588.164 365.463 588.164 365.647C588.164 366.018 588.31 366.375 588.57 366.64C588.83 366.906 589.184 367.058 589.555 367.065C592.726 367.065 595.284 367.065 598.65 366.843C598.833 366.836 599.012 366.793 599.178 366.716C599.344 366.64 599.493 366.531 599.617 366.397C599.741 366.262 599.838 366.105 599.901 365.933C599.964 365.762 599.992 365.579 599.985 365.397C599.951 365.035 599.784 364.699 599.517 364.452C599.25 364.206 598.902 364.067 598.539 364.062ZM112.247 338.724C112.609 339.002 191.043 327.376 194.408 325.317C194.595 325.181 194.743 325 194.841 324.791C194.938 324.582 194.981 324.352 194.964 324.121C194.964 320.533 190.264 286.851 188.011 278.452C187.733 277.423 187.455 276.393 186.815 276.032C182.56 273.473 107.574 287.602 103.096 290.495C102.975 290.567 102.87 290.663 102.789 290.778C102.707 290.893 102.651 291.024 102.624 291.162C101.678 294.528 109.827 337.055 112.247 338.724ZM104.32 291.83C109.66 289.41 177.72 276.95 185.508 277.923C187.399 282.791 192.461 318.447 192.795 323.676C188.929 324.817 113.304 337.806 113.026 337.861C112.748 337.917 112.72 338.251 112.136 336.498C109.688 329.156 104.181 298.116 104.32 291.83Z" fill="black"/>
<path d="M200.527 327.793C200.678 327.512 200.746 327.193 200.722 326.875C200.722 322.453 194.38 273.362 192.127 269.44C191.951 269.151 191.701 268.914 191.403 268.752C191.105 268.591 190.769 268.512 190.431 268.522C181.113 267.382 102.512 282.735 97.3388 286.323C96.6157 286.824 96.7269 288.075 96.8104 289.41C97.2554 296.725 105.154 344.843 107.936 344.564C108.242 344.564 108.13 344.342 107.407 345.816C103.068 354.744 94.8356 383.336 95.0025 389.094C95.0025 391.514 95.5588 394.657 97.9507 394.49C115.112 392.376 199.248 379.025 223.445 374.047C224.391 373.852 225.003 372.99 224.975 371.571C224.69 369.208 223.973 366.917 222.861 364.813C219.468 358.443 205.394 333.216 200.527 327.793ZM108.103 343.702C105.933 340.921 97.9507 292.998 98.5626 287.686C104.682 284.515 182.226 269.524 190.347 270.747C192.572 276.866 198.33 321.062 198.691 326.374C188.845 329.768 120.674 340.782 108.103 343.702ZM109.326 344.537C111.663 343.952 191.237 330.63 198.524 328.711C202.502 332.41 220.469 364.368 221.637 367.093C205.673 369.875 110.967 385.701 97.0329 387.814C97.2276 379.387 105.878 349.932 109.326 344.537Z" fill="black"/>
<path d="M119.785 373.379C122.204 373.018 173.548 366.843 192.1 361.809C192.214 361.779 192.312 361.706 192.372 361.604C192.432 361.502 192.449 361.381 192.42 361.266C192.39 361.152 192.316 361.054 192.215 360.994C192.113 360.934 191.992 360.917 191.877 360.947C188.234 361.697 143.788 367.622 119.729 372.517C119.662 372.505 119.594 372.508 119.529 372.527C119.464 372.545 119.404 372.578 119.354 372.623C119.303 372.668 119.264 372.724 119.238 372.786C119.213 372.849 119.202 372.916 119.206 372.984C119.21 373.051 119.23 373.117 119.263 373.175C119.297 373.234 119.343 373.284 119.399 373.322C119.455 373.36 119.518 373.385 119.585 373.395C119.652 373.405 119.72 373.4 119.785 373.379ZM157.305 179.853C156.266 182.199 155.392 184.616 154.69 187.084C154.649 187.48 154.758 187.877 154.996 188.197C157.806 192.424 186.593 224.883 194.102 229.444C195.131 230.084 196.355 230.529 197.106 229.611C202.561 222.823 209.681 217.563 217.772 214.341C224.357 212.012 231.261 210.708 238.242 210.475C243.805 209.975 244.778 209.418 246.92 205.775C249.446 200.98 252.798 196.668 256.822 193.036C261.952 188.551 267.646 184.754 273.76 181.744C274.035 181.588 274.251 181.345 274.372 181.052C274.492 180.76 274.512 180.436 274.428 180.131C273.487 177.738 272.244 175.476 270.729 173.4C271.73 173.066 272.842 172.76 272.842 171.759C272.842 168.978 248.589 133.877 241.858 127.257C241.163 126.562 240.161 125.644 239.244 125.7C225.337 126.479 211.792 139.607 203.948 151.066C194.964 150.732 189.151 149.925 178.916 154.236C171.69 157.304 165.176 161.83 159.78 167.531C158.946 168.394 153.272 174.401 153.189 174.874C153.105 175.347 153.272 175.347 157.305 179.853ZM268.559 179.074C256.961 181.049 249.562 190.7 244.111 201.186C241.691 205.858 241.914 206.081 239.355 206.025C234.88 205.772 230.392 205.939 225.949 206.526C222.69 207.013 219.486 207.814 216.381 208.918C209.316 211.421 201.223 219.431 196.911 225.383C196.82 225.506 196.703 225.608 196.57 225.682C196.436 225.756 196.288 225.801 196.136 225.814C195.984 225.828 195.83 225.808 195.686 225.758C195.542 225.708 195.409 225.627 195.298 225.522C186.259 216.205 170.266 199.851 162.228 190.45C161.839 190.032 162.506 189.421 162.895 189.866C168.097 195.428 181.531 208.751 195.938 223.242C200.805 217.039 208.315 209.53 215.741 206.915C219.791 205.471 224.004 204.536 228.285 204.134C232.294 203.829 236.32 203.829 240.328 204.134C241.969 202.243 250.091 180.771 268.503 178.379C268.557 178.418 268.602 178.469 268.633 178.528C268.664 178.587 268.682 178.653 268.685 178.72C268.687 178.786 268.675 178.853 268.648 178.914C268.622 178.976 268.582 179.03 268.531 179.074H268.559ZM239.216 127.953C244.778 131.847 267.419 165.362 270.367 171.23C265.251 172.851 260.312 174.985 255.626 177.6C251.188 179.825 247.302 183.011 244.251 186.928C241.201 190.845 239.062 195.392 237.992 200.24C228.007 183.997 214.072 166.113 204.81 152.957C205.367 152.595 220.998 129.037 239.216 127.953ZM179.528 155.766C189.68 151.678 195.298 152.623 203.698 152.985C212.042 167.225 227.033 187.307 236.907 200.463C227.794 198.306 218.204 199.625 210.012 204.162C205.089 206.943 199.081 213.618 195.382 217.763C190.041 213.479 159.224 180.659 154.273 175.097C161.894 166.474 168.931 159.994 179.528 155.655V155.766ZM128.629 226.496C127.942 226.014 127.129 225.741 126.29 225.711C125.451 225.682 124.621 225.896 123.901 226.329C123.377 226.563 122.904 226.898 122.509 227.314C122.114 227.731 121.805 228.221 121.6 228.757C121.395 229.293 121.297 229.864 121.312 230.438C121.328 231.011 121.456 231.576 121.69 232.1C121.924 232.625 122.258 233.097 122.675 233.492C123.091 233.887 123.582 234.196 124.117 234.401C124.653 234.607 125.224 234.704 125.798 234.689C126.372 234.674 126.937 234.545 127.461 234.312C128.298 234.128 129.06 233.695 129.646 233.069C130.231 232.443 130.613 231.654 130.739 230.806C130.866 229.959 130.732 229.093 130.355 228.323C129.978 227.553 129.376 226.916 128.629 226.496ZM126.794 232.059C124.847 232.671 123.678 232.059 123.206 231.113C122.316 229.138 123.428 226.107 126.321 226.997C128.351 227.748 129.992 231.169 126.794 232.198V232.059ZM270.061 99.2213C270.868 100.862 274.622 100.25 276.263 99.7219C277.126 99.4438 277.682 99.1378 277.765 98.3034C278.016 96.2174 278.294 78.1386 277.348 76.3864C277.25 76.2026 277.101 76.0518 276.918 75.9529C276.734 75.8539 276.526 75.8112 276.319 75.8301C273.351 75.8219 270.399 76.253 267.558 77.1095C266.417 77.8049 269.06 97.3856 270.061 99.2213ZM268.142 77.7771C270.711 77.4095 273.31 77.2884 275.902 77.4155C276.069 79.4737 275.624 97.3021 275.596 97.5803C274.421 98.0014 273.166 98.1534 271.924 98.0253C271.73 97.3856 271.396 95.6612 270.979 93.4917C269.753 88.3079 268.806 83.0622 268.142 77.7771ZM125.931 203.021C126.198 203.158 126.494 203.229 126.794 203.229C127.093 203.229 127.389 203.158 127.656 203.021C128.73 202.359 129.583 201.39 130.103 200.24C130.174 200.056 130.196 199.857 130.167 199.662C130.137 199.467 130.058 199.283 129.936 199.127C128.601 197.542 114.027 180.659 112.247 181.716C110.062 183.131 107.988 184.712 106.045 186.444C105.966 186.515 105.904 186.6 105.86 186.696C105.817 186.792 105.795 186.896 105.794 187.001C105.739 188.447 121.926 201.408 125.931 203.021ZM112.581 182.439C114.611 183.913 121.453 192.369 127.795 199.851C127.522 200.28 127.184 200.665 126.794 200.991C120.126 196.724 113.76 192.003 107.741 186.862C109.25 185.277 110.867 183.8 112.581 182.439ZM156.276 121.083C156.888 110.291 163.174 105.285 169.738 104.005C167.874 110.847 168.18 119.748 174.939 120.888C178.165 121.416 179.75 119.748 182.087 117.801C192.072 109.457 184.006 101.113 172.741 101.697C176.941 90.1819 186.648 80.8087 199.526 80.5028C199.644 80.5028 199.757 80.4559 199.841 80.3724C199.924 80.289 199.971 80.1758 199.971 80.0578C199.971 79.9397 199.924 79.8265 199.841 79.7431C199.757 79.6596 199.644 79.6127 199.526 79.6127C185.619 79.3346 174.688 89.3475 170.377 101.864C162.951 103.143 155.581 108.706 155.386 120.916C155.375 120.974 155.376 121.034 155.388 121.092C155.4 121.151 155.424 121.206 155.457 121.255C155.491 121.304 155.534 121.346 155.583 121.378C155.633 121.411 155.689 121.433 155.747 121.444C155.806 121.455 155.866 121.455 155.924 121.442C155.982 121.43 156.037 121.407 156.087 121.373C156.136 121.339 156.178 121.296 156.21 121.247C156.243 121.197 156.265 121.141 156.276 121.083ZM172.102 103.671C176.246 103.393 182.421 104.673 184.117 108.428C185.091 110.569 184.117 113.211 180.668 116.104C179.732 117.042 178.664 117.839 177.498 118.468C173.326 120.248 168.709 115.103 172.102 103.671ZM180.056 497.038C177.369 496.318 174.565 496.143 171.809 496.523C169.054 496.903 166.402 497.831 164.01 499.251C161.618 500.671 159.534 502.555 157.881 504.793C156.228 507.031 155.039 509.576 154.385 512.28C153.149 517.897 154.195 523.775 157.294 528.621C160.392 533.467 165.288 536.883 170.906 538.119C176.523 539.354 182.401 538.308 187.247 535.209C192.093 532.111 195.509 527.215 196.745 521.597C197.272 518.888 197.259 516.101 196.704 513.397C196.15 510.693 195.066 508.126 193.515 505.843C191.963 503.56 189.975 501.606 187.666 500.095C185.356 498.584 182.77 497.545 180.056 497.038ZM188.651 519.706C187.535 524.157 184.863 528.062 181.119 530.714C177.375 533.367 172.805 534.592 168.236 534.169C164.041 532.53 160.559 529.465 158.402 525.512C156.245 521.559 155.551 516.972 156.443 512.558C157.483 507.999 160.13 503.967 163.899 501.199C167.668 498.431 172.308 497.112 176.969 497.483C181.205 499.233 184.687 502.421 186.804 506.486C188.92 510.551 189.535 515.233 188.54 519.706H188.651Z" fill="black"/>
<path d="M217.104 504.965C214.683 504.129 212.088 503.928 209.566 504.381C208.522 501.985 207.235 499.702 205.728 497.566C207.536 495.926 212.487 491.364 211.291 489.222C207.035 484.131 201.981 479.763 196.327 476.289C193.966 474.967 191.367 474.125 188.678 473.814C186.898 474.064 182.671 480.99 181.725 482.547C181.113 482.547 178.944 481.852 178.777 481.768C178.777 479.766 178.193 472.534 176.385 471.7C174.363 470.956 172.264 470.442 170.127 470.17C168.152 469.864 150.379 473.118 149.072 475.51C148.21 477.124 150.212 483.215 150.796 484.911C149.296 485.737 147.856 486.666 146.485 487.693C143.704 489.667 144.455 489.584 143.954 489.361C143.349 489.073 142.701 488.885 142.035 488.805C139.813 487.502 137.208 487.011 134.665 487.415C132.106 488.249 126.07 501.989 125.097 505.521C124.778 506.412 124.692 507.369 124.846 508.303C125.514 510.138 129.964 511.612 131.828 512.196C131.313 515.775 131.313 519.409 131.828 522.988C129.38 523.656 124.29 525.158 124.568 527.661C124.846 530.164 131.355 546.685 134.053 547.992C135.531 548.819 137.165 549.328 138.851 549.486C140.537 549.644 142.237 549.448 143.843 548.91C144.747 548.459 145.621 547.948 146.458 547.38C147.57 548.215 148.738 548.966 149.934 549.689C149.072 551.831 147.153 556.615 147.765 558.784C148.071 559.924 148.989 560.286 150.268 560.759C153.8 562.038 172.825 566.6 175.717 566.099C176.802 565.932 177.386 564.792 177.72 563.707C178.338 561.238 178.701 558.713 178.805 556.17C180.233 556.029 181.653 555.815 183.06 555.53C183.919 557.042 185.018 558.404 186.314 559.563C187.733 560.564 188.929 560.063 190.542 559.034C191.321 560.036 192.489 561.426 193.741 561.565C196.883 561.927 209.872 549.689 211.207 547.186C212.32 545.1 208.259 541.373 206.451 539.732C208.407 536.789 209.942 533.587 211.013 530.22C213.019 530.522 215.049 530.634 217.076 530.553C217.994 530.553 219.051 530.22 219.44 529.357C221.137 525.491 220.636 510.834 219.44 507.107C219.273 506.022 218.022 505.299 217.104 504.965ZM217.771 507.524C218.717 511.139 219.023 524.796 217.632 528.328C215.228 528.565 212.801 528.453 210.429 527.994C210.175 527.951 209.915 528.004 209.699 528.143C209.483 528.282 209.326 528.497 209.26 528.745C208.153 532.506 206.433 536.058 204.171 539.259C204.009 539.471 203.937 539.737 203.968 540.002C203.999 540.266 204.132 540.509 204.338 540.677C206.289 542.224 207.947 544.108 209.233 546.24C207.842 548.521 196.967 558.478 193.963 559.313C193.518 559.313 192.294 557.644 191.988 557.199C190.961 555.655 190.032 554.048 189.207 552.387C189.087 552.145 188.88 551.956 188.628 551.859C188.376 551.761 188.096 551.761 187.844 551.858C179.778 554.89 176.719 553.11 176.719 555.113C176.722 558.111 176.234 561.09 175.272 563.93C168.736 563.219 162.299 561.782 156.081 559.646C156.381 556.677 157.21 553.785 158.529 551.108C159.363 549.244 156.025 549.772 149.795 543.431C149.595 543.245 149.331 543.142 149.058 543.142C148.785 543.142 148.522 543.245 148.321 543.431C145.54 545.712 141.924 547.937 141.201 547.575C139.782 546.88 133.246 532.055 132.857 529.051C134.835 527.673 137.081 526.725 139.449 526.27C139.701 526.199 139.919 526.038 140.062 525.818C140.206 525.598 140.264 525.334 140.227 525.074C139.546 521.135 139.546 517.109 140.227 513.17C140.27 512.927 140.219 512.678 140.085 512.471C139.95 512.265 139.743 512.117 139.504 512.057C137.407 511.508 135.389 510.695 133.496 509.638C132.885 509.193 132.94 509.22 132.996 508.748C134.796 502.255 137.683 496.114 141.535 490.585C143.037 490.168 147.097 493.144 148.488 494.201C148.633 494.342 148.828 494.421 149.03 494.421C149.233 494.421 149.427 494.342 149.573 494.201C150.851 492.876 152.227 491.648 153.689 490.53C157.917 487.331 159.057 487.748 158.696 486.636C157.417 483.845 156.699 480.831 156.582 477.763C157.013 477.405 157.502 477.123 158.028 476.929C160.625 475.902 163.292 475.065 166.01 474.426C169.305 473.507 172.691 472.957 176.107 472.785C176.691 473.035 177.219 475.566 177.358 476.345C178.387 481.907 177.692 483.048 178.499 483.131C186.426 483.91 188.039 486.107 188.595 485.134C190.137 482.437 191.935 479.894 193.963 477.541C194.547 476.957 194.519 476.678 196.272 477.68C201.506 481.101 206.195 485.292 210.178 490.112C210.596 490.836 206.98 494.674 204.338 496.927C203.42 497.733 204.727 498.095 207.119 502.656C209.511 507.218 208.955 508.497 210.234 508.219C212.7 507.629 215.239 507.394 217.771 507.524ZM603.795 275.114C597.965 272.732 591.851 271.115 585.605 270.302C581.044 269.579 575.676 268.856 571.142 268.272C575.509 262.097 588.442 246.466 590.612 242.656C591.224 241.626 590.055 240.18 589.193 239.318C584.354 234.145 575.008 232.198 567.832 231.085C563.716 230.418 546.527 228.304 543.607 229.694C540.102 231.363 514.18 270.302 513.401 276.226C513.401 277.228 513.735 277.617 514.709 277.979C518.797 279.481 537.237 281.817 541.354 282.79C535.791 292.525 511.065 325.429 508.645 330.073C508.061 331.242 508.423 331.937 509.118 332.159C511.621 333.153 514.197 333.953 516.822 334.551C517.824 334.857 520.021 333.495 523.22 331.548C537.571 322.925 599.15 282.262 603.879 277.005C604.009 276.882 604.112 276.732 604.179 276.565C604.246 276.399 604.277 276.22 604.269 276.041C604.261 275.861 604.215 275.686 604.133 275.526C604.051 275.366 603.936 275.225 603.795 275.114ZM544.024 308.49C520.383 324.094 512.4 328.655 512.122 328.85C515.932 323.037 539.602 290.606 543.662 282.846C543.733 282.696 543.769 282.532 543.769 282.367C543.768 282.201 543.73 282.038 543.658 281.888C543.586 281.739 543.482 281.608 543.353 281.504C543.224 281.4 543.073 281.327 542.911 281.289C540.13 280.287 519.882 278.118 515.098 276.421C515.71 271.248 540.965 232.142 544.024 230.585C547.083 229.027 576.761 232.559 582.323 236.537C579.403 242.238 563.271 262.208 560.656 266.853C560.128 267.799 559.961 268.717 560.99 268.967C562.019 269.217 588.164 272.277 593.866 274.14C586.912 279.953 551.812 303.261 544.024 308.379V308.49ZM365.6 138.438C365.6 138.689 365.767 138.995 366.184 140.608C366.294 140.958 366.535 141.252 366.856 141.428C367.178 141.604 367.555 141.649 367.909 141.553C368.263 141.45 368.561 141.21 368.739 140.887C368.916 140.564 368.958 140.183 368.854 139.829C368.576 138.744 368.326 137.826 368.159 137.381C367.997 137.076 367.727 136.842 367.402 136.725C367.077 136.608 366.719 136.616 366.4 136.748C366.08 136.88 365.821 137.126 365.673 137.439C365.526 137.751 365.5 138.108 365.6 138.438Z" fill="black"/>
<defs>
<linearGradient id="paint0_linear_796_226" x1="350.5" y1="0" x2="350.5" y2="701" gradientUnits="userSpaceOnUse">
<stop stop-color="#0897E8" stop-opacity="0.07"/>
<stop offset="1" stop-color="white" stop-opacity="0"/>
</linearGradient>
</defs>
</svg>
