<svg width="36" height="36" viewBox="0 0 36 36" fill="none" xmlns="http://www.w3.org/2000/svg">
<circle cx="18" cy="18" r="18" fill="#308CF8"/>
<path d="M19.7524 9.17224C19.7502 9.09602 19.6671 9.04639 19.6016 9.0855C16.1363 11.1558 16.2004 16.3491 16.2418 17.2901C16.2449 17.3611 16.1778 17.4112 16.1135 17.3809C15.7132 17.1924 14.5661 16.4823 14.5027 14.5153C14.5003 14.439 14.4179 14.3899 14.3522 14.4288C12.3458 15.618 11 17.8144 11 20.25C11 23.9779 14.134 27 18 27C21.866 27 25 23.9779 25 20.25C25 14.8341 19.8803 13.6694 19.7524 9.17224Z" fill="white"/>
</svg>
