<svg width="22" height="22" viewBox="0 0 22 22" fill="none" xmlns="http://www.w3.org/2000/svg">
<path d="M19.25 10.9483C19.2579 12.0414 19.0477 13.1251 18.6316 14.136C18.2155 15.1468 17.6018 16.0644 16.8265 16.835C13.6554 20.0061 8.4648 20.0405 5.25073 16.9124C4.07157 15.765 3.26243 14.2912 2.92727 12.6804C2.5921 11.0696 2.74623 9.39533 3.36984 7.87279C3.99346 6.35025 5.05807 5.04895 6.4269 4.13608C7.79573 3.22321 9.40624 2.74047 11.0515 2.74989C11.1545 2.75141 11.2558 2.77574 11.3482 2.82114C11.4406 2.86654 11.5218 2.93187 11.5859 3.01242C11.65 3.09297 11.6955 3.18675 11.719 3.28698C11.7425 3.38722 11.7434 3.49142 11.7218 3.59208C11.6323 3.99134 11.633 4.40555 11.7238 4.80452C11.8147 5.20349 11.9934 5.57715 12.247 5.89826C12.5006 6.21938 12.8227 6.47986 13.1897 6.66071C13.5568 6.84155 13.9596 6.93822 14.3687 6.94364C14.551 6.94364 14.7259 7.01607 14.8548 7.14501C14.9838 7.27394 15.0562 7.44881 15.0562 7.63114C15.0616 8.04029 15.1583 8.44306 15.3391 8.81011C15.52 9.17716 15.7805 9.49922 16.1016 9.75282C16.4227 10.0064 16.7964 10.1852 17.1953 10.276C17.5943 10.3669 18.0085 10.3676 18.4078 10.278C18.5084 10.2564 18.6126 10.2574 18.7129 10.2809C18.8131 10.3044 18.9069 10.3498 18.9874 10.4139C19.068 10.4781 19.1333 10.5592 19.1787 10.6517C19.2241 10.7441 19.2484 10.8454 19.25 10.9483V10.9483Z" stroke="#363B53" stroke-width="1.5" stroke-linecap="round" stroke-linejoin="round"/>
<path d="M13.4062 15.8125C13.9758 15.8125 14.4375 15.3508 14.4375 14.7812C14.4375 14.2117 13.9758 13.75 13.4062 13.75C12.8367 13.75 12.375 14.2117 12.375 14.7812C12.375 15.3508 12.8367 15.8125 13.4062 15.8125Z" fill="black"/>
<path d="M7.90625 15.125C8.47579 15.125 8.9375 14.6633 8.9375 14.0938C8.9375 13.5242 8.47579 13.0625 7.90625 13.0625C7.33671 13.0625 6.875 13.5242 6.875 14.0938C6.875 14.6633 7.33671 15.125 7.90625 15.125Z" fill="black"/>
<path d="M7.21875 10.3125C7.78829 10.3125 8.25 9.85079 8.25 9.28125C8.25 8.71171 7.78829 8.25 7.21875 8.25C6.64921 8.25 6.1875 8.71171 6.1875 9.28125C6.1875 9.85079 6.64921 10.3125 7.21875 10.3125Z" fill="black"/>
<path d="M11.6875 11.6875C12.257 11.6875 12.7188 11.2258 12.7188 10.6562C12.7188 10.0867 12.257 9.625 11.6875 9.625C11.118 9.625 10.6562 10.0867 10.6562 10.6562C10.6562 11.2258 11.118 11.6875 11.6875 11.6875Z" fill="black"/>
</svg>
