<svg xmlns="http://www.w3.org/2000/svg" xmlns:xlink="http://www.w3.org/1999/xlink" version="1.1" id="Layer_1" x="0px" y="0px" viewBox="0 0 512 512" style="enable-background:new 0 0 512 512;" xml:space="preserve">
<g>
	<g>
		<path d="M405.786,75.966l0.001-67.795c0-3.245-1.921-6.183-4.893-7.485c-2.972-1.301-6.434-0.72-8.818,1.482l-18.057,16.67    L355.961,2.168c-3.13-2.888-7.952-2.889-11.083-0.001L326.811,18.84L308.751,2.168c-3.129-2.888-7.952-2.889-11.083-0.001    L279.601,18.84L261.543,2.168c-3.13-2.889-7.955-2.889-11.084,0l-18.057,16.67l-18.057-16.67    c-3.129-2.888-7.952-2.889-11.083-0.001L185.194,18.84L167.134,2.168c-3.13-2.888-7.952-2.889-11.083-0.001L137.984,18.84    L119.926,2.168c-2.384-2.202-5.846-2.783-8.818-1.482c-2.973,1.302-4.895,4.239-4.895,7.484v67.796    C52.518,120.664,21.788,186.042,21.788,256s30.73,135.336,84.425,180.033v67.796c0,3.245,1.921,6.183,4.893,7.485    c2.973,1.302,6.435,0.72,8.818-1.482l18.057-16.67l18.057,16.67c3.131,2.889,7.954,2.889,11.084,0l18.057-16.67l18.057,16.67    c3.129,2.889,7.952,2.889,11.083,0.001l18.067-16.673l18.058,16.672c3.129,2.889,7.952,2.889,11.083,0.001l18.067-16.673    l18.058,16.672c3.131,2.889,7.954,2.889,11.084,0l18.057-16.67l18.057,16.67c3.13,2.889,7.952,2.889,11.083,0.001l18.067-16.673    l18.058,16.672c1.539,1.422,3.527,2.167,5.544,2.167c1.107,0,2.221-0.224,3.275-0.685c2.973-1.302,4.893-4.24,4.893-7.485    l0.001-67.79c53.705-44.696,84.437-110.078,84.437-180.04C490.212,186.042,459.483,120.663,405.786,75.966z M106.213,344.985    C90.291,318.192,81.703,287.365,81.703,256c0-17.589,2.623-34.952,7.797-51.607c1.339-4.31-1.07-8.888-5.379-10.227    c-4.308-1.337-8.887,1.07-10.227,5.379c-5.659,18.227-8.531,37.221-8.531,56.455c0,42.616,14.492,84.323,40.851,117.792v40.423    C62.744,373.126,38.128,316.394,38.128,256c0-60.395,24.616-117.126,68.085-158.215V344.985z M389.438,485.167l-9.888-9.128    c-3.13-2.889-7.952-2.889-11.083-0.001L350.4,492.711l-18.058-16.672c-1.565-1.445-3.553-2.167-5.542-2.167    c-1.989,0-3.977,0.722-5.542,2.167l-18.057,16.67l-18.057-16.67c-3.129-2.889-7.952-2.889-11.083-0.001l-18.067,16.673    l-18.058-16.672c-3.129-2.889-7.952-2.889-11.083-0.001l-18.067,16.673l-18.058-16.672c-3.131-2.89-7.954-2.889-11.084,0    l-18.057,16.67l-18.057-16.67c-3.131-2.89-7.954-2.889-11.084,0l-9.887,9.128V26.834l9.887,9.128    c3.13,2.889,7.952,2.889,11.083,0.001l18.067-16.673l18.058,16.672c3.13,2.889,7.952,2.889,11.083,0.001l18.067-16.673    l18.058,16.672c3.13,2.89,7.955,2.889,11.084,0L256,19.291l18.057,16.67c3.129,2.889,7.952,2.889,11.083,0.001l18.067-16.673    l18.058,16.672c3.13,2.889,7.952,2.889,11.083,0.001l18.067-16.673l18.058,16.672c3.131,2.89,7.954,2.889,11.084,0l9.887-9.128    L389.438,485.167z M405.779,414.223l0.005-247.215c15.923,26.796,24.513,57.625,24.513,88.992c0,17.595-2.625,34.965-7.803,51.627    c-1.339,4.309,1.069,8.888,5.378,10.227c0.807,0.251,1.624,0.37,2.427,0.37c3.484,0,6.712-2.246,7.8-5.747    c5.666-18.235,8.538-37.235,8.538-56.477c0-42.618-14.492-84.326-40.853-117.796l0.001-40.42    c43.47,41.088,68.086,97.821,68.086,158.215C473.872,316.398,449.254,373.133,405.779,414.223z"/>
	</g>
</g>
<g>
	<g>
		<path d="M332.351,135.064l-23.6-21.787c-3.13-2.889-7.954-2.889-11.084,0l-18.057,16.67l-18.057-16.67    c-3.129-2.888-7.952-2.889-11.083-0.001l-18.067,16.673l-18.058-16.672c-3.129-2.888-7.952-2.889-11.083-0.001l-23.61,21.787    c-3.316,3.06-3.523,8.229-0.463,11.545c3.06,3.316,8.229,3.523,11.545,0.463l18.067-16.673l18.058,16.672    c3.129,2.889,7.952,2.889,11.083,0.001l18.067-16.673l18.058,16.672c3.13,2.889,7.955,2.889,11.084,0l18.057-16.67l18.057,16.67    c1.572,1.451,3.559,2.168,5.54,2.168c2.201,0,4.394-0.883,6.006-2.629C335.873,143.294,335.666,138.124,332.351,135.064z"/>
	</g>
</g>
<g>
	<g>
		<path d="M326.808,174.848h-14.518c-4.512,0-8.17,3.658-8.17,8.17c0,4.512,3.658,8.17,8.17,8.17h14.518    c4.512,0,8.17-3.658,8.17-8.17C334.979,178.506,331.321,174.848,326.808,174.848z"/>
	</g>
</g>
<g>
	<g>
		<path d="M279.61,174.848h-94.418c-4.512,0-8.17,3.658-8.17,8.17c0,4.512,3.658,8.17,8.17,8.17h94.418    c4.512,0,8.17-3.658,8.17-8.17C287.78,178.506,284.122,174.848,279.61,174.848z"/>
	</g>
</g>
<g>
	<g>
		<path d="M326.808,207.529h-14.518c-4.512,0-8.17,3.658-8.17,8.17s3.658,8.17,8.17,8.17h14.518c4.512,0,8.17-3.658,8.17-8.17    S331.321,207.529,326.808,207.529z"/>
	</g>
</g>
<g>
	<g>
		<path d="M279.61,207.529h-94.418c-4.512,0-8.17,3.658-8.17,8.17s3.658,8.17,8.17,8.17h94.418c4.512,0,8.17-3.658,8.17-8.17    S284.122,207.529,279.61,207.529z"/>
	</g>
</g>
<g>
	<g>
		<path d="M326.808,240.21h-14.518c-4.512,0-8.17,3.658-8.17,8.17s3.658,8.17,8.17,8.17h14.518c4.512,0,8.17-3.658,8.17-8.17    S331.321,240.21,326.808,240.21z"/>
	</g>
</g>
<g>
	<g>
		<path d="M279.61,240.21h-94.418c-4.512,0-8.17,3.658-8.17,8.17s3.658,8.17,8.17,8.17h94.418c4.512,0,8.17-3.658,8.17-8.17    S284.122,240.21,279.61,240.21z"/>
	</g>
</g>
<g>
	<g>
		<path d="M326.808,272.89h-14.518c-4.512,0-8.17,3.658-8.17,8.17s3.658,8.17,8.17,8.17h14.518c4.512,0,8.17-3.658,8.17-8.17    S331.321,272.89,326.808,272.89z"/>
	</g>
</g>
<g>
	<g>
		<path d="M279.61,272.89h-94.418c-4.512,0-8.17,3.658-8.17,8.17s3.658,8.17,8.17,8.17h94.418c4.512,0,8.17-3.658,8.17-8.17    S284.122,272.89,279.61,272.89z"/>
	</g>
</g>
<g>
	<g>
		<path d="M326.808,384.551h-14.518c-4.512,0-8.17,3.658-8.17,8.17c0,4.512,3.658,8.17,8.17,8.17h14.518    c4.512,0,8.17-3.658,8.17-8.17C334.979,388.209,331.321,384.551,326.808,384.551z"/>
	</g>
</g>
<g>
	<g>
		<path d="M279.61,384.551h-94.418c-4.512,0-8.17,3.658-8.17,8.17c0,4.512,3.658,8.17,8.17,8.17h94.418    c4.512,0,8.17-3.658,8.17-8.17C287.78,388.209,284.122,384.551,279.61,384.551z"/>
	</g>
</g>
<g>
</g>
<g>
</g>
<g>
</g>
<g>
</g>
<g>
</g>
<g>
</g>
<g>
</g>
<g>
</g>
<g>
</g>
<g>
</g>
<g>
</g>
<g>
</g>
<g>
</g>
<g>
</g>
<g>
</g>
</svg>