<svg width="409" height="103" viewBox="0 0 409 103" fill="none" xmlns="http://www.w3.org/2000/svg">
<g filter="url(#filter0_f_1_314)">
<path d="M131.862 99.1267C131.502 99.5534 131.557 100.191 131.984 100.55C132.41 100.91 133.048 100.856 133.407 100.429L131.862 99.1267ZM160.98 66.1403L160.207 65.4892L160.98 66.1403ZM162.671 64.8093L163.122 65.7134L162.671 64.8093ZM162.926 64.6822L163.377 65.5863L162.926 64.6822ZM165.911 64.5775L166.23 63.6187L166.229 63.6187L165.911 64.5775ZM165.944 64.5886L166.319 63.6501L166.291 63.6391L166.263 63.6298L165.944 64.5886ZM167.862 65.8508L168.576 65.1355H168.576L167.862 65.8508ZM168.774 66.7607L169.524 66.084L169.507 66.0642L169.488 66.0455L168.774 66.7607ZM170.734 68.9329L171.509 68.2852L171.497 68.2704L171.484 68.2561L170.734 68.9329ZM173.999 72.8428L173.224 73.4905L173.227 73.4945L173.999 72.8428ZM177.482 76.97L176.71 77.6217L176.785 77.7098L176.877 77.7789L177.482 76.97ZM178.353 77.6216L177.748 78.4306L177.821 78.4851L177.902 78.5257L178.353 77.6216ZM179.224 78.056L178.773 78.9602L178.894 79.0205L179.026 79.0469L179.224 78.056ZM180.313 78.2733L180.115 79.2641L180.213 79.2837H180.313V78.2733ZM189.419 77.6463L189.979 78.4876L189.979 78.4875L189.419 77.6463ZM189.456 77.6216L188.897 76.7803L188.897 76.7803L189.456 77.6216ZM189.819 77.3807L189.259 76.5394L189.259 76.5394L189.819 77.3807ZM190.357 76.9404L191.071 77.6557L191.071 77.6557L190.357 76.9404ZM190.406 76.8916L189.692 76.1764L189.692 76.1764L190.406 76.8916ZM191.275 75.2054L190.279 75.0389L190.279 75.0389L191.275 75.2054ZM191.367 74.6528L192.364 74.8193L192.364 74.8193L191.367 74.6528ZM191.104 72.6558L192.008 72.2031V72.2031L191.104 72.6558ZM191.006 72.4597L191.909 72.0071L191.909 72.007L191.006 72.4597ZM190.436 71.5396L191.244 70.9325H191.244L190.436 71.5396ZM190.11 71.1051L190.917 70.498L190.908 70.4853L190.898 70.473L190.11 71.1051ZM189.239 70.019L190.027 69.3869L190.021 69.379L190.014 69.3713L189.239 70.019ZM188.15 68.7157L188.926 68.068L188.15 68.7157ZM185.973 66.1091L186.749 65.4614L186.744 65.4556L185.973 66.1091ZM183.578 63.2853L184.349 62.6317L183.578 63.2853ZM181.184 60.4614L180.402 61.1021L180.408 61.1086L180.413 61.115L181.184 60.4614ZM179.224 58.072L180.006 57.4313L180 57.4243L179.224 58.072ZM177.047 55.4654L177.823 54.8177L177.047 55.4654ZM175.959 54.1621L175.151 54.7693L175.166 54.79L175.183 54.8098L175.959 54.1621ZM175.718 53.8425L174.911 54.4496V54.4496L175.718 53.8425ZM175.088 52.6416L174.097 52.8402L174.109 52.902L174.129 52.9618L175.088 52.6416ZM174.942 51.9172L175.933 51.7186L175.933 51.7186L174.942 51.9172ZM175.137 49.8037L176.075 50.1797L176.075 50.1797L175.137 49.8037ZM175.178 49.7023L174.24 49.3263L174.24 49.3263L175.178 49.7023ZM175.483 49.0889L176.348 49.6096V49.6096L175.483 49.0889ZM175.614 48.8699L176.48 49.3907L176.48 49.3907L175.614 48.8699ZM176.399 47.7948L175.639 47.1286H175.639L176.399 47.7948ZM177.482 46.5595L178.242 47.2257L178.253 47.2132L178.264 47.2002L177.482 46.5595ZM179.442 44.1701L178.661 43.5294L179.442 44.1701ZM181.401 41.7807L180.635 41.1223L180.627 41.1311L180.62 41.14L181.401 41.7807ZM184.014 38.7397L184.78 39.3981L184.786 39.3915L184.791 39.3848L184.014 38.7397ZM189.239 32.4404L190.016 33.0855L190.029 33.0705L190.041 33.055L189.239 32.4404ZM192.069 28.7477L191.275 28.1231L191.267 28.133L192.069 28.7477ZM211.88 3.55047L212.675 4.17499L213.936 2.57101L211.896 2.54017L211.88 3.55047ZM197.512 3.33325L197.527 2.32295L197.044 2.31565L196.735 2.68698L197.512 3.33325ZM169.215 37.3414L168.438 36.6951V36.6951L169.215 37.3414ZM168.201 38.2523L167.641 37.411L167.641 37.411L168.201 38.2523ZM168.187 38.2612L168.747 39.1025L168.747 39.1025L168.187 38.2612ZM164.406 38.874L164.671 37.899L164.671 37.899L164.406 38.874ZM164.354 38.8601L164.089 39.835L164.089 39.835L164.354 38.8601ZM162.204 37.6143L161.49 38.3296L162.204 37.6143ZM160.719 36.1331L159.969 36.8099L159.987 36.8296L160.005 36.8484L160.719 36.1331ZM158.76 33.9609L157.987 34.6126L157.998 34.6253L158.009 34.6377L158.76 33.9609ZM155.276 29.8338L156.048 29.1821L156.036 29.1674L156.023 29.1533L155.276 29.8338ZM153.099 27.4444L153.846 26.7639L153.83 26.7461L153.813 26.7291L153.099 27.4444ZM152.695 27.0409L151.981 27.7562V27.7562L152.695 27.0409ZM142.474 25.394L142.672 26.3849H142.672L142.474 25.394ZM141.82 25.5245L142.018 26.5154L141.82 25.5245ZM139.257 27.4795L140.161 27.9321L139.257 27.4795ZM139.12 27.7537L138.216 27.301L138.216 27.301L139.12 27.7537ZM139.12 31.045L140.023 30.5923L140.023 30.5923L139.12 31.045ZM139.308 31.4212L138.405 31.8738L138.405 31.8738L139.308 31.4212ZM140.024 32.5048L140.795 31.8513L140.795 31.8513L140.024 32.5048ZM141.996 34.8298L141.226 35.4833L141.227 35.4854L141.996 34.8298ZM153.808 48.6828L154.577 48.0272L153.808 48.6828ZM154.769 50.2292L155.697 49.8304L155.697 49.8304L154.769 50.2292ZM154.823 50.3547L153.894 50.7534L153.894 50.7535L154.823 50.3547ZM154.555 54.8238L153.678 54.3216V54.3216L154.555 54.8238ZM154.5 54.9204L155.377 55.4226L155.377 55.4226L154.5 54.9204ZM153.763 55.9279L153.019 55.2443L153.763 55.9279ZM151.793 58.072L151.049 57.3884L151.033 57.406L151.017 57.4243L151.793 58.072ZM145.262 65.8919L146.035 66.5426L146.037 66.5396L145.262 65.8919ZM140.69 71.3223L141.446 71.993L141.454 71.9831L141.463 71.973L140.69 71.3223ZM115.436 99.7778L114.68 99.1071L113.188 100.788H115.436V99.7778ZM140.192 26.3016L139.546 25.5247H139.546L140.192 26.3016ZM149.499 25.3695L149.679 24.3753L149.499 25.3695ZM166.625 38.9267L166.843 39.9132V39.9132L166.625 38.9267ZM163.313 64.5224L163.632 65.4812L163.632 65.4812L163.313 64.5224ZM190.989 76.0848L191.892 76.5375L191.892 76.5374L190.989 76.0848ZM188.078 78.2008L187.88 77.2099L187.88 77.21L188.078 78.2008ZM191.264 73.0412L192.223 72.7211L192.223 72.721L191.264 73.0412ZM155.186 52.9314L154.183 52.8057V52.8058L155.186 52.9314ZM161.86 65.3098L161.254 64.5008L161.254 64.5008L161.86 65.3098ZM155.157 51.4934L154.16 51.6599V51.6599L155.157 51.4934ZM133.407 100.429L161.752 66.7914L160.207 65.4892L131.862 99.1267L133.407 100.429ZM163.122 65.7134L163.377 65.5863L162.475 63.778L162.22 63.9051L163.122 65.7134ZM164.245 65.3818H164.638V63.3609H164.245V65.3818ZM165.592 65.5362L165.625 65.5473L166.263 63.6298L166.23 63.6187L165.592 65.5362ZM167.149 66.5661L168.061 67.476L169.488 66.0455L168.576 65.1355L167.149 66.5661ZM168.024 67.4375L169.983 69.6097L171.484 68.2561L169.524 66.084L168.024 67.4375ZM169.958 69.5806L173.224 73.4905L174.775 72.1951L171.509 68.2852L169.958 69.5806ZM173.227 73.4945L176.71 77.6217L178.255 76.3183L174.771 72.1911L173.227 73.4945ZM176.877 77.7789L177.748 78.4306L178.959 76.8126L178.088 76.161L176.877 77.7789ZM177.902 78.5257L178.773 78.9602L179.675 77.1519L178.804 76.7175L177.902 78.5257ZM179.026 79.0469L180.115 79.2641L180.51 77.2824L179.422 77.0652L179.026 79.0469ZM180.313 79.2837H182.707V77.2628H180.313V79.2837ZM182.707 79.2837H186.191V77.2628H182.707V79.2837ZM186.191 79.2837H187.345V77.2628H186.191V79.2837ZM189.979 78.4875L190.016 78.4629L188.897 76.7803L188.86 76.805L189.979 78.4875ZM190.016 78.4629L190.378 78.222L189.259 76.5394L188.897 76.7803L190.016 78.4629ZM191.071 77.6557L191.119 77.6069L189.692 76.1764L189.643 76.2252L191.071 77.6557ZM192.272 75.3718L192.364 74.8193L190.371 74.4863L190.279 75.0389L192.272 75.3718ZM192.426 74.0699V73.9724H190.405V74.0699H192.426ZM192.008 72.2031L191.909 72.0071L190.103 72.9124L190.201 73.1085L192.008 72.2031ZM191.244 70.9325L190.917 70.498L189.302 71.7122L189.629 72.1467L191.244 70.9325ZM190.898 70.473L190.027 69.3869L188.45 70.6511L189.321 71.7372L190.898 70.473ZM190.014 69.3713L188.926 68.068L187.375 69.3634L188.463 70.6667L190.014 69.3713ZM188.926 68.068L186.749 65.4614L185.198 66.7568L187.375 69.3634L188.926 68.068ZM186.744 65.4556L184.349 62.6317L182.808 63.9388L185.202 66.7626L186.744 65.4556ZM184.349 62.6317L181.954 59.8079L180.413 61.115L182.808 63.9388L184.349 62.6317ZM181.965 59.8207L180.005 57.4313L178.443 58.7127L180.402 61.1021L181.965 59.8207ZM180 57.4243L177.823 54.8177L176.272 56.1131L178.449 58.7198L180 57.4243ZM177.823 54.8177L176.734 53.5144L175.183 54.8098L176.272 56.1131L177.823 54.8177ZM176.766 53.555L176.526 53.2353L174.911 54.4496L175.151 54.7693L176.766 53.555ZM176.078 52.443L175.933 51.7186L173.952 52.1157L174.097 52.8402L176.078 52.443ZM176.075 50.1797L176.115 50.0783L174.24 49.3263L174.199 49.4277L176.075 50.1797ZM176.348 49.6096L176.48 49.3907L174.748 48.3492L174.617 48.5681L176.348 49.6096ZM177.159 48.461L178.242 47.2257L176.723 45.8933L175.639 47.1286L177.159 48.461ZM178.264 47.2002L180.223 44.8108L178.661 43.5294L176.701 45.9188L178.264 47.2002ZM180.223 44.8108L182.183 42.4214L180.62 41.14L178.661 43.5294L180.223 44.8108ZM182.168 42.4392L184.78 39.3981L183.247 38.0813L180.635 41.1223L182.168 42.4392ZM184.791 39.3848L190.016 33.0855L188.461 31.7953L183.236 38.0946L184.791 39.3848ZM190.041 33.055L192.871 29.3623L191.267 28.133L188.437 31.8257L190.041 33.055ZM192.863 29.3722L212.675 4.17499L211.086 2.92595L191.275 28.1232L192.863 29.3722ZM211.896 2.54017L197.527 2.32295L197.496 4.34355L211.865 4.56077L211.896 2.54017ZM196.735 2.68698L168.438 36.6951L169.991 37.9877L198.288 3.97952L196.735 2.68698ZM167.641 37.411L167.628 37.42L168.747 39.1025L168.76 39.0935L167.641 37.411ZM164.671 37.899L164.62 37.8851L164.089 39.835L164.14 39.849L164.671 37.899ZM162.917 36.8991L161.433 35.4178L160.005 36.8484L161.49 38.3296L162.917 36.8991ZM161.469 35.4563L159.51 33.2841L158.009 34.6377L159.969 36.8099L161.469 35.4563ZM159.532 33.3092L156.048 29.1821L154.504 30.4855L157.987 34.6126L159.532 33.3092ZM156.023 29.1533L153.846 26.7639L152.352 28.1249L154.529 30.5143L156.023 29.1533ZM153.813 26.7291L153.409 26.3256L151.981 27.7562L152.386 28.1597L153.813 26.7291ZM148.418 24.2618H146.35V26.2826H148.418V24.2618ZM146.35 24.2618H143.707V26.2826H146.35V24.2618ZM142.277 24.4031L141.623 24.5336L142.018 26.5154L142.672 26.3849L142.277 24.4031ZM138.354 27.0268L138.216 27.301L140.023 28.2064L140.161 27.9321L138.354 27.0268ZM138.216 31.4977L138.405 31.8738L140.212 30.9685L140.023 30.5923L138.216 31.4977ZM139.254 33.1584L141.226 35.4833L142.767 34.1762L140.795 31.8513L139.254 33.1584ZM141.227 35.4854L153.039 49.3384L154.577 48.0272L142.765 34.1742L141.227 35.4854ZM153.84 50.628L153.894 50.7534L155.751 49.9559L155.697 49.8304L153.84 50.628ZM153.678 54.3216L153.623 54.4183L155.377 55.4226L155.432 55.3259L153.678 54.3216ZM153.019 55.2443L151.049 57.3884L152.537 58.7556L154.507 56.6115L153.019 55.2443ZM151.017 57.4243L144.486 65.2442L146.037 66.5396L152.568 58.7198L151.017 57.4243ZM144.489 65.2411L139.917 70.6715L141.463 71.973L146.035 66.5426L144.489 65.2411ZM139.934 70.6516L114.68 99.1071L116.192 100.448L141.446 71.993L139.934 70.6516ZM115.436 100.788H132.417V98.7674H115.436V100.788ZM138.405 31.8738C138.636 32.3343 138.921 32.7655 139.254 33.1584L140.795 31.8513C140.566 31.5813 140.37 31.2849 140.212 30.9685L138.405 31.8738ZM139.546 25.5247C139.049 25.9378 138.643 26.4492 138.354 27.0268L140.161 27.9321C140.325 27.6039 140.556 27.3133 140.838 27.0786L139.546 25.5247ZM141.623 24.5336C140.859 24.6861 140.145 25.0267 139.546 25.5247L140.838 27.0786C141.178 26.7956 141.584 26.602 142.018 26.5154L141.623 24.5336ZM143.707 24.2618C143.227 24.2618 142.748 24.3091 142.277 24.4031L142.672 26.3849C143.013 26.3169 143.36 26.2826 143.707 26.2826V24.2618ZM149.679 24.3753C149.263 24.2998 148.841 24.2618 148.418 24.2618V26.2826C148.72 26.2826 149.021 26.3097 149.318 26.3636L149.679 24.3753ZM153.409 26.3256C152.392 25.3118 151.092 24.6315 149.679 24.3753L149.318 26.3636C150.327 26.5466 151.256 27.0323 151.981 27.7562L153.409 26.3256ZM164.62 37.8851C163.976 37.71 163.389 37.3701 162.917 36.8991L161.49 38.3296C162.211 39.0488 163.107 39.5677 164.089 39.835L164.62 37.8851ZM164.638 65.3818C164.962 65.3818 165.284 65.4339 165.592 65.5362L166.229 63.6187C165.716 63.448 165.179 63.3609 164.638 63.3609V65.3818ZM166.406 37.9402C165.833 38.0673 165.237 38.0532 164.671 37.899L164.14 39.849C165.023 40.0891 165.95 40.1111 166.843 39.9132L166.406 37.9402ZM163.632 65.4812C163.83 65.4153 164.037 65.3818 164.245 65.3818V63.3609C163.82 63.3609 163.398 63.4294 162.994 63.5636L163.632 65.4812ZM168.438 36.6951C168.208 36.971 167.94 37.2122 167.641 37.411L168.76 39.0936C169.222 38.7864 169.637 38.4139 169.991 37.9877L168.438 36.6951ZM175.88 51.1867C175.88 50.8417 175.946 50.4999 176.075 50.1797L174.199 49.4277C173.975 49.987 173.86 50.5841 173.86 51.1867H175.88ZM175.933 51.7186C175.898 51.5434 175.88 51.3653 175.88 51.1867H173.86C173.86 51.4987 173.89 51.8099 173.952 52.1157L175.933 51.7186ZM176.526 53.2353C176.318 52.9585 176.156 52.6499 176.046 52.3214L174.129 52.9618C174.308 53.4965 174.572 53.9989 174.911 54.4496L176.526 53.2353ZM153.039 49.3384C153.369 49.7257 153.64 50.1604 153.84 50.628L155.697 49.8304C155.416 49.1766 155.039 48.5687 154.577 48.0272L153.039 49.3384ZM191.119 77.6069C191.433 77.2943 191.694 76.9332 191.892 76.5375L190.085 75.6321C189.984 75.8335 189.852 76.0173 189.692 76.1764L191.119 77.6069ZM190.378 78.222C190.627 78.0565 190.859 77.8668 191.071 77.6557L189.643 76.2251C189.526 76.3423 189.397 76.4475 189.259 76.5394L190.378 78.222ZM176.115 50.0783C176.18 49.9161 176.258 49.7593 176.348 49.6096L174.617 48.5681C174.471 48.8104 174.345 49.0639 174.24 49.3263L176.115 50.0783ZM138.216 27.301C137.89 27.9523 137.72 28.6708 137.72 29.3993H139.741C139.741 28.9851 139.838 28.5767 140.023 28.2064L138.216 27.301ZM187.345 79.2837C187.657 79.2837 187.969 79.2529 188.275 79.1917L187.88 77.21C187.704 77.2451 187.524 77.2628 187.345 77.2628V79.2837ZM176.48 49.3907C176.678 49.0612 176.905 48.7501 177.159 48.461L175.639 47.1286C175.307 47.5081 175.008 47.9166 174.748 48.3492L176.48 49.3907ZM137.72 29.3993C137.72 30.1279 137.89 30.8464 138.216 31.4977L140.023 30.5923C139.838 30.222 139.741 29.8135 139.741 29.3993H137.72ZM188.275 79.1917C188.884 79.0703 189.462 78.8311 189.979 78.4876L188.86 76.805C188.563 77.0026 188.23 77.1401 187.88 77.2099L188.275 79.1917ZM165.569 65.527C166.161 65.763 166.698 66.1165 167.149 66.5661L168.576 65.1355C167.932 64.4928 167.164 63.9874 166.319 63.6501L165.569 65.527ZM191.909 72.007C191.72 71.6296 191.498 71.27 191.244 70.9325L189.629 72.1467C189.809 72.3872 189.968 72.6435 190.103 72.9124L191.909 72.007ZM153.623 54.4183C153.453 54.7152 153.25 54.9923 153.019 55.2443L154.507 56.6115C154.84 56.2488 155.132 55.85 155.377 55.4226L153.623 54.4183ZM192.223 72.721C192.163 72.5435 192.092 72.3705 192.008 72.2031L190.201 73.1085C190.242 73.1902 190.277 73.2747 190.306 73.3614L192.223 72.721ZM163.377 65.5863C163.459 65.5453 163.544 65.5102 163.632 65.4812L162.994 63.5636C162.816 63.6227 162.643 63.6944 162.475 63.778L163.377 65.5863ZM154.183 52.8058C154.116 53.3383 153.943 53.8589 153.678 54.3216L155.432 55.3259C155.832 54.6283 156.089 53.8512 156.188 53.057L154.183 52.8058ZM192.426 73.9724C192.426 73.547 192.357 73.1245 192.223 72.7211L190.306 73.3614C190.372 73.5584 190.405 73.7647 190.405 73.9724H192.426ZM162.465 66.1188C162.672 65.9643 162.892 65.8286 163.122 65.7134L162.22 63.9051C161.881 64.0744 161.558 64.2737 161.254 64.5008L162.465 66.1188ZM167.628 37.4199C167.256 37.6672 166.842 37.8436 166.406 37.9402L166.843 39.9132C167.522 39.7626 168.168 39.4878 168.747 39.1025L167.628 37.4199ZM153.894 50.7535C154.019 51.0438 154.108 51.3482 154.16 51.6599L156.154 51.3269C156.075 50.8554 155.94 50.3951 155.751 49.9559L153.894 50.7535ZM191.892 76.5374C192.076 76.1701 192.204 75.7772 192.272 75.3718L190.279 75.0389C190.244 75.2452 190.179 75.4451 190.085 75.6321L191.892 76.5374ZM154.16 51.6599C154.223 52.0354 154.231 52.4255 154.183 52.8057L156.188 53.057C156.26 52.4849 156.249 51.8981 156.154 51.3269L154.16 51.6599ZM192.364 74.8193C192.405 74.5716 192.426 74.321 192.426 74.0699H190.405C190.405 74.2094 190.394 74.3487 190.371 74.4864L192.364 74.8193ZM161.752 66.7914C161.964 66.5408 162.203 66.3151 162.465 66.1188L161.254 64.5008C160.869 64.7893 160.517 65.121 160.207 65.4892L161.752 66.7914Z" fill="white"/>
</g>
<path d="M17.3837 73.1069C14.0498 73.1069 10.8549 72.6703 7.7988 71.7971C4.74274 70.8843 2.28201 69.7135 0.416626 68.2847L3.69098 61.0215C5.47699 62.2916 7.58051 63.3434 10.0015 64.1768C12.4623 64.9706 14.9428 65.3675 17.4433 65.3675C19.3483 65.3675 20.8764 65.1889 22.0273 64.8317C23.218 64.4348 24.0912 63.899 24.6468 63.2243C25.2025 62.5496 25.4803 61.7756 25.4803 60.9025C25.4803 59.7912 25.0437 58.918 24.1706 58.283C23.2974 57.6083 22.1464 57.0725 20.7176 56.6756C19.2888 56.239 17.7012 55.8421 15.9549 55.4849C14.2483 55.088 12.5218 54.6118 10.7755 54.0561C9.06885 53.5005 7.50113 52.7861 6.07232 51.9129C4.64352 51.0397 3.47269 49.8888 2.55984 48.4599C1.68668 47.0311 1.2501 45.2054 1.2501 42.9829C1.2501 40.6015 1.88512 38.4384 3.15517 36.4937C4.46491 34.5092 6.40968 32.9415 8.98947 31.7905C11.609 30.5999 14.8833 30.0045 18.8125 30.0045C21.432 30.0045 24.0118 30.322 26.5519 30.9571C29.092 31.5524 31.3344 32.4652 33.2792 33.6956L30.3025 41.0182C28.3578 39.9069 26.413 39.0933 24.4682 38.5774C22.5235 38.0217 20.6184 37.7439 18.753 37.7439C16.8876 37.7439 15.3596 37.9622 14.1689 38.3988C12.9782 38.8353 12.1249 39.4108 11.609 40.1252C11.093 40.8 10.835 41.5937 10.835 42.5066C10.835 43.5782 11.2716 44.4513 12.1448 45.1261C13.0179 45.7611 14.1689 46.277 15.5977 46.6739C17.0265 47.0708 18.5942 47.4677 20.3009 47.8646C22.0472 48.2615 23.7737 48.7179 25.4803 49.2339C27.2266 49.7498 28.8142 50.4444 30.243 51.3176C31.6718 52.1907 32.8228 53.3417 33.6959 54.7705C34.6088 56.1993 35.0652 58.0052 35.0652 60.1881C35.0652 62.5297 34.4103 64.6729 33.1006 66.6177C31.7909 68.5625 29.8263 70.1302 27.2068 71.3209C24.627 72.5115 21.3526 73.1069 17.3837 73.1069Z" fill="white"/>
<path d="M41.6553 72.3925V30.7189H49.6328L74.2202 60.7239H70.3505V30.7189H79.8759V72.3925H71.9579L47.311 42.3875H51.1807V72.3925H41.6553Z" fill="white"/>
<path d="M108.251 73.1069C102.337 73.1069 97.7132 71.4598 94.3793 68.1656C91.0455 64.8714 89.3785 60.1682 89.3785 54.0561V30.7189H99.023V53.6989C99.023 57.6678 99.8366 60.5254 101.464 62.2718C103.091 64.0181 105.373 64.8912 108.31 64.8912C111.247 64.8912 113.529 64.0181 115.157 62.2718C116.784 60.5254 117.597 57.6678 117.597 53.6989V30.7189H127.123V54.0561C127.123 60.1682 125.456 64.8714 122.122 68.1656C118.788 71.4598 114.164 73.1069 108.251 73.1069Z" fill="white"/>
<path d="M204.094 72.3925V30.7189H222.133C225.863 30.7189 229.078 31.3341 231.777 32.5645C234.476 33.7551 236.56 35.4816 238.028 37.7439C239.497 40.0062 240.231 42.705 240.231 45.8405C240.231 48.9362 239.497 51.6152 238.028 53.8775C236.56 56.1398 234.476 57.8861 231.777 59.1165C229.078 60.3071 225.863 60.9025 222.133 60.9025H209.452L213.738 56.5565V72.3925H204.094ZM213.738 57.6281L209.452 53.044H221.597C224.573 53.044 226.796 52.409 228.264 51.139C229.733 49.8689 230.467 48.1027 230.467 45.8405C230.467 43.5385 229.733 41.7525 228.264 40.4824C226.796 39.2124 224.573 38.5774 221.597 38.5774H209.452L213.738 33.9933V57.6281Z" fill="white"/>
<path d="M247.116 72.3925V30.7189H256.761V64.534H277.657V72.3925H247.116Z" fill="white"/>
<path d="M302.589 73.1069C299.295 73.1069 296.239 72.5711 293.421 71.4995C290.643 70.4279 288.222 68.9197 286.158 66.9749C284.134 65.0301 282.546 62.748 281.395 60.1285C280.284 57.5091 279.729 54.6514 279.729 51.5557C279.729 48.4599 280.284 45.6023 281.395 42.9829C282.546 40.3634 284.154 38.0812 286.218 36.1365C288.282 34.1917 290.703 32.6835 293.481 31.6119C296.259 30.5403 299.275 30.0045 302.53 30.0045C305.824 30.0045 308.84 30.5403 311.579 31.6119C314.357 32.6835 316.758 34.1917 318.783 36.1365C320.846 38.0812 322.454 40.3634 323.605 42.9829C324.756 45.5626 325.331 48.4203 325.331 51.5557C325.331 54.6514 324.756 57.5289 323.605 60.1881C322.454 62.8076 320.846 65.0897 318.783 67.0344C316.758 68.9395 314.357 70.4279 311.579 71.4995C308.84 72.5711 305.844 73.1069 302.589 73.1069ZM302.53 64.8912C304.395 64.8912 306.102 64.5737 307.65 63.9387C309.237 63.3037 310.626 62.3908 311.817 61.2001C313.008 60.0095 313.921 58.6005 314.556 56.9733C315.23 55.346 315.568 53.5402 315.568 51.5557C315.568 49.5712 315.23 47.7654 314.556 46.1381C313.921 44.5109 313.008 43.1019 311.817 41.9112C310.666 40.7206 309.297 39.8077 307.709 39.1727C306.122 38.5377 304.395 38.2202 302.53 38.2202C300.665 38.2202 298.938 38.5377 297.35 39.1727C295.803 39.8077 294.433 40.7206 293.243 41.9112C292.052 43.1019 291.119 44.5109 290.445 46.1381C289.81 47.7654 289.492 49.5712 289.492 51.5557C289.492 53.5005 289.81 55.3063 290.445 56.9733C291.119 58.6005 292.032 60.0095 293.183 61.2001C294.374 62.3908 295.763 63.3037 297.35 63.9387C298.938 64.5737 300.665 64.8912 302.53 64.8912Z" fill="white"/>
<path d="M332.58 72.3925V30.7189H350.618C354.349 30.7189 357.564 31.3341 360.263 32.5645C362.962 33.7551 365.045 35.4816 366.514 37.7439C367.982 40.0062 368.716 42.705 368.716 45.8405C368.716 48.9362 367.982 51.6152 366.514 53.8775C365.045 56.1001 362.962 57.8067 360.263 58.9974C357.564 60.1881 354.349 60.7834 350.618 60.7834H337.938L342.224 56.5565V72.3925H332.58ZM359.072 72.3925L348.654 57.2709H358.953L369.49 72.3925H359.072ZM342.224 57.6281L337.938 53.1036H350.082C353.059 53.1036 355.282 52.4685 356.75 51.1985C358.219 49.8888 358.953 48.1027 358.953 45.8405C358.953 43.5385 358.219 41.7525 356.75 40.4824C355.282 39.2124 353.059 38.5774 350.082 38.5774H337.938L342.224 33.9933V57.6281Z" fill="white"/>
<path d="M385.228 47.5074H405.291V55.0086H385.228V47.5074ZM385.943 64.6531H408.625V72.3925H376.358V30.7189H407.851V38.4583H385.943V64.6531Z" fill="white"/>
<defs>
<filter id="filter0_f_1_314" x="111.167" y="0.294841" width="104.789" height="102.514" filterUnits="userSpaceOnUse" color-interpolation-filters="sRGB">
<feFlood flood-opacity="0" result="BackgroundImageFix"/>
<feBlend mode="normal" in="SourceGraphic" in2="BackgroundImageFix" result="shape"/>
<feGaussianBlur stdDeviation="1.01042" result="effect1_foregroundBlur_1_314"/>
</filter>
</defs>
</svg>
