<svg width="300" height="76" viewBox="0 0 300 76" fill="none" xmlns="http://www.w3.org/2000/svg">
<path d="M97.1578 75L117.99 49.5352C118.179 49.3038 118.395 49.0948 118.631 48.9122V48.9122C118.82 48.7668 119.022 48.6389 119.233 48.5301L119.418 48.4352C119.509 48.3884 119.603 48.3482 119.7 48.315V48.315C119.922 48.2392 120.154 48.2005 120.388 48.2005H120.675V48.2005C120.992 48.2005 121.308 48.253 121.609 48.356L121.635 48.3649V48.3649C122.162 48.5818 122.64 48.9047 123.038 49.3135L123.714 50.009L125.154 51.6532L127.554 54.6126L130.113 57.7365L130.753 58.2297L131.393 58.5586L132.193 58.723H133.953H136.513H137.359C137.541 58.723 137.722 58.7045 137.901 58.6679V58.6679C138.252 58.5957 138.585 58.4543 138.88 58.2517L138.912 58.2297L139.175 58.0496C139.32 57.9507 139.454 57.8377 139.576 57.7124L139.606 57.6815C139.782 57.5001 139.929 57.2917 140.039 57.0641V57.0641C140.141 56.8558 140.211 56.6338 140.248 56.4052L140.317 55.9826C140.34 55.8368 140.352 55.6893 140.352 55.5415V55.5415C140.352 55.2529 140.307 54.966 140.218 54.6914L140.192 54.6126V54.6126C139.979 54.175 139.728 53.7573 139.441 53.3642L139.392 53.2973L138.752 52.4752L137.952 51.4887L136.353 49.5158L134.593 47.3784L132.833 45.241L131.393 43.4324L129.793 41.4595L128.994 40.473L128.819 40.2342C128.617 39.9567 128.46 39.6488 128.354 39.3221V39.3221L128.247 38.7738C128.212 38.5917 128.194 38.4066 128.194 38.2211V38.2211C128.194 37.8621 128.261 37.5063 128.391 37.1717L128.419 37.0989C128.482 36.9371 128.558 36.7806 128.645 36.6306L128.739 36.4691C128.909 36.1794 129.103 35.9054 129.32 35.65L130.113 34.7185L131.553 32.9099L132.993 31.1014L134.913 28.7996L138.752 24.0315L140.832 21.2365L155.39 2.16441L144.831 2L124.032 27.7484C123.821 28.0094 123.574 28.2382 123.297 28.4278L123.276 28.4421C122.931 28.6783 122.545 28.8473 122.138 28.9403V28.9403C121.598 29.0637 121.035 29.05 120.501 28.9005L120.46 28.8888C119.867 28.7226 119.329 28.4027 118.899 27.9615L117.795 26.8266L116.355 25.1824L113.796 22.0586L112.196 20.25L111.882 19.9278C111.254 19.2816 110.44 18.8458 109.554 18.6802V18.6802C109.289 18.6307 109.021 18.6059 108.752 18.6059H107.237H105.298C104.991 18.6059 104.685 18.637 104.385 18.6988L103.923 18.7937C103.473 18.8862 103.054 19.0914 102.705 19.3902V19.3902C102.423 19.632 102.193 19.9292 102.031 20.2634L101.925 20.4807C101.736 20.8698 101.637 21.297 101.637 21.7297V21.7297C101.637 22.1625 101.736 22.5896 101.925 22.9788L102.06 23.2558C102.204 23.5527 102.383 23.8315 102.593 24.0864L104.037 25.8401L112.711 36.3188C113.006 36.6749 113.246 37.0727 113.424 37.4994L113.461 37.5885C113.577 37.8664 113.66 38.1569 113.708 38.4541V38.4541C113.766 38.8117 113.773 39.1802 113.729 39.5398V39.5398C113.668 40.0434 113.509 40.5365 113.262 40.9799L113.227 41.0431C113.073 41.3198 112.889 41.5787 112.679 41.815L111.236 43.4324L106.437 49.3514L103.077 53.4617L84.5195 75H96.9979" stroke="#308CF8" stroke-width="2"/>
<path d="M12.468 54.8123C10.0181 54.8123 7.67035 54.4818 5.42466 53.8209C3.17897 53.1299 1.37075 52.2437 0 51.1623L2.4061 45.6647C3.71852 46.626 5.26425 47.4221 7.04331 48.053C8.85153 48.6538 10.6743 48.9542 12.5117 48.9542C13.9116 48.9542 15.0345 48.819 15.8803 48.5487C16.7552 48.2483 17.3968 47.8427 17.8051 47.332C18.2134 46.8213 18.4176 46.2355 18.4176 45.5746C18.4176 44.7334 18.0968 44.0725 17.4552 43.5919C16.8135 43.0812 15.9678 42.6756 14.9178 42.3752C13.8679 42.0448 12.7013 41.7444 11.418 41.474C10.1639 41.1736 8.89528 40.8131 7.61202 40.3925C6.35794 39.9719 5.20592 39.4312 4.15599 38.7703C3.10606 38.1094 2.24569 37.2382 1.5749 36.1567C0.933275 35.0752 0.612462 33.6933 0.612462 32.011C0.612462 30.2085 1.0791 28.5713 2.01237 27.0993C2.97481 25.5972 4.40389 24.4106 6.29961 23.5394C8.22449 22.6382 10.6306 22.1876 13.5179 22.1876C15.4428 22.1876 17.3385 22.4279 19.205 22.9085C21.0716 23.3592 22.7194 24.0501 24.1485 24.9814L21.9611 30.524C20.532 29.6828 19.103 29.067 17.6739 28.6764C16.2448 28.2559 14.8449 28.0456 13.4742 28.0456C12.1034 28.0456 10.9806 28.2108 10.1056 28.5413C9.23067 28.8717 8.60363 29.3073 8.22449 29.8481C7.84534 30.3588 7.65577 30.9596 7.65577 31.6505C7.65577 32.4616 7.97658 33.1225 8.61821 33.6332C9.25984 34.1139 10.1056 34.5044 11.1556 34.8048C12.2055 35.1053 13.3575 35.4057 14.6116 35.7061C15.8948 36.0065 17.1635 36.352 18.4176 36.7425C19.7009 37.133 20.8674 37.6588 21.9174 38.3197C22.9673 38.9806 23.8131 39.8518 24.4547 40.9332C25.1255 42.0147 25.4609 43.3816 25.4609 45.0339C25.4609 46.8063 24.9797 48.4285 24.0172 49.9005C23.0548 51.3725 21.6111 52.5592 19.6863 53.4604C17.7906 54.3616 15.3845 54.8123 12.468 54.8123Z" fill="#308CF8"/>
<path d="M30.3035 54.2715V22.7283H36.1657L54.2333 45.4394H51.3897V22.7283H58.3893V54.2715H52.5709L34.4595 31.5604H37.3031V54.2715H30.3035Z" fill="#308CF8"/>
<path d="M79.24 54.8123C74.8944 54.8123 71.4967 53.5655 69.0469 51.0721C66.597 48.5787 65.3721 45.0188 65.3721 40.3925V22.7283H72.4591V40.1221C72.4591 43.1262 73.057 45.2892 74.2528 46.611C75.4485 47.9328 77.1255 48.5937 79.2837 48.5937C81.4419 48.5937 83.1189 47.9328 84.3147 46.611C85.5104 45.2892 86.1083 43.1262 86.1083 40.1221V22.7283H93.1078V40.3925C93.1078 45.0188 91.8829 48.5787 89.4331 51.0721C86.9832 53.5655 83.5855 54.8123 79.24 54.8123Z" fill="#308CF8"/>
<path d="M149.669 54.2715V22.7283H162.924C165.666 22.7283 168.028 23.1939 170.011 24.1252C171.994 25.0264 173.525 26.3332 174.605 28.0456C175.684 29.7579 176.223 31.8007 176.223 34.174C176.223 36.5172 175.684 38.545 174.605 40.2573C173.525 41.9697 171.994 43.2915 170.011 44.2227C168.028 45.124 165.666 45.5746 162.924 45.5746H153.606L156.756 42.2851V54.2715H149.669ZM156.756 43.0962L153.606 39.6264H162.53C164.718 39.6264 166.351 39.1458 167.43 38.1845C168.509 37.2232 169.049 35.8863 169.049 34.174C169.049 32.4316 168.509 31.0797 167.43 30.1184C166.351 29.1571 164.718 28.6764 162.53 28.6764H153.606L156.756 25.2067V43.0962Z" fill="#308CF8"/>
<path d="M181.283 54.2715V22.7283H188.37V48.3234H203.725V54.2715H181.283Z" fill="#308CF8"/>
<path d="M222.046 54.8123C219.626 54.8123 217.38 54.4067 215.309 53.5956C213.268 52.7845 211.489 51.6429 209.972 50.1709C208.485 48.6989 207.318 46.9715 206.472 44.9888C205.656 43.0061 205.247 40.8431 205.247 38.4999C205.247 36.1567 205.656 33.9937 206.472 32.011C207.318 30.0283 208.499 28.3009 210.016 26.8289C211.532 25.3569 213.312 24.2153 215.353 23.4042C217.395 22.5931 219.611 22.1876 222.003 22.1876C224.423 22.1876 226.64 22.5931 228.652 23.4042C230.694 24.2153 232.458 25.3569 233.946 26.8289C235.462 28.3009 236.643 30.0283 237.489 32.011C238.335 33.9637 238.758 36.1267 238.758 38.4999C238.758 40.8431 238.335 43.0211 237.489 45.0339C236.643 47.0166 235.462 48.7439 233.946 50.216C232.458 51.6579 230.694 52.7845 228.652 53.5956C226.64 54.4067 224.438 54.8123 222.046 54.8123ZM222.003 48.5937C223.373 48.5937 224.627 48.3534 225.765 47.8727C226.932 47.3921 227.952 46.7011 228.827 45.7999C229.702 44.8987 230.373 43.8322 230.84 42.6005C231.335 41.3688 231.583 40.002 231.583 38.4999C231.583 36.9978 231.335 35.631 230.84 34.3993C230.373 33.1676 229.702 32.1011 228.827 31.1999C227.981 30.2987 226.975 29.6077 225.809 29.1271C224.642 28.6464 223.373 28.4061 222.003 28.4061C220.632 28.4061 219.363 28.6464 218.197 29.1271C217.059 29.6077 216.053 30.2987 215.178 31.1999C214.303 32.1011 213.618 33.1676 213.122 34.3993C212.655 35.631 212.422 36.9978 212.422 38.4999C212.422 39.9719 212.655 41.3388 213.122 42.6005C213.618 43.8322 214.289 44.8987 215.134 45.7999C216.009 46.7011 217.03 47.3921 218.197 47.8727C219.363 48.3534 220.632 48.5937 222.003 48.5937Z" fill="#308CF8"/>
<path d="M244.084 54.2715V22.7283H257.34C260.081 22.7283 262.443 23.1939 264.427 24.1252C266.41 25.0264 267.941 26.3332 269.02 28.0456C270.099 29.7579 270.639 31.8007 270.639 34.174C270.639 36.5172 270.099 38.545 269.02 40.2573C267.941 41.9396 266.41 43.2314 264.427 44.1326C262.443 45.0339 260.081 45.4845 257.34 45.4845H248.021L251.171 42.2851V54.2715H244.084ZM263.552 54.2715L255.896 42.8258H263.464L271.207 54.2715H263.552ZM251.171 43.0962L248.021 39.6715H256.946C259.133 39.6715 260.766 39.1909 261.845 38.2295C262.925 37.2382 263.464 35.8863 263.464 34.174C263.464 32.4316 262.925 31.0797 261.845 30.1184C260.766 29.1571 259.133 28.6764 256.946 28.6764H248.021L251.171 25.2067V43.0962Z" fill="#308CF8"/>
<path d="M282.772 35.4357H297.515V41.1135H282.772V35.4357ZM283.297 48.4135H299.965V54.2715H276.254V22.7283H299.396V28.5863H283.297V48.4135Z" fill="#308CF8"/>
</svg>
