<svg width="701" height="701" viewBox="0 0 701 701" fill="none" xmlns="http://www.w3.org/2000/svg">
<path d="M0 45C0 20.1472 20.1472 0 45 0H656C680.853 0 701 20.1472 701 45V656C701 680.853 680.853 701 656 701H45C20.1472 701 0 680.853 0 656V45Z" fill="url(#paint0_linear_1159_728)"/>
<path fill-rule="evenodd" clip-rule="evenodd" d="M401.907 601.715C408.897 594.947 432.186 569.942 439.716 564.096C439.947 563.849 440.258 563.692 440.594 563.653C440.929 563.613 441.268 563.694 441.55 563.88C441.832 564.067 442.039 564.348 442.133 564.672C442.228 564.997 442.205 565.344 442.067 565.653C438.318 572.421 405.625 603.144 403.718 604.955C402.416 606.576 396.824 613.311 395.299 614.709C395.346 615.975 395.015 617.225 394.347 618.301C393.679 619.376 392.705 620.228 391.55 620.746C387.457 622.135 383.447 623.758 379.54 625.607C378.968 626.116 378.301 625.607 378.46 625.067C380.418 622.612 382.061 619.923 383.352 617.061C383.631 615.167 384.592 613.44 386.055 612.205C387.518 610.97 389.382 610.313 391.296 610.357C391.518 609.944 399.938 603.017 401.907 601.715V601.715ZM391.2 610.865C389.484 610.964 387.86 611.676 386.624 612.872C385.388 614.067 384.621 615.666 384.465 617.378C383.748 619.533 382.674 621.553 381.287 623.351C389.326 620.015 392.058 620.492 393.806 617.791C394.358 616.893 394.705 615.884 394.822 614.836C392.598 614.233 391.041 610.484 391.2 610.865V610.865ZM401.272 602.89C398.794 605.146 396.22 607.561 392.439 610.833C392.994 611.937 393.826 612.879 394.854 613.566L403.147 604.701C402.415 604.23 401.788 603.614 401.304 602.89H401.272ZM387.133 565.463C390.755 563.08 439.907 530.736 440.384 532.324C440.86 533.913 392.153 570.768 391.74 571.023C389.675 573.374 375.854 588.275 374.043 588.91C371.739 588.826 369.555 587.859 367.943 586.21C365.734 583.951 364.099 581.194 363.177 578.171C362.573 576.011 385.164 566.289 387.133 565.463ZM364.734 579.601C365.359 581.615 366.491 583.435 368.021 584.887C369.551 586.339 371.427 587.374 373.471 587.894C371.184 585.733 366.354 581.126 364.734 579.601ZM374.266 572.262C370.777 573.925 367.43 575.869 364.257 578.076C364.67 579.442 364.257 578.076 367.435 580.713C370.013 582.736 372.273 585.135 374.139 587.83C375.727 586.655 382.177 580.237 381.796 580.586C379.414 577.669 376.868 574.889 374.17 572.262H374.266ZM387.26 565.907C382.018 568.354 378.523 570.069 374.552 572.008C377.703 574.021 380.259 576.84 381.955 580.173C383.861 578.267 390.342 571.69 391.296 570.641C390.374 569.752 387.959 566.988 387.165 565.971L387.26 565.907ZM464.244 529.592C465.865 515.358 468.248 497.661 470.186 497.565C472.124 497.47 470.027 515.358 468.025 529.687C474.38 530.227 481.942 533.722 480.734 539.759C480.791 540.834 480.651 541.911 480.321 542.936C483.498 564.509 480.671 568.957 480.893 568.608C479.042 570.836 476.727 572.633 474.109 573.874C471.491 575.114 468.634 575.767 465.738 575.788C462.829 575.804 459.951 575.199 457.294 574.016C454.637 572.833 452.263 571.098 450.328 568.926C447.691 564.954 449.375 548.178 449.883 543.508C449.602 542.525 449.442 541.511 449.407 540.49C449.024 538.819 449.24 537.066 450.018 535.539C450.797 534.011 452.087 532.806 453.664 532.133C456.914 530.391 460.558 529.515 464.244 529.592V529.592ZM479.717 557.488C477.207 562.635 470.186 564.255 464.53 564.255C464.453 565.779 464.284 567.296 464.022 568.799C463.768 570.006 463.482 571.054 462.243 571.023C460.455 570.661 458.88 569.611 457.858 568.1C457.032 566.86 457.223 566.225 458.271 563.493C456.895 563.133 455.613 562.478 454.516 561.573C453.418 560.667 452.531 559.533 451.917 558.25C451.93 561.088 452.217 563.919 452.775 566.702C453.445 567.965 454.402 569.054 455.571 569.879C462.751 575.725 471.457 574.073 478.733 567.814C479.05 565.463 479.495 560.856 479.717 557.488ZM450.551 544.779C450.328 548.623 449.47 564.859 451.631 568.036C453.293 569.968 455.397 571.472 457.763 572.421C455.283 571.21 453.264 569.225 452.012 566.765C451.466 563.363 451.285 559.912 451.472 556.471C451.271 555.507 451.308 554.509 451.579 553.562C451.851 552.616 452.348 551.749 453.029 551.038C455.285 548.433 455.825 549.926 453.76 548.496C452.408 547.584 451.306 546.35 450.551 544.906V544.779ZM459.097 563.524C458.712 564.554 458.425 565.618 458.239 566.702C458.239 567.782 461.099 570.197 462.37 570.069C462.815 570.069 462.942 569.402 463.101 568.608C463.382 567.17 463.573 565.717 463.673 564.255C462.13 564.225 460.595 564.022 459.097 563.651V563.524ZM479.94 544.016C478.849 546.03 477.177 547.668 475.142 548.719C478.796 549.862 481.211 552.309 480.226 556.026C480.226 558.028 480.226 559.998 480.035 561.777C479.717 568.417 479.495 568.131 479.813 567.655C481.306 561.999 480.544 550.117 479.94 544.143V544.016ZM474.602 549.005C471.63 550.443 468.372 551.192 465.071 551.197C465.075 553.095 464.829 554.986 464.34 556.82C464.468 558.937 464.468 561.059 464.34 563.175C468.319 563.311 472.254 562.308 475.682 560.284C480.734 557.106 481.529 551.356 474.602 549.132V549.005ZM461.48 556.948C461.29 557.392 459.701 561.809 459.415 562.603C460.84 562.95 462.301 563.131 463.768 563.143C463.768 561.586 464.086 558.6 464.054 557.043C463.207 557.229 462.331 557.24 461.48 557.075V556.948ZM455.539 549.576C449.439 553.77 452.012 560.442 458.716 562.476C459.383 560.792 460.432 558.441 461.194 556.82C461.282 554.923 461.494 553.034 461.83 551.165C459.657 550.999 457.53 550.462 455.539 549.576ZM462.116 551.197L461.83 556.344C462.37 556.344 464.117 556.598 463.927 556.344C463.736 556.09 464.34 553.357 464.562 551.26C463.736 551.324 462.91 551.292 462.116 551.229V551.197ZM479.4 542.777C473.744 549.862 456.651 549.958 450.805 542.777C451.422 544.37 452.439 545.776 453.758 546.861C455.077 547.946 456.653 548.674 458.335 548.973C465.579 550.943 476.477 549.354 479.4 542.809V542.777ZM467.549 532.991C466.596 539.568 465.769 544.906 465.484 546.653C470.281 546.653 476.699 544.906 478.923 541.03C478.224 536.073 472.569 533.5 467.549 533.023V532.991ZM463.863 532.991C461.24 533.12 458.7 533.952 456.509 535.4C454.318 536.848 452.556 538.858 451.408 541.22C453.442 544.398 458.557 546.145 462.497 546.526C462.656 544.779 463.164 539.505 463.863 533.023V532.991ZM464.181 530.195C460.718 530.321 457.342 531.316 454.363 533.087C451.536 534.898 449.629 537.694 451.186 540.712C452.27 538.209 454.037 536.062 456.285 534.516C458.532 532.971 461.17 532.09 463.895 531.975L464.181 530.195ZM468.025 530.513C468.025 531.053 467.866 531.593 467.771 532.133C473.014 532.61 478.51 535.311 479.368 540.394C480.512 537.503 478.605 534.898 475.937 533.214C473.525 531.754 470.826 530.833 468.025 530.513V530.513ZM498.463 543.413C496.97 536.01 484.896 480.853 488.931 477.644C490.365 476.854 491.923 476.317 493.538 476.056C497.986 475.102 526.359 471.29 527.662 475.134C528.964 478.979 521.307 537.535 520.735 540.68C520.735 542.809 519.941 548.75 519.941 548.75C519.116 550.473 517.895 551.976 516.376 553.135C514.858 554.294 513.086 555.076 511.207 555.417C509.328 555.758 507.394 555.649 505.565 555.097C503.737 554.546 502.065 553.568 500.687 552.245C499.626 549.391 498.881 546.429 498.463 543.413V543.413ZM526.041 482.188C513.874 482.35 501.736 483.412 489.726 485.365C490.711 498.709 496.493 529.846 499.003 543.127C502.311 544.935 506.081 545.722 509.836 545.389C513.591 545.055 517.163 543.616 520.1 541.252C520.449 538.551 525.787 485.746 526.041 482.188V482.188ZM523.182 500.616C523.182 500.616 523.372 498.455 520.704 498.995C518.035 499.535 513.174 504.11 507.2 503.602C501.227 503.094 495.54 499.758 493.761 501.982C491.982 504.206 499.512 511.227 509.266 509.575C520.449 507.701 523.404 503.094 523.182 500.616ZM491.727 478.057C491.251 478.057 489.948 478.566 489.821 478.979C489.55 480.992 489.55 483.033 489.821 485.047L492.998 484.443C492.28 482.384 491.852 480.235 491.727 478.057V478.057ZM497.224 476.882C495.604 477.168 493.697 477.517 492.14 477.93C492.612 480.026 492.962 482.148 493.189 484.285C494.396 484.062 497.764 483.49 498.749 483.395C498.654 483.173 497.891 480.535 497.224 476.882V476.882ZM503.292 476.087C501.291 476.31 499.384 476.564 497.637 476.818C498.415 478.943 498.886 481.169 499.035 483.427L504.373 482.76C504.182 481.711 503.515 478.407 503.292 476.087ZM509.234 475.516C508.154 475.516 505.866 475.77 503.705 476.024C504.374 478.195 504.706 480.456 504.69 482.728L510.409 482.188C510.314 481.648 509.647 478.788 509.329 475.516H509.234ZM515.588 475.102L509.647 475.484C510.332 477.643 510.696 479.891 510.727 482.156C512.57 482.156 514.603 481.902 516.414 481.838C516.414 481.775 515.684 475.515 515.684 475.102H515.588ZM523.277 475.102C523.163 477.328 522.919 479.545 522.546 481.743H526.073C526.073 480.949 526.613 475.611 526.073 475.388C525.152 475.207 524.215 475.122 523.277 475.134V475.102ZM522.864 475.102H516.033C516.648 477.292 516.884 479.569 516.732 481.838H522.26C522.165 479.576 522.368 477.311 522.864 475.102ZM283.747 518.853C287.909 518.853 291.309 520.378 291.309 522.316C291.309 524.254 287.909 525.779 283.747 525.779C279.585 525.779 276.217 524.222 276.217 522.316C276.217 520.41 279.458 518.853 283.747 518.853ZM203.427 500.552C203.427 501.251 202.124 501.886 200.472 501.95C198.82 502.013 197.295 501.473 197.295 500.743C197.358 499.059 203.363 498.741 203.427 500.552Z" fill="black"/>
<path d="M233.515 580.745C235.55 580.745 237.2 579.763 237.2 578.553C237.2 577.342 235.55 576.36 233.515 576.36C231.479 576.36 229.829 577.342 229.829 578.553C229.829 579.763 231.479 580.745 233.515 580.745Z" fill="black"/>
<path fill-rule="evenodd" clip-rule="evenodd" d="M392.185 473.323C395.362 473.323 398.094 474.245 398.094 475.357C398.094 476.469 395.457 477.422 392.185 477.422C388.912 477.422 386.307 476.501 386.307 475.357C386.307 474.213 388.944 473.323 392.185 473.323ZM189.891 392.209C189.891 393.003 189.415 399.008 189.669 407.777C189.669 408.953 189.891 412.956 189.891 412.956C189.891 412.956 190.273 413.179 190.273 412.956C190.273 412.734 190.463 408.953 190.495 407.777C190.686 400.47 190.273 391.891 190.273 392.209C190.273 392.158 190.253 392.11 190.217 392.074C190.181 392.038 190.133 392.018 190.082 392.018C190.032 392.018 189.983 392.038 189.947 392.074C189.912 392.11 189.891 392.158 189.891 392.209V392.209ZM322.223 45.0345C326.194 46.1147 333.216 48.3706 335.758 51.6431C335.849 51.7632 335.899 51.9096 335.9 52.0605C335.901 52.2114 335.854 52.3586 335.764 52.4801C335.675 52.6017 335.548 52.691 335.404 52.7349C335.26 52.7787 335.105 52.7747 334.963 52.7233C322.254 47.5445 302.015 54.1531 289.179 59.4908C284.096 61.6195 314.597 27.2103 336.52 32.6116C336.67 32.6572 336.801 32.7498 336.894 32.8757C336.987 33.0015 337.038 33.154 337.038 33.3105C337.038 33.4671 336.987 33.6196 336.894 33.7454C336.801 33.8713 336.67 33.9639 336.52 34.0095C331.537 35.1782 326.643 36.6964 321.873 38.553C325.527 38.7118 333.946 39.2519 336.774 41.7302C336.886 41.8271 336.968 41.9546 337.008 42.0971C337.049 42.2396 337.048 42.3908 337.004 42.5324C336.96 42.6739 336.876 42.7997 336.762 42.8942C336.648 42.9887 336.508 43.0479 336.361 43.0646C331.617 43.4768 326.898 44.1343 322.223 45.0345V45.0345ZM332.771 33.5012C326.53 33.4784 320.393 35.1002 314.979 38.2035C305.29 43.3438 296.664 50.2763 289.561 58.633C301.73 53.3588 319.045 47.3856 332.04 50.3722C327.941 48.2786 323.582 46.74 319.077 45.797C318.913 45.7623 318.766 45.6723 318.661 45.5422C318.555 45.412 318.498 45.2496 318.498 45.0821C318.498 44.9146 318.555 44.7522 318.661 44.6221C318.766 44.492 318.913 44.402 319.077 44.3673C323.918 43.0629 328.86 42.1701 333.851 41.6984C328.978 40.5494 323.988 39.9736 318.982 39.9827C318.819 39.9874 318.659 39.9373 318.527 39.8406C318.396 39.7438 318.301 39.6058 318.257 39.4487C318.213 39.2915 318.223 39.1242 318.285 38.9734C318.348 38.8226 318.459 38.697 318.601 38.6165C323.118 36.3861 327.871 34.6703 332.771 33.5012V33.5012ZM118.213 299.275C115.054 299.69 111.868 299.881 108.682 299.847C108.52 299.854 108.361 299.804 108.232 299.706C108.103 299.608 108.012 299.468 107.974 299.311C107.937 299.153 107.955 298.987 108.026 298.842C108.097 298.696 108.217 298.58 108.364 298.513C112.304 296.384 121.581 294.287 126.347 290.983L138.135 283.103C138.158 283.076 138.188 283.055 138.221 283.04C138.254 283.025 138.289 283.017 138.325 283.017C138.361 283.017 138.397 283.025 138.43 283.04C138.463 283.055 138.492 283.076 138.516 283.103C138.865 283.516 138.135 283.548 134.163 288.791C131.527 292.037 129.385 295.656 127.809 299.53C126.105 303.581 124.61 307.717 123.329 311.921C123.329 312.874 121.041 313.573 121.677 308.362C121.94 306.418 122.3 304.488 122.757 302.58C119.461 304.959 115.987 307.084 112.367 308.934C112.237 309.009 112.087 309.042 111.937 309.028C111.787 309.015 111.645 308.955 111.531 308.858C111.416 308.76 111.334 308.63 111.296 308.485C111.258 308.339 111.266 308.185 111.319 308.045C112.944 304.65 115.298 301.656 118.213 299.275V299.275ZM136.196 285.2C120.628 296.162 127.586 292.19 112.05 298.386C115.023 298.379 117.978 297.929 120.819 297.051L121.168 296.765C121.867 296.225 123.106 297.306 121.74 298.195C118.686 300.596 115.99 303.421 113.734 306.583C117.252 304.783 120.547 302.575 123.551 300.006C123.663 299.876 123.817 299.79 123.986 299.762C124.155 299.734 124.329 299.766 124.476 299.853C124.624 299.94 124.736 300.077 124.794 300.238C124.851 300.4 124.85 300.576 124.79 300.737C124.133 303.133 123.603 305.561 123.202 308.013C125.713 299.507 130.161 291.699 136.196 285.2V285.2ZM138.357 270.363C143.745 261.633 151.442 254.562 160.598 249.933C172.925 244.119 177.437 250.314 171.845 261.435C167.083 270.318 160.277 277.942 151.987 283.675C152.92 286.935 153.296 290.33 153.099 293.715C152.273 296.892 136.737 302.23 134.608 301.976C134.447 301.968 134.29 301.917 134.156 301.828C134.022 301.738 133.914 301.614 133.845 301.468C133.528 300.737 134.258 300.07 134.957 299.53C138.836 296.696 142.902 294.127 147.126 291.841L146.904 286.567L145.093 287.456C144.975 287.489 144.85 287.488 144.732 287.454C144.615 287.421 144.509 287.355 144.425 287.266L134.417 277.511C134.37 277.459 134.344 277.391 134.344 277.321C134.344 277.25 134.37 277.183 134.417 277.13C134.417 277.13 134.735 276.463 135.402 275.287H129.842C129.016 277.003 123.488 288.187 121.708 288.949C121.581 289.011 121.44 289.042 121.298 289.038C121.156 289.034 121.017 288.996 120.893 288.928C120.768 288.86 120.662 288.762 120.583 288.644C120.504 288.527 120.454 288.391 120.437 288.25C120.056 285.868 124.759 270.331 127.872 269.41C131.329 269.092 134.815 269.328 138.198 270.109C138.248 270.129 138.29 270.164 138.319 270.21C138.348 270.255 138.361 270.309 138.357 270.363ZM151.288 283.898C150.027 284.739 148.723 285.513 147.38 286.217L148.048 292.222C148.048 292.699 148.048 292.413 141.693 296.607C139.755 297.846 137.785 299.148 136.451 300.133C141.272 298.805 145.921 296.918 150.303 294.51C150.653 294.287 151.574 293.652 151.701 293.239C152.037 290.122 151.898 286.972 151.288 283.898V283.898ZM137.277 273.508C136.038 275.351 135.275 276.685 134.989 277.226L144.839 286.344C145.982 285.772 147.221 285.073 148.524 284.279C144.42 281.078 140.652 277.47 137.277 273.508V273.508ZM138.071 270.808C134.794 270.343 131.467 270.343 128.19 270.808C127.078 271.189 125.172 276.241 124.822 277.162C123.7 280.153 122.798 283.222 122.121 286.344C124.028 283.516 129.238 274.271 129.016 274.715C129.059 274.627 129.127 274.552 129.212 274.502C129.296 274.451 129.394 274.426 129.493 274.43L135.688 274.747C136.324 273.54 137.086 272.301 138.071 270.808ZM155.578 254.318C148.376 259.206 142.255 265.521 137.594 272.873C141.813 276.112 145.67 279.798 149.096 283.866C156.346 279.088 162.568 272.909 167.397 265.692L155.578 254.318ZM149.89 262.293C149.279 262.933 148.8 263.688 148.48 264.513C148.161 265.339 148.007 266.219 148.027 267.104C148.048 267.99 148.243 268.862 148.601 269.672C148.958 270.482 149.472 271.213 150.113 271.824C150.753 272.435 151.508 272.915 152.333 273.234C153.159 273.554 154.039 273.708 154.925 273.687C155.81 273.666 156.682 273.472 157.492 273.114C158.302 272.756 159.033 272.242 159.644 271.602C160.879 270.308 161.549 268.577 161.507 266.79C161.466 265.002 160.715 263.305 159.422 262.07C158.128 260.836 156.398 260.166 154.61 260.207C152.823 260.249 151.125 260.999 149.89 262.293V262.293ZM158.755 262.801C159.778 263.851 160.35 265.259 160.35 266.725C160.35 268.191 159.778 269.599 158.755 270.649C157.752 271.579 156.432 272.091 155.064 272.081C153.696 272.071 152.384 271.54 151.395 270.595C150.406 269.651 149.814 268.364 149.741 266.998C149.668 265.633 150.119 264.29 151.002 263.246C151.985 262.182 153.343 261.541 154.789 261.458C156.235 261.375 157.657 261.857 158.755 262.801V262.801ZM157.007 264.612C157.44 265.061 157.731 265.627 157.844 266.24C157.957 266.853 157.888 267.486 157.644 268.06C157.4 268.633 156.993 269.123 156.473 269.467C155.953 269.811 155.343 269.994 154.72 269.994C154.096 269.994 153.487 269.811 152.967 269.467C152.447 269.123 152.039 268.633 151.796 268.06C151.552 267.486 151.482 266.853 151.595 266.24C151.708 265.627 151.999 265.061 152.432 264.612C152.728 264.304 153.084 264.06 153.477 263.893C153.87 263.726 154.293 263.64 154.72 263.64C155.147 263.64 155.569 263.726 155.963 263.893C156.356 264.06 156.711 264.304 157.007 264.612Z" fill="black"/>
<path fill-rule="evenodd" clip-rule="evenodd" d="M257.598 48.8152C257.308 48.5688 257.08 48.257 256.933 47.9056C256.786 47.5541 256.724 47.1728 256.753 46.7929C256.781 46.4131 256.899 46.0453 257.097 45.7198C257.295 45.3943 257.567 45.1202 257.891 44.92C258.216 44.7197 258.582 44.599 258.962 44.5677C259.342 44.5363 259.723 44.5953 260.076 44.7396C260.428 44.884 260.742 45.1098 260.99 45.3985C261.239 45.6871 261.416 46.0305 261.506 46.4006C261.529 46.8005 261.457 47.2001 261.296 47.567C261.135 47.9338 260.89 48.2574 260.58 48.5114C260.271 48.7654 259.905 48.9425 259.514 49.0285C259.123 49.1144 258.717 49.1067 258.329 49.0059C258.329 49.3236 257.852 52.8503 256.899 56.9807C261.314 56.9975 265.576 58.5985 268.909 61.4923C268.958 61.4038 269.037 61.3359 269.132 61.3017C293.914 57.8068 296.487 66.004 288.513 72.5808C279.553 79.9837 252.038 88.4669 236.851 86.4653C232.88 85.9887 226.716 84.1459 226.652 80.3968C226.652 75.5674 239.583 70.1979 240.092 69.9437C242.163 64.6984 246.165 60.4459 251.276 58.0609C249.02 55.6145 246.669 52.056 246.129 51.4523C243.428 52.9139 240.886 49.4507 242.951 47.6714C243.406 47.2726 243.999 47.0674 244.603 47.0995C245.107 46.9976 245.631 47.0682 246.089 47.3002C246.548 47.5321 246.915 47.9117 247.132 48.3779C247.349 48.844 247.402 49.3695 247.283 49.8697C247.164 50.3698 246.881 50.8154 246.478 51.1346C247.547 51.9046 248.5 52.8249 249.306 53.867C253.881 59.3954 250.005 57.489 255.66 57.0442C255.828 54.2102 256.484 51.4264 257.598 48.8152V48.8152ZM239.552 70.8334C236.692 72.2313 227.478 77.1878 227.605 80.365C227.605 81.4135 228.527 82.462 230.211 83.3834C242.03 89.7378 277.202 79.7613 287.401 71.4688C293.215 66.7983 292.611 62.3184 281.554 61.5241C277.315 61.332 273.066 61.4595 268.846 61.9054C268.051 63.7482 260.394 78.2363 239.552 70.8334ZM236.374 78.3951C236.236 78.6891 236.161 79.0089 236.154 79.3337C236.147 79.6585 236.209 79.9811 236.335 80.2807C236.461 80.5802 236.648 80.85 236.885 81.0725C237.121 81.295 237.402 81.4653 237.709 81.5724C238.014 81.6483 238.33 81.6632 238.641 81.6164C238.951 81.5696 239.249 81.4619 239.518 81.2995C239.786 81.1371 240.02 80.9233 240.206 80.6702C240.392 80.4171 240.526 80.1299 240.6 79.8249C240.79 79.2645 240.749 78.6518 240.487 78.1215C240.225 77.5912 239.763 77.1868 239.202 76.9972C238.642 76.8076 238.029 76.8483 237.499 77.1105C236.968 77.3727 236.564 77.8348 236.374 78.3951V78.3951ZM238.98 77.5055C240.378 78.141 239.425 80.6827 238.09 80.3015C236.756 79.9202 237.455 77.2196 238.98 77.5055ZM260.903 75.6945C260.678 75.5271 260.419 75.4123 260.144 75.3583C259.869 75.3044 259.585 75.3128 259.314 75.3829C259.042 75.453 258.79 75.583 258.576 75.7634C258.362 75.9438 258.19 76.17 258.075 76.4253C257.831 76.9948 257.807 77.6344 258.006 78.2209C258.205 78.8075 258.615 79.2996 259.155 79.6025C259.413 79.7623 259.704 79.8622 260.006 79.8951C260.307 79.9279 260.613 79.8928 260.899 79.7922C261.185 79.6917 261.446 79.5283 261.661 79.314C261.876 79.0997 262.04 78.84 262.142 78.554C262.32 78.0083 262.292 77.4162 262.064 76.8895C261.836 76.3627 261.423 75.9377 260.903 75.6945V75.6945ZM260.648 76.1393C261.919 77.0925 261.093 79.3165 259.759 78.554C258.424 77.7915 259.123 75.5039 260.648 76.1711V76.1393ZM277.647 67.0525C277.462 66.8796 277.241 66.7506 276.999 66.675C276.758 66.5994 276.502 66.5792 276.252 66.6158C276.002 66.6524 275.763 66.745 275.553 66.8866C275.344 67.0282 275.169 67.2152 275.041 67.4337C274.795 67.9424 274.744 68.5232 274.896 69.0672C275.048 69.6113 275.393 70.0811 275.867 70.3885C276.079 70.5611 276.326 70.6845 276.592 70.7497C276.857 70.8149 277.133 70.8203 277.401 70.7656C277.668 70.7108 277.921 70.5973 278.139 70.4332C278.357 70.2691 278.536 70.0585 278.663 69.8166C278.78 69.5688 278.847 69.3001 278.859 69.0262C278.871 68.7523 278.829 68.4788 278.734 68.2215C278.64 67.9642 278.495 67.7283 278.308 67.5276C278.121 67.3269 277.896 67.1654 277.647 67.0525V67.0525ZM277.392 67.4655C278.346 68.3551 277.678 70.1344 276.566 69.3718C275.454 68.6093 276.09 66.8301 277.392 67.4655ZM244.603 47.5761C245.015 47.5913 245.405 47.7592 245.699 48.0472C245.993 48.3351 246.169 48.7223 246.192 49.133C246.176 49.501 246.018 49.8486 245.751 50.1031C245.485 50.3577 245.131 50.4995 244.762 50.4992C244.57 50.5096 244.378 50.4821 244.197 50.4183C244.016 50.3545 243.849 50.2556 243.706 50.1273C243.417 49.8681 243.242 49.5047 243.221 49.1171C243.2 48.7295 243.334 48.3493 243.593 48.0604C243.852 47.7714 244.216 47.5972 244.603 47.5761V47.5761ZM258.679 44.8755C259.09 44.8906 259.48 45.0586 259.774 45.3465C260.068 45.6345 260.244 46.0216 260.267 46.4323C260.251 46.8004 260.093 47.1479 259.827 47.4025C259.56 47.657 259.206 47.7989 258.837 47.7985C258.632 47.8384 258.421 47.8338 258.218 47.7852C258.015 47.7366 257.825 47.645 257.66 47.5167C257.496 47.3883 257.36 47.2262 257.263 47.0412C257.167 46.8561 257.111 46.6525 257.099 46.444C257.088 46.2356 257.121 46.027 257.197 45.8325C257.273 45.638 257.39 45.462 257.539 45.3164C257.689 45.1708 257.868 45.0589 258.065 44.9884C258.261 44.9178 258.47 44.8901 258.679 44.9073V44.8755ZM415.474 202.624C416.965 199.862 419.41 197.736 422.353 196.643C425.296 195.55 428.536 195.565 431.468 196.686C434.401 197.806 436.826 199.954 438.291 202.731C439.756 205.507 440.161 208.722 439.43 211.775C444.104 214.049 448.569 216.728 452.775 219.781C454.617 221.433 454.363 222.958 451.091 222.736C445.408 222.229 439.789 221.165 434.315 219.559C432.564 220.838 430.519 221.656 428.368 221.938C426.218 222.22 424.031 221.957 422.009 221.172C419.987 220.387 418.195 219.107 416.797 217.448C415.4 215.789 414.442 213.805 414.013 211.679C410.835 210.154 399.81 204.467 399.143 201.258C398.921 200.083 400.065 199.542 401.272 199.415C406.154 199.672 410.956 200.757 415.474 202.624V202.624ZM439.176 212.442C438.556 214.601 437.384 216.561 435.777 218.129C441.176 219.686 446.706 220.749 452.298 221.306C450.487 218.955 441.782 213.935 439.176 212.442V212.442ZM415.156 212.156C415.672 213.944 416.593 215.589 417.847 216.963C419.101 218.337 420.655 219.403 422.389 220.08C424.122 220.756 425.988 221.023 427.841 220.861C429.695 220.699 431.486 220.112 433.076 219.146C426.938 217.263 420.948 214.927 415.156 212.156V212.156ZM434.792 217.843C437.025 215.854 438.447 213.112 438.787 210.141C439.126 207.169 438.36 204.177 436.634 201.735C435.729 200.401 434.561 199.266 433.202 198.399C431.843 197.532 430.322 196.951 428.731 196.692C427.139 196.434 425.512 196.502 423.949 196.894C422.385 197.286 420.918 197.992 419.636 198.971C417.91 200.241 416.55 201.943 415.691 203.906C414.832 205.87 414.505 208.025 414.743 210.154C421.208 213.253 427.913 215.824 434.792 217.843V217.843ZM415.156 203.26C412.805 202.497 402.448 199.511 400.573 200.972C401.304 203.26 411.63 208.629 414.013 209.614C413.832 207.432 414.226 205.241 415.156 203.26ZM184.808 399.072C188.644 401.593 192.683 403.793 196.882 405.648C196.922 405.661 196.966 405.66 197.006 405.645C197.046 405.629 197.08 405.601 197.102 405.565C197.124 405.528 197.133 405.485 197.128 405.443C197.122 405.4 197.103 405.361 197.072 405.331C193.232 402.816 189.194 400.617 184.999 398.754C184.958 398.741 184.914 398.743 184.874 398.758C184.834 398.773 184.801 398.801 184.779 398.838C184.757 398.874 184.748 398.917 184.753 398.96C184.758 399.002 184.778 399.042 184.808 399.072V399.072ZM115.926 120.112C115.926 112.423 116.371 105.179 116.371 105.497C116.392 105.433 116.432 105.378 116.487 105.339C116.541 105.299 116.606 105.278 116.673 105.278C116.74 105.278 116.805 105.299 116.859 105.339C116.913 105.378 116.954 105.433 116.975 105.497C116.975 107.816 117.388 109.881 117.419 120.62C119.767 119.092 122.196 117.692 124.695 116.426C124.729 116.406 124.766 116.391 124.805 116.385C124.843 116.378 124.883 116.38 124.922 116.389C124.96 116.397 124.996 116.414 125.028 116.437C125.06 116.459 125.087 116.488 125.108 116.522C125.129 116.555 125.143 116.592 125.15 116.631C125.156 116.67 125.155 116.71 125.146 116.748C125.137 116.786 125.121 116.823 125.098 116.855C125.075 116.887 125.046 116.914 125.013 116.935C122.979 118.603 120.858 120.162 118.659 121.605C123.234 124.115 124.155 124.782 126.347 126.117C128.54 127.451 128.572 127.451 128.413 127.769C128.254 128.087 128.095 127.96 125.903 126.943C123.71 125.926 122.217 125.291 117.419 122.654C117.419 134.823 116.943 140.383 116.943 140.065C116.922 140.128 116.882 140.184 116.827 140.223C116.773 140.262 116.708 140.283 116.641 140.283C116.574 140.283 116.509 140.262 116.455 140.223C116.401 140.184 116.36 140.128 116.339 140.065C116.339 137.777 115.894 135.776 115.894 123.385C113.415 125.027 110.848 126.533 108.206 127.896C108.172 127.917 108.135 127.931 108.096 127.938C108.057 127.944 108.018 127.943 107.979 127.934C107.941 127.925 107.905 127.909 107.873 127.886C107.841 127.863 107.813 127.834 107.793 127.801C107.772 127.767 107.758 127.73 107.751 127.691C107.745 127.653 107.746 127.613 107.755 127.575C107.763 127.536 107.78 127.5 107.803 127.468C107.826 127.436 107.854 127.409 107.888 127.388C110.389 125.339 113.01 123.44 115.736 121.701C113.162 120.271 112.336 119.762 110.303 118.523C108.269 117.284 107.602 116.903 107.761 116.554C107.821 116.51 107.893 116.486 107.967 116.486C108.042 116.486 108.114 116.51 108.174 116.554C112.177 118.047 114.56 119.413 115.926 120.112V120.112Z" fill="black"/>
<path fill-rule="evenodd" clip-rule="evenodd" d="M184.999 405.649C188.558 403.783 191.931 401.58 195.07 399.072C195.293 399.072 195.07 398.627 194.88 398.754C191.323 400.624 187.951 402.826 184.808 405.331C184.617 405.458 184.808 405.776 184.999 405.649ZM283.492 214.062C283.492 222.99 283.81 224.42 283.81 226.04C283.797 226.074 283.792 226.111 283.795 226.147C283.799 226.183 283.812 226.218 283.832 226.248C283.853 226.278 283.88 226.302 283.912 226.32C283.944 226.337 283.98 226.345 284.017 226.345C284.053 226.345 284.089 226.337 284.121 226.32C284.153 226.302 284.18 226.278 284.201 226.248C284.221 226.218 284.234 226.183 284.238 226.147C284.242 226.111 284.237 226.074 284.223 226.04C284.223 226.358 284.573 221.211 284.573 213.522C287.035 214.915 289.57 216.177 292.166 217.303C292.42 217.303 292.643 217.049 292.389 216.922C290.152 215.427 287.84 214.049 285.462 212.791C287.036 211.82 288.553 210.759 290.006 209.614C290.049 209.581 290.078 209.534 290.089 209.481C290.099 209.427 290.09 209.372 290.063 209.325C290.035 209.279 289.992 209.243 289.94 209.226C289.889 209.209 289.833 209.212 289.783 209.233C289.783 209.233 287.178 210.567 284.573 212.251C284.573 204.34 284.255 202.72 284.255 201.385C284.255 201.326 284.231 201.27 284.19 201.228C284.148 201.186 284.091 201.163 284.032 201.163C283.973 201.163 283.917 201.186 283.875 201.228C283.833 201.27 283.81 201.326 283.81 201.385C283.81 201.068 283.524 206.501 283.492 211.902C282.571 211.425 280.728 210.44 277.932 209.233C277.678 209.233 277.456 209.487 277.71 209.614C277.964 209.741 280.061 211.235 283.365 213.046C281.409 214.23 279.521 215.525 277.71 216.922C277.456 216.922 277.71 217.462 277.932 217.303C277.614 217.462 279.997 216.286 283.492 214.062ZM363.368 438.565C359.904 437.135 323.366 434.879 323.049 434.847C322.064 434.847 314.947 436.277 314.47 436.404C313.994 436.531 314.47 436.404 314.47 436.563C317.247 437.832 320.115 438.894 323.049 439.74C326.226 440.407 332.58 440.471 362.7 443.712C363.272 443.712 364.48 441.742 363.781 438.882C363.749 438.787 363.526 438.66 363.368 438.565V438.565ZM322.89 439.422L318.092 437.738C318.278 437.486 318.398 437.191 318.442 436.881C318.486 436.57 318.454 436.254 318.346 435.959C319.9 435.646 321.47 435.423 323.049 435.292C323.811 436.055 321.778 436.34 323.303 437.325C323.493 437.325 323.525 437.325 323.303 437.548C323.222 437.588 323.15 437.644 323.092 437.713C323.034 437.781 322.99 437.861 322.963 437.947C322.936 438.033 322.927 438.124 322.936 438.214C322.946 438.303 322.973 438.39 323.017 438.469C323.271 438.914 323.557 439.105 322.89 439.422V439.422ZM323.271 439.422C324.161 438.946 322.953 438.215 323.557 437.834C324.891 436.912 318.537 437.167 360.508 441.011C360.42 441.665 360.567 442.329 360.921 442.886L323.271 439.422ZM360.54 440.757C359.11 440.598 323.938 437.262 323.716 437.071C323.493 436.881 322.922 436.722 323.208 436.34C323.493 435.959 323.652 435.61 323.208 435.228C323.525 435.228 354.694 437.707 361.334 438.819C360.871 439.389 360.594 440.088 360.54 440.82V440.757ZM362.573 442.949C362.351 442.727 362.319 442.79 362.097 442.155C361.874 441.519 362.097 439.359 363.113 439.359C363.269 439.973 363.302 440.613 363.209 441.24C363.116 441.867 362.9 442.47 362.573 443.013V442.949ZM384.655 349.189C384.62 349.072 384.559 348.965 384.477 348.874C384.395 348.784 384.294 348.712 384.181 348.666C384.068 348.619 383.946 348.597 383.824 348.603C383.702 348.609 383.583 348.642 383.475 348.7C383.368 348.757 383.274 348.838 383.201 348.936C383.128 349.034 383.078 349.147 383.054 349.267C383.03 349.386 383.033 349.51 383.063 349.628C383.092 349.747 383.148 349.857 383.225 349.952C383.543 350.46 383.861 350.969 384.21 351.477C384.258 351.587 384.33 351.685 384.42 351.764C384.509 351.843 384.616 351.902 384.73 351.936C384.845 351.97 384.966 351.979 385.085 351.962C385.203 351.945 385.317 351.902 385.417 351.837C385.517 351.771 385.602 351.685 385.666 351.583C385.73 351.482 385.77 351.368 385.786 351.249C385.801 351.13 385.79 351.009 385.754 350.895C385.718 350.781 385.657 350.676 385.576 350.587C385.417 350.143 384.941 349.666 384.655 349.189ZM345.067 281.705C345.257 280.212 347.005 272.618 346.338 272.46C346.3 272.445 346.26 272.438 346.22 272.44C346.18 272.442 346.14 272.452 346.104 272.47C346.068 272.488 346.037 272.513 346.011 272.544C345.986 272.575 345.967 272.611 345.956 272.65C345.055 274.868 344.364 277.166 343.891 279.513C343.711 280.34 343.594 281.179 343.542 282.023C343.546 282.153 343.583 282.279 343.65 282.39C343.717 282.501 343.811 282.594 343.923 282.658C344.719 283.065 345.579 283.334 346.465 283.453C347.164 283.453 349.642 283.643 349.356 282.976C349.07 282.309 348.689 283.516 345.067 281.705ZM359.332 277.098V275.446C359.332 274.302 357.744 274.144 357.712 275.446V277.257C357.703 277.377 357.721 277.498 357.764 277.61C357.806 277.723 357.873 277.825 357.959 277.909C358.045 277.993 358.149 278.057 358.262 278.097C358.376 278.137 358.497 278.151 358.617 278.14C358.736 278.128 358.852 278.09 358.956 278.029C359.059 277.968 359.148 277.885 359.217 277.785C359.285 277.686 359.331 277.573 359.351 277.455C359.371 277.336 359.364 277.214 359.332 277.098V277.098ZM361.429 285.867C360.413 289.68 359.047 290.252 357.394 290.443C357.056 290.47 356.716 290.47 356.378 290.443C356.302 290.417 356.219 290.423 356.148 290.459C356.076 290.495 356.022 290.557 355.996 290.633C355.971 290.709 355.977 290.792 356.013 290.863C356.048 290.935 356.111 290.989 356.187 291.015C358.951 292.603 362.732 290.665 362.033 285.867C362.012 285.804 361.972 285.749 361.918 285.709C361.863 285.67 361.798 285.649 361.731 285.649C361.664 285.649 361.599 285.67 361.545 285.709C361.491 285.749 361.45 285.804 361.429 285.867V285.867ZM373.376 325.583C373.357 325.478 373.318 325.379 373.261 325.29C373.203 325.2 373.129 325.123 373.042 325.063C372.955 325.002 372.857 324.96 372.753 324.937C372.65 324.915 372.543 324.913 372.438 324.931C372.334 324.95 372.235 324.989 372.145 325.047C372.056 325.104 371.979 325.178 371.919 325.265C371.858 325.352 371.815 325.45 371.793 325.554C371.77 325.657 371.768 325.764 371.787 325.869C371.923 326.46 372.093 327.044 372.296 327.616C372.305 327.738 372.342 327.857 372.403 327.963C372.463 328.069 372.547 328.16 372.648 328.23C372.748 328.3 372.863 328.347 372.984 328.367C373.105 328.387 373.228 328.38 373.346 328.346C373.464 328.312 373.572 328.253 373.664 328.172C373.756 328.091 373.829 327.991 373.878 327.879C373.926 327.766 373.949 327.644 373.945 327.522C373.94 327.4 373.909 327.28 373.852 327.171C373.662 326.631 373.503 326.091 373.376 325.583V325.583ZM342.112 272.364C342.136 272.245 342.133 272.121 342.103 272.002C342.073 271.884 342.018 271.773 341.94 271.679C341.863 271.585 341.765 271.509 341.655 271.456C341.545 271.404 341.424 271.377 341.302 271.377C341.18 271.377 341.059 271.404 340.949 271.456C340.838 271.509 340.741 271.585 340.663 271.679C340.586 271.773 340.53 271.884 340.5 272.002C340.471 272.121 340.468 272.245 340.492 272.364V274.175C340.468 274.295 340.471 274.419 340.5 274.537C340.53 274.656 340.586 274.766 340.663 274.861C340.741 274.955 340.838 275.031 340.949 275.083C341.059 275.136 341.18 275.163 341.302 275.163C341.424 275.163 341.545 275.136 341.655 275.083C341.765 275.031 341.863 274.955 341.94 274.861C342.018 274.766 342.073 274.656 342.103 274.537C342.133 274.419 342.136 274.295 342.112 274.175C342.074 273.572 342.074 272.967 342.112 272.364V272.364ZM593.271 405.458C593.271 405.458 593.08 405.49 593.271 405.458V405.458Z" fill="black"/>
<path fill-rule="evenodd" clip-rule="evenodd" d="M609.125 403.425C605.599 401.709 597.211 403.139 593.239 403.965C591.78 402.335 589.94 401.093 587.882 400.35C585.825 399.607 583.616 399.386 581.452 399.707C577.893 400.597 577.036 404.981 577.194 408.667C574.907 408.254 572.429 407.968 570.141 407.746C570.332 407.047 570.935 406.062 570.745 405.363C570.642 405.113 570.486 404.889 570.288 404.705C570.09 404.521 569.855 404.382 569.599 404.298C569.342 404.213 569.07 404.185 568.802 404.215C568.534 404.246 568.275 404.334 568.044 404.473C567.41 404.979 566.825 405.542 566.297 406.157C566.297 405.045 567.218 403.266 566.106 402.98C564.994 402.694 561.531 405.807 560.546 406.919C553.25 406.117 545.887 406.117 538.591 406.919C529.039 407.605 520.036 411.645 513.174 418.326C551.808 373.845 568.775 343.28 568.33 305.185C567.885 267.09 522.61 248.916 503.991 248.44C485.913 247.995 467.263 257.972 466.31 257.972C449.979 261.149 407.15 256.415 398.158 260.164C398.269 256.138 397.547 252.133 396.038 248.399C394.529 244.665 392.265 241.282 389.389 238.463C384.242 232.84 376.013 230.743 367.657 231.092C355.742 231.632 343.923 236.621 338.014 246.978C336.054 250.332 334.901 254.096 334.646 257.972C334.646 258.956 332.612 275.16 337.823 287.424C338.998 290.53 340.878 293.32 343.315 295.575C345.752 297.83 348.679 299.488 351.866 300.419C346.73 307.228 342.018 314.348 337.759 321.738C336.774 323.803 337.505 324.915 338.935 324.915C340.365 324.915 342.271 324.534 343.605 324.598C341.508 330.349 336.171 345.345 334.868 351.286C328.336 355.685 322.454 360.979 317.393 367.014C307.862 377.943 303.414 389.794 292.611 396.117L289.434 397.896C293.755 384.774 301.92 358.721 298.966 358.689C296.011 358.658 288.83 383.726 284.255 400.724C279.362 403.425 276.884 405.14 275.168 410.478C274.609 411.828 274.321 413.274 274.321 414.735C274.321 416.196 274.609 417.643 275.168 418.993C275.372 419.426 275.683 419.799 276.073 420.077C276.462 420.356 276.917 420.529 277.392 420.581C277.774 420.581 277.774 420.232 276.725 422.551C276.225 422.695 275.753 422.92 275.327 423.219L260.045 413.909C259.695 413.909 264.08 413.306 171.083 425.411C169.335 424.108 167.492 422.742 165.586 421.249C119.898 385.696 269.1 347.537 281.046 298.958C291.753 255.462 230.211 246.692 243.873 205.833C257.535 164.974 346.878 176.412 430.979 171.519C515.08 166.627 548.536 81.7313 487.311 37.5044C426.086 -6.72241 363.177 56.0912 348.308 72.1361C333.438 88.1811 316.281 109.182 268.115 107.085C219.948 104.989 156.912 113.154 133.814 182.989C122.694 216.414 132.67 239.861 147.508 258.448C152.477 253.392 158.623 249.648 165.395 247.55C169.335 246.597 173.243 247.105 174.355 251.013C176.452 258.194 167.746 269.346 162.695 274.906C175.404 287.17 187.604 297.528 192.402 308.235C200.408 326.218 162.028 339.531 145.824 350.047C129.62 360.564 104.869 393.099 120.056 424.68C121.197 427.099 122.47 429.454 123.869 431.734C91.6522 435.896 90.5401 435.896 90.2224 436.086C89.9047 436.277 90 436.849 90.2224 437.167H90C92.8595 440.344 177.024 560.633 228.686 621.763L229.607 621.954C240.791 616.584 443.751 518.059 432.949 511.99C432.949 511.99 284.573 429.16 281.046 427.063C281.598 426.116 282.076 425.128 282.476 424.108C282.651 424.095 282.817 424.021 282.944 423.899C283.072 423.778 283.153 423.616 283.175 423.441V421.725C285.145 422.392 288.227 420.486 289.815 419.056C292.992 416.133 297.758 408 301.285 406.919C308.318 405.168 315.254 403.047 322.064 400.565C350.373 389.953 362.129 378.07 374.456 358.88C376.493 355.882 378.228 352.689 379.635 349.348C386.828 357.118 395.575 363.288 405.307 367.458C379.635 397.102 383.67 415.911 392.948 426.173C401.431 435.546 415.188 432.242 417.444 431.543C417.444 445.65 422.21 476.977 423.798 480.123C424.624 481.934 421.86 483.3 421.288 486.89C420.988 488.714 421.224 490.587 421.969 492.279C422.713 493.972 423.934 495.411 425.482 496.422C429.009 498.646 435.014 498.773 432.663 495.246C431.879 494.239 430.995 493.313 430.026 492.482C430.947 492.768 431.964 493.149 433.203 493.594C444.8 498.137 446.325 500.203 448.454 499.599C448.739 499.533 449.007 499.404 449.237 499.223C449.468 499.042 449.656 498.812 449.788 498.55C450.042 498.726 450.329 498.846 450.632 498.903C450.936 498.959 451.247 498.951 451.547 498.879C451.847 498.807 452.128 498.673 452.373 498.485C452.617 498.297 452.819 498.059 452.965 497.788C453.074 497.582 453.13 497.353 453.13 497.121C453.13 496.888 453.074 496.659 452.965 496.453C453.368 495.775 453.504 494.971 453.347 494.198C453.347 491.338 442.417 481.997 440.193 480.154C440.511 476.977 442.194 469.924 446.388 451.178C468.057 475.611 540.911 441.646 544.882 439.931C545.549 440.63 572.46 429.16 575.574 427.508C575.256 427.508 609.697 411.939 611 406.22C611 404.886 610.142 404.028 609.125 403.425V403.425ZM486.231 115.759C486.756 115.776 487.254 115.998 487.616 116.379C487.979 116.759 488.177 117.267 488.169 117.793C488.177 118.054 488.134 118.314 488.04 118.559C487.947 118.803 487.806 119.026 487.626 119.216C487.445 119.405 487.229 119.556 486.99 119.661C486.75 119.766 486.492 119.822 486.231 119.826C485.968 119.822 485.708 119.766 485.467 119.662C485.226 119.557 485.007 119.406 484.825 119.217C484.642 119.029 484.498 118.806 484.401 118.561C484.304 118.317 484.257 118.056 484.261 117.793C484.257 117.53 484.304 117.269 484.401 117.024C484.498 116.78 484.642 116.557 484.825 116.368C485.007 116.179 485.226 116.028 485.467 115.924C485.708 115.819 485.968 115.763 486.231 115.759V115.759ZM468.279 60.2851C468.537 60.2851 468.791 60.3362 469.028 60.4356C469.266 60.535 469.481 60.6806 469.661 60.8639C469.842 61.0473 469.984 61.2647 470.079 61.5035C470.175 61.7424 470.222 61.9978 470.218 62.255C470.253 62.5281 470.229 62.8057 470.149 63.0691C470.068 63.3325 469.933 63.5757 469.751 63.7825C469.569 63.9893 469.345 64.155 469.094 64.2685C468.843 64.382 468.571 64.4407 468.295 64.4407C468.02 64.4407 467.748 64.382 467.497 64.2685C467.246 64.155 467.022 63.9893 466.84 63.7825C466.658 63.5757 466.522 63.3325 466.442 63.0691C466.361 62.8057 466.338 62.5281 466.373 62.255C466.369 62.0004 466.415 61.7476 466.508 61.5108C466.602 61.2741 466.741 61.0581 466.918 60.8751C467.095 60.6922 467.307 60.546 467.54 60.4447C467.774 60.3435 468.025 60.2892 468.279 60.2851ZM408.548 147.945C408.321 147.903 408.116 147.784 407.968 147.607C407.82 147.429 407.739 147.206 407.739 146.975C407.739 146.745 407.82 146.521 407.968 146.344C408.116 146.167 408.321 146.048 408.548 146.006C408.813 146.006 409.068 146.112 409.255 146.3C409.443 146.487 409.549 146.742 409.549 147.007C409.549 147.273 409.443 147.527 409.255 147.715C409.068 147.903 408.813 148.008 408.548 148.008V147.945ZM399.906 60.6664C399.906 59.3955 403.083 58.76 404.481 58.5694C406.79 58.2643 409.13 58.2643 411.439 58.5694C412.871 55.9413 414.633 53.5069 416.681 51.3253C417.349 50.7852 417.952 50.5946 418.556 51.3253C419.992 54.227 420.917 57.3548 421.288 60.571C426.213 61.8419 433.076 64.1931 428.945 67.1479C427.675 68.0693 425.419 69.0224 422.972 70.3251C423.246 72.889 423.331 75.4694 423.227 78.0457C423.227 79.2213 422.909 81.0005 421.733 81.223C419.35 81.636 417.507 78.3317 413.758 75.0909C410.168 76.8702 402.988 80.8099 402.829 77.029C403.218 73.8042 404.175 70.6739 405.657 67.7833C402.003 64.3202 399.683 62.6362 399.906 60.7299V60.6664ZM396.728 119.095C396.721 121.313 396.142 123.491 395.048 125.42C393.953 127.349 392.38 128.963 390.479 130.106C388.579 131.25 386.416 131.884 384.199 131.947C381.983 132.011 379.787 131.502 377.824 130.47L396.315 115.791C396.599 116.892 396.749 118.022 396.76 119.159L396.728 119.095ZM395.934 114.615C390.851 118.523 384.02 124.147 377.189 130.089C376.674 129.779 376.185 129.428 375.727 129.04C382.367 122.336 388.881 114.774 392.916 109.977C394.244 111.318 395.283 112.919 395.966 114.679L395.934 114.615ZM392.217 109.31C390.946 110.676 379.889 123.13 375.123 128.373C373.767 127.127 372.685 125.612 371.946 123.925C376.776 120.43 383.352 115.569 390.66 109.818L391.804 108.897L392.217 109.31ZM383.861 106.132C386.41 106.13 388.9 106.894 391.01 108.325L386.53 111.502C385.513 112.264 377.792 118.333 371.692 123.099C371.045 121.162 370.865 119.1 371.168 117.081C371.471 115.062 372.248 113.143 373.435 111.482C374.622 109.82 376.186 108.464 377.998 107.523C379.81 106.582 381.819 106.084 383.861 106.069V106.132ZM353.232 100.922C353.618 100.909 353.999 101.012 354.326 101.217C354.653 101.422 354.911 101.72 355.068 102.073C355.224 102.426 355.272 102.817 355.204 103.197C355.137 103.577 354.957 103.929 354.689 104.206C354.421 104.484 354.076 104.675 353.698 104.755C353.32 104.835 352.928 104.8 352.57 104.656C352.212 104.511 351.905 104.263 351.689 103.943C351.473 103.623 351.358 103.246 351.358 102.86C351.39 102.377 351.605 101.924 351.959 101.593C352.313 101.263 352.78 101.079 353.264 101.081L353.232 100.922ZM335.726 149.025C336.468 149.05 337.186 149.292 337.791 149.723C338.396 150.153 338.86 150.752 339.127 151.445C339.394 152.137 339.451 152.893 339.291 153.618C339.131 154.343 338.761 155.005 338.228 155.521C337.694 156.037 337.021 156.385 336.291 156.521C335.561 156.656 334.808 156.574 334.124 156.285C333.441 155.995 332.857 155.511 332.447 154.892C332.037 154.274 331.818 153.548 331.818 152.806C331.843 151.789 332.267 150.822 332.998 150.115C333.729 149.408 334.709 149.016 335.726 149.025V149.025ZM286.288 140.065C287.655 140.065 287.655 142.511 286.288 142.511C284.922 142.511 284.89 140.065 286.288 140.065ZM157.071 210.313C156.92 210.34 156.766 210.333 156.618 210.293C156.47 210.254 156.332 210.182 156.215 210.084C156.098 209.985 156.004 209.862 155.939 209.724C155.874 209.585 155.841 209.434 155.841 209.281C155.841 209.128 155.874 208.976 155.939 208.838C156.004 208.699 156.098 208.576 156.215 208.478C156.332 208.379 156.47 208.308 156.618 208.268C156.766 208.228 156.92 208.222 157.071 208.248C157.222 208.222 157.377 208.228 157.524 208.268C157.672 208.308 157.81 208.379 157.927 208.478C158.044 208.576 158.138 208.699 158.203 208.838C158.268 208.976 158.301 209.128 158.301 209.281C158.301 209.434 158.268 209.585 158.203 209.724C158.138 209.862 158.044 209.985 157.927 210.084C157.81 210.182 157.672 210.254 157.524 210.293C157.377 210.333 157.222 210.34 157.071 210.313ZM225.381 335.051C224.954 335.002 224.551 334.83 224.219 334.556C223.888 334.283 223.643 333.919 223.514 333.509C223.385 333.099 223.377 332.66 223.492 332.246C223.607 331.832 223.84 331.46 224.162 331.176C224.484 330.891 224.881 330.705 225.306 330.642C225.731 330.578 226.166 330.639 226.557 330.817C226.948 330.995 227.279 331.283 227.51 331.645C227.742 332.007 227.863 332.429 227.859 332.859C227.819 333.477 227.535 334.054 227.071 334.464C226.607 334.875 226 335.086 225.381 335.051V335.051ZM232.911 122.559C233.346 122.552 233.773 122.675 234.138 122.912C234.502 123.149 234.788 123.49 234.959 123.89C235.13 124.29 235.178 124.731 235.097 125.159C235.016 125.586 234.81 125.98 234.504 126.289C234.199 126.599 233.809 126.811 233.382 126.898C232.956 126.986 232.514 126.944 232.112 126.779C231.709 126.614 231.365 126.333 231.122 125.972C230.88 125.611 230.751 125.186 230.751 124.751C230.751 124.175 230.977 123.622 231.382 123.212C231.786 122.802 232.335 122.567 232.911 122.559V122.559ZM234.754 236.652C234.751 236.963 234.659 237.266 234.489 237.525C234.319 237.785 234.078 237.99 233.794 238.117C233.511 238.243 233.197 238.286 232.891 238.239C232.584 238.193 232.297 238.059 232.064 237.854C231.831 237.649 231.661 237.381 231.576 237.083C231.49 236.785 231.493 236.468 231.582 236.171C231.671 235.874 231.844 235.608 232.079 235.407C232.315 235.205 232.604 235.075 232.911 235.032C233.134 235.014 233.359 235.043 233.57 235.117C233.782 235.19 233.976 235.307 234.14 235.459C234.304 235.611 234.435 235.796 234.524 236.001C234.614 236.207 234.659 236.428 234.659 236.652H234.754ZM235.485 283.58C237.391 282.087 243.015 277.448 244.699 278.909C246.383 280.371 244.921 283.453 244.699 287.837C248.225 289.521 255.533 292.73 252.674 294.764C249.873 296.132 246.868 297.034 243.777 297.433C243.237 302.04 243.269 304.391 241.712 305.185C240.632 305.693 238.249 303.755 237.359 302.929C235.65 301.471 234.153 299.782 232.911 297.909C230.009 298.259 227.076 298.259 224.174 297.909C223.411 297.719 222.839 297.369 222.998 296.606C223.348 294.859 227.288 291.142 228.59 289.903C227.764 288.092 225.826 283.548 226.493 281.737C227.446 279.227 231.545 281.991 235.389 283.58H235.485ZM225.159 181.21C225.826 181.21 226.176 181.687 226.08 182.513C225.415 184.87 224.409 187.118 223.094 189.185C224.456 190.611 225.621 192.214 226.557 193.951C229.734 200.083 225.318 198.526 218.773 197.128C217.229 199.422 215.268 201.406 212.99 202.974C210.035 204.435 209.368 198.208 208.86 194.681C204.38 193.506 200.821 193.665 199.9 191.854C198.979 190.043 205.841 187.278 207.811 186.389C207.589 183.212 206.223 178.954 208.955 179.081C211.724 179.918 214.267 181.374 216.39 183.339C219.182 182.169 222.142 181.451 225.159 181.21V181.21ZM184.681 269.981C184.327 270.039 183.964 270.018 183.619 269.922C183.273 269.825 182.952 269.655 182.679 269.422C182.406 269.189 182.186 268.9 182.036 268.574C181.885 268.248 181.807 267.894 181.807 267.535C181.807 267.176 181.885 266.821 182.036 266.496C182.186 266.17 182.406 265.881 182.679 265.648C182.952 265.415 183.273 265.245 183.619 265.148C183.964 265.052 184.327 265.031 184.681 265.088C185.035 265.031 185.398 265.052 185.744 265.148C186.089 265.245 186.41 265.415 186.683 265.648C186.956 265.881 187.176 266.17 187.326 266.496C187.477 266.821 187.555 267.176 187.555 267.535C187.555 267.894 187.477 268.248 187.326 268.574C187.176 268.9 186.956 269.189 186.683 269.422C186.41 269.655 186.089 269.825 185.744 269.922C185.398 270.018 185.035 270.039 184.681 269.981V269.981ZM166.762 173.998C166.644 173.969 166.54 173.901 166.466 173.806C166.392 173.711 166.351 173.594 166.351 173.473C166.351 173.353 166.392 173.236 166.466 173.141C166.54 173.046 166.644 172.978 166.762 172.949C173.72 172.473 181.631 172.25 188.589 172.25C182.79 168.183 176.582 164.733 170.066 161.956C169.928 161.914 169.811 161.821 169.739 161.695C169.666 161.57 169.644 161.423 169.676 161.282C169.709 161.141 169.793 161.018 169.912 160.937C170.032 160.855 170.177 160.822 170.32 160.844C177.542 160.921 184.647 162.684 191.067 165.991C186.844 161.783 182.378 157.826 177.691 154.14C177.591 154.059 177.523 153.944 177.5 153.817C177.477 153.69 177.5 153.559 177.565 153.447C177.631 153.336 177.734 153.251 177.856 153.209C177.978 153.168 178.111 153.171 178.231 153.219C186.24 155.801 193.758 159.711 200.472 164.784C207.099 169.64 212.848 175.593 217.47 182.386C217.47 182.671 217.184 182.894 216.993 182.608C212.374 175.859 206.636 169.95 200.027 165.133C194.139 160.815 187.653 157.379 180.773 154.934C183.092 156.809 192.497 164.466 193.736 167.294C193.99 167.802 193.355 168.279 192.815 167.961C189.421 166.071 185.817 164.589 182.076 163.545C179.16 162.672 176.154 162.139 173.116 161.956C176.77 163.704 188.112 169.264 190.432 172.568C190.491 172.656 190.525 172.76 190.528 172.866C190.532 172.973 190.506 173.078 190.454 173.17C190.401 173.263 190.323 173.339 190.229 173.389C190.136 173.44 190.03 173.464 189.923 173.458C189.574 173.458 180.805 173.458 171.496 173.775C182.489 175.872 196.913 179.907 206.096 186.484C206.35 186.675 206.095 187.056 205.778 186.865C195.801 179.907 178.549 175.586 166.762 173.998V173.998ZM346.656 239.607C357.49 231.442 378.968 229.281 388.372 239.607C391.142 242.308 393.319 245.556 394.763 249.145C396.207 252.733 396.887 256.583 396.76 260.45C396.02 267.457 393.007 274.029 388.182 279.164C387.61 279.735 387.61 279.164 387.801 278.878C388.347 278.092 388.709 277.194 388.86 276.249C389.011 275.304 388.946 274.338 388.672 273.422C388.397 272.505 387.918 271.663 387.272 270.957C386.626 270.251 385.83 269.701 384.941 269.346C378.936 266.614 377.125 276.685 372.741 277.924C368.928 279.036 370.358 270.14 370.644 264.199C371.043 261.587 370.442 258.92 368.96 256.732C366.321 253.901 363.057 251.725 359.428 250.378C353.065 247.816 346.157 246.908 339.348 247.741C341.207 244.562 343.693 241.794 346.656 239.607V239.607ZM339.126 286.98C333.883 274.588 336.171 258.13 336.171 258.13C336.427 254.789 337.391 251.54 338.998 248.599C345.864 247.901 352.794 248.996 359.11 251.776C362.546 253.063 365.643 255.116 368.165 257.781C371.343 261.975 368.165 269.981 369.182 276.241C369.563 278.687 370.707 280.244 373.09 279.418C378.015 278.02 379.667 268.679 384.401 270.839C389.135 273 388.277 279.195 382.685 281.546C380.525 282.468 380.715 284.533 382.368 284.724C383.225 284.724 384.909 284.247 387.483 282.182C391.252 278.498 394.216 274.074 396.188 269.187C400.606 270.12 404.88 271.637 408.897 273.699C414.553 276.272 421.225 279.863 426.499 282.944C418.461 284.861 411.134 289.024 405.373 294.948C399.613 300.872 395.656 308.312 393.964 316.401C392.757 316.401 392.852 314.685 392.026 314.049C391.2 313.414 390.692 314.049 389.707 314.367C389.726 313.585 389.552 312.81 389.198 312.111C389.198 310.269 386.18 311.349 384.433 311.921C384.453 311.133 384.335 310.348 384.083 309.601C384.814 307.25 380.556 308.426 378.174 309.093C378.353 308.191 378.353 307.262 378.174 306.361C378.396 304.518 374.361 305.693 372.677 306.361C372.822 305.299 372.757 304.22 372.486 303.183C371.597 301.944 366.894 304.55 366.704 303.374C366.72 302.503 366.892 301.642 367.212 300.832C367.752 298.894 365.115 300.101 364.353 299.974C364.324 299.991 364.291 300 364.257 300C364.224 300 364.191 299.991 364.162 299.974V299.593C366.819 298.865 369.371 297.797 371.756 296.416C372.967 298.202 374.784 299.488 376.871 300.038C378.766 300.603 380.784 300.608 382.682 300.053C384.58 299.497 386.278 298.406 387.57 296.909C388.862 295.412 389.694 293.573 389.966 291.614C390.238 289.656 389.939 287.66 389.103 285.867C389.103 285.518 388.404 285.867 388.563 286.09C388.975 287.307 389.136 288.595 389.037 289.876C388.938 291.157 388.581 292.405 387.987 293.545C387.393 294.685 386.576 295.692 385.583 296.508C384.59 297.323 383.442 297.93 382.209 298.29L374.52 293.556C374.234 293.366 374.266 293.556 372.582 294.637C371.525 292.551 371.242 290.158 371.783 287.884C372.324 285.609 373.654 283.6 375.536 282.214C377.756 280.725 380.396 279.99 383.066 280.117C383.13 280.096 383.185 280.055 383.225 280.001C383.264 279.947 383.285 279.882 383.285 279.815C383.285 279.748 383.264 279.683 383.225 279.629C383.185 279.574 383.13 279.534 383.066 279.513C380.206 279.167 377.311 279.782 374.837 281.261C372.592 282.752 370.981 285.025 370.317 287.638C369.654 290.251 369.985 293.017 371.247 295.399C365.615 298.603 359.154 300.053 352.692 299.561C349.595 298.691 346.749 297.096 344.39 294.909C342.031 292.721 340.226 290.003 339.126 286.98V286.98ZM388.595 315.193C389.43 315.015 390.24 314.737 391.01 314.367C392.408 313.859 392.026 316.655 393.805 316.686C393.488 318.18 393.297 319.355 393.202 320.086C391.708 319.546 390.311 318.942 388.913 318.37C388.974 317.301 388.867 316.229 388.595 315.193V315.193ZM388.595 314.494C388.595 314.494 388.595 314.335 388.913 313.255C388.991 313.655 389.154 314.034 389.389 314.367L388.595 314.462V314.494ZM388.277 315.098C388.115 316.151 388.115 317.222 388.277 318.275C386.053 317.354 383.988 316.401 381.923 315.447C381.921 314.848 381.802 314.254 381.573 313.7C383.035 313.7 387.928 311.349 388.15 312.048C388.372 312.747 387.229 314.462 388.277 315.098ZM381.255 313.478C381.249 313.974 381.324 314.467 381.478 314.939C380.652 314.558 377.252 312.842 376.394 312.397C376.379 311.719 376.272 311.045 376.077 310.396C377.981 310.133 379.862 309.718 381.7 309.157C381.923 309.157 383.352 308.966 383.225 309.157C383.098 310.078 379.857 312.747 381.255 313.478ZM375.695 312.016C374.075 311.158 372.518 310.332 371.311 309.57C371.332 308.896 371.213 308.225 370.961 307.6C371.473 307.687 372 307.597 372.455 307.345C373.915 306.681 375.49 306.303 377.093 306.233C376.421 307.008 375.845 307.862 375.378 308.775C375.252 309.866 375.36 310.971 375.695 312.016V312.016ZM370.58 309.157L367.053 307.028C367.125 306.086 367.028 305.139 366.767 304.232C367.784 304.454 370.421 303.406 371.628 303.501C371.054 304.28 370.534 305.097 370.072 305.948C370.072 307.037 370.243 308.12 370.58 309.157V309.157ZM371.946 304.55C371.867 305.183 371.867 305.823 371.946 306.456C371.724 306.456 370.993 306.805 370.93 306.456C370.866 306.106 371.565 304.931 371.946 304.55ZM377.538 307.282C377.519 307.904 377.594 308.525 377.76 309.125C377.272 309.305 376.756 309.402 376.235 309.411C376.235 309.411 376.108 308.966 377.538 307.282V307.282ZM383.638 310.459C383.68 310.982 383.798 311.496 383.988 311.984C383.355 312.225 382.708 312.427 382.05 312.588C382.431 312.016 382.939 311.285 383.638 310.427V310.459ZM366.132 303.851C366.116 304.805 366.234 305.757 366.481 306.678C365.94 306.347 365.41 305.998 364.893 305.63L364.162 300.292C364.956 300.292 366.608 299.815 366.608 300.292C366.608 300.769 365.274 302.866 366.132 303.819V303.851ZM372.931 295.272C373.376 294.986 373.853 294.637 374.297 294.287L381.287 298.576C379.737 298.889 378.129 298.756 376.651 298.194C375.172 297.632 373.883 296.663 372.931 295.399V295.272ZM338.903 323.486C338.141 323.263 342.525 316.464 343.034 315.67C344.59 313.16 352.12 301.531 352.756 300.578C355.381 300.732 358.016 300.572 360.604 300.101C361.112 318.911 364.512 326.726 368.642 334.066C366.513 333.399 364.353 334.384 362.478 333.716C359.841 332.827 359.936 329.014 356.124 328.792C353.633 329.085 351.236 329.92 349.102 331.238C348.244 331.588 348.054 331.238 347.831 330.857C347.517 328.708 347.049 326.585 346.433 324.502C344.972 321.992 340.396 323.994 338.903 323.486ZM259.695 414.735L274.692 423.79C273.818 424.615 272.872 425.36 271.864 426.015C269.417 427.317 266.876 426.332 266.844 428.27C253.15 433.513 232.53 457.691 258.234 479.773C291.086 507.955 328.482 519.202 293.691 546.082C284.16 553.548 274.342 552.436 262.999 545.097C250.545 536.931 250.672 500.965 238.726 478.756C218.868 441.805 210.671 454.26 172.29 426.491L259.695 414.735ZM303.827 548.179C303.785 548.179 303.744 548.17 303.705 548.154C303.667 548.138 303.632 548.115 303.602 548.085C303.573 548.056 303.549 548.021 303.533 547.982C303.517 547.944 303.509 547.903 303.509 547.861C303.509 547.819 303.517 547.778 303.533 547.739C303.549 547.701 303.573 547.666 303.602 547.636C303.632 547.607 303.667 547.583 303.705 547.567C303.744 547.551 303.785 547.543 303.827 547.543C303.89 547.564 303.946 547.604 303.985 547.659C304.024 547.713 304.045 547.778 304.045 547.845C304.045 547.912 304.024 547.977 303.985 548.031C303.946 548.085 303.89 548.126 303.827 548.147V548.179ZM287.559 557.71C287.426 557.735 287.289 557.731 287.158 557.697C287.027 557.663 286.905 557.6 286.801 557.514C286.697 557.427 286.613 557.319 286.555 557.196C286.497 557.074 286.468 556.94 286.468 556.805C286.468 556.669 286.497 556.535 286.555 556.413C286.613 556.29 286.697 556.182 286.801 556.095C286.905 556.009 287.027 555.947 287.158 555.913C287.289 555.879 287.426 555.874 287.559 555.899C287.816 555.899 288.063 556.001 288.245 556.183C288.426 556.365 288.528 556.611 288.528 556.868C288.528 557.125 288.426 557.372 288.245 557.553C288.063 557.735 287.816 557.837 287.559 557.837V557.71ZM246.637 555.486C246.962 554.543 247.446 553.662 248.067 552.881C246.637 550.911 245.779 549.926 248.257 550.053C248.983 550.107 249.699 550.256 250.386 550.498C252.928 547.702 253.372 547.893 253.277 551.705C253.913 552.023 255.406 552.786 255.692 553.421C255.978 554.056 254.357 554.438 253.214 554.787C253.214 555.55 252.928 557.964 252.197 557.964C251.466 557.964 251.053 556.789 250.1 555.581C248.797 555.931 246.478 556.757 246.637 555.613V555.486ZM246.224 515.008C246.091 515.033 245.954 515.029 245.823 514.995C245.691 514.961 245.569 514.899 245.465 514.812C245.361 514.726 245.277 514.617 245.219 514.495C245.162 514.372 245.132 514.238 245.132 514.103C245.132 513.967 245.162 513.834 245.219 513.711C245.277 513.588 245.361 513.48 245.465 513.394C245.569 513.307 245.691 513.245 245.823 513.211C245.954 513.177 246.091 513.172 246.224 513.197C246.481 513.197 246.727 513.299 246.909 513.481C247.091 513.663 247.193 513.909 247.193 514.166C247.193 514.423 247.091 514.67 246.909 514.852C246.727 515.033 246.481 515.135 246.224 515.135V515.008ZM207.843 468.939C207.71 468.964 207.573 468.959 207.442 468.925C207.311 468.891 207.189 468.829 207.084 468.742C206.98 468.656 206.896 468.548 206.839 468.425C206.781 468.302 206.751 468.169 206.751 468.033C206.751 467.898 206.781 467.764 206.839 467.641C206.896 467.519 206.98 467.41 207.084 467.324C207.189 467.238 207.311 467.175 207.442 467.141C207.573 467.107 207.71 467.103 207.843 467.128C207.976 467.103 208.113 467.107 208.244 467.141C208.375 467.175 208.497 467.238 208.602 467.324C208.706 467.41 208.79 467.519 208.847 467.641C208.905 467.764 208.935 467.898 208.935 468.033C208.935 468.169 208.905 468.302 208.847 468.425C208.79 468.548 208.706 468.656 208.602 468.742C208.497 468.829 208.375 468.891 208.244 468.925C208.113 468.959 207.976 468.964 207.843 468.939V468.939ZM195.134 449.113C195.001 449.138 194.864 449.133 194.733 449.099C194.602 449.065 194.48 449.003 194.376 448.917C194.271 448.83 194.187 448.722 194.13 448.599C194.072 448.477 194.042 448.343 194.042 448.207C194.042 448.072 194.072 447.938 194.13 447.816C194.187 447.693 194.271 447.585 194.376 447.498C194.48 447.412 194.602 447.349 194.733 447.315C194.864 447.281 195.001 447.277 195.134 447.302C195.265 447.271 195.402 447.269 195.534 447.297C195.666 447.325 195.79 447.381 195.898 447.462C196.006 447.543 196.095 447.646 196.158 447.765C196.222 447.884 196.258 448.016 196.265 448.15C196.272 448.285 196.25 448.42 196.199 448.545C196.149 448.67 196.071 448.782 195.972 448.874C195.874 448.966 195.756 449.035 195.627 449.076C195.499 449.117 195.363 449.13 195.229 449.113H195.134ZM157.865 442.758C157.998 442.733 158.135 442.738 158.267 442.772C158.398 442.806 158.52 442.868 158.624 442.955C158.728 443.041 158.812 443.15 158.87 443.272C158.927 443.395 158.957 443.529 158.957 443.664C158.957 443.799 158.927 443.933 158.87 444.056C158.812 444.178 158.728 444.287 158.624 444.373C158.52 444.46 158.398 444.522 158.267 444.556C158.135 444.59 157.998 444.595 157.865 444.569C157.732 444.586 157.596 444.574 157.467 444.532C157.339 444.491 157.221 444.422 157.122 444.33C157.024 444.239 156.946 444.126 156.896 444.001C156.845 443.876 156.822 443.742 156.83 443.607C156.837 443.472 156.873 443.341 156.937 443.222C157 443.103 157.089 442.999 157.197 442.918C157.305 442.837 157.429 442.781 157.561 442.754C157.693 442.726 157.829 442.728 157.961 442.758H157.865ZM136.927 379.214C138.241 378.156 139.738 377.349 141.344 376.831C141.344 372.701 141.026 370.477 144.299 372.923C145.254 373.703 146.108 374.599 146.84 375.592C148.315 375.146 149.843 374.9 151.384 374.861C151.829 374.861 152.115 375.116 152.083 375.56C151.54 377.2 150.723 378.736 149.668 380.104C150.585 381.529 151.151 383.152 151.32 384.838C151.034 386.395 148.588 385.028 146.618 384.457C145.76 385.473 143.123 388.841 142.138 388.079C141.153 387.316 141.693 385.346 141.566 382.677C139.628 381.978 135.688 380.707 137.023 379.214H136.927ZM125.235 407.237C125.368 407.212 125.505 407.217 125.637 407.251C125.768 407.285 125.89 407.347 125.994 407.433C126.098 407.52 126.182 407.628 126.24 407.751C126.297 407.873 126.327 408.007 126.327 408.143C126.327 408.278 126.297 408.412 126.24 408.534C126.182 408.657 126.098 408.765 125.994 408.852C125.89 408.938 125.768 409.001 125.637 409.035C125.505 409.069 125.368 409.073 125.235 409.048C125.102 409.065 124.966 409.052 124.837 409.011C124.709 408.97 124.591 408.901 124.492 408.809C124.394 408.717 124.316 408.605 124.266 408.48C124.215 408.355 124.192 408.22 124.2 408.086C124.207 407.951 124.243 407.82 124.307 407.701C124.37 407.582 124.459 407.478 124.567 407.397C124.675 407.316 124.799 407.26 124.931 407.232C125.063 407.205 125.199 407.206 125.331 407.237H125.235ZM431.678 512.753C420.049 527.908 246.414 612.168 229.512 620.333C189.828 573.215 128.063 487.303 91.8428 437.167L124.568 432.877C144.966 465.063 176.23 457.596 193.005 467.827C211.878 479.36 221.6 488.066 227.319 510.433C235.103 540.839 225.286 553.961 248.035 563.652C269.83 572.897 313.104 569.18 330.642 539.092C348.181 509.003 313.835 495.85 282.984 481.902C252.133 467.954 257.566 448.636 261.76 443.171C264.963 439.014 268.678 435.277 272.817 432.051C274.382 432.056 275.922 431.652 277.282 430.877C278.642 430.102 279.776 428.984 280.569 427.635C284.287 429.637 425.292 509.099 431.773 512.753H431.678ZM314.121 550.212C314.163 550.212 314.204 550.22 314.242 550.236C314.281 550.252 314.316 550.276 314.346 550.305C314.375 550.335 314.398 550.37 314.414 550.408C314.43 550.447 314.439 550.488 314.439 550.53C314.439 550.571 314.43 550.613 314.414 550.651C314.398 550.69 314.375 550.725 314.346 550.754C314.316 550.784 314.281 550.807 314.242 550.823C314.204 550.839 314.163 550.847 314.121 550.847C314.079 550.845 314.038 550.835 314 550.817C313.963 550.799 313.929 550.774 313.901 550.743C313.873 550.712 313.851 550.676 313.837 550.637C313.823 550.597 313.817 550.556 313.819 550.514C313.821 550.472 313.831 550.431 313.849 550.393C313.867 550.356 313.892 550.322 313.923 550.294C313.954 550.266 313.991 550.244 314.03 550.23C314.069 550.216 314.111 550.21 314.153 550.212H314.121ZM322.255 518.027C321.873 518.281 321.301 518.027 320.412 517.582C319.014 519.139 318.347 519.584 318.505 516.946C317.139 516.502 316.377 516.279 317.648 515.548C318.029 515.341 318.434 515.181 318.855 515.072C319.204 512.88 319.49 512.848 320.698 514.691C321.282 514.547 321.893 514.547 322.477 514.691C322.922 514.945 322.191 515.548 321.683 516.152C321.873 516.597 322.636 517.804 322.286 518.027H322.255ZM275.359 430.145C274.133 430.549 272.818 430.6 271.565 430.291C270.311 429.982 269.171 429.326 268.274 428.397H268.56C274.565 427.476 273.675 424.998 276.789 423.473C277.075 423.79 276.789 423.695 281.84 424.076C280.565 426.875 278.235 429.056 275.359 430.145V430.145ZM282.698 417.436C282.238 418.291 282.06 419.27 282.19 420.232C282.19 420.454 281.967 421.471 281.84 422.424L278.409 422.138C278.409 421.979 280.665 416.61 280.824 416.102H282.984L282.698 417.436ZM282.063 408.508C279.87 412.607 278.886 420.232 276.947 418.898C276.27 418.197 275.884 417.266 275.867 416.292C275.765 414.459 276.024 412.624 276.63 410.891C277.148 409.072 278.059 407.389 279.3 405.961C280.541 404.534 282.081 403.396 283.81 402.63C282.126 409.112 282.603 407.65 282.063 408.635V408.508ZM284.35 413.306C284.859 411.812 285.558 409.62 286.543 406.761C286.956 406.538 287.051 406.761 287.591 408.095C288.449 410.319 283.429 415.975 283.429 415.975C283.747 415.053 284.096 414.163 284.35 413.433V413.306ZM374.075 358.244C362.859 375.116 354.535 382.677 341.445 390.017C328.684 396.805 315.116 401.951 301.062 405.331C295.407 407.078 290.673 419.628 284.477 420.2C283.778 420.2 283.302 420.2 283.874 418.612C285.304 414.64 290.482 411.336 288.989 407.555C288.799 406.987 288.544 406.443 288.227 405.935C287.969 405.519 287.576 405.205 287.115 405.045C287.305 404.409 287.941 402.567 288.798 399.961C289.529 399.453 290.038 399.294 293.374 397.324C304.557 390.716 308.942 378.865 318.347 367.776C323.314 361.7 329.111 356.352 335.567 351.89C336.044 351.604 335.249 352.081 338.935 340.452C341.064 333.748 343.542 326.663 344.273 324.566C344.41 324.585 344.542 324.635 344.657 324.712C344.773 324.789 344.869 324.891 344.94 325.011C345.766 326.568 345.607 329.554 346.306 331.365C347.958 335.369 352.057 329.999 355.838 330.094C359.015 330.094 359.015 333.748 362.192 334.67C364.575 335.369 366.958 333.907 369.182 334.955C372.096 339.91 375.525 344.543 379.413 348.776C377.969 352.15 376.18 355.366 374.075 358.372V358.244ZM393.583 359.261C383.966 352.386 375.928 343.536 370.008 333.303C366.1 326.504 362.478 318.911 361.239 299.847C361.989 299.716 362.731 299.547 363.463 299.339L364.13 305.693C367.63 308.343 371.326 310.722 375.187 312.81C375.187 312.81 372.486 328.093 384.719 347.76C390.596 357.418 393.583 359.388 393.583 359.388V359.261ZM452.648 400.247C453.219 407.174 446.929 444.983 446.071 450.13C446.02 450.149 445.974 450.178 445.935 450.217C445.897 450.255 445.867 450.301 445.848 450.352C446.261 448.795 439.113 472.847 438.572 480.377C438.572 480.98 438.572 480.694 444.005 485.397C445.848 487.017 452.171 492.387 452.489 494.261C452.634 494.748 452.634 495.267 452.489 495.754C449.651 492.748 446.265 490.31 442.512 488.574C442.445 488.532 442.363 488.518 442.286 488.536C442.208 488.554 442.141 488.602 442.099 488.669C442.057 488.737 442.043 488.818 442.061 488.896C442.079 488.973 442.127 489.04 442.194 489.082L444.768 491.179C447.342 492.927 449.709 494.963 451.821 497.248C451.504 498.042 450.805 498.106 449.979 497.883C449.979 496.231 442.735 492.228 440.447 490.862C440.098 490.671 439.78 491.179 440.129 491.37C443.32 493.212 446.294 495.408 448.994 497.915C447.977 500.203 444.895 496.93 433.68 492.323C431.658 491.414 429.519 490.794 427.325 490.48C427.176 490.47 427.028 490.508 426.903 490.588C426.777 490.668 426.68 490.786 426.626 490.925C426.34 491.751 427.23 491.719 430.089 494.611C430.697 495.144 431.222 495.765 431.646 496.453C429.742 496.678 427.82 496.228 426.213 495.183C424.94 494.331 423.935 493.136 423.316 491.735C422.697 490.334 422.49 488.786 422.718 487.271C423.258 484.094 426.404 482.474 425.101 479.646C423.798 476.818 421.13 458.454 420.748 455.817C417.222 431.956 418.556 431.448 417.889 431.257C417.889 398.15 418.937 398.023 418.683 396.308C418.683 395.958 411.566 347.092 411.503 346.711C413.6 346.711 415.093 349.031 416.268 350.937C417.984 353.669 419.446 355.449 422.877 354.4C426.308 353.352 429.231 350.46 432.409 349.317C435.586 348.173 437.27 349.317 440.733 350.429C442.067 351.066 443.574 351.246 445.021 350.942C446.468 350.637 447.775 349.865 448.74 348.745C454.268 344.138 451.663 342.994 462.973 347.442C460.781 355.989 455.856 380.136 455.761 380.517C453.754 386.904 452.705 393.553 452.648 400.247V400.247ZM411.121 345.154C408.629 346.054 406.199 347.115 403.845 348.332C403.305 348.332 403.083 348.332 402.924 347.696C401.939 343.153 413.504 289.362 442.322 287.329C455.475 286.439 464.562 310.046 468.534 322.628C471.146 330.625 473.174 338.801 474.602 347.092C475.174 352.843 458.398 342.072 453.569 343.184C451.663 343.629 450.805 345.25 448.072 347.537C445.34 349.825 443.942 349.825 441.527 348.967C438.675 347.405 435.332 346.995 432.186 347.823C428.818 349.031 426.022 351.858 422.655 352.907C419.795 353.828 418.905 351.858 417.285 349.317C415.665 346.775 414.013 344.614 411.121 345.027V345.154ZM458.462 375.147C459.796 369.873 462.147 358.943 463.895 347.506C466.818 348.649 473.204 351.445 475.333 349.412C475.65 349.072 475.879 348.66 476.001 348.212C476.123 347.763 476.133 347.292 476.032 346.838C474.88 340.132 473.288 333.509 471.266 327.012C467.009 312.874 457.064 285.709 442.258 286.63C412.202 288.727 400.478 342.962 401.494 347.855C401.524 348.169 401.625 348.473 401.79 348.742C401.955 349.011 402.18 349.239 402.447 349.408C402.714 349.577 403.016 349.682 403.33 349.716C403.644 349.75 403.962 349.711 404.259 349.602C406.07 349.158 408.643 347.188 410.994 346.648C411.344 352.43 412.011 360.119 413.409 370.064C408.049 367.955 402.873 365.404 397.936 362.438C387.967 352.757 380.94 340.454 377.665 326.949C376.548 322.529 375.909 318.002 375.759 313.446C381.528 316.667 387.516 319.481 393.678 321.865C393.781 321.906 393.891 321.921 394 321.911C394.11 321.9 394.215 321.864 394.308 321.805C394.401 321.747 394.479 321.667 394.535 321.572C394.591 321.478 394.624 321.371 394.632 321.262C395.793 312.286 399.597 303.859 405.561 297.051C411.637 290.319 419.71 285.709 428.596 283.898C428.739 283.874 428.872 283.806 428.975 283.704C429.078 283.601 429.147 283.469 429.171 283.326C429.196 283.182 429.175 283.035 429.112 282.904C429.049 282.773 428.946 282.665 428.818 282.595C422.525 278.963 416.033 275.686 409.374 272.777C405.249 270.861 400.922 269.411 396.474 268.456C397.335 266.087 397.911 263.623 398.19 261.117C404.544 258.416 436.603 262.388 458.208 260.132C461.481 259.93 464.726 259.408 467.898 258.575C487.375 258.035 516.7 281.991 522.101 292.794C527.503 303.596 526.645 317.1 514.667 333.907C503.388 349.634 462.846 372.574 458.494 375.02L458.462 375.147ZM544.914 439.295C549.33 425.379 542.34 412.353 539.83 408.317L560.864 407.746C563.571 409.348 565.638 411.841 566.71 414.799C568.434 419.228 569.349 423.931 569.41 428.683C563.119 431.511 551.459 436.849 544.914 439.168V439.295ZM570.776 427.826C570.602 423.171 569.523 418.596 567.599 414.354C566.325 411.361 564.089 408.879 561.245 407.301C562.512 405.94 564.048 404.858 565.756 404.124C565.756 405.14 564.517 407.301 566.011 407.523C567.504 407.746 567.663 406.284 568.584 405.807C568.965 405.617 569.728 405.585 569.41 406.411C569.093 407.237 568.394 408.476 569.124 409.588C569.663 410.221 570.404 410.648 571.221 410.796C571.412 410.796 570.141 411.685 569.791 412.702C569.708 412.942 569.721 413.206 569.828 413.437C569.935 413.668 570.127 413.848 570.363 413.941C571.444 414.354 573.318 413.274 574.494 414.449C574.97 414.958 574.716 415.434 574.113 415.784C572.651 416.705 572.46 417.786 573.827 418.961C574.513 419.439 575.123 420.017 575.638 420.677C574.64 420.67 573.668 420.994 572.873 421.598C572.722 421.714 572.599 421.863 572.515 422.034C572.43 422.205 572.386 422.393 572.386 422.583C572.386 422.774 572.43 422.962 572.515 423.133C572.599 423.303 572.722 423.452 572.873 423.568C573.572 424.172 575.288 424.807 575.669 425.347C574.156 426.355 572.509 427.147 570.776 427.698V427.826ZM609.316 405.839C608.013 411.145 579.418 423.949 577.385 424.902C577.036 423.663 575.034 423.06 574.208 422.456C575.097 421.979 576.877 422.17 577.226 421.058C577.576 419.946 575.097 418.103 574.526 417.373C575.066 416.864 577.004 415.943 576.146 414.195C575.756 413.538 575.167 413.021 574.465 412.719C573.763 412.416 572.984 412.344 572.238 412.511H571.761C572.46 411.622 573.604 410.478 572.556 409.715C571.507 408.953 570.808 409.715 570.268 408.667C573.286 409.048 575.765 409.461 577.671 409.874C577.734 409.883 577.799 409.879 577.861 409.861C577.922 409.842 577.979 409.811 578.027 409.769C578.076 409.727 578.114 409.674 578.141 409.616C578.167 409.557 578.18 409.494 578.179 409.429C578.179 410.7 577.29 402.09 581.801 401.073C583.816 400.861 585.852 401.146 587.73 401.905C589.608 402.664 591.271 403.873 592.572 405.426C592.647 405.519 592.746 405.589 592.858 405.628C592.97 405.668 593.091 405.675 593.208 405.649C594.383 405.426 604.137 403.425 608.045 404.854C608.49 404.822 609.411 405.267 609.316 405.712V405.839Z" fill="black"/>
<defs>
<linearGradient id="paint0_linear_1159_728" x1="350.5" y1="0" x2="350.5" y2="701" gradientUnits="userSpaceOnUse">
<stop stop-color="#F93E76"/>
<stop offset="1" stop-color="#242836"/>
</linearGradient>
</defs>
</svg>
