<svg width="19" height="20" viewBox="0 0 19 20" fill="none" xmlns="http://www.w3.org/2000/svg">
<path d="M13.4452 1.58875C14.4931 1.59189 15.4972 2.01143 16.2381 2.75574C16.9791 3.50005 17.3968 4.50864 17.3999 5.56125V13.5054C17.3968 14.558 16.9791 15.5666 16.2381 16.3109C15.4972 17.0552 14.4931 17.4748 13.4452 17.4779H5.53644C4.48853 17.4748 3.48443 17.0552 2.74344 16.3109C2.00246 15.5666 1.58479 14.558 1.58166 13.5054V5.56125C1.58479 4.50864 2.00246 3.50005 2.74344 2.75574C3.48443 2.01143 4.48853 1.59189 5.53644 1.58875H13.4452ZM13.4452 0H5.53644C2.49133 0 0 2.5025 0 5.56125V13.5054C0 16.5642 2.49133 19.0667 5.53644 19.0667H13.4452C16.4903 19.0667 18.9816 16.5642 18.9816 13.5054V5.56125C18.9816 2.5025 16.4903 0 13.4452 0Z" fill="#308CF8"/>
<path d="M14.6315 5.5613C14.3968 5.5613 14.1675 5.49141 13.9724 5.36047C13.7773 5.22953 13.6252 5.04341 13.5354 4.82567C13.4456 4.60792 13.4221 4.36832 13.4679 4.13716C13.5137 3.906 13.6267 3.69366 13.7926 3.52701C13.9585 3.36035 14.1699 3.24686 14.4 3.20088C14.6301 3.1549 14.8687 3.17849 15.0855 3.26869C15.3022 3.35888 15.4875 3.51162 15.6179 3.70759C15.7482 3.90356 15.8178 4.13395 15.8178 4.36964C15.8181 4.52622 15.7877 4.68133 15.7282 4.82606C15.6687 4.9708 15.5813 5.1023 15.4711 5.21302C15.3609 5.32374 15.2299 5.41151 15.0859 5.47127C14.9418 5.53104 14.7874 5.56163 14.6315 5.5613ZM9.49076 6.35545C10.1165 6.35545 10.7282 6.54183 11.2484 6.89103C11.7687 7.24022 12.1742 7.73654 12.4137 8.31722C12.6531 8.89791 12.7158 9.53688 12.5937 10.1533C12.4716 10.7698 12.1703 11.336 11.7279 11.7805C11.2854 12.2249 10.7217 12.5276 10.108 12.6502C9.49427 12.7728 8.85815 12.7099 8.28005 12.4694C7.70195 12.2288 7.20784 11.8215 6.86021 11.2989C6.51257 10.7763 6.32702 10.1619 6.32702 9.53335C6.32792 8.6908 6.66153 7.88301 7.25465 7.28723C7.84777 6.69146 8.65196 6.35635 9.49076 6.35545ZM9.49076 4.76672C8.55221 4.76672 7.63474 5.04627 6.85436 5.57004C6.07398 6.0938 5.46575 6.83825 5.10659 7.70924C4.74742 8.58023 4.65344 9.53864 4.83654 10.4633C5.01965 11.3879 5.4716 12.2372 6.13526 12.9039C6.79891 13.5705 7.64446 14.0245 8.56498 14.2084C9.4855 14.3923 10.4396 14.2979 11.3067 13.9372C12.1739 13.5764 12.915 12.9654 13.4364 12.1816C13.9578 11.3977 14.2362 10.4761 14.2362 9.53335C14.2362 8.26916 13.7362 7.05675 12.8463 6.16283C11.9563 5.26891 10.7493 4.76672 9.49076 4.76672Z" fill="#308CF8"/>
</svg>
