<svg width="12" height="13" viewBox="0 0 12 13" fill="none" xmlns="http://www.w3.org/2000/svg">
<path d="M8.47384 1.01102C9.13428 1.01302 9.76712 1.28 10.2341 1.75365C10.7011 2.2273 10.9644 2.86914 10.9663 3.53898V8.59435C10.9644 9.26419 10.7011 9.90603 10.2341 10.3797C9.76712 10.8533 9.13428 11.1203 8.47384 11.1223H3.48935C2.8289 11.1203 2.19607 10.8533 1.72906 10.3797C1.26205 9.90603 0.998816 9.26419 0.996843 8.59435V3.53898C0.998816 2.86914 1.26205 2.2273 1.72906 1.75365C2.19607 1.28 2.8289 1.01302 3.48935 1.01102H8.47384V1.01102ZM8.47384 0H3.48935C1.57017 0 0 1.5925 0 3.53898V8.59435C0 10.5408 1.57017 12.1333 3.48935 12.1333H8.47384C10.393 12.1333 11.9632 10.5408 11.9632 8.59435V3.53898C11.9632 1.5925 10.393 0 8.47384 0V0Z" fill="#363B53"/>
<path d="M9.22146 3.53887C9.07358 3.53887 8.92902 3.4944 8.80606 3.41107C8.6831 3.32775 8.58727 3.20931 8.53068 3.07075C8.47408 2.93218 8.45928 2.7797 8.48813 2.6326C8.51698 2.4855 8.58819 2.35038 8.69276 2.24433C8.79732 2.13827 8.93055 2.06605 9.07559 2.03679C9.22063 2.00753 9.37097 2.02255 9.50759 2.07994C9.64422 2.13734 9.76099 2.23453 9.84315 2.35924C9.92531 2.48395 9.96916 2.63056 9.96916 2.78055C9.96937 2.88019 9.95017 2.9789 9.91267 3.071C9.87517 3.1631 9.82011 3.24678 9.75063 3.31724C9.68116 3.3877 9.59865 3.44355 9.50784 3.48159C9.41703 3.51962 9.31971 3.53909 9.22146 3.53887V3.53887ZM5.98152 4.04425C6.37589 4.04425 6.7614 4.16285 7.0893 4.38507C7.41721 4.60728 7.67278 4.92312 7.82369 5.29265C7.97461 5.66217 8.0141 6.06879 7.93716 6.46108C7.86022 6.85336 7.67032 7.2137 7.39146 7.49653C7.1126 7.77935 6.75731 7.97196 6.37052 8.04999C5.98373 8.12802 5.58281 8.08797 5.21847 7.93491C4.85412 7.78184 4.54271 7.52264 4.32361 7.19008C4.10451 6.85751 3.98757 6.46652 3.98757 6.06655C3.98813 5.53037 4.19839 5.01633 4.57221 4.6372C4.94602 4.25807 5.45286 4.04482 5.98152 4.04425V4.04425ZM5.98152 3.03323C5.39 3.03323 4.81176 3.21113 4.31992 3.54444C3.82809 3.87774 3.44475 4.35148 3.21838 4.90575C2.99202 5.46001 2.93279 6.06991 3.04819 6.65832C3.16359 7.24672 3.44844 7.78721 3.86671 8.21142C4.28498 8.63564 4.81789 8.92454 5.39804 9.04158C5.9782 9.15862 6.57955 9.09855 7.12605 8.86896C7.67254 8.63938 8.13964 8.25059 8.46828 7.75177C8.79691 7.25294 8.97232 6.66648 8.97232 6.06655C8.97232 5.26206 8.65722 4.49053 8.09633 3.92167C7.53545 3.35281 6.77473 3.03323 5.98152 3.03323V3.03323Z" fill="#363B53"/>
</svg>
