<svg width="19" height="20" viewBox="0 0 19 20" fill="none" xmlns="http://www.w3.org/2000/svg">
<path d="M13.4452 1.58875C14.4931 1.59189 15.4972 2.01143 16.2382 2.75574C16.9791 3.50005 17.3968 4.50864 17.3999 5.56125V13.5054C17.3968 14.558 16.9791 15.5666 16.2382 16.3109C15.4972 17.0552 14.4931 17.4748 13.4452 17.4779H5.53644C4.48853 17.4748 3.48443 17.0552 2.74344 16.3109C2.00246 15.5666 1.58479 14.558 1.58166 13.5054V5.56125C1.58479 4.50864 2.00246 3.50005 2.74344 2.75574C3.48443 2.01143 4.48853 1.59189 5.53644 1.58875H13.4452V1.58875ZM13.4452 0H5.53644C2.49133 0 0 2.5025 0 5.56125V13.5054C0 16.5642 2.49133 19.0667 5.53644 19.0667H13.4452C16.4903 19.0667 18.9816 16.5642 18.9816 13.5054V5.56125C18.9816 2.5025 16.4903 0 13.4452 0V0Z" fill="#F93E76"/>
<path d="M14.6317 5.5613C14.3971 5.5613 14.1677 5.49141 13.9726 5.36047C13.7775 5.22953 13.6255 5.04341 13.5357 4.82567C13.4459 4.60792 13.4224 4.36832 13.4682 4.13716C13.5139 3.906 13.6269 3.69366 13.7928 3.52701C13.9587 3.36035 14.1701 3.24686 14.4003 3.20088C14.6304 3.1549 14.8689 3.17849 15.0857 3.26869C15.3025 3.35888 15.4878 3.51162 15.6181 3.70759C15.7485 3.90356 15.8181 4.13395 15.8181 4.36964C15.8184 4.52622 15.7879 4.68133 15.7284 4.82606C15.6689 4.9708 15.5816 5.1023 15.4713 5.21302C15.3611 5.32374 15.2302 5.41151 15.0861 5.47127C14.942 5.53104 14.7876 5.56163 14.6317 5.5613V5.5613ZM9.491 6.35545C10.1167 6.35545 10.7284 6.54183 11.2487 6.89103C11.769 7.24022 12.1745 7.73654 12.4139 8.31722C12.6534 8.89791 12.716 9.53688 12.594 10.1533C12.4719 10.7698 12.1706 11.336 11.7281 11.7805C11.2856 12.2249 10.7219 12.5276 10.1082 12.6502C9.49451 12.7728 8.85839 12.7099 8.28029 12.4694C7.7022 12.2288 7.20809 11.8215 6.86045 11.2989C6.51282 10.7763 6.32727 10.1619 6.32727 9.53335C6.32816 8.6908 6.66177 7.88301 7.25489 7.28723C7.84802 6.69146 8.6522 6.35636 9.491 6.35545V6.35545ZM9.491 4.76672C8.55245 4.76672 7.63498 5.04627 6.8546 5.57004C6.07423 6.0938 5.466 6.83825 5.10683 7.70924C4.74766 8.58023 4.65369 9.53864 4.83679 10.4633C5.01989 11.3879 5.47185 12.2372 6.1355 12.9039C6.79916 13.5705 7.64471 14.0245 8.56522 14.2084C9.48574 14.3923 10.4399 14.2979 11.307 13.9372C12.1741 13.5764 12.9152 12.9654 13.4367 12.1816C13.9581 11.3977 14.2364 10.4761 14.2364 9.53335C14.2364 8.26916 13.7364 7.05675 12.8465 6.16283C11.9566 5.26891 10.7496 4.76672 9.491 4.76672V4.76672Z" fill="#F93E76"/>
</svg>
