<svg width="29" height="20" viewBox="0 0 29 29" fill="none" xmlns="http://www.w3.org/2000/svg">
<path d="M20.5414 2.41645C22.1424 2.42123 23.6765 3.05934 24.8086 4.19142C25.9407 5.3235 26.5788 6.85756 26.5835 8.45855V20.5414C26.5788 22.1424 25.9407 23.6765 24.8086 24.8086C23.6765 25.9407 22.1424 26.5788 20.5414 26.5835H8.45855C6.85756 26.5788 5.3235 25.9407 4.19142 24.8086C3.05934 23.6765 2.42123 22.1424 2.41645 20.5414V8.45855C2.42123 6.85756 3.05934 5.3235 4.19142 4.19142C5.3235 3.05934 6.85756 2.42123 8.45855 2.41645H20.5414V2.41645ZM20.5414 0H8.45855C3.80625 0 0 3.80625 0 8.45855V20.5414C0 25.1937 3.80625 29 8.45855 29H20.5414C25.1937 29 29 25.1937 29 20.5414V8.45855C29 3.80625 25.1937 0 20.5414 0V0Z" fill="white"/>
<path d="M22.3539 8.45854C21.9955 8.45854 21.645 8.35224 21.347 8.15308C21.0489 7.95392 20.8166 7.67085 20.6794 7.33966C20.5422 7.00847 20.5063 6.64404 20.5763 6.29245C20.6462 5.94086 20.8188 5.6179 21.0723 5.36442C21.3258 5.11094 21.6488 4.93832 22.0003 4.86838C22.3519 4.79845 22.7164 4.83434 23.0476 4.97153C23.3788 5.10871 23.6618 5.34102 23.861 5.63908C24.0601 5.93714 24.1664 6.28757 24.1664 6.64605C24.167 6.88421 24.1204 7.12013 24.0295 7.34026C23.9386 7.56039 23.8051 7.76041 23.6367 7.92881C23.4683 8.09722 23.2683 8.23071 23.0482 8.32161C22.828 8.41252 22.5921 8.45905 22.3539 8.45854V8.45854ZM14.5 9.66643C15.456 9.66643 16.3905 9.94991 17.1854 10.481C17.9802 11.0121 18.5998 11.767 18.9656 12.6502C19.3315 13.5335 19.4272 14.5053 19.2407 15.4429C19.0542 16.3805 18.5938 17.2418 17.9178 17.9178C17.2418 18.5937 16.3806 19.0541 15.443 19.2406C14.5054 19.4271 13.5335 19.3314 12.6503 18.9655C11.7671 18.5997 11.0122 17.9802 10.4811 17.1853C9.94994 16.3904 9.66645 15.4559 9.66645 14.5C9.66782 13.2184 10.1775 11.9898 11.0837 11.0836C11.9898 10.1775 13.2185 9.6678 14.5 9.66643V9.66643ZM14.5 7.24999C13.0661 7.24999 11.6644 7.6752 10.4721 8.47183C9.27986 9.26847 8.35061 10.4008 7.80188 11.7255C7.25314 13.0503 7.10957 14.508 7.38931 15.9143C7.66905 17.3207 8.35955 18.6125 9.37348 19.6264C10.3874 20.6404 11.6792 21.3309 13.0856 21.6106C14.492 21.8903 15.9497 21.7468 17.2745 21.198C18.5992 20.6493 19.7315 19.7201 20.5282 18.5278C21.3248 17.3356 21.75 15.9339 21.75 14.5C21.75 12.5771 20.9862 10.7331 19.6265 9.37346C18.2669 8.01383 16.4228 7.24999 14.5 7.24999V7.24999Z" fill="white"/>
</svg>
