<svg width="60" height="60" viewBox="0 0 60 60" fill="none" xmlns="http://www.w3.org/2000/svg">
<circle cx="30" cy="30" r="30" fill="#363B53"/>
<path d="M26.9024 22.7398C26.9024 23.8023 26.9024 24.8321 27.2375 25.7965C23.7149 29.9321 14.4139 40.8594 13.5476 41.6931C13.3754 41.8476 13.2377 42.0366 13.1433 42.2478C13.049 42.459 13.0001 42.6877 13 42.919C13 43.6138 13.425 44.2839 13.7846 44.6599C14.324 45.2238 16.6288 47.357 17.0538 46.9484C18.3125 45.7224 18.5659 45.3955 19.0808 44.8887C19.8572 44.1287 18.999 42.5758 19.2687 41.9465C19.5385 41.3171 19.8245 41.1945 20.2904 41.0965C20.7562 40.9984 21.5817 41.3335 22.2274 41.3416C22.9058 41.3498 23.2736 41.0638 23.7803 40.5897C24.1889 40.2138 24.4832 39.8623 24.4913 39.3147C24.5077 38.5792 23.4452 37.6066 24.238 36.8301C25.0308 36.0537 26.175 37.3369 27.0168 37.2388C27.8587 37.1407 28.8803 35.972 28.9865 35.4734C29.0928 34.9748 28.0303 33.6917 28.1937 32.9643C28.251 32.7191 28.7495 32.147 29.1255 32.0652C29.5014 31.9835 31.1687 32.6292 31.5447 32.5475C32.0024 32.4494 32.5337 31.9672 32.9668 31.6975C34.2337 32.2451 35.3861 32.4657 36.8654 32.4657C42.4639 32.4657 47 28.1013 47 22.7235C47 17.3456 42.4639 13 36.8654 13C31.2668 13 26.9024 17.362 26.9024 22.7398V22.7398ZM41.7692 20.8461C41.7692 21.3634 41.6158 21.869 41.3285 22.2991C41.0411 22.7292 40.6326 23.0645 40.1547 23.2624C39.6768 23.4604 39.1509 23.5122 38.6436 23.4112C38.1363 23.3103 37.6703 23.0612 37.3045 22.6955C36.9387 22.3297 36.6896 21.8637 36.5887 21.3564C36.4878 20.849 36.5396 20.3232 36.7375 19.8453C36.9355 19.3674 37.2707 18.9589 37.7008 18.6715C38.1309 18.3841 38.6366 18.2307 39.1538 18.2307C39.8475 18.2307 40.5127 18.5063 41.0032 18.9968C41.4937 19.4872 41.7692 20.1525 41.7692 20.8461Z" fill="white"/>
</svg>
