<svg width="26" height="26" viewBox="0 0 26 26" fill="none" xmlns="http://www.w3.org/2000/svg">
<path d="M13 5.2C12.6702 5.2 12.3539 5.06899 12.1207 4.83579C11.8875 4.6026 11.7565 4.28631 11.7565 3.95652V1.24348C11.7565 0.913687 11.8875 0.597404 12.1207 0.364206C12.3539 0.131009 12.6702 0 13 0C13.3298 0 13.6461 0.131009 13.8793 0.364206C14.1125 0.597404 14.2435 0.913687 14.2435 1.24348V3.95652C14.2435 4.28631 14.1125 4.6026 13.8793 4.83579C13.6461 5.06899 13.3298 5.2 13 5.2ZM13 26C12.6702 26 12.3539 25.869 12.1207 25.6358C11.8875 25.4026 11.7565 25.0863 11.7565 24.7565V22.0435C11.7565 21.7137 11.8875 21.3974 12.1207 21.1642C12.3539 20.931 12.6702 20.8 13 20.8C13.3298 20.8 13.6461 20.931 13.8793 21.1642C14.1125 21.3974 14.2435 21.7137 14.2435 22.0435V24.7565C14.2435 25.0863 14.1125 25.4026 13.8793 25.6358C13.6461 25.869 13.3298 26 13 26ZM19.3949 7.84861C19.149 7.84858 18.9086 7.77565 18.7042 7.63905C18.4998 7.50245 18.3404 7.3083 18.2463 7.08115C18.1521 6.854 18.1275 6.60405 18.1754 6.36288C18.2233 6.12171 18.3416 5.90015 18.5154 5.72622L20.4337 3.80787C20.668 3.57974 20.9826 3.45304 21.3095 3.45519C21.6365 3.45735 21.9494 3.58818 22.1806 3.81937C22.4118 4.05057 22.5427 4.36351 22.5448 4.69046C22.547 5.0174 22.4203 5.33204 22.1921 5.56626L20.2738 7.48461C20.1585 7.60017 20.0215 7.69182 19.8706 7.75428C19.7198 7.81675 19.5581 7.8488 19.3949 7.84861ZM4.68678 22.5567C4.44083 22.5567 4.20042 22.4837 3.99594 22.347C3.79146 22.2104 3.63211 22.0161 3.53803 21.7889C3.44395 21.5616 3.41937 21.3116 3.4674 21.0704C3.51543 20.8292 3.63392 20.6076 3.80787 20.4337L5.72622 18.5154C5.84112 18.3974 5.9783 18.3035 6.12981 18.2389C6.28132 18.1744 6.44413 18.1406 6.6088 18.1396C6.77348 18.1385 6.93672 18.1701 7.08907 18.2326C7.24141 18.2951 7.37982 18.3873 7.49626 18.5037C7.61271 18.6202 7.70486 18.7586 7.76738 18.9109C7.82989 19.0633 7.86153 19.2265 7.86044 19.3912C7.85936 19.5559 7.82558 19.7187 7.76106 19.8702C7.69654 20.0217 7.60257 20.1589 7.48461 20.2738L5.56626 22.1921C5.45091 22.3078 5.31383 22.3996 5.1629 22.4622C5.01197 22.5247 4.85017 22.5569 4.68678 22.5567ZM24.7565 14.2435H22.0435C21.7137 14.2435 21.3974 14.1125 21.1642 13.8793C20.931 13.6461 20.8 13.3298 20.8 13C20.8 12.6702 20.931 12.3539 21.1642 12.1207C21.3974 11.8875 21.7137 11.7565 22.0435 11.7565H24.7565C25.0863 11.7565 25.4026 11.8875 25.6358 12.1207C25.869 12.3539 26 12.6702 26 13C26 13.3298 25.869 13.6461 25.6358 13.8793C25.4026 14.1125 25.0863 14.2435 24.7565 14.2435ZM3.95652 14.2435H1.24348C0.913687 14.2435 0.597404 14.1125 0.364206 13.8793C0.131009 13.6461 0 13.3298 0 13C0 12.6702 0.131009 12.3539 0.364206 12.1207C0.597404 11.8875 0.913687 11.7565 1.24348 11.7565H3.95652C4.28631 11.7565 4.6026 11.8875 4.83579 12.1207C5.06899 12.3539 5.2 12.6702 5.2 13C5.2 13.3298 5.06899 13.6461 4.83579 13.8793C4.6026 14.1125 4.28631 14.2435 3.95652 14.2435ZM21.3132 22.5567C21.1498 22.5569 20.988 22.5247 20.8371 22.4622C20.6862 22.3996 20.5491 22.3078 20.4337 22.1921L18.5154 20.2738C18.2873 20.0396 18.1606 19.7249 18.1627 19.398C18.1649 19.071 18.2957 18.7581 18.5269 18.5269C18.7581 18.2957 19.071 18.1649 19.398 18.1627C19.7249 18.1606 20.0396 18.2873 20.2738 18.5154L22.1921 20.4337C22.3661 20.6076 22.4846 20.8292 22.5326 21.0704C22.5806 21.3116 22.5561 21.5616 22.462 21.7889C22.3679 22.0161 22.2085 22.2104 22.0041 22.347C21.7996 22.4837 21.5592 22.5567 21.3132 22.5567ZM6.60513 7.84861C6.44186 7.84893 6.28014 7.81693 6.12929 7.75446C5.97845 7.69198 5.84145 7.60027 5.72622 7.48461L3.80787 5.56626C3.57974 5.33204 3.45304 5.0174 3.45519 4.69046C3.45735 4.36351 3.58818 4.05057 3.81937 3.81937C4.05057 3.58818 4.36351 3.45735 4.69046 3.45519C5.0174 3.45304 5.33204 3.57974 5.56626 3.80787L7.48461 5.72622C7.6584 5.90015 7.77673 6.12171 7.82463 6.36288C7.87253 6.60405 7.84786 6.854 7.75373 7.08115C7.65961 7.3083 7.50025 7.50245 7.29581 7.63905C7.09136 7.77565 6.85101 7.84858 6.60513 7.84861ZM13 18.7652C11.8597 18.7652 10.7451 18.4271 9.79702 17.7936C8.84893 17.1601 8.10999 16.2597 7.67363 15.2063C7.23728 14.1528 7.12311 12.9936 7.34556 11.8753C7.56801 10.7569 8.1171 9.72966 8.92338 8.92338C9.72966 8.1171 10.7569 7.56801 11.8753 7.34556C12.9936 7.12311 14.1528 7.23728 15.2063 7.67363C16.2597 8.10999 17.1601 8.84893 17.7936 9.79702C18.4271 10.7451 18.7652 11.8597 18.7652 13C18.7634 14.5285 18.1554 15.9938 17.0746 17.0746C15.9938 18.1554 14.5285 18.7634 13 18.7652Z" fill="white"/>
</svg>
