<svg width="9" height="10" viewBox="0 0 9 10" fill="none" xmlns="http://www.w3.org/2000/svg">
<path d="M7.86 4.54167C7.86 5.61108 7.20997 6.75832 6.41585 7.66844C6.025 8.11638 5.61527 8.48814 5.26658 8.74442C5.09187 8.87283 4.9389 8.96752 4.81653 9.02827C4.68178 9.09518 4.62542 9.1 4.63 9.1V9.9C4.81608 9.9 5.00928 9.82575 5.17231 9.74481C5.34771 9.65772 5.54073 9.53577 5.74036 9.38904C6.14035 9.09505 6.59275 8.68252 7.01865 8.1944C7.85803 7.23241 8.66 5.90049 8.66 4.54167H7.86ZM4.63 9.1C4.63458 9.1 4.57822 9.09518 4.44347 9.02827C4.3211 8.96752 4.16813 8.87283 3.99342 8.74442C3.64473 8.48814 3.235 8.11638 2.84415 7.66844C2.05003 6.75832 1.4 5.61108 1.4 4.54167H0.6C0.6 5.90049 1.40197 7.23241 2.24135 8.1944C2.66725 8.68252 3.11965 9.09505 3.51964 9.38904C3.71927 9.53577 3.91229 9.65772 4.0877 9.74481C4.25072 9.82575 4.44392 9.9 4.63 9.9V9.1ZM1.4 4.54167C1.4 2.8158 2.83677 1.4 4.63 1.4V0.6C2.41364 0.6 0.6 2.35551 0.6 4.54167H1.4ZM4.63 1.4C6.42323 1.4 7.86 2.8158 7.86 4.54167H8.66C8.66 2.35551 6.84636 0.6 4.63 0.6V1.4Z" fill="white"/>
<ellipse rx="1.36125" ry="1.34211" transform="matrix(-1 0 0 1 4.62996 4.35529)" stroke="white" stroke-width="0.8"/>
</svg>
