<svg width="404" height="103" viewBox="0 0 404 103" fill="none" xmlns="http://www.w3.org/2000/svg">
<g filter="url(#filter0_f_1502_1238)">
<path d="M130.09 98.8059C129.734 99.2282 129.788 99.8591 130.21 100.215C130.633 100.571 131.263 100.517 131.619 100.095L130.09 98.8059ZM158.907 66.1595L158.143 65.5152L158.143 65.5152L158.907 66.1595ZM160.582 64.8423L160.135 63.9474L160.135 63.9474L160.582 64.8423ZM160.834 64.7165L161.28 65.6113L161.28 65.6113L160.834 64.7165ZM163.787 64.6128L164.103 63.6639L164.103 63.6639L163.787 64.6128ZM163.82 64.6238L164.191 63.695L164.164 63.6842L164.136 63.6749L163.82 64.6238ZM165.719 65.873L166.425 65.1651L166.425 65.1651L165.719 65.873ZM166.622 66.7736L167.364 66.1038L167.346 66.0843L167.328 66.0657L166.622 66.7736ZM168.561 68.9234L169.328 68.2823L169.316 68.2677L169.303 68.2536L168.561 68.9234ZM171.793 72.793L171.025 73.434L171.028 73.438L171.793 72.793ZM175.24 76.8776L174.476 77.5225L174.549 77.6098L174.641 77.6782L175.24 76.8776ZM176.102 77.5225L175.503 78.3231L175.575 78.3771L175.655 78.4173L176.102 77.5225ZM176.964 77.9524L176.517 78.8473L176.637 78.907L176.768 78.9331L176.964 77.9524ZM178.041 78.1674L177.845 79.1481L177.942 79.1674H178.041V78.1674ZM187.054 77.5469L187.608 78.3795L187.608 78.3795L187.054 77.5469ZM187.091 77.5225L186.537 76.6899L186.537 76.6899L187.091 77.5225ZM187.449 77.284L186.895 76.4514L186.895 76.4514L187.449 77.284ZM187.982 76.8483L187.275 76.1404L187.275 76.1404L187.982 76.8483ZM188.03 76.8L188.736 77.508L188.736 77.5079L188.03 76.8ZM188.891 75.1311L189.877 75.2959L189.877 75.2959L188.891 75.1311ZM188.982 74.5843L189.968 74.7491L189.968 74.749L188.982 74.5843ZM188.721 72.6079L187.827 73.0559L187.827 73.0559L188.721 72.6079ZM188.624 72.4138L189.518 71.9658L189.518 71.9658L188.624 72.4138ZM188.06 71.5032L187.261 72.1041L187.261 72.1041L188.06 71.5032ZM187.737 71.0732L188.536 70.4723L188.527 70.4598L188.517 70.4476L187.737 71.0732ZM186.875 69.9983L187.655 69.3727L187.649 69.3649L187.643 69.3572L186.875 69.9983ZM185.798 68.7084L186.565 68.0674L186.565 68.0674L185.798 68.7084ZM183.643 66.1287L184.411 65.4876L184.406 65.4819L183.643 66.1287ZM178.903 60.5392L178.13 61.1733L178.135 61.1797L178.14 61.186L178.903 60.5392ZM176.964 58.1745L177.737 57.5403L177.731 57.5334L176.964 58.1745ZM173.732 54.3049L172.932 54.9057L172.948 54.9262L172.964 54.9459L173.732 54.3049ZM173.494 53.9885L172.695 54.5894L172.695 54.5894L173.494 53.9885ZM172.87 52.8L171.889 52.9966L171.902 53.0577L171.921 53.1169L172.87 52.8ZM172.726 52.083L171.746 52.2796L171.746 52.2796L172.726 52.083ZM172.919 49.9913L171.99 49.6192L171.99 49.6192L172.919 49.9913ZM172.959 49.891L173.887 50.2631L173.887 50.2631L172.959 49.891ZM173.261 49.2839L172.404 48.7686L172.404 48.7686L173.261 49.2839ZM173.391 49.0672L174.248 49.5826L174.248 49.5826L173.391 49.0672ZM174.168 48.0032L173.416 47.3439L173.416 47.3439L174.168 48.0032ZM175.24 46.7806L175.992 47.44L176.003 47.4275L176.013 47.4147L175.24 46.7806ZM179.118 42.0511L178.36 41.3995L178.352 41.4082L178.345 41.417L179.118 42.0511ZM181.704 39.0414L182.462 39.6931L182.468 39.6865L182.474 39.6798L181.704 39.0414ZM186.875 32.8071L187.645 33.4455L187.657 33.4307L187.669 33.4154L186.875 32.8071ZM189.676 29.1524L188.89 28.5343L188.882 28.5441L189.676 29.1524ZM209.283 4.21498L210.069 4.83306L211.318 3.24562L209.298 3.21509L209.283 4.21498ZM195.063 4L195.078 3.00011L194.6 2.99289L194.294 3.36039L195.063 4ZM167.057 37.6575L166.289 37.0179L166.289 37.0179L167.057 37.6575ZM166.054 38.559L166.608 39.3917L166.608 39.3916L166.054 38.559ZM166.041 38.5679L165.487 37.7352L165.487 37.7353L166.041 38.5679ZM162.298 39.1743L162.035 40.1393L162.035 40.1393L162.298 39.1743ZM162.247 39.1606L162.51 38.1956L162.51 38.1956L162.247 39.1606ZM160.119 37.9277L160.825 37.2198L160.825 37.2198L160.119 37.9277ZM158.649 36.4617L157.907 37.1315L157.924 37.151L157.943 37.1696L158.649 36.4617ZM156.71 34.3119L155.946 34.9569L155.957 34.9695L155.968 34.9817L156.71 34.3119ZM153.263 30.2273L154.027 29.5823L154.015 29.5678L154.002 29.5538L153.263 30.2273ZM151.108 27.8626L151.847 27.1891L151.831 27.1715L151.814 27.1547L151.108 27.8626ZM150.708 27.4633L151.414 26.7554L151.414 26.7554L150.708 27.4633ZM140.593 25.8333L140.397 24.8527L140.397 24.8527L140.593 25.8333ZM139.945 25.9625L140.141 26.9432L140.141 26.9432L139.945 25.9625ZM137.409 27.8973L138.303 28.3453L138.303 28.3453L137.409 27.8973ZM137.273 28.1687L136.379 27.7206L136.379 27.7207L137.273 28.1687ZM137.273 31.4261L136.379 31.8741L136.379 31.8741L137.273 31.4261ZM137.459 31.7983L138.353 31.3503L138.353 31.3503L137.459 31.7983ZM138.168 32.8708L138.931 32.224L138.931 32.224L138.168 32.8708ZM140.12 35.1718L139.357 35.8186L139.359 35.8206L140.12 35.1718ZM151.81 48.882L152.571 48.2332L152.571 48.2332L151.81 48.882ZM152.761 50.4125L153.679 50.0178L153.679 50.0178L152.761 50.4125ZM152.814 50.5367L151.895 50.9313L151.895 50.9313L152.814 50.5367ZM152.549 54.9597L153.417 55.4567L153.417 55.4567L152.549 54.9597ZM152.494 55.0553L151.627 54.5583L151.627 54.5584L152.494 55.0553ZM151.765 56.0525L152.501 56.729L152.501 56.729L151.765 56.0525ZM149.815 58.1745L149.079 57.4979L149.063 57.5153L149.048 57.5334L149.815 58.1745ZM143.351 65.9137L144.116 66.5577L144.119 66.5547L143.351 65.9137ZM138.827 71.2881L139.575 71.9519L139.583 71.9421L139.592 71.9322L138.827 71.2881ZM113.833 99.4502L113.085 98.7865L111.608 100.45H113.833V99.4502ZM138.334 26.7316L138.973 27.5005L138.973 27.5005L138.334 26.7316ZM147.545 25.809L147.366 26.793L147.366 26.793L147.545 25.809ZM164.494 39.2265L164.71 40.2028L164.71 40.2028L164.494 39.2265ZM161.216 64.5583L161.532 65.5072L161.532 65.5072L161.216 64.5583ZM188.607 76.0015L189.501 76.4495L189.501 76.4495L188.607 76.0015ZM185.726 78.0957L185.53 77.1151L185.53 77.1151L185.726 78.0957ZM188.88 72.9893L189.828 72.6724L189.828 72.6724L188.88 72.9893ZM153.173 53.0868L154.165 53.2111L154.165 53.2111L153.173 53.0868ZM159.778 65.3376L159.179 64.537L159.179 64.537L159.778 65.3376ZM153.145 51.6637L154.131 51.4989L154.131 51.4989L153.145 51.6637ZM131.619 100.095L159.672 66.8039L158.143 65.5152L130.09 98.8059L131.619 100.095ZM161.028 65.7371L161.28 65.6113L160.387 63.8216L160.135 63.9474L161.028 65.7371ZM162.14 65.4088H162.528V63.4088H162.14V65.4088ZM163.472 65.5617L163.505 65.5727L164.136 63.6749L164.103 63.6639L163.472 65.5617ZM165.013 66.5809L165.915 67.4815L167.328 66.0657L166.425 65.1651L165.013 66.5809ZM165.879 67.4434L167.818 69.5932L169.303 68.2536L167.364 66.1038L165.879 67.4434ZM167.793 69.5644L171.025 73.434L172.56 72.1519L169.328 68.2823L167.793 69.5644ZM171.028 73.438L174.476 77.5225L176.004 76.2326L172.557 72.148L171.028 73.438ZM174.641 77.6782L175.503 78.3231L176.701 76.7218L175.839 76.0769L174.641 77.6782ZM175.655 78.4173L176.517 78.8473L177.41 77.0576L176.548 76.6277L175.655 78.4173ZM176.768 78.9331L177.845 79.1481L178.237 77.1868L177.159 76.9718L176.768 78.9331ZM178.041 79.1674H180.411V77.1674H178.041V79.1674ZM180.411 79.1674H183.859V77.1674H180.411V79.1674ZM183.859 79.1674H185.001V77.1674H183.859V79.1674ZM187.608 78.3795L187.644 78.3551L186.537 76.6899L186.5 76.7143L187.608 78.3795ZM187.644 78.3551L188.003 78.1167L186.895 76.4514L186.537 76.6899L187.644 78.3551ZM188.688 77.5563L188.736 77.508L187.324 76.0921L187.275 76.1404L188.688 77.5563ZM189.877 75.2959L189.968 74.7491L187.996 74.4195L187.904 74.9664L189.877 75.2959ZM190.03 74.0074V73.9109H188.03V74.0074H190.03ZM189.616 72.1599L189.518 71.9658L187.73 72.8618L187.827 73.0559L189.616 72.1599ZM188.86 70.9023L188.536 70.4723L186.938 71.674L187.261 72.1041L188.86 70.9023ZM188.517 70.4476L187.655 69.3727L186.095 70.6238L186.957 71.6987L188.517 70.4476ZM187.643 69.3572L186.565 68.0674L185.03 69.3494L186.108 70.6393L187.643 69.3572ZM186.565 68.0674L184.411 65.4876L182.876 66.7697L185.03 69.3494L186.565 68.0674ZM184.406 65.4819L182.036 62.6871L180.51 63.9807L182.88 66.7754L184.406 65.4819ZM182.036 62.6871L179.666 59.8924L178.14 61.186L180.51 63.9807L182.036 62.6871ZM179.676 59.9051L177.737 57.5404L176.191 58.8086L178.13 61.1733L179.676 59.9051ZM177.731 57.5334L175.577 54.9537L174.042 56.2358L176.196 58.8155L177.731 57.5334ZM175.577 54.9537L174.499 53.6638L172.964 54.9459L174.042 56.2358L175.577 54.9537ZM174.531 53.704L174.293 53.3876L172.695 54.5894L172.932 54.9057L174.531 53.704ZM173.85 52.6035L173.707 51.8865L171.746 52.2796L171.889 52.9966L173.85 52.6035ZM173.847 50.3635L173.887 50.2631L172.031 49.5189L171.99 49.6192L173.847 50.3635ZM174.118 49.7993L174.248 49.5826L172.534 48.5519L172.404 48.7686L174.118 49.7993ZM174.92 48.6625L175.992 47.44L174.488 46.1213L173.416 47.3439L174.92 48.6625ZM176.013 47.4147L177.952 45.05L176.406 43.7818L174.467 46.1465L176.013 47.4147ZM177.952 45.05L179.892 42.6852L178.345 41.417L176.406 43.7818L177.952 45.05ZM179.877 42.7027L182.462 39.6931L180.945 38.3898L178.36 41.3995L179.877 42.7027ZM182.474 39.6798L187.645 33.4455L186.105 32.1686L180.934 38.403L182.474 39.6798ZM187.669 33.4154L190.47 29.7607L188.882 28.5441L186.081 32.1987L187.669 33.4154ZM190.462 29.7705L210.069 4.83306L208.497 3.59689L188.89 28.5343L190.462 29.7705ZM209.298 3.21509L195.078 3.00011L195.048 4.99989L209.268 5.21486L209.298 3.21509ZM194.294 3.36039L166.289 37.0179L167.826 38.2972L195.831 4.63961L194.294 3.36039ZM165.5 37.7263L165.487 37.7352L166.594 39.4006L166.608 39.3917L165.5 37.7263ZM162.561 38.2094L162.51 38.1956L161.985 40.1255L162.035 40.1393L162.561 38.2094ZM160.825 37.2198L159.356 35.7538L157.943 37.1696L159.412 38.6356L160.825 37.2198ZM159.392 35.7919L157.453 33.6421L155.968 34.9817L157.907 37.1315L159.392 35.7919ZM157.474 33.6669L154.027 29.5823L152.499 30.8723L155.946 34.9569L157.474 33.6669ZM154.002 29.5538L151.847 27.1891L150.369 28.5361L152.524 30.9008L154.002 29.5538ZM151.814 27.1547L151.414 26.7554L150.002 28.1712L150.402 28.5705L151.814 27.1547ZM146.475 24.7128H144.429V26.7128H146.475V24.7128ZM144.429 24.7128H141.813V26.7128H144.429V24.7128ZM140.397 24.8527L139.75 24.9818L140.141 26.9432L140.788 26.814L140.397 24.8527ZM136.515 27.4493L136.379 27.7206L138.167 28.6167L138.303 28.3453L136.515 27.4493ZM136.379 31.8741L136.565 32.2464L138.353 31.3503L138.167 30.978L136.379 31.8741ZM137.405 33.5176L139.357 35.8186L140.882 34.525L138.931 32.224L137.405 33.5176ZM139.359 35.8206L151.049 49.5309L152.571 48.2332L140.88 34.523L139.359 35.8206ZM151.842 50.8072L151.895 50.9313L153.733 50.142L153.679 50.0178L151.842 50.8072ZM151.681 54.4627L151.627 54.5583L153.362 55.5523L153.417 55.4567L151.681 54.4627ZM151.029 55.3759L149.079 57.4979L150.552 58.851L152.501 56.729L151.029 55.3759ZM149.048 57.5334L142.584 65.2726L144.119 66.5547L150.583 58.8155L149.048 57.5334ZM142.586 65.2696L138.062 70.6441L139.592 71.9322L144.116 66.5577L142.586 65.2696ZM138.079 70.6243L113.085 98.7865L114.581 100.114L139.575 71.9519L138.079 70.6243ZM113.833 100.45H130.639V98.4502H113.833V100.45ZM136.565 32.2464C136.794 32.7021 137.076 33.1289 137.405 33.5176L138.931 32.224C138.704 31.9569 138.51 31.6635 138.353 31.3503L136.565 32.2464ZM137.695 25.9627C137.203 26.3715 136.801 26.8776 136.515 27.4493L138.303 28.3453C138.466 28.0205 138.694 27.7328 138.973 27.5005L137.695 25.9627ZM139.75 24.9818C138.994 25.1327 138.287 25.4698 137.695 25.9627L138.973 27.5005C139.31 27.2205 139.712 27.0289 140.141 26.9432L139.75 24.9818ZM141.813 24.7128C141.337 24.7128 140.863 24.7596 140.397 24.8527L140.788 26.814C141.126 26.7467 141.469 26.7128 141.813 26.7128V24.7128ZM147.723 24.8251C147.312 24.7504 146.894 24.7128 146.475 24.7128V26.7128C146.774 26.7128 147.072 26.7396 147.366 26.793L147.723 24.8251ZM151.414 26.7554C150.409 25.752 149.121 25.0787 147.723 24.8251L147.366 26.793C148.364 26.974 149.284 27.4547 150.002 28.1712L151.414 26.7554ZM162.51 38.1956C161.873 38.0223 161.292 37.686 160.825 37.2198L159.412 38.6356C160.126 39.3474 161.012 39.8609 161.985 40.1255L162.51 38.1956ZM162.528 65.4088C162.849 65.4088 163.167 65.4605 163.472 65.5617L164.103 63.6639C163.595 63.495 163.063 63.4088 162.528 63.4088V65.4088ZM164.278 38.2502C163.71 38.376 163.121 38.362 162.561 38.2094L162.035 40.1393C162.909 40.3769 163.827 40.3987 164.71 40.2028L164.278 38.2502ZM161.532 65.5072C161.728 65.442 161.933 65.4088 162.14 65.4088V63.4088C161.719 63.4088 161.3 63.4766 160.901 63.6094L161.532 65.5072ZM166.289 37.0179C166.062 37.291 165.796 37.5296 165.5 37.7264L166.608 39.3916C167.065 39.0877 167.475 38.719 167.826 38.2972L166.289 37.0179ZM173.654 51.3601C173.654 51.0187 173.72 50.6804 173.847 50.3635L171.99 49.6192C171.769 50.1728 171.654 50.7637 171.654 51.3601H173.654ZM173.707 51.8865C173.672 51.7132 173.654 51.5369 173.654 51.3601H171.654C171.654 51.6689 171.685 51.9768 171.746 52.2796L173.707 51.8865ZM174.293 53.3876C174.087 53.1137 173.927 52.8082 173.818 52.4831L171.921 53.1169C172.098 53.6461 172.359 54.1433 172.695 54.5894L174.293 53.3876ZM151.049 49.5309C151.376 49.9141 151.643 50.3444 151.842 50.8072L153.679 50.0178C153.401 49.3707 153.028 48.7691 152.571 48.2332L151.049 49.5309ZM188.736 77.5079C189.046 77.1985 189.305 76.8411 189.501 76.4495L187.713 75.5535C187.613 75.7528 187.482 75.9347 187.324 76.0921L188.736 77.5079ZM188.003 78.1167C188.249 77.9529 188.479 77.7651 188.688 77.5562L187.275 76.1404C187.159 76.2563 187.032 76.3605 186.895 76.4514L188.003 78.1167ZM173.887 50.2631C173.951 50.1026 174.029 49.9475 174.118 49.7992L172.404 48.7686C172.26 49.0083 172.135 49.2592 172.031 49.5189L173.887 50.2631ZM136.379 27.7207C136.056 28.3653 135.888 29.0763 135.888 29.7974H137.888C137.888 29.3874 137.983 28.9832 138.167 28.6167L136.379 27.7207ZM185.001 79.1674C185.31 79.1674 185.618 79.1369 185.922 79.0764L185.53 77.1151C185.356 77.1499 185.178 77.1674 185.001 77.1674V79.1674ZM174.248 49.5826C174.444 49.2565 174.669 48.9486 174.92 48.6625L173.416 47.3439C173.087 47.7195 172.791 48.1238 172.534 48.5519L174.248 49.5826ZM135.888 29.7974C135.888 30.5184 136.056 31.2295 136.379 31.8741L138.167 30.978C137.983 30.6116 137.888 30.2073 137.888 29.7974H135.888ZM185.922 79.0764C186.524 78.9563 187.097 78.7195 187.608 78.3795L186.5 76.7143C186.206 76.9098 185.877 77.046 185.53 77.1151L185.922 79.0764ZM163.45 65.5526C164.035 65.7861 164.567 66.136 165.013 66.5809L166.425 65.1651C165.788 64.529 165.028 64.0289 164.191 63.695L163.45 65.5526ZM189.518 71.9658C189.331 71.5923 189.111 71.2363 188.86 70.9023L187.261 72.1041C187.44 72.3421 187.597 72.5957 187.73 72.8618L189.518 71.9658ZM151.627 54.5584C151.458 54.8523 151.258 55.1265 151.029 55.3759L152.501 56.729C152.831 56.37 153.12 55.9753 153.362 55.5523L151.627 54.5584ZM189.828 72.6724C189.77 72.4968 189.699 72.3255 189.615 72.1598L187.827 73.0559C187.868 73.1368 187.903 73.2204 187.931 73.3062L189.828 72.6724ZM161.28 65.6113C161.362 65.5707 161.446 65.5359 161.532 65.5072L160.901 63.6094C160.725 63.6679 160.553 63.7388 160.387 63.8216L161.28 65.6113ZM152.181 52.9625C152.115 53.4895 151.944 54.0048 151.681 54.4627L153.417 55.4567C153.812 54.7662 154.067 53.9971 154.165 53.2111L152.181 52.9625ZM190.03 73.9109C190.03 73.4899 189.962 73.0717 189.828 72.6724L187.931 73.3062C187.996 73.5011 188.03 73.7053 188.03 73.9109H190.03ZM160.377 66.1383C160.582 65.9853 160.8 65.8511 161.028 65.7371L160.135 63.9474C159.799 64.1149 159.48 64.3122 159.179 64.537L160.377 66.1383ZM165.487 37.7353C165.119 37.98 164.709 38.1546 164.278 38.2502L164.71 40.2028C165.383 40.0538 166.021 39.7818 166.594 39.4005L165.487 37.7353ZM151.895 50.9313C152.018 51.2187 152.107 51.5199 152.158 51.8284L154.131 51.4989C154.053 51.0323 153.919 50.5767 153.733 50.142L151.895 50.9313ZM189.501 76.4495C189.683 76.0859 189.81 75.6971 189.877 75.2959L187.904 74.9664C187.87 75.1705 187.806 75.3684 187.713 75.5535L189.501 76.4495ZM152.158 51.8284C152.221 52.2001 152.228 52.5861 152.181 52.9625L154.165 53.2111C154.236 52.645 154.226 52.0641 154.131 51.4989L152.158 51.8284ZM189.968 74.749C190.009 74.504 190.03 74.2559 190.03 74.0074H188.03C188.03 74.1455 188.018 74.2833 187.996 74.4196L189.968 74.749ZM159.672 66.8039C159.881 66.5559 160.118 66.3326 160.377 66.1383L159.179 64.537C158.798 64.8225 158.45 65.1507 158.143 65.5152L159.672 66.8039Z" fill="#F93E76" fill-opacity="0.9"/>
</g>
<path d="M16.7922 73.0542C13.4927 73.0542 10.3306 72.6221 7.30607 71.758C4.28151 70.8545 1.84616 69.6958 0 68.2817L3.2406 61.0934C5.00819 62.3504 7.09003 63.3913 9.48611 64.2162C11.9215 65.0018 14.3765 65.3946 16.8511 65.3946C18.7365 65.3946 20.2488 65.2178 21.3879 64.8643C22.5663 64.4715 23.4305 63.9412 23.9804 63.2735C24.5303 62.6057 24.8053 61.8398 24.8053 60.9756C24.8053 59.8758 24.3732 59.0116 23.509 58.3831C22.6449 57.7154 21.5058 57.1851 20.0917 56.7923C18.6776 56.3602 17.1064 55.9674 15.3781 55.6139C13.6891 55.2211 11.9804 54.7497 10.2521 54.1998C8.56303 53.6499 7.01147 52.9429 5.59739 52.0787C4.18331 51.2145 3.02456 50.0754 2.12112 48.6614C1.25696 47.2473 0.824879 45.4404 0.824879 43.2407C0.824879 40.8839 1.45336 38.7432 2.71032 36.8184C4.00655 34.8544 5.93127 33.3029 8.48447 32.1638C11.0769 30.9854 14.3175 30.3962 18.2063 30.3962C20.7987 30.3962 23.3519 30.7104 25.8658 31.3389C28.3798 31.9281 30.5991 32.8315 32.5238 34.0492L29.5778 41.2964C27.6531 40.1965 25.7284 39.3913 23.8036 38.8806C21.8789 38.3307 19.9935 38.0558 18.1473 38.0558C16.3012 38.0558 14.7889 38.2718 13.6105 38.7039C12.4321 39.136 11.5876 39.7055 11.0769 40.4126C10.5663 41.0803 10.311 41.8659 10.311 42.7694C10.311 43.8299 10.7431 44.6941 11.6072 45.3618C12.4714 45.9903 13.6105 46.501 15.0246 46.8938C16.4387 47.2866 17.9902 47.6794 19.6792 48.0722C21.4076 48.465 23.1162 48.9167 24.8053 49.4273C26.5336 49.9379 28.1048 50.6253 29.5189 51.4895C30.933 52.3537 32.0721 53.4928 32.9362 54.9069C33.8397 56.3209 34.2914 58.1082 34.2914 60.2686C34.2914 62.5861 33.6433 64.7072 32.347 66.6319C31.0508 68.5566 29.1064 70.1082 26.514 71.2866C23.9608 72.465 20.7202 73.0542 16.7922 73.0542Z" fill="#F93E76" fill-opacity="0.9"/>
<path d="M40.8135 72.3472V31.1032H48.7088L73.0427 60.7989H69.2129V31.1032H78.6401V72.3472H70.8038L46.4109 42.6515H50.2407V72.3472H40.8135Z" fill="#F93E76" fill-opacity="0.9"/>
<path d="M106.722 73.0542C100.87 73.0542 96.2935 71.4241 92.994 68.1638C89.6945 64.9036 88.0447 60.2489 88.0447 54.1998V31.1032H97.5898V53.8463C97.5898 57.7743 98.395 60.6025 100.005 62.3308C101.616 64.0591 103.875 64.9232 106.781 64.9232C109.688 64.9232 111.947 64.0591 113.557 62.3308C115.168 60.6025 115.973 57.7743 115.973 53.8463V31.1032H125.4V54.1998C125.4 60.2489 123.75 64.9036 120.451 68.1638C117.151 71.4241 112.575 73.0542 106.722 73.0542Z" fill="#F93E76" fill-opacity="0.9"/>
<path d="M201.577 72.3472V31.1032H219.43C223.122 31.1032 226.304 31.7121 228.975 32.9297C231.646 34.1081 233.708 35.8168 235.162 38.0558C236.615 40.2947 237.342 42.9658 237.342 46.0689C237.342 49.1327 236.615 51.7841 235.162 54.0231C233.708 56.262 231.646 57.9903 228.975 59.208C226.304 60.3864 223.122 60.9756 219.43 60.9756H206.88L211.122 56.6745V72.3472H201.577ZM211.122 57.735L206.88 53.1982H218.9C221.846 53.1982 224.046 52.5697 225.499 51.3127C226.952 50.0558 227.679 48.3078 227.679 46.0689C227.679 43.7906 226.952 42.023 225.499 40.7661C224.046 39.5091 221.846 38.8806 218.9 38.8806H206.88L211.122 34.3438V57.735Z" fill="#F93E76" fill-opacity="0.9"/>
<path d="M244.156 72.3472V31.1032H253.701V64.5697H274.382V72.3472H244.156Z" fill="#F93E76" fill-opacity="0.9"/>
<path d="M299.058 73.0542C295.797 73.0542 292.773 72.5239 289.984 71.4634C287.234 70.4028 284.838 68.9102 282.796 66.9854C280.792 65.0607 279.221 62.8021 278.082 60.2097C276.982 57.6172 276.432 54.789 276.432 51.7252C276.432 48.6613 276.982 45.8332 278.082 43.2407C279.221 40.6482 280.812 38.3896 282.855 36.4649C284.897 34.5402 287.293 33.0476 290.043 31.987C292.793 30.9265 295.778 30.3962 298.999 30.3962C302.259 30.3962 305.244 30.9265 307.955 31.987C310.704 33.0476 313.081 34.5402 315.084 36.4649C317.126 38.3896 318.717 40.6482 319.856 43.2407C320.995 45.7939 321.565 48.6221 321.565 51.7252C321.565 54.789 320.995 57.6368 319.856 60.2686C318.717 62.861 317.126 65.1196 315.084 67.0444C313.081 68.9298 310.704 70.4028 307.955 71.4634C305.244 72.5239 302.279 73.0542 299.058 73.0542ZM298.999 64.9232C300.845 64.9232 302.534 64.609 304.066 63.9805C305.637 63.352 307.012 62.4486 308.19 61.2702C309.369 60.0918 310.272 58.6974 310.901 57.0869C311.568 55.4764 311.902 53.6892 311.902 51.7252C311.902 49.7612 311.568 47.974 310.901 46.3635C310.272 44.753 309.369 43.3586 308.19 42.1802C307.051 41.0018 305.696 40.0983 304.125 39.4698C302.554 38.8414 300.845 38.5271 298.999 38.5271C297.153 38.5271 295.444 38.8414 293.873 39.4698C292.341 40.0983 290.986 41.0018 289.807 42.1802C288.629 43.3586 287.706 44.753 287.038 46.3635C286.41 47.974 286.095 49.7612 286.095 51.7252C286.095 53.6499 286.41 55.4371 287.038 57.0869C287.706 58.6974 288.609 60.0918 289.748 61.2702C290.927 62.4486 292.302 63.352 293.873 63.9805C295.444 64.609 297.153 64.9232 298.999 64.9232Z" fill="#F93E76" fill-opacity="0.9"/>
<path d="M328.739 72.3472V31.1032H346.591C350.284 31.1032 353.465 31.7121 356.136 32.9297C358.807 34.1081 360.87 35.8168 362.323 38.0558C363.776 40.2947 364.503 42.9658 364.503 46.0689C364.503 49.1327 363.776 51.7841 362.323 54.0231C360.87 56.2227 358.807 57.9118 356.136 59.0902C353.465 60.2686 350.284 60.8578 346.591 60.8578H334.041L338.284 56.6745V72.3472H328.739ZM354.958 72.3472L344.647 57.3815H354.84L365.269 72.3472H354.958ZM338.284 57.735L334.041 53.2571H346.061C349.007 53.2571 351.207 52.6286 352.66 51.3717C354.113 50.0754 354.84 48.3078 354.84 46.0689C354.84 43.7906 354.113 42.023 352.66 40.7661C351.207 39.5091 349.007 38.8806 346.061 38.8806H334.041L338.284 34.3438V57.735Z" fill="#F93E76" fill-opacity="0.9"/>
<path d="M380.844 47.7186H400.7V55.1425H380.844V47.7186ZM381.551 64.6876H404V72.3472H372.065V31.1032H403.234V38.7628H381.551V64.6876Z" fill="#F93E76" fill-opacity="0.9"/>
<defs>
<filter id="filter0_f_1502_1238" x="109.608" y="0.992889" width="103.709" height="101.457" filterUnits="userSpaceOnUse" color-interpolation-filters="sRGB">
<feFlood flood-opacity="0" result="BackgroundImageFix"/>
<feBlend mode="normal" in="SourceGraphic" in2="BackgroundImageFix" result="shape"/>
<feGaussianBlur stdDeviation="1" result="effect1_foregroundBlur_1502_1238"/>
</filter>
</defs>
</svg>
