<svg width="37" height="26" viewBox="0 0 37 26" fill="none" xmlns="http://www.w3.org/2000/svg">
<path d="M14.4703 9.43184L21.5369 1.05834C21.5393 1.05551 21.5422 1.0532 21.5456 1.05155C21.5712 1.03871 21.5621 1 21.5334 1H8.56651C8.49532 1 8.4243 1.00703 8.35449 1.02099L7.91892 1.10811L6.92721 1.40562C6.86774 1.42346 6.80992 1.44639 6.75438 1.47416L5.40435 2.14918C5.35109 2.17581 5.30012 2.20679 5.25196 2.24181L4.20373 3.00416C4.15807 3.03737 4.11508 3.07411 4.07516 3.11403L3.27027 3.91892L2.41994 4.96932C2.37433 5.02567 2.3345 5.08646 2.30106 5.15078L1.68807 6.32959C1.66183 6.38005 1.63961 6.43251 1.62162 6.48648L1.24304 7.62223C1.22518 7.6758 1.21155 7.73068 1.20227 7.78637L1.01471 8.91174C1.00492 8.97048 1 9.02993 1 9.08947V10.2973L1.14809 11.7289C1.15743 11.8192 1.17812 11.9079 1.20965 11.9931L1.67357 13.2457C1.69296 13.298 1.71638 13.3488 1.74363 13.3976L2.65264 15.0242C2.70376 15.1157 2.76791 15.1993 2.84308 15.2723L3.67568 16.0811L4.52622 16.9073C4.58958 16.9689 4.66025 17.0224 4.73665 17.0668L6.16503 17.8962C6.25277 17.9471 6.34725 17.9855 6.44568 18.0101L6.50232 18.0242C6.90563 18.1251 7.33102 17.9857 7.59648 17.6658L10.802 13.8027C11.1357 13.4005 11.134 12.8172 10.7978 12.417L7.1949 8.12777C6.60408 7.42442 7.10412 6.35135 8.02269 6.35135H9.69052C10.0069 6.35135 10.3075 6.48998 10.5129 6.73068L12.8217 9.43635C13.2549 9.94394 14.0399 9.94179 14.4703 9.43184Z" fill="black" stroke="black" stroke-width="0.108108"/>
<path d="M12.6108 16.5682L5.54419 24.9417C5.54181 24.9445 5.53887 24.9468 5.53556 24.9485C5.50988 24.9613 5.51902 25 5.54773 25H18.5146C18.5858 25 18.6568 24.993 18.7266 24.979L19.1622 24.8919L20.1539 24.5944C20.2134 24.5765 20.2712 24.5536 20.3267 24.5258L21.6768 23.8508C21.73 23.8242 21.781 23.7932 21.8292 23.7582L22.8774 22.9958C22.923 22.9626 22.966 22.9259 23.006 22.886L23.8108 22.0811L24.6612 21.0307C24.7068 20.9743 24.7466 20.9135 24.7801 20.8492L25.393 19.6704C25.4193 19.6199 25.4415 19.5675 25.4595 19.5135L25.8381 18.3778C25.8559 18.3242 25.8696 18.2693 25.8788 18.2136L26.0664 17.0883C26.0762 17.0295 26.0811 16.9701 26.0811 16.9105V15.7027L25.933 14.2711C25.9237 14.1808 25.903 14.0921 25.8715 14.0069L25.4075 12.7543C25.3882 12.702 25.3647 12.6512 25.3375 12.6024L24.4285 10.9758C24.3774 10.8843 24.3132 10.8007 24.238 10.7277L23.4054 9.91892L22.5549 9.09268C22.4915 9.03113 22.4209 8.97757 22.3445 8.93321L20.9161 8.10383C20.8283 8.05288 20.7339 8.01454 20.6354 7.98993L20.5788 7.97577C20.1755 7.87494 19.7501 8.01431 19.4846 8.33422L16.2791 12.1973C15.9454 12.5995 15.9471 13.1828 16.2833 13.583L19.8862 17.8722C20.477 18.5756 19.977 19.6486 19.0584 19.6486H17.3906C17.0742 19.6486 16.7736 19.51 16.5682 19.2693L14.2594 16.5637C13.8263 16.0561 13.0412 16.0582 12.6108 16.5682Z" fill="black" stroke="black" stroke-width="0.108108"/>
<path d="M33.8562 25C33.038 25 32.3355 24.7108 31.7487 24.1323C31.1702 23.5455 30.881 22.843 30.881 22.0248C30.881 21.2149 31.1702 20.5207 31.7487 19.9422C32.3355 19.3637 33.038 19.0744 33.8562 19.0744C34.6496 19.0744 35.3438 19.3637 35.9388 19.9422C36.5339 20.5207 36.8314 21.2149 36.8314 22.0248C36.8314 22.5703 36.6909 23.0703 36.4099 23.5248C36.1372 23.9711 35.7777 24.3306 35.3314 24.6033C34.8851 24.8678 34.3934 25 33.8562 25Z" fill="black"/>
</svg>
