<svg width="232" height="222" viewBox="0 0 232 222" fill="none" xmlns="http://www.w3.org/2000/svg">
<path d="M124.6 77.9945L189.967 0.539612C189.989 0.513478 190.016 0.492113 190.046 0.47682C190.284 0.358042 190.199 0 189.934 0H69.9902C69.3317 0 68.6748 0.0650472 68.029 0.194193L64 1L54.8267 3.75199C54.2766 3.91702 53.7417 4.12914 53.228 4.38598L40.7402 10.6299C40.2476 10.8762 39.7761 11.1628 39.3307 11.4868L29.6345 18.5385C29.2122 18.8457 28.8145 19.1855 28.4452 19.5548L21 27L13.1345 36.7162C12.7126 37.2374 12.3441 37.7997 12.0348 38.3947L6.36469 49.2987C6.12194 49.7655 5.91642 50.2508 5.75003 50.7499L2.24812 61.2556C2.08296 61.7511 1.95687 62.2588 1.87101 62.7739L0.136061 73.1836C0.0455084 73.727 0 74.2768 0 74.8276V86L1.36985 99.2419C1.45627 100.077 1.64759 100.898 1.93928 101.686L6.23049 113.272C6.40989 113.757 6.62656 114.226 6.87854 114.677L15.2869 129.724C15.7598 130.57 16.3532 131.343 17.0485 132.019L24.75 139.5L32.6175 147.143C33.2036 147.712 33.8573 148.207 34.564 148.618L47.7765 156.29C48.5881 156.761 49.462 157.116 50.3725 157.343L50.8965 157.474C54.6271 158.407 58.5619 157.118 61.0175 154.158L90.6687 118.425C93.7557 114.705 93.7394 109.309 90.6301 105.607L57.3028 65.9319C51.8378 59.4259 56.4631 49.5 64.9599 49.5H80.3873C83.3143 49.5 86.0943 50.7823 87.9942 53.0088L109.351 78.0362C113.357 82.7314 120.619 82.7116 124.6 77.9945Z" fill="#308CF8"/>
<path d="M107.4 144.005L42.0334 221.46C42.0114 221.487 41.9842 221.508 41.9536 221.523C41.7161 221.642 41.8006 222 42.0662 222H162.01C162.668 222 163.325 221.935 163.971 221.806L168 221L177.173 218.248C177.723 218.083 178.258 217.871 178.772 217.614L191.26 211.37C191.752 211.124 192.224 210.837 192.669 210.513L202.365 203.461C202.788 203.154 203.186 202.814 203.555 202.445L211 195L218.866 185.284C219.287 184.763 219.656 184.2 219.965 183.605L225.635 172.701C225.878 172.235 226.084 171.749 226.25 171.25L229.752 160.744C229.917 160.249 230.043 159.741 230.129 159.226L231.864 148.816C231.954 148.273 232 147.723 232 147.172V136L230.63 122.758C230.544 121.923 230.352 121.102 230.061 120.314L225.77 108.728C225.59 108.243 225.373 107.774 225.121 107.323L216.713 92.276C216.24 91.4298 215.647 90.6569 214.952 89.9815L207.25 82.5L199.383 74.8573C198.796 74.2879 198.143 73.7925 197.436 73.3822L184.223 65.7104C183.412 65.2392 182.538 64.8845 181.627 64.6569L181.103 64.5259C177.373 63.5932 173.438 64.8823 170.983 67.8416L141.331 103.575C138.244 107.295 138.261 112.691 141.37 116.393L174.697 156.068C180.162 162.574 175.537 172.5 167.04 172.5H151.613C148.686 172.5 145.906 171.218 144.006 168.991L122.649 143.964C118.643 139.269 111.381 139.288 107.4 144.005Z" fill="#308CF8"/>
</svg>
