<svg width="55" height="47" viewBox="0 0 55 47" fill="none" xmlns="http://www.w3.org/2000/svg">
<path d="M14.808 23.5C14.808 22.9334 15.0308 22.39 15.4275 21.9894C15.8243 21.5887 16.3623 21.3636 16.9234 21.3636H35.9622V7.47727C35.9622 3.20455 31.4947 0 27.5005 0H7.40398C5.44097 0.00212064 3.55895 0.790584 2.17089 2.19238C0.782834 3.59419 0.00209985 5.49483 0 7.47727V39.5227C0.00209985 41.5052 0.782834 43.4058 2.17089 44.8076C3.55895 46.2094 5.44097 46.9979 7.40398 47H28.5582C30.5212 46.9979 32.4032 46.2094 33.7913 44.8076C35.1793 43.4058 35.9601 41.5052 35.9622 39.5227V25.6364H16.9234C16.3623 25.6364 15.8243 25.4113 15.4275 25.0106C15.0308 24.61 14.808 24.0666 14.808 23.5ZM54.3809 21.9899L43.8038 11.308C43.4038 10.9243 42.8713 10.7135 42.3197 10.7207C41.768 10.7278 41.241 10.9523 40.8509 11.3462C40.4608 11.7402 40.2386 12.2724 40.2315 12.8295C40.2244 13.3866 40.4331 13.9244 40.8131 14.3283L47.7781 21.3636H35.9622V25.6364H47.7781L40.8131 32.6717C40.6084 32.8681 40.4447 33.1039 40.3317 33.3652C40.2186 33.6265 40.1585 33.908 40.1549 34.1931C40.1513 34.4783 40.2042 34.7613 40.3106 35.0254C40.417 35.2895 40.5747 35.5295 40.7743 35.7311C40.974 35.9328 41.2116 36.092 41.4731 36.1994C41.7347 36.3069 42.0149 36.3603 42.2972 36.3567C42.5796 36.353 42.8583 36.2923 43.1171 36.1782C43.3758 36.064 43.6093 35.8987 43.8038 35.692L54.3809 25.0101C54.7773 24.6095 55 24.0664 55 23.5C55 22.9336 54.7773 22.3905 54.3809 21.9899V21.9899Z" fill="#E12D3A"/>
</svg>
