<svg width="19" height="10" viewBox="0 0 19 14" fill="none" xmlns="http://www.w3.org/2000/svg">
<path d="M16.625 0H2.375C1.74532 0.000631681 1.14162 0.235493 0.696365 0.653051C0.251112 1.07061 0.000673578 1.63676 0 2.22727V11.7727C0.000673578 12.3632 0.251112 12.9294 0.696365 13.3469C1.14162 13.7645 1.74532 13.9994 2.375 14H16.625C17.2547 13.9994 17.8584 13.7645 18.3036 13.3469C18.7489 12.9294 18.9993 12.3632 19 11.7727V2.22727C18.9993 1.63676 18.7489 1.07061 18.3036 0.653051C17.8584 0.235493 17.2547 0.000631681 16.625 0ZM16.0236 3.68415L9.91647 8.13869C9.79738 8.22551 9.65084 8.27265 9.5 8.27265C9.34916 8.27265 9.20262 8.22551 9.08353 8.13869L2.97638 3.68415C2.90463 3.63333 2.84436 3.56965 2.79908 3.4968C2.7538 3.42395 2.72441 3.34339 2.71261 3.2598C2.70082 3.1762 2.70685 3.09125 2.73037 3.00986C2.75389 2.92847 2.79443 2.85228 2.84962 2.78571C2.90481 2.71915 2.97356 2.66353 3.05187 2.62209C3.13018 2.58066 3.21649 2.55423 3.30578 2.54434C3.39508 2.53446 3.48558 2.54132 3.57202 2.56452C3.65846 2.58772 3.73913 2.6268 3.80933 2.67949L9.5 6.83017L15.1907 2.67949C15.333 2.57871 15.5118 2.53451 15.6886 2.55645C15.8654 2.57839 16.0259 2.66469 16.1353 2.79671C16.2448 2.92872 16.2944 3.09583 16.2735 3.2619C16.2526 3.42798 16.1628 3.57966 16.0236 3.68415Z" fill="white"/>
</svg>
