<?xml version="1.0" encoding="iso-8859-1"?>
<!-- Generator: Adobe Illustrator 18.0.0, SVG Export Plug-In . SVG Version: 6.00 Build 0)  -->
<!DOCTYPE svg PUBLIC "-//W3C//DTD SVG 1.1//EN" "http://www.w3.org/Graphics/SVG/1.1/DTD/svg11.dtd">
<svg version="1.1" id="Capa_1" xmlns="http://www.w3.org/2000/svg" xmlns:xlink="http://www.w3.org/1999/xlink" x="0px" y="0px"
	 viewBox="0 0 474.001 474.001" style="enable-background:new 0 0 474.001 474.001;" xml:space="preserve">
<g>
	<path d="M238.646,226.985c34.683,0,62.9-28.217,62.9-62.9s-28.217-62.9-62.9-62.9c-34.684,0-62.9,28.217-62.9,62.9
		S203.962,226.985,238.646,226.985z M238.646,121.184c23.655,0,42.9,19.245,42.9,42.9s-19.245,42.9-42.9,42.9
		s-42.9-19.245-42.9-42.9S214.991,121.184,238.646,121.184z"/>
	<path d="M473.532,423.265l-48.63-190c-1.699-6.638-7.68-11.28-14.532-11.28h-52.306c8.542-17.708,13.058-37.251,13.058-57.492
		c0-35.386-13.78-68.653-38.801-93.675c-25.022-25.021-58.29-38.802-93.676-38.802c-35.386,0-68.653,13.78-93.675,38.802
		s-38.802,58.289-38.802,93.675c0,20.241,4.516,39.785,13.058,57.492H63.631c-6.852,0-12.833,4.643-14.532,11.28l-48.63,190
		c-1.149,4.489-0.159,9.258,2.683,12.918c2.841,3.66,7.215,5.802,11.849,5.802h444c4.634,0,9.007-2.142,11.849-5.802
		C473.691,432.523,474.681,427.754,473.532,423.265z M149.17,262.366l78.87,78.869c0.195,0.195,0.404,0.366,0.606,0.548v70.201
		H128.321L149.17,262.366z M248.646,341.784c0.203-0.182,0.412-0.354,0.606-0.548l75.981-75.981l20.447,146.73h-97.034V341.784z
		 M166.184,92.031c19.355-19.355,45.089-30.015,72.461-30.015c27.372,0,53.106,10.659,72.462,30.015
		c19.355,19.355,30.015,45.089,30.015,72.462c0,27.372-10.66,53.106-30.015,72.462l-72.462,72.462l-72.462-72.462
		c-19.355-19.355-30.015-45.09-30.015-72.462C136.169,137.119,146.828,111.386,166.184,92.031z M75.275,251.985h55.149l-22.296,160
		H34.323L75.275,251.985z M365.873,411.985l-22.296-160h55.148l40.952,160H365.873z"/>
</g>
<g>
</g>
<g>
</g>
<g>
</g>
<g>
</g>
<g>
</g>
<g>
</g>
<g>
</g>
<g>
</g>
<g>
</g>
<g>
</g>
<g>
</g>
<g>
</g>
<g>
</g>
<g>
</g>
<g>
</g>
</svg>
