<svg width="36" height="36" viewBox="0 0 36 36" fill="none" xmlns="http://www.w3.org/2000/svg">
<circle cx="18" cy="18" r="18" fill="#308CF8"/>
<path fill-rule="evenodd" clip-rule="evenodd" d="M27.135 24.451C27.1929 24.4586 27.2508 24.4665 27.3087 24.4745L27.5997 24.5149C28.8665 24.6909 30 23.7349 30 22.4904V21.5406C30 20.6505 29.4246 19.8565 28.5627 19.5571C27.5668 19.2113 26.5388 18.9861 25.5009 18.8815C26.5838 19.6567 27.2555 20.9119 27.2555 22.2812V23.4605C27.2555 23.803 27.2136 24.1346 27.135 24.451ZM22.7456 17.618C23.1772 17.7944 23.6512 17.8919 24.1487 17.8919C26.1502 17.8919 27.7727 16.314 27.7727 14.3676C27.7727 12.4211 26.1502 10.8433 24.1487 10.8433C24.0894 10.8433 24.0305 10.8446 23.9719 10.8474C24.3358 11.6148 24.5392 12.4717 24.5392 13.3756C24.5392 15.0361 23.8528 16.5379 22.7456 17.618Z" fill="white"/>
<path fill-rule="evenodd" clip-rule="evenodd" d="M9.86504 24.451C9.80711 24.4586 9.74921 24.4665 9.69132 24.4745L9.40035 24.5149C8.13346 24.6909 7 23.7349 7 22.4904V21.5406C7 20.6505 7.57537 19.8565 8.43731 19.5571C9.43315 19.2113 10.4612 18.9861 11.4991 18.8815C10.4162 19.6567 9.7445 20.9119 9.7445 22.2812V23.4605C9.7445 23.803 9.78637 24.1346 9.86504 24.451ZM14.2544 17.618C13.8228 17.7944 13.3488 17.8919 12.8513 17.8919C10.8498 17.8919 9.2273 16.314 9.2273 14.3676C9.2273 12.4211 10.8498 10.8433 12.8513 10.8433C12.9106 10.8433 12.9695 10.8446 13.0281 10.8474C12.6642 11.6148 12.4608 12.4717 12.4608 13.3756C12.4608 15.0361 13.1472 16.5379 14.2544 17.618Z" fill="white"/>
<path fill-rule="evenodd" clip-rule="evenodd" d="M22.9434 13.3756C22.9434 10.959 20.9647 9 18.5238 9C16.0829 9 14.1042 10.959 14.1042 13.3756C14.1042 15.7921 16.0829 17.7512 18.5238 17.7512C20.9647 17.7512 22.9434 15.7921 22.9434 13.3756Z" fill="white"/>
<path fill-rule="evenodd" clip-rule="evenodd" d="M13.1408 19.8187C16.6218 18.5879 20.4258 18.5879 23.9068 19.8187C24.958 20.1904 25.6596 21.1761 25.6596 22.2812V23.4604C25.6596 25.0056 24.2773 26.1925 22.7323 25.974L22.3775 25.9238C19.8213 25.5623 17.2263 25.5623 14.6701 25.9238L14.3152 25.974C12.7702 26.1925 11.3879 25.0056 11.3879 23.4604V22.2812C11.3879 21.1761 12.0896 20.1904 13.1408 19.8187Z" fill="white"/>
</svg>
