<svg width="7" height="10" viewBox="0 0 7 10" fill="none" xmlns="http://www.w3.org/2000/svg">
<path d="M3.4998 4.2858C3.8864 4.2858 4.1998 3.96599 4.1998 3.57149C4.1998 3.17699 3.8864 2.85718 3.4998 2.85718C3.11321 2.85718 2.7998 3.17699 2.7998 3.57149C2.7998 3.96599 3.11321 4.2858 3.4998 4.2858Z" fill="#363B53"/>
<path d="M3.5 0C1.57019 0 0 1.53242 0 3.41531C0 4.31199 0.400531 5.50445 1.19044 6.95963C1.82481 8.12798 2.55872 9.18449 2.94044 9.71018C3.00494 9.80001 3.08928 9.87305 3.18661 9.92341C3.28394 9.97376 3.39153 10 3.50066 10C3.60978 10 3.71737 9.97376 3.8147 9.92341C3.91204 9.87305 3.99637 9.80001 4.06088 9.71018C4.44194 9.18449 5.1765 8.12798 5.81088 6.95963C6.59947 5.50489 7 4.31244 7 3.41531C7 1.53242 5.42981 0 3.5 0ZM3.5 5.00019C3.22311 5.00019 2.95243 4.9164 2.7222 4.75942C2.49197 4.60244 2.31253 4.37932 2.20657 4.11827C2.10061 3.85723 2.07288 3.56998 2.1269 3.29285C2.18092 3.01572 2.31426 2.76117 2.51005 2.56137C2.70584 2.36157 2.9553 2.22551 3.22687 2.17039C3.49845 2.11526 3.77994 2.14356 4.03576 2.25168C4.29157 2.35981 4.51022 2.54292 4.66406 2.77786C4.81789 3.0128 4.9 3.28901 4.9 3.57156C4.89959 3.95033 4.75197 4.31347 4.4895 4.5813C4.22704 4.84912 3.87118 4.99977 3.5 5.00019Z" fill="#363B53"/>
</svg>
