<svg width="8" height="8" viewBox="0 0 8 8" fill="none" xmlns="http://www.w3.org/2000/svg">
<path d="M4 0C1.79096 0 0 1.79096 0 4C0 6.20558 1.79462 8 4 8C6.20885 8 8 6.20885 8 4C8 1.79442 6.20558 0 4 0ZM6.07692 4.61538H3.76923C3.74883 4.61538 3.72926 4.60728 3.71484 4.59285C3.70041 4.57843 3.69231 4.55886 3.69231 4.53846V1.30769C3.69231 1.28729 3.70041 1.26773 3.71484 1.2533C3.72926 1.23887 3.74883 1.23077 3.76923 1.23077H4.23077C4.25117 1.23077 4.27074 1.23887 4.28516 1.2533C4.29959 1.26773 4.30769 1.28729 4.30769 1.30769V4H6.07692C6.09732 4 6.11689 4.0081 6.13132 4.02253C6.14574 4.03696 6.15385 4.05652 6.15385 4.07692V4.53846C6.15385 4.55886 6.14574 4.57843 6.13132 4.59285C6.11689 4.60728 6.09732 4.61538 6.07692 4.61538Z" fill="#308CF8"/>
</svg>
