<svg width="8" height="8" viewBox="0 0 8 8" fill="none" xmlns="http://www.w3.org/2000/svg">
<path d="M8 1.71427C8 1.41116 7.87959 1.12047 7.66527 0.906141C7.45094 0.691813 7.16025 0.571404 6.85714 0.571404H6.57143V0.293725C6.57143 0.139974 6.45321 0.00800967 6.29946 0.000331069C6.26083 -0.00153022 6.22223 0.0044711 6.18598 0.0179714C6.14974 0.0314718 6.11661 0.0521901 6.08861 0.0788708C6.06061 0.105552 6.03832 0.137639 6.02309 0.17319C6.00786 0.20874 6 0.247013 6 0.285689V0.571404H2V0.293725C2 0.139974 1.88179 0.00800967 1.72804 0.000331069C1.6894 -0.00153022 1.6508 0.0044711 1.61455 0.0179714C1.57831 0.0314718 1.54519 0.0521901 1.51719 0.0788708C1.48919 0.105552 1.4669 0.137639 1.45166 0.17319C1.43643 0.20874 1.42858 0.247013 1.42857 0.285689V0.571404H1.14286C0.839753 0.571404 0.549062 0.691813 0.334735 0.906141C0.120408 1.12047 0 1.41116 0 1.71427V1.92855C0 1.9475 0.0075255 1.96566 0.020921 1.97906C0.0343164 1.99246 0.0524845 1.99998 0.0714286 1.99998H7.92857C7.94752 1.99998 7.96568 1.99246 7.97908 1.97906C7.99247 1.96566 8 1.9475 8 1.92855V1.71427ZM0 6.85714C0 7.16024 0.120408 7.45094 0.334735 7.66526C0.549062 7.87959 0.839753 8 1.14286 8H6.85714C7.16025 8 7.45094 7.87959 7.66527 7.66526C7.87959 7.45094 8 7.16024 8 6.85714V2.62498C8 2.61077 7.99436 2.59715 7.98431 2.5871C7.97426 2.57705 7.96064 2.57141 7.94643 2.57141H0.0535714C0.0393634 2.57141 0.0257373 2.57705 0.0156907 2.5871C0.00564414 2.59715 0 2.61077 0 2.62498V6.85714ZM6.14286 3.14284C6.22762 3.14284 6.31048 3.16798 6.38096 3.21507C6.45144 3.26216 6.50637 3.32909 6.53881 3.40741C6.57124 3.48572 6.57973 3.57189 6.56319 3.65502C6.54666 3.73816 6.50584 3.81452 6.4459 3.87446C6.38597 3.9344 6.3096 3.97522 6.22647 3.99175C6.14333 4.00829 6.05716 3.9998 5.97885 3.96736C5.90054 3.93493 5.83361 3.87999 5.78651 3.80952C5.73942 3.73904 5.71429 3.65618 5.71429 3.57141C5.71429 3.45775 5.75944 3.34874 5.83981 3.26837C5.92018 3.18799 6.02919 3.14284 6.14286 3.14284ZM6.14286 4.57142C6.22762 4.57142 6.31048 4.59655 6.38096 4.64365C6.45144 4.69074 6.50637 4.75767 6.53881 4.83598C6.57124 4.91429 6.57973 5.00047 6.56319 5.0836C6.54666 5.16674 6.50584 5.2431 6.4459 5.30304C6.38597 5.36297 6.3096 5.40379 6.22647 5.42033C6.14333 5.43686 6.05716 5.42838 5.97885 5.39594C5.90054 5.3635 5.83361 5.30857 5.78651 5.23809C5.73942 5.16761 5.71429 5.08475 5.71429 4.99999C5.71429 4.88633 5.75944 4.77732 5.83981 4.69694C5.92018 4.61657 6.02919 4.57142 6.14286 4.57142ZM4.71429 3.14284C4.79905 3.14284 4.88191 3.16798 4.95239 3.21507C5.02287 3.26216 5.0778 3.32909 5.11023 3.40741C5.14267 3.48572 5.15116 3.57189 5.13462 3.65502C5.11809 3.73816 5.07727 3.81452 5.01733 3.87446C4.95739 3.9344 4.88103 3.97522 4.7979 3.99175C4.71476 4.00829 4.62859 3.9998 4.55028 3.96736C4.47197 3.93493 4.40503 3.87999 4.35794 3.80952C4.31085 3.73904 4.28571 3.65618 4.28571 3.57141C4.28571 3.45775 4.33087 3.34874 4.41124 3.26837C4.49161 3.18799 4.60062 3.14284 4.71429 3.14284ZM4.71429 4.57142C4.79905 4.57142 4.88191 4.59655 4.95239 4.64365C5.02287 4.69074 5.0778 4.75767 5.11023 4.83598C5.14267 4.91429 5.15116 5.00047 5.13462 5.0836C5.11809 5.16674 5.07727 5.2431 5.01733 5.30304C4.95739 5.36297 4.88103 5.40379 4.7979 5.42033C4.71476 5.43686 4.62859 5.42838 4.55028 5.39594C4.47197 5.3635 4.40503 5.30857 4.35794 5.23809C4.31085 5.16761 4.28571 5.08475 4.28571 4.99999C4.28571 4.88633 4.33087 4.77732 4.41124 4.69694C4.49161 4.61657 4.60062 4.57142 4.71429 4.57142ZM4.71429 5.99999C4.79905 5.99999 4.88191 6.02513 4.95239 6.07222C5.02287 6.11931 5.0778 6.18625 5.11023 6.26456C5.14267 6.34287 5.15116 6.42904 5.13462 6.51218C5.11809 6.59531 5.07727 6.67168 5.01733 6.73161C4.95739 6.79155 4.88103 6.83237 4.7979 6.8489C4.71476 6.86544 4.62859 6.85695 4.55028 6.82452C4.47197 6.79208 4.40503 6.73715 4.35794 6.66667C4.31085 6.59619 4.28571 6.51333 4.28571 6.42857C4.28571 6.3149 4.33087 6.20589 4.41124 6.12552C4.49161 6.04515 4.60062 5.99999 4.71429 5.99999ZM3.28571 4.57142C3.37048 4.57142 3.45334 4.59655 3.52382 4.64365C3.59429 4.69074 3.64923 4.75767 3.68166 4.83598C3.7141 4.91429 3.72259 5.00047 3.70605 5.0836C3.68951 5.16674 3.6487 5.2431 3.58876 5.30304C3.52882 5.36297 3.45246 5.40379 3.36932 5.42033C3.28619 5.43686 3.20002 5.42838 3.12171 5.39594C3.0434 5.3635 2.97646 5.30857 2.92937 5.23809C2.88228 5.16761 2.85714 5.08475 2.85714 4.99999C2.85714 4.88633 2.9023 4.77732 2.98267 4.69694C3.06304 4.61657 3.17205 4.57142 3.28571 4.57142ZM3.28571 5.99999C3.37048 5.99999 3.45334 6.02513 3.52382 6.07222C3.59429 6.11931 3.64923 6.18625 3.68166 6.26456C3.7141 6.34287 3.72259 6.42904 3.70605 6.51218C3.68951 6.59531 3.6487 6.67168 3.58876 6.73161C3.52882 6.79155 3.45246 6.83237 3.36932 6.8489C3.28619 6.86544 3.20002 6.85695 3.12171 6.82452C3.0434 6.79208 2.97646 6.73715 2.92937 6.66667C2.88228 6.59619 2.85714 6.51333 2.85714 6.42857C2.85714 6.3149 2.9023 6.20589 2.98267 6.12552C3.06304 6.04515 3.17205 5.99999 3.28571 5.99999ZM1.85714 4.57142C1.94191 4.57142 2.02477 4.59655 2.09524 4.64365C2.16572 4.69074 2.22065 4.75767 2.25309 4.83598C2.28553 4.91429 2.29402 5.00047 2.27748 5.0836C2.26094 5.16674 2.22013 5.2431 2.16019 5.30304C2.10025 5.36297 2.02389 5.40379 1.94075 5.42033C1.85762 5.43686 1.77145 5.42838 1.69314 5.39594C1.61482 5.3635 1.54789 5.30857 1.5008 5.23809C1.45371 5.16761 1.42857 5.08475 1.42857 4.99999C1.42857 4.88633 1.47372 4.77732 1.5541 4.69694C1.63447 4.61657 1.74348 4.57142 1.85714 4.57142ZM1.85714 5.99999C1.94191 5.99999 2.02477 6.02513 2.09524 6.07222C2.16572 6.11931 2.22065 6.18625 2.25309 6.26456C2.28553 6.34287 2.29402 6.42904 2.27748 6.51218C2.26094 6.59531 2.22013 6.67168 2.16019 6.73161C2.10025 6.79155 2.02389 6.83237 1.94075 6.8489C1.85762 6.86544 1.77145 6.85695 1.69314 6.82452C1.61482 6.79208 1.54789 6.73715 1.5008 6.66667C1.45371 6.59619 1.42857 6.51333 1.42857 6.42857C1.42857 6.3149 1.47372 6.20589 1.5541 6.12552C1.63447 6.04515 1.74348 5.99999 1.85714 5.99999Z" fill="#308CF8"/>
</svg>
