<svg width="83" height="17" viewBox="0 0 83 17" fill="none" xmlns="http://www.w3.org/2000/svg">
<path d="M6.61261 7.01327L9.55705 3.52431C9.55805 3.52313 9.55927 3.52217 9.56065 3.52148C9.57135 3.51613 9.56754 3.5 9.55558 3.5H4.15271C4.12305 3.5 4.09346 3.50293 4.06437 3.50875L3.88288 3.54505L3.46967 3.66901C3.44489 3.67644 3.4208 3.686 3.39766 3.69757L2.83515 3.97882C2.81295 3.98992 2.79172 4.00283 2.77165 4.01742L2.33489 4.33507C2.31586 4.34891 2.29795 4.36421 2.28132 4.38085L1.94595 4.71622L1.59164 5.15388C1.57264 5.17736 1.55604 5.20269 1.54211 5.22949L1.2867 5.72066C1.27576 5.74169 1.26651 5.76355 1.25901 5.78603L1.10127 6.25926C1.09383 6.28158 1.08815 6.30445 1.08428 6.32765L1.00613 6.79656C1.00205 6.82103 1 6.8458 1 6.87061V7.37387L1.06171 7.97036C1.0656 8.00799 1.07422 8.04498 1.08736 8.08045L1.28065 8.60236C1.28873 8.62418 1.29849 8.64534 1.30984 8.66565L1.6886 9.34342C1.7099 9.38154 1.73663 9.41636 1.76795 9.44678L2.11486 9.78378L2.46926 10.128C2.49566 10.1537 2.5251 10.176 2.55694 10.1945L3.1521 10.5401C3.18865 10.5613 3.22802 10.5773 3.26903 10.5875L3.29264 10.5934C3.46068 10.6354 3.63792 10.5774 3.74853 10.4441L5.08417 8.83446C5.22323 8.66688 5.2225 8.42382 5.08244 8.25708L3.58121 6.46991C3.33503 6.17684 3.54338 5.72973 3.92612 5.72973H4.62105C4.75289 5.72973 4.87812 5.78749 4.9637 5.88778L5.92572 7.01514C6.10619 7.22664 6.43329 7.22575 6.61261 7.01327Z" fill="white" stroke="white" stroke-width="0.045045"/>
<path d="M5.83786 9.98673L2.89342 13.4757C2.89242 13.4769 2.8912 13.4778 2.88982 13.4785C2.87912 13.4839 2.88293 13.5 2.89489 13.5H8.29776C8.32742 13.5 8.35701 13.4971 8.3861 13.4913L8.56759 13.455L8.9808 13.331C9.00558 13.3236 9.02967 13.314 9.05281 13.3024L9.61532 13.0212C9.63752 13.0101 9.65875 12.9972 9.67882 12.9826L10.1156 12.6649C10.1346 12.6511 10.1525 12.6358 10.1692 12.6192L10.5045 12.2838L10.8588 11.8461C10.8778 11.8226 10.8944 11.7973 10.9084 11.7705L11.1638 11.2793C11.1747 11.2583 11.184 11.2365 11.1915 11.214L11.3492 10.7407C11.3566 10.7184 11.3623 10.6956 11.3662 10.6723L11.4443 10.2034C11.4484 10.179 11.4505 10.1542 11.4505 10.1294V9.62613L11.3888 9.02964C11.3849 8.99201 11.3763 8.95502 11.3631 8.91955L11.1698 8.39764C11.1617 8.37582 11.152 8.35466 11.1406 8.33435L10.7619 7.65658C10.7406 7.61846 10.7138 7.58364 10.6825 7.55322L10.3356 7.21622L9.98121 6.87195C9.95481 6.8463 9.92536 6.82399 9.89353 6.8055L9.29837 6.45993C9.26182 6.4387 9.22245 6.42272 9.18144 6.41247L9.15783 6.40657C8.98979 6.36456 8.81255 6.42263 8.70194 6.55593L7.3663 8.16554C7.22724 8.33312 7.22797 8.57618 7.36803 8.74292L8.86926 10.5301C9.11544 10.8232 8.90709 11.2703 8.52435 11.2703H7.82942C7.69758 11.2703 7.57235 11.2125 7.48677 11.1122L6.52475 9.98486C6.34428 9.77336 6.01718 9.77425 5.83786 9.98673Z" fill="white" stroke="white" stroke-width="0.045045"/>
<path d="M14.6901 13.5C14.3492 13.5 14.0565 13.3795 13.812 13.1384C13.571 12.894 13.4505 12.6013 13.4505 12.2603C13.4505 11.9229 13.571 11.6336 13.812 11.3926C14.0565 11.1515 14.3492 11.031 14.6901 11.031C15.0207 11.031 15.31 11.1515 15.5579 11.3926C15.8058 11.6336 15.9298 11.9229 15.9298 12.2603C15.9298 12.4876 15.8713 12.696 15.7542 12.8853C15.6405 13.0713 15.4907 13.2211 15.3048 13.3347C15.1188 13.4449 14.914 13.5 14.6901 13.5Z" fill="white"/>
<path d="M23.0534 7.06545C23.3831 6.55151 23.8049 6.18303 24.3189 5.96C24.8328 5.72727 25.3613 5.61091 25.9043 5.61091C26.3795 5.61091 26.7965 5.70788 27.1552 5.90182C27.514 6.09576 27.8098 6.35758 28.0425 6.68727C28.2849 7.00727 28.4643 7.38545 28.5807 7.82182C28.7068 8.24848 28.7698 8.69939 28.7698 9.17455V13H27.3443V9.17455C27.3443 8.83515 27.3056 8.5297 27.228 8.25818C27.1504 7.97697 27.0292 7.73939 26.8643 7.54545C26.7092 7.34182 26.5104 7.18667 26.268 7.08C26.0352 6.97333 25.7686 6.92 25.468 6.92C25.2837 6.92 25.0365 6.96848 24.7262 7.06545C24.4256 7.15273 24.1298 7.32242 23.8389 7.57454C23.548 7.81697 23.3007 8.15636 23.0971 8.59273C22.8934 9.02909 22.7916 9.59151 22.7916 10.28V13H21.3662V2.81818H22.7916V6.99273C22.7916 7.15758 22.7771 7.34182 22.748 7.54545C22.7189 7.73939 22.6849 7.91394 22.6462 8.06909L22.6752 8.08364C22.714 7.91879 22.7625 7.74424 22.8207 7.56C22.8886 7.36606 22.9662 7.20121 23.0534 7.06545ZM37.691 9.36364C37.691 9.99394 37.5795 10.5418 37.3565 11.0073C37.1432 11.4727 36.8523 11.8606 36.4838 12.1709C36.1153 12.4812 35.6886 12.7139 35.2038 12.8691C34.7189 13.0145 34.205 13.0873 33.662 13.0873C33.1286 13.0873 32.6147 13.0145 32.1201 12.8691C31.6353 12.7139 31.2086 12.4812 30.8401 12.1709C30.4813 11.8606 30.1904 11.4727 29.9674 11.0073C29.7541 10.5418 29.6474 9.99394 29.6474 9.36364C29.6474 8.73333 29.7541 8.18545 29.9674 7.72C30.1904 7.25455 30.4813 6.86667 30.8401 6.55636C31.2086 6.24606 31.6353 6.01818 32.1201 5.87273C32.6147 5.71758 33.1286 5.64 33.662 5.64C34.205 5.64 34.7189 5.71758 35.2038 5.87273C35.6886 6.02788 36.1153 6.26061 36.4838 6.57091C36.8523 6.87151 37.1432 7.25455 37.3565 7.72C37.5795 8.18545 37.691 8.73333 37.691 9.36364ZM36.2656 9.36364C36.2656 8.95636 36.1929 8.59758 36.0474 8.28727C35.9117 7.96727 35.7226 7.70061 35.4801 7.48727C35.2377 7.27394 34.9565 7.11394 34.6365 7.00727C34.3262 6.90061 34.0013 6.84727 33.662 6.84727C33.3226 6.84727 32.9977 6.90061 32.6874 7.00727C32.3771 7.11394 32.1007 7.27394 31.8583 7.48727C31.6256 7.70061 31.4365 7.96727 31.291 8.28727C31.1456 8.59758 31.0729 8.95636 31.0729 9.36364C31.0729 9.7903 31.1407 10.1636 31.2765 10.4836C31.4123 10.7939 31.5965 11.0509 31.8292 11.2545C32.062 11.4582 32.3335 11.6133 32.6438 11.72C32.9638 11.817 33.3032 11.8655 33.662 11.8655C34.011 11.8655 34.3407 11.817 34.651 11.72C34.971 11.6133 35.2474 11.4582 35.4801 11.2545C35.7226 11.0412 35.9117 10.7794 36.0474 10.4691C36.1929 10.1491 36.2656 9.78061 36.2656 9.36364ZM44.866 7.16727C44.9824 6.92485 45.1133 6.71151 45.2588 6.52727C45.4139 6.33333 45.5836 6.16848 45.7679 6.03273C45.9521 5.89697 46.1557 5.79515 46.3788 5.72727C46.6018 5.6497 46.8491 5.61091 47.1206 5.61091C47.5376 5.61091 47.8915 5.68848 48.1824 5.84364C48.483 5.98909 48.7254 6.20727 48.9097 6.49818C49.0939 6.77939 49.2297 7.12848 49.317 7.54545C49.4042 7.95273 49.4479 8.41818 49.4479 8.94182V13H48.0224V9.24727C48.0224 8.53939 47.9012 7.99636 47.6588 7.61818C47.4163 7.24 47.0818 7.05091 46.6551 7.05091C46.4709 7.05091 46.2673 7.09455 46.0442 7.18182C45.8212 7.26909 45.6127 7.43394 45.4188 7.67636C45.2248 7.90909 45.06 8.23394 44.9242 8.65091C44.7885 9.05818 44.7206 9.58667 44.7206 10.2364V13H43.2951V9.24727C43.2951 8.48121 43.1885 7.92364 42.9751 7.57454C42.7618 7.22545 42.4321 7.05091 41.986 7.05091C41.8212 7.05091 41.6224 7.09455 41.3897 7.18182C41.1667 7.26909 40.9485 7.42909 40.7351 7.66182C40.5315 7.89454 40.357 8.21939 40.2115 8.63636C40.066 9.05333 39.9933 9.58667 39.9933 10.2364V13H38.5679V5.72727H39.9933V6.99273C39.9933 7.15758 39.9788 7.34182 39.9497 7.54545C39.9206 7.73939 39.8915 7.91879 39.8624 8.08364H39.8915C39.9206 7.91879 39.9642 7.74424 40.0224 7.56C40.0806 7.36606 40.1485 7.19151 40.226 7.03636C40.4782 6.54182 40.7933 6.18303 41.1715 5.96C41.5594 5.72727 41.9715 5.61091 42.4079 5.61091C42.7376 5.61091 43.0188 5.65455 43.2515 5.74182C43.4939 5.82909 43.6976 5.94545 43.8624 6.09091C44.0273 6.22667 44.163 6.38667 44.2697 6.57091C44.3763 6.75515 44.4636 6.94424 44.5315 7.13818C44.58 7.30303 44.6042 7.45333 44.6042 7.58909C44.6139 7.71515 44.6188 7.81212 44.6188 7.88C44.6188 8.00606 44.6139 8.12242 44.6042 8.22909H44.6333C44.643 8.06424 44.6624 7.88485 44.6915 7.69091C44.7303 7.49697 44.7885 7.32242 44.866 7.16727ZM58.1696 9.36364C58.1696 9.4703 58.1696 9.54303 58.1696 9.58182C58.1696 9.61091 58.1599 9.67394 58.1405 9.77091H51.7114C51.7599 10.1297 51.852 10.4448 51.9877 10.7164C52.1332 10.9879 52.3174 11.2158 52.5405 11.4C52.7635 11.5745 53.0253 11.7055 53.3259 11.7927C53.6362 11.88 53.9708 11.9236 54.3296 11.9236C54.6108 11.9236 54.8726 11.8994 55.115 11.8509C55.3671 11.7927 55.595 11.7103 55.7987 11.6036C56.0023 11.4873 56.1914 11.3418 56.3659 11.1673C56.5405 10.983 56.6811 10.7552 56.7877 10.4836L58.0968 10.6582C57.9708 11.0945 57.7768 11.4679 57.515 11.7782C57.2532 12.0885 56.9526 12.3406 56.6132 12.5345C56.2835 12.7188 55.9199 12.8594 55.5223 12.9564C55.1344 13.0436 54.7271 13.0873 54.3005 13.0873C53.7574 13.0873 53.2435 13.0145 52.7587 12.8691C52.2835 12.7139 51.8617 12.4812 51.4932 12.1709C51.1344 11.8606 50.8484 11.4727 50.635 11.0073C50.4217 10.5418 50.315 9.99394 50.315 9.36364C50.315 8.73333 50.4217 8.18545 50.635 7.72C50.8484 7.25455 51.1344 6.86667 51.4932 6.55636C51.8617 6.24606 52.2835 6.01818 52.7587 5.87273C53.2435 5.71758 53.7574 5.64 54.3005 5.64C54.8338 5.64 55.3332 5.71758 55.7987 5.87273C56.2738 6.02788 56.6859 6.26061 57.035 6.57091C57.3938 6.87151 57.6702 7.25455 57.8641 7.72C58.0678 8.18545 58.1696 8.73333 58.1696 9.36364ZM54.3296 6.76C53.9805 6.76 53.6362 6.82303 53.2968 6.94909C52.9671 7.06545 52.6811 7.2497 52.4387 7.50182C52.1962 7.75394 52.012 8.0497 51.8859 8.38909C51.7599 8.72848 51.6968 9.08242 51.6968 9.45091C51.6968 9.55758 51.7017 9.66424 51.7114 9.77091C51.7405 9.53818 51.7841 9.36848 51.8423 9.26182C51.9102 9.14545 51.9926 9.05333 52.0896 8.98545C52.1962 8.90788 52.3223 8.85939 52.4677 8.84C52.6229 8.82061 52.7926 8.81091 52.9768 8.81091H56.8023C56.7247 8.45212 56.6181 8.14667 56.4823 7.89455C56.3465 7.64242 56.1768 7.43394 55.9732 7.26909C55.7696 7.10424 55.5271 6.98303 55.2459 6.90545C54.9647 6.81818 54.6593 6.7697 54.3296 6.76Z" fill="white"/>
<path d="M70.9298 4H82.4298" stroke="white"/>
<path d="M70.9298 8.5H82.4298" stroke="white"/>
<path d="M70.9298 13H82.4298" stroke="white"/>
</svg>
