<svg width="117" height="36" viewBox="0 0 117 36" fill="none" xmlns="http://www.w3.org/2000/svg">
<path d="M11.6088 15.4037L17.4715 8.45674C17.4735 8.45439 17.4759 8.45248 17.4787 8.45111C17.5 8.44045 17.4924 8.40834 17.4686 8.40834H6.7108C6.65174 8.40834 6.59282 8.41417 6.5349 8.42576L6.17354 8.49803L5.35078 8.74486C5.30144 8.75966 5.25347 8.77868 5.20739 8.80172L4.08736 9.36174C4.04317 9.38383 4.00089 9.40954 3.96093 9.4386L3.09128 10.0711C3.0534 10.0986 3.01773 10.1291 2.98461 10.1622L2.31685 10.83L1.61139 11.7014C1.57355 11.7482 1.5405 11.7986 1.51275 11.852L1.0042 12.83C0.982429 12.8718 0.963995 12.9154 0.949072 12.9601L0.634984 13.9024C0.620171 13.9468 0.608862 13.9924 0.601161 14.0386L0.445553 14.9722C0.437431 15.0209 0.43335 15.0703 0.43335 15.1197V16.1217L0.556212 17.3094C0.563963 17.3843 0.581123 17.458 0.607285 17.5286L0.992165 18.5678C1.00826 18.6112 1.02769 18.6534 1.05029 18.6938L1.80444 20.0433C1.84685 20.1192 1.90007 20.1886 1.96244 20.2491L2.65319 20.9202L3.35883 21.6056C3.4114 21.6567 3.47003 21.7011 3.53341 21.7379L4.71845 22.426C4.79124 22.4683 4.86962 22.5001 4.95128 22.5205L4.99828 22.5323C5.33287 22.6159 5.68579 22.5003 5.90603 22.2349L8.56546 19.0299C8.84234 18.6963 8.84088 18.2123 8.562 17.8803L5.57286 14.3218C5.0827 13.7383 5.49755 12.848 6.25963 12.848H7.64332C7.90584 12.848 8.15518 12.963 8.32559 13.1627L10.2411 15.4074C10.6004 15.8286 11.2517 15.8268 11.6088 15.4037Z" fill="white" stroke="white" stroke-width="0.0896904"/>
<path d="M10.0651 21.3249L4.2023 28.2718C4.20032 28.2742 4.19788 28.2761 4.19514 28.2775C4.17383 28.2881 4.18141 28.3202 4.20523 28.3202H14.963C15.0221 28.3202 15.081 28.3144 15.1389 28.3028L15.5003 28.2305L16.323 27.9837C16.3724 27.9689 16.4204 27.9499 16.4664 27.9268L17.5865 27.3668C17.6307 27.3447 17.6729 27.319 17.7129 27.29L18.5825 26.6575C18.6204 26.6299 18.6561 26.5995 18.6892 26.5663L19.357 25.8986L20.0624 25.0271C20.1003 24.9804 20.1333 24.9299 20.1611 24.8766L20.6696 23.8986C20.6914 23.8567 20.7098 23.8132 20.7248 23.7684L21.0388 22.8262C21.0537 22.7817 21.065 22.7362 21.0727 22.69L21.2283 21.7563C21.2364 21.7076 21.2405 21.6583 21.2405 21.6089V20.6068L21.1176 19.4192C21.1099 19.3442 21.0927 19.2706 21.0665 19.2L20.6817 18.1608C20.6656 18.1173 20.6461 18.0752 20.6235 18.0348L19.8694 16.6852C19.827 16.6093 19.7738 16.54 19.7114 16.4794L19.0206 15.8084L18.315 15.1229C18.2624 15.0719 18.2038 15.0274 18.1404 14.9906L16.9554 14.3025C16.8826 14.2603 16.8042 14.2285 16.7225 14.208L16.6755 14.1963C16.341 14.1126 15.988 14.2283 15.7678 14.4937L13.1084 17.6986C12.8315 18.0323 12.8329 18.5163 13.1118 18.8483L16.101 22.4068C16.5911 22.9903 16.1763 23.8805 15.4142 23.8805H14.0305C13.768 23.8805 13.5186 23.7655 13.3482 23.5658L11.4327 21.3211C11.0734 20.9 10.4221 20.9018 10.0651 21.3249Z" fill="white" stroke="white" stroke-width="0.0896904"/>
<path d="M27.6914 28.3202C27.0126 28.3202 26.4298 28.0802 25.943 27.6002C25.463 27.1134 25.223 26.5306 25.223 25.8518C25.223 25.1799 25.463 24.604 25.943 24.124C26.4298 23.644 27.0126 23.4041 27.6914 23.4041C28.3496 23.4041 28.9255 23.644 29.4192 24.124C29.9129 24.604 30.1597 25.1799 30.1597 25.8518C30.1597 26.3044 30.0431 26.7192 29.81 27.0963C29.5838 27.4665 29.2855 27.7648 28.9152 27.9911C28.545 28.2105 28.137 28.3202 27.6914 28.3202Z" fill="white"/>
<path d="M44.3437 15.048C45.0001 14.0247 45.84 13.291 46.8633 12.8469C47.8867 12.3835 48.9389 12.1518 50.0202 12.1518C50.9663 12.1518 51.7965 12.3449 52.5109 12.7311C53.2253 13.1172 53.8142 13.6386 54.2776 14.295C54.7603 14.9322 55.1175 15.6852 55.3492 16.554C55.6002 17.4036 55.7257 18.3014 55.7257 19.2475V26.8645H52.8874V19.2475C52.8874 18.5717 52.8102 17.9635 52.6557 17.4229C52.5013 16.863 52.2599 16.3899 51.9317 16.0038C51.6227 15.5983 51.2269 15.2894 50.7442 15.077C50.2808 14.8646 49.7499 14.7584 49.1513 14.7584C48.7845 14.7584 48.2921 14.855 47.6743 15.048C47.0757 15.2218 46.4868 15.5597 45.9076 16.0617C45.3284 16.5444 44.836 17.2202 44.4306 18.089C44.0251 18.9579 43.8224 20.0777 43.8224 21.4486V26.8645H40.9841V6.59117H43.8224V14.9032C43.8224 15.2315 43.7934 15.5983 43.7355 16.0038C43.6775 16.3899 43.61 16.7375 43.5327 17.0464L43.5907 17.0754C43.6679 16.7471 43.7644 16.3996 43.8803 16.0327C44.0154 15.6466 44.1699 15.3183 44.3437 15.048ZM73.489 19.624C73.489 20.879 73.267 21.9699 72.8229 22.8967C72.3981 23.8235 71.8189 24.5958 71.0852 25.2136C70.3515 25.8315 69.5019 26.2949 68.5365 26.6038C67.5711 26.8934 66.5478 27.0382 65.4666 27.0382C64.4047 27.0382 63.3813 26.8934 62.3966 26.6038C61.4312 26.2949 60.5817 25.8315 59.848 25.2136C59.1336 24.5958 58.5544 23.8235 58.1103 22.8967C57.6855 21.9699 57.4731 20.879 57.4731 19.624C57.4731 18.369 57.6855 17.2781 58.1103 16.3513C58.5544 15.4245 59.1336 14.6522 59.848 14.0344C60.5817 13.4165 61.4312 12.9628 62.3966 12.6732C63.3813 12.3642 64.4047 12.2098 65.4666 12.2098C66.5478 12.2098 67.5711 12.3642 68.5365 12.6732C69.5019 12.9821 70.3515 13.4455 71.0852 14.0633C71.8189 14.6619 72.3981 15.4245 72.8229 16.3513C73.267 17.2781 73.489 18.369 73.489 19.624ZM70.6508 19.624C70.6508 18.8131 70.5059 18.0987 70.2163 17.4808C69.946 16.8437 69.5695 16.3127 69.0868 15.8879C68.6041 15.4632 68.0442 15.1446 67.407 14.9322C66.7892 14.7198 66.1424 14.6136 65.4666 14.6136C64.7908 14.6136 64.144 14.7198 63.5261 14.9322C62.9083 15.1446 62.358 15.4632 61.8753 15.8879C61.4119 16.3127 61.0354 16.8437 60.7458 17.4808C60.4562 18.0987 60.3114 18.8131 60.3114 19.624C60.3114 20.4736 60.4465 21.2169 60.7168 21.8541C60.9872 22.4719 61.354 22.9836 61.8174 23.389C62.2808 23.7945 62.8214 24.1034 63.4393 24.3158C64.0764 24.5089 64.7522 24.6054 65.4666 24.6054C66.1617 24.6054 66.8181 24.5089 67.436 24.3158C68.0732 24.1034 68.6234 23.7945 69.0868 23.389C69.5695 22.9643 69.946 22.443 70.2163 21.8251C70.5059 21.1879 70.6508 20.4542 70.6508 19.624ZM87.7754 15.2508C88.0071 14.7681 88.2677 14.3433 88.5573 13.9764C88.8663 13.5903 89.2041 13.2621 89.571 12.9917C89.9378 12.7214 90.3433 12.5187 90.7874 12.3835C91.2315 12.2291 91.7238 12.1518 92.2644 12.1518C93.0947 12.1518 93.7994 12.3063 94.3787 12.6152C94.9772 12.9049 95.4599 13.3393 95.8268 13.9185C96.1936 14.4784 96.4639 15.1735 96.6377 16.0038C96.8115 16.8147 96.8983 17.7415 96.8983 18.7841V26.8645H94.0601V19.3923C94.0601 17.9828 93.8187 16.9016 93.336 16.1486C92.8533 15.3956 92.1872 15.0191 91.3377 15.0191C90.9708 15.0191 90.5653 15.106 90.1213 15.2797C89.6772 15.4535 89.2621 15.7817 88.8759 16.2644C88.4898 16.7278 88.1615 17.3746 87.8912 18.2049C87.6209 19.0158 87.4857 20.0681 87.4857 21.3617V26.8645H84.6475V19.3923C84.6475 17.867 84.4351 16.7568 84.0103 16.0617C83.5855 15.3666 82.9291 15.0191 82.0409 15.0191C81.7127 15.0191 81.3169 15.106 80.8535 15.2797C80.4094 15.4535 79.975 15.7721 79.5502 16.2355C79.1447 16.6989 78.7972 17.3457 78.5076 18.1759C78.2179 19.0062 78.0731 20.0681 78.0731 21.3617V26.8645H75.2349V12.3835H78.0731V14.9032C78.0731 15.2315 78.0442 15.5983 77.9863 16.0038C77.9283 16.3899 77.8704 16.7471 77.8125 17.0754H77.8704C77.9283 16.7471 78.0152 16.3996 78.1311 16.0327C78.2469 15.6466 78.3821 15.299 78.5365 14.9901C79.0385 14.0054 79.666 13.291 80.419 12.8469C81.1914 12.3835 82.0119 12.1518 82.8808 12.1518C83.5373 12.1518 84.0972 12.2387 84.5606 12.4125C85.0433 12.5863 85.4488 12.818 85.777 13.1076C86.1052 13.3779 86.3755 13.6965 86.5879 14.0633C86.8003 14.4302 86.9741 14.8067 87.1092 15.1928C87.2058 15.5211 87.254 15.8203 87.254 16.0907C87.2734 16.3417 87.283 16.5347 87.283 16.6699C87.283 16.9209 87.2734 17.1526 87.254 17.365H87.312C87.3313 17.0367 87.3699 16.6795 87.4278 16.2934C87.505 15.9072 87.6209 15.5597 87.7754 15.2508ZM114.264 19.624C114.264 19.8364 114.264 19.9812 114.264 20.0584C114.264 20.1164 114.245 20.2419 114.206 20.4349H101.405C101.502 21.1493 101.685 21.7768 101.956 22.3175C102.245 22.8581 102.612 23.3118 103.056 23.6787C103.5 24.0262 104.022 24.2869 104.62 24.4606C105.238 24.6344 105.904 24.7213 106.618 24.7213C107.178 24.7213 107.7 24.673 108.182 24.5765C108.684 24.4606 109.138 24.2965 109.544 24.0841C109.949 23.8524 110.326 23.5628 110.673 23.2153C111.021 22.8484 111.301 22.3947 111.513 21.8541L114.12 22.2016C113.869 23.0705 113.482 23.8138 112.961 24.4317C112.44 25.0495 111.841 25.5515 111.165 25.9377C110.509 26.3045 109.785 26.5845 108.993 26.7776C108.221 26.9514 107.41 27.0382 106.561 27.0382C105.479 27.0382 104.456 26.8934 103.491 26.6038C102.544 26.2949 101.705 25.8315 100.971 25.2136C100.256 24.5958 99.6869 23.8235 99.2621 22.8967C98.8373 21.9699 98.625 20.879 98.625 19.624C98.625 18.369 98.8373 17.2781 99.2621 16.3513C99.6869 15.4245 100.256 14.6522 100.971 14.0344C101.705 13.4165 102.544 12.9628 103.491 12.6732C104.456 12.3642 105.479 12.2098 106.561 12.2098C107.622 12.2098 108.617 12.3642 109.544 12.6732C110.49 12.9821 111.31 13.4455 112.005 14.0633C112.72 14.6619 113.27 15.4245 113.656 16.3513C114.062 17.2781 114.264 18.369 114.264 19.624ZM106.618 14.4398C105.923 14.4398 105.238 14.5653 104.562 14.8163C103.906 15.048 103.336 15.4149 102.853 15.9169C102.371 16.4189 102.004 17.0078 101.753 17.6836C101.502 18.3593 101.376 19.0641 101.376 19.7978C101.376 20.0102 101.386 20.2225 101.405 20.4349C101.463 19.9715 101.55 19.6337 101.666 19.4213C101.801 19.1896 101.965 19.0062 102.158 18.871C102.371 18.7165 102.622 18.62 102.911 18.5814C103.22 18.5428 103.558 18.5235 103.925 18.5235H111.542C111.387 17.8091 111.175 17.2009 110.905 16.6989C110.634 16.1969 110.297 15.7817 109.891 15.4535C109.486 15.1253 109.003 14.8839 108.443 14.7295C107.883 14.5557 107.275 14.4591 106.618 14.4398Z" fill="white"/>
</svg>
