<svg width="25" height="25" viewBox="0 0 25 25" fill="none" xmlns="http://www.w3.org/2000/svg">
<path d="M13.2716 6.88286C14.4858 7.08635 15.5887 7.65982 16.4692 8.53853C17.3497 9.41724 17.9198 10.5179 18.1283 11.7296M13.457 2.91016C15.6166 3.27551 17.5861 4.29759 19.1525 5.85615C20.7189 7.41932 21.7384 9.38486 22.1045 11.54M20.4176 20.1144C20.4176 20.1144 19.2451 21.2659 18.9578 21.6035C18.4898 22.103 17.9383 22.3389 17.2153 22.3389C17.1458 22.3389 17.0717 22.3389 17.0022 22.3343C15.6258 22.2464 14.3467 21.7099 13.3874 21.2521C10.7645 19.9849 8.46123 18.1858 6.54728 15.9058C4.967 14.005 3.91039 12.2476 3.21062 10.3607C2.77963 9.20912 2.62206 8.31191 2.69158 7.46557C2.73792 6.92447 2.94646 6.47587 3.33111 6.09201L4.91139 4.51495C5.13847 4.30221 5.37945 4.1866 5.61579 4.1866C5.90775 4.1866 6.1441 4.36234 6.2924 4.51033C6.29703 4.51495 6.30166 4.51958 6.3063 4.5242C6.58899 4.78782 6.85777 5.06068 7.14046 5.35204C7.28413 5.50004 7.43242 5.64803 7.58072 5.80065L8.84587 7.06321C9.3371 7.55344 9.3371 8.00667 8.84587 8.4969C8.71148 8.63102 8.58172 8.76513 8.44732 8.89463C8.05805 9.29236 8.36385 8.98718 7.96067 9.34792C7.9514 9.35717 7.94213 9.36179 7.9375 9.37104C7.53895 9.76877 7.6131 10.1573 7.69651 10.4209C7.70115 10.4347 7.70578 10.4486 7.71042 10.4625C8.03945 11.258 8.50287 12.0072 9.20728 12.8998L9.21192 12.9044C10.491 14.4768 11.8395 15.7024 13.3271 16.6412C13.5171 16.7615 13.7118 16.8586 13.8971 16.9511C14.064 17.0343 14.2215 17.1129 14.3559 17.1962C14.3745 17.2054 14.393 17.2193 14.4116 17.2286C14.5691 17.3072 14.7174 17.3442 14.8703 17.3442C15.255 17.3442 15.496 17.1037 15.5747 17.0251L16.4831 16.1185C16.6407 15.9613 16.8909 15.7717 17.1829 15.7717C17.4702 15.7717 17.7066 15.9521 17.8502 16.1093C17.8549 16.1139 17.8549 16.1139 17.8595 16.1185L20.413 18.6668C20.8903 19.1385 20.4176 20.1144 20.4176 20.1144Z" stroke="#181818" stroke-width="1.82144" stroke-linecap="round" stroke-linejoin="round"/>
</svg>
