<svg width="11" height="11" viewBox="0 0 11 11" fill="none" xmlns="http://www.w3.org/2000/svg">
<path d="M5.5 1C4.60999 1 3.73996 1.26392 2.99994 1.75839C2.25991 2.25285 1.68314 2.95566 1.34254 3.77792C1.00195 4.60019 0.912835 5.50499 1.08647 6.37791C1.2601 7.25082 1.68869 8.05264 2.31802 8.68198C2.94736 9.31132 3.74918 9.7399 4.62209 9.91353C5.49501 10.0872 6.39981 9.99805 7.22208 9.65746C8.04434 9.31686 8.74715 8.74009 9.24161 8.00007C9.73608 7.26004 10 6.39002 10 5.5C10 4.30653 9.52589 3.16193 8.68198 2.31802C7.83807 1.47411 6.69347 1 5.5 1Z" stroke="white" stroke-miterlimit="10"/>
<path d="M4.06836 4.12675C4.06836 4.12675 4.08984 3.67931 4.56873 3.29399C4.85279 3.06516 5.19336 2.99894 5.50018 2.99433C5.77964 2.99076 6.02918 3.03703 6.1785 3.10811C6.43418 3.22982 6.932 3.52692 6.932 4.15871C6.932 4.82348 6.49734 5.12544 6.00208 5.45757C5.50683 5.7897 5.37234 6.15021 5.37234 6.52274" stroke="white" stroke-miterlimit="10" stroke-linecap="round"/>
<path d="M5.34681 8.36355C5.62923 8.36355 5.85818 8.1346 5.85818 7.85218C5.85818 7.56977 5.62923 7.34082 5.34681 7.34082C5.06439 7.34082 4.83545 7.56977 4.83545 7.85218C4.83545 8.1346 5.06439 8.36355 5.34681 8.36355Z" fill="white"/>
</svg>
