<svg width="19" height="19" viewBox="0 0 19 19" fill="none" xmlns="http://www.w3.org/2000/svg">
<path d="M1 8.68136C1 7.46118 1.55693 6.30773 2.51247 5.54892L7.01247 1.97539C8.46911 0.818646 10.5309 0.818648 11.9875 1.97539L16.4875 5.54892C17.4431 6.30773 18 7.46118 18 8.68136V14C18 16.2091 16.2091 18 14 18H13.1842C12.6319 18 12.1842 17.5523 12.1842 17V14.6C12.1842 13.4954 11.2888 12.6 10.1842 12.6H8.81579C7.71122 12.6 6.81579 13.4954 6.81579 14.6V17C6.81579 17.5523 6.36807 18 5.81579 18H5C2.79086 18 1 16.2091 1 14L1 8.68136Z" stroke="#2B3F6C" stroke-width="1.5"/>
</svg>
