<svg width="35" height="35" viewBox="0 0 35 35" fill="none" xmlns="http://www.w3.org/2000/svg">
<path d="M17.5 0C7.85039 0 0 7.85039 0 17.5C0 27.1496 7.85039 35 17.5 35C27.1496 35 35 27.1496 35 17.5C35 7.85039 27.1496 0 17.5 0ZM25.8225 25.8225C25.5491 26.0958 25.1783 26.2493 24.7917 26.2493C24.4051 26.2493 24.0343 26.0958 23.7608 25.8225L19.8561 21.9188C18.2065 23.0539 16.1923 23.5316 14.2086 23.258C12.225 22.9845 10.4151 21.9796 9.13427 20.4404C7.8534 18.9012 7.19398 16.939 7.28541 14.9386C7.37683 12.9383 8.2125 11.0443 9.62842 9.62842C11.0443 8.2125 12.9383 7.37683 14.9386 7.28541C16.939 7.19398 18.9012 7.8534 20.4404 9.13427C21.9796 10.4151 22.9845 12.225 23.258 14.2086C23.5316 16.1923 23.0539 18.2065 21.9188 19.8561L25.8225 23.7608C26.0958 24.0343 26.2493 24.4051 26.2493 24.7917C26.2493 25.1783 26.0958 25.5491 25.8225 25.8225Z" fill="white"/>
<path d="M15.3124 20.4167C18.1314 20.4167 20.4166 18.1315 20.4166 15.3125C20.4166 12.4936 18.1314 10.2084 15.3124 10.2084C12.4935 10.2084 10.2083 12.4936 10.2083 15.3125C10.2083 18.1315 12.4935 20.4167 15.3124 20.4167Z" fill="white"/>
</svg>
