<svg width="26" height="28" viewBox="0 0 26 28" fill="none" xmlns="http://www.w3.org/2000/svg">
<path fill-rule="evenodd" clip-rule="evenodd" d="M9.64099 0.42711C10.7166 0.148023 11.8421 0 13 0C14.158 0 15.2836 0.148044 16.3592 0.427169C17.2371 0.65496 17.6903 1.43234 17.8362 2.07855C18.0089 2.84403 18.4774 3.53359 19.1916 3.95644C19.8483 4.34521 20.5907 4.43655 21.2755 4.271C21.9048 4.11885 22.7835 4.19134 23.3715 4.89506C24.4649 6.20346 25.3273 7.72196 25.8932 9.38415C26.2311 10.3765 25.7076 11.2701 25.1549 11.737C24.517 12.276 24.1129 13.0892 24.1129 14C24.1129 14.9108 24.517 15.724 25.1549 16.263C25.7076 16.7299 26.2311 17.6235 25.8932 18.6158C25.3274 20.2779 24.4651 21.7962 23.3719 23.1045C22.7838 23.8083 21.905 23.8808 21.2756 23.7286C20.5908 23.563 19.8483 23.6543 19.1915 24.0431C18.4772 24.466 18.0087 25.1557 17.836 25.9213C17.6903 26.5676 17.237 27.3451 16.359 27.5729C15.2835 27.852 14.1579 28 13 28C11.8421 28 10.7167 27.852 9.6411 27.5729C8.76315 27.3451 8.30986 26.5676 8.16408 25.9213C7.9914 25.1557 7.52291 24.466 6.80858 24.0431C6.15182 23.6543 5.40928 23.563 4.72446 23.7286C4.09507 23.8808 3.21623 23.8084 2.62813 23.1046C1.53496 21.7962 0.672615 20.2779 0.106779 18.6159C-0.231069 17.6235 0.292386 16.7299 0.845069 16.263C1.48303 15.724 1.88715 14.9108 1.88715 14C1.88715 13.0892 1.48304 12.276 0.84507 11.737C0.292387 11.2701 -0.231067 10.3765 0.106781 9.38413C0.67268 7.72193 1.53515 6.20342 2.6285 4.89501C3.21656 4.19127 4.09529 4.1188 4.72464 4.27098C5.40941 4.43655 6.15188 4.34523 6.80859 3.95644C7.52284 3.53359 7.9913 2.84401 8.16403 2.07853C8.30985 1.4323 8.76314 0.654891 9.64099 0.42711ZM13 17.907C10.8957 17.907 9.18983 16.1578 9.18983 14C9.18983 11.8422 10.8957 10.093 13 10.093C15.1042 10.093 16.8101 11.8422 16.8101 14C16.8101 16.1578 15.1042 17.907 13 17.907Z" fill="#363B53"/>
</svg>
