<svg width="60" height="60" viewBox="0 0 60 60" fill="none" xmlns="http://www.w3.org/2000/svg">
<circle cx="30" cy="30" r="30" fill="#363B53"/>
<path d="M30 13C20.6116 13 13 20.6116 13 30C13 39.3737 20.6271 47 30 47C39.3876 47 47 39.3876 47 30C47 20.6263 39.3737 13 30 13ZM38.8269 32.6154H29.0192C28.9325 32.6154 28.8494 32.5809 28.7881 32.5196C28.7268 32.4583 28.6923 32.3752 28.6923 32.2885V18.5577C28.6923 18.471 28.7268 18.3878 28.7881 18.3265C28.8494 18.2652 28.9325 18.2308 29.0192 18.2308H30.9808C31.0675 18.2308 31.1506 18.2652 31.2119 18.3265C31.2732 18.3878 31.3077 18.471 31.3077 18.5577V30H38.8269C38.9136 30 38.9968 30.0344 39.0581 30.0958C39.1194 30.1571 39.1538 30.2402 39.1538 30.3269V32.2885C39.1538 32.3752 39.1194 32.4583 39.0581 32.5196C38.9968 32.5809 38.9136 32.6154 38.8269 32.6154Z" fill="white"/>
</svg>
