<svg width="22" height="18" viewBox="0 0 22 18" fill="none" xmlns="http://www.w3.org/2000/svg">
<path d="M21.6259 2.19848C20.8317 2.54211 19.9914 2.76851 19.1316 2.87051C20.0352 2.34359 20.7148 1.50649 21.0428 0.516207C20.1884 1.01368 19.2553 1.36273 18.2834 1.54841C17.8741 1.12127 17.3819 0.781463 16.8366 0.549653C16.2914 0.317843 15.7045 0.198867 15.1116 0.199959C12.7112 0.199959 10.7687 2.10624 10.7687 4.45614C10.767 4.78301 10.8046 5.1089 10.8808 5.42685C9.15953 5.3465 7.4741 4.90925 5.93229 4.14308C4.39048 3.37691 3.02625 2.29869 1.92686 0.977404C1.54117 1.62489 1.3372 2.36365 1.33626 3.11648C1.33626 4.59231 2.10947 5.89683 3.27701 6.6611C2.58527 6.64475 1.90772 6.46244 1.30185 6.12963V6.18234C1.30185 8.24674 2.80152 9.96415 4.78638 10.3551C4.41313 10.4541 4.0285 10.5044 3.64222 10.5044C3.36812 10.5049 3.09465 10.4784 2.82578 10.4253C3.37757 12.1164 4.98354 13.3463 6.88591 13.3814C5.3401 14.5677 3.44224 15.2089 1.49064 15.2042C1.14422 15.2037 0.798128 15.1832 0.454102 15.1427C2.43948 16.4052 4.74732 17.073 7.10292 17.0666C15.1023 17.0666 19.4725 10.5791 19.4725 4.95248C19.4725 4.768 19.4677 4.58352 19.4589 4.40343C20.3071 3.80259 21.0409 3.05591 21.6259 2.19848V2.19848Z" fill="#308CF8"/>
</svg>
