<svg width="15" height="12" viewBox="0 0 15 12" fill="none" xmlns="http://www.w3.org/2000/svg">
<path d="M14.2518 1.67169C13.7512 1.89037 13.2216 2.03444 12.6797 2.09935C13.2492 1.76404 13.6775 1.23134 13.8843 0.601156C13.3458 0.91773 12.7577 1.13985 12.1451 1.25801C11.8872 0.986194 11.577 0.769956 11.2333 0.62244C10.8897 0.474924 10.5198 0.399213 10.1461 0.399907C8.63329 0.399907 7.40902 1.61299 7.40902 3.10839C7.40794 3.31639 7.43165 3.52378 7.47963 3.72611C6.39482 3.67498 5.33257 3.39673 4.36084 2.90917C3.38911 2.4216 2.5293 1.73546 1.83641 0.894645C1.59333 1.30668 1.46478 1.7768 1.46418 2.25587C1.46418 3.19504 1.9515 4.02519 2.68734 4.51154C2.25138 4.50114 1.82435 4.38512 1.4425 4.17333V4.20687C1.4425 5.52059 2.38767 6.61348 3.63863 6.86225C3.40339 6.9253 3.16098 6.95725 2.91752 6.95728C2.74477 6.95759 2.57241 6.94073 2.40296 6.90697C2.75073 7.98309 3.76289 8.76573 4.96186 8.78809C3.98761 9.54304 2.79148 9.95107 1.56148 9.94807C1.34315 9.94775 1.12503 9.93468 0.908203 9.90894C2.15949 10.7123 3.61401 11.1373 5.09864 11.1332C10.1403 11.1332 12.8946 7.0048 12.8946 3.42424C12.8946 3.30684 12.8916 3.18945 12.886 3.07485C13.4206 2.69249 13.8831 2.21733 14.2518 1.67169V1.67169Z" fill="#363B53"/>
</svg>
