<svg width="14" height="14" viewBox="0 0 14 14" fill="none" xmlns="http://www.w3.org/2000/svg">
<path d="M14 7C14 10.8658 10.8658 14 7 14C3.13418 14 0 10.8658 0 7C0 3.13418 3.13418 -9.53674e-07 7 -9.53674e-07C10.8658 -9.53674e-07 14 3.13418 14 7ZM9.9087 7.59803L7.41394 4.59981C7.36341 4.53907 7.30013 4.49019 7.22859 4.45665C7.15706 4.42311 7.07901 4.40572 7 4.40572C6.92099 4.40572 6.84295 4.42311 6.77141 4.45665C6.69987 4.49019 6.63659 4.53907 6.58606 4.59981L4.0913 7.59803C4.02592 7.67666 3.98427 7.77228 3.97125 7.8737C3.95822 7.97513 3.97434 8.07817 4.01773 8.17077C4.06111 8.26337 4.12997 8.3417 4.21625 8.3966C4.30252 8.45149 4.40264 8.48069 4.5049 8.48077H9.4951C9.59736 8.48069 9.69748 8.45149 9.78375 8.3966C9.87003 8.3417 9.93889 8.26337 9.98228 8.17077C10.0257 8.07817 10.0418 7.97513 10.0288 7.8737C10.0157 7.77228 9.97408 7.67666 9.9087 7.59803Z" fill="#363B53"/>
</svg>
