<svg width="15" height="15" viewBox="0 0 11 8" fill="none" xmlns="http://www.w3.org/2000/svg">
<circle r="1.53189" transform="matrix(-1 0 0 1 5.59604 2.53189)" stroke="white" stroke-width="0.8"/>
<path d="M2.91504 6.33646C2.91504 6.00696 3.12217 5.71304 3.43247 5.60222V5.60222C4.83144 5.10259 6.36024 5.10259 7.75921 5.60222V5.60222C8.06951 5.71304 8.27664 6.00696 8.27664 6.33646V6.84026C8.27664 7.29501 7.87387 7.64434 7.42368 7.58003L7.27359 7.55858C6.16074 7.3996 5.03094 7.3996 3.91809 7.55858L3.768 7.58003C3.31781 7.64434 2.91504 7.29501 2.91504 6.84026V6.33646Z" stroke="white" stroke-width="0.8"/>
<path d="M7.89354 4.10622C8.55829 4.10622 9.09717 3.56734 9.09717 2.9026C9.09717 2.23786 8.55829 1.69897 7.89354 1.69897" stroke="white" stroke-width="0.8" stroke-linecap="round"/>
<path d="M9.21139 6.85212L9.32932 6.86897C9.68304 6.9195 9.9995 6.64503 9.9995 6.28772V5.89188C9.9995 5.63299 9.83675 5.40205 9.59295 5.31498C9.34975 5.22812 9.10156 5.16048 8.85059 5.11206" stroke="white" stroke-width="0.8" stroke-linecap="round"/>
<path d="M3.10646 4.10622C2.44171 4.10622 1.90283 3.56734 1.90283 2.9026C1.90283 2.23786 2.44171 1.69897 3.10646 1.69897" stroke="white" stroke-width="0.8" stroke-linecap="round"/>
<path d="M1.78812 6.85212L1.67019 6.86897C1.31648 6.9195 1.00001 6.64503 1.00001 6.28772V5.89188C1.00001 5.63299 1.16276 5.40205 1.40656 5.31498C1.64976 5.22812 1.89795 5.16048 2.14893 5.11206" stroke="white" stroke-width="0.8" stroke-linecap="round"/>
</svg>
