<svg width="56" height="49" viewBox="0 0 56 49" fill="none" xmlns="http://www.w3.org/2000/svg">
<path d="M33.7174 15.4062L45.7507 0.13961C45.7563 0.132567 45.7632 0.126746 45.7711 0.122513C45.8309 0.0905478 45.8081 0 45.7404 0H17.3779C16.8726 0 16.3687 0.0533457 15.8746 0.15915L15.4136 0.257862L13.8679 0.754349C13.294 0.938703 12.7379 1.17458 12.2064 1.45909L10.3851 2.43414C9.88494 2.70188 9.40849 3.01169 8.96089 3.36023L7.60857 4.41326C7.19304 4.73683 6.80371 5.09272 6.44423 5.47761L5.05759 6.96226L3.60116 8.88856C3.20831 9.40815 2.86716 9.96489 2.58259 10.5508L1.77396 12.2158C1.55498 12.6667 1.37021 13.1334 1.22121 13.612L0.701137 15.2825C0.555028 15.7518 0.44372 16.2313 0.368118 16.7169L0.118997 18.3173C0.0397841 18.8262 0 19.3404 0 19.8554V22.1761L0.246897 24.7315C0.322869 25.5178 0.491747 26.2923 0.749998 27.0389L1.32308 28.6956C1.48444 29.162 1.6801 29.6159 1.90848 30.0535L3.19024 32.5093C3.6301 33.352 4.18788 34.1278 4.84675 34.813L5.96073 35.9717L7.20128 37.262C7.77689 37.8607 8.42485 38.3853 9.13017 38.8238L11.4918 40.292C11.6968 40.4195 11.9196 40.516 12.1528 40.5784C13.107 40.8339 14.1214 40.4921 14.7265 39.7113L19.6695 33.3333C21.6982 30.7156 21.6873 27.0538 19.6431 24.4482L15.4744 19.1347C13.4464 16.5497 15.2879 12.7642 18.5735 12.7642C19.7727 12.7642 20.9066 13.3104 21.654 14.2482L22.6008 15.4362C25.45 19.0111 30.8875 18.9965 33.7174 15.4062Z" fill="#308CF8"/>
<path d="M23.929 34.5496L12.5972 47.8872C12.5922 47.893 12.5861 47.8978 12.5793 47.9012C12.5258 47.9278 12.5447 48.0083 12.6044 48.0083H39.3188C39.7326 48.0083 40.1454 47.9677 40.5513 47.8871L41.0713 47.7838L42.5086 47.3555C43.0563 47.1922 43.589 46.9824 44.1009 46.7281L45.7574 45.9054C46.2492 45.6612 46.72 45.3769 47.1651 45.0553L48.3475 44.2012C48.7704 43.8956 49.1687 43.5575 49.5389 43.1898L50.7912 41.9459L52.0738 40.3721C52.4985 39.8509 52.8696 39.2882 53.1815 38.6926L53.8135 37.4853C54.0587 37.017 54.2663 36.5299 54.4345 36.0288L54.8349 34.8356C55.002 34.3375 55.1297 33.827 55.2166 33.3089L55.4002 32.2146C55.492 31.6677 55.5381 31.1142 55.5381 30.5598V28.6985L55.3308 26.7084C55.2433 25.8681 55.0496 25.0422 54.7545 24.2506L54.3411 23.1419C54.1598 22.6558 53.941 22.1845 53.6867 21.7324L52.6393 19.8708C52.1632 19.0245 51.5664 18.2521 50.8677 17.5778L49.9435 16.6861L48.8494 15.6303C48.2624 15.0639 47.6083 14.5715 46.9018 14.164L44.7584 12.9277C44.5617 12.8143 44.3501 12.729 44.1298 12.6743C43.2267 12.45 42.2749 12.7609 41.6784 13.475L37.1436 18.9035C35.2324 21.1912 35.2425 24.5217 37.1673 26.7979L40.7118 30.9892C42.6839 33.3213 41.0263 36.894 37.9721 36.894C36.9261 36.894 35.9322 36.4375 35.2506 35.6441L34.286 34.5212C31.5584 31.3462 26.6392 31.3597 23.929 34.5496Z" fill="#308CF8"/>
</svg>
