<svg width="624" height="402" viewBox="0 0 624 402" fill="none" xmlns="http://www.w3.org/2000/svg">
<rect width="624" height="402" rx="8" fill="url(#paint0_linear_2335_1847)"/>
<path d="M325.392 171.199L380.028 106.46C380.046 106.438 380.07 106.42 380.096 106.407C380.298 106.305 380.226 106 380 106H281.201C278.309 106 275.423 106.286 272.587 106.853L270.586 107.453C266.242 108.757 262.019 110.431 257.962 112.46L257.444 112.719C253.899 114.491 250.506 116.554 247.301 118.885C244.262 121.095 241.4 123.54 238.743 126.198L235.911 129.029C231.09 134.984 226.881 141.41 223.346 148.208L223.177 148.533C223.137 148.608 223.104 148.687 223.077 148.768L221.303 154.091C220.24 157.28 219.428 160.547 218.876 163.862C218.293 167.359 218 170.898 218 174.443V179.352L218.496 184.15C219.016 189.176 220.167 194.117 221.922 198.855C223.002 201.77 224.305 204.596 225.822 207.309L226.571 208.651C229.937 214.674 234.161 220.176 239.11 224.983C244.067 229.798 249.595 233.988 255.571 237.458L259.588 239.79C259.724 239.869 259.871 239.929 260.024 239.967L261.046 240.223C264.451 241.074 268.042 239.897 270.284 237.196L294.55 207.953C297.637 204.233 297.62 198.837 294.511 195.135L268.905 164.652C263.44 158.146 268.065 148.22 276.562 148.22H285.886C288.813 148.22 291.593 149.502 293.493 151.729L310.143 171.241C314.15 175.936 321.412 175.916 325.392 171.199Z" fill="white"/>
<path d="M308.394 229.801L253.759 294.54C253.74 294.562 253.717 294.58 253.691 294.593C253.489 294.695 253.561 295 253.787 295H352.586C355.478 295 358.363 294.714 361.2 294.147L363.201 293.547C367.545 292.243 371.768 290.569 375.825 288.54L376.343 288.281C379.888 286.509 383.281 284.446 386.486 282.115C389.525 279.905 392.387 277.46 395.044 274.802L397.875 271.971C402.696 266.016 406.906 259.59 410.441 252.792L410.61 252.467C410.65 252.392 410.683 252.313 410.71 252.232L412.484 246.909C413.547 243.72 414.359 240.453 414.911 237.138C415.494 233.641 415.787 230.102 415.787 226.557V221.648L415.291 216.85C414.771 211.824 413.619 206.883 411.864 202.145C410.785 199.23 409.481 196.404 407.965 193.691L407.216 192.349C403.85 186.326 399.626 180.824 394.677 176.017C389.72 171.202 384.192 167.012 378.216 163.542L374.199 161.21C374.063 161.131 373.916 161.071 373.763 161.033L372.741 160.777C369.336 159.926 365.744 161.103 363.503 163.804L339.237 193.047C336.15 196.767 336.166 202.163 339.276 205.865L364.882 236.348C370.347 242.854 365.721 252.78 357.225 252.78H347.901C344.974 252.78 342.194 251.498 340.294 249.271L323.644 229.759C319.637 225.064 312.375 225.084 308.394 229.801Z" fill="white"/>
<defs>
<linearGradient id="paint0_linear_2335_1847" x1="624" y1="402" x2="-7.21789e-06" y2="1.12039e-05" gradientUnits="userSpaceOnUse">
<stop stop-color="#003C82"/>
<stop offset="1" stop-color="#468BDB"/>
</linearGradient>
</defs>
</svg>
